<svg width="143" height="28" viewBox="0 0 143 28" fill="none" xmlns="http://www.w3.org/2000/svg">
<g clip-path="url(#clip0_103_575)">
<path d="M17.4902 2.64746H143L136.694 13.4887L143 24.332L16.3305 24.8519L14.8577 3.40141L17.4902 2.64746Z" fill="#FBBC05"/>
<path d="M10.4944 20.788C16.2903 20.788 20.9888 16.1344 20.9888 10.394C20.9888 4.65355 16.2903 0 10.4944 0C4.6985 0 0 4.65355 0 10.394C0 16.1344 4.6985 20.788 10.4944 20.788Z" fill="#0E3EC1"/>
<path d="M10.4944 18.6133C15.0777 18.6133 18.7932 14.9334 18.7932 10.3939C18.7932 5.8545 15.0777 2.17456 10.4944 2.17456C5.9111 2.17456 2.19562 5.8545 2.19562 10.3939C2.19562 14.9334 5.9111 18.6133 10.4944 18.6133Z" fill="#D2E3FC"/>
<path d="M5.03784 19.2739V28L10.8691 24.6589L16.3305 28V19.033" fill="#0E3EC1"/>
<path d="M10.4944 5.07056L11.8281 9.13732H16.146L12.653 11.6505L13.9867 15.7172L10.4944 13.2041L7.00141 15.7172L8.33584 11.6505L4.84283 9.13732H9.15998L10.4944 5.07056Z" fill="#0E3EC1"/>
<path d="M27.6668 10.6364V17H26.7067V10.6364H27.6668ZM34.2014 10.6364V17H33.3189L30.0843 12.3329H30.0252V17H29.0651V10.6364H29.9538L33.1915 15.3097H33.2506V10.6364H34.2014ZM40.8874 12.7058H39.9179C39.8806 12.4986 39.8112 12.3163 39.7097 12.1589C39.6082 12.0015 39.4839 11.8679 39.3369 11.7581C39.1898 11.6483 39.0251 11.5654 38.8428 11.5095C38.6626 11.4536 38.471 11.4256 38.268 11.4256C37.9013 11.4256 37.573 11.5178 37.283 11.7021C36.995 11.8865 36.7672 12.1568 36.5994 12.5131C36.4337 12.8694 36.3508 13.3045 36.3508 13.8182C36.3508 14.3361 36.4337 14.7731 36.5994 15.1294C36.7672 15.4857 36.9961 15.755 37.2861 15.9373C37.5761 16.1196 37.9024 16.2108 38.2649 16.2108C38.4658 16.2108 38.6564 16.1838 38.8366 16.13C39.0189 16.074 39.1836 15.9922 39.3307 15.8845C39.4777 15.7768 39.602 15.6452 39.7035 15.4899C39.8071 15.3324 39.8786 15.1522 39.9179 14.9492L40.8874 14.9523C40.8356 15.2651 40.7351 15.5531 40.586 15.8161C40.4389 16.0771 40.2494 16.3029 40.0174 16.4935C39.7874 16.682 39.5243 16.8281 39.2281 16.9316C38.9319 17.0352 38.6087 17.087 38.2587 17.087C37.7076 17.087 37.2167 16.9565 36.7858 16.6955C36.355 16.4324 36.0152 16.0564 35.7666 15.5676C35.5201 15.0787 35.3969 14.4956 35.3969 13.8182C35.3969 13.1387 35.5212 12.5556 35.7698 12.0688C36.0183 11.5799 36.3581 11.205 36.7889 10.944C37.2198 10.6809 37.7097 10.5494 38.2587 10.5494C38.5963 10.5494 38.9112 10.598 39.2033 10.6954C39.4974 10.7907 39.7615 10.9316 39.9956 11.118C40.2297 11.3023 40.4234 11.5281 40.5767 11.7954C40.73 12.0605 40.8335 12.364 40.8874 12.7058ZM42.0363 17V10.6364H42.9964V16.1735H45.8799V17H42.0363ZM51.0675 10.6364H52.0307V14.8218C52.0307 15.2672 51.9261 15.6618 51.7169 16.0057C51.5077 16.3475 51.2135 16.6168 50.8345 16.8136C50.4554 17.0083 50.011 17.1056 49.5014 17.1056C48.9939 17.1056 48.5506 17.0083 48.1715 16.8136C47.7925 16.6168 47.4983 16.3475 47.2891 16.0057C47.0799 15.6618 46.9753 15.2672 46.9753 14.8218V10.6364H47.9354V14.7441C47.9354 15.0321 47.9986 15.2879 48.1249 15.5116C48.2534 15.7354 48.4346 15.9114 48.6687 16.0399C48.9028 16.1662 49.1804 16.2294 49.5014 16.2294C49.8246 16.2294 50.1032 16.1662 50.3373 16.0399C50.5734 15.9114 50.7537 15.7354 50.878 15.5116C51.0043 15.2879 51.0675 15.0321 51.0675 14.7441V10.6364ZM55.4868 17H53.4267V10.6364H55.552C56.1755 10.6364 56.711 10.7638 57.1585 11.0186C57.6059 11.2713 57.9487 11.6348 58.187 12.1092C58.4273 12.5815 58.5474 13.1481 58.5474 13.8089C58.5474 14.4717 58.4262 15.0414 58.1839 15.5178C57.9436 15.9943 57.5956 16.3609 57.1398 16.6178C56.6841 16.8726 56.1331 17 55.4868 17ZM54.3868 16.161H55.4339C55.9187 16.161 56.3216 16.0699 56.6427 15.8876C56.9637 15.7032 57.204 15.4371 57.3635 15.089C57.5231 14.739 57.6028 14.3122 57.6028 13.8089C57.6028 13.3096 57.5231 12.886 57.3635 12.538C57.2061 12.19 56.971 11.9259 56.6582 11.7456C56.3454 11.5654 55.957 11.4753 55.493 11.4753H54.3868V16.161ZM59.7414 17V10.6364H63.7311V11.4629H60.7015V13.4018H63.5229V14.2252H60.7015V16.1735H63.7684V17H59.7414ZM68.4844 12.3081C68.4512 12.0139 68.3145 11.786 68.0742 11.6245C67.8339 11.4608 67.5315 11.379 67.1669 11.379C66.9059 11.379 66.6801 11.4204 66.4895 11.5033C66.2989 11.5841 66.1508 11.6959 66.0452 11.8389C65.9416 11.9797 65.8898 12.1403 65.8898 12.3205C65.8898 12.4717 65.925 12.6022 65.9955 12.712C66.068 12.8218 66.1622 12.914 66.2782 12.9885C66.3963 13.061 66.5227 13.1222 66.6573 13.1719C66.792 13.2195 66.9214 13.2589 67.0457 13.29L67.6672 13.4515C67.8702 13.5012 68.0784 13.5686 68.2917 13.6535C68.5051 13.7384 68.7029 13.8503 68.8852 13.9891C69.0675 14.1279 69.2146 14.2998 69.3264 14.5049C69.4404 14.71 69.4973 14.9554 69.4973 15.2413C69.4973 15.6017 69.4041 15.9218 69.2177 16.2014C69.0333 16.4811 68.7651 16.7017 68.4129 16.8633C68.0628 17.0249 67.6392 17.1056 67.142 17.1056C66.6656 17.1056 66.2534 17.03 65.9054 16.8788C65.5574 16.7276 65.2849 16.5132 65.0882 16.2356C64.8914 15.956 64.7826 15.6245 64.7619 15.2413H65.7251C65.7438 15.4712 65.8184 15.6628 65.9489 15.8161C66.0814 15.9674 66.2503 16.0803 66.4553 16.1548C66.6625 16.2273 66.8893 16.2636 67.1358 16.2636C67.4072 16.2636 67.6485 16.2211 67.8598 16.1362C68.0732 16.0492 68.241 15.929 68.3632 15.7757C68.4854 15.6204 68.5465 15.4391 68.5465 15.232C68.5465 15.0435 68.4927 14.8891 68.3849 14.769C68.2793 14.6489 68.1353 14.5494 67.953 14.4707C67.7728 14.392 67.5688 14.3226 67.3409 14.2625L66.589 14.0574C66.0794 13.9186 65.6754 13.7146 65.3771 13.4453C65.0809 13.176 64.9328 12.8197 64.9328 12.3764C64.9328 12.0098 65.0322 11.6897 65.2311 11.4163C65.43 11.1428 65.6992 10.9305 66.039 10.7793C66.3787 10.626 66.7619 10.5494 67.1887 10.5494C67.6195 10.5494 67.9996 10.625 68.329 10.7762C68.6605 10.9274 68.9215 11.1356 69.112 11.4007C69.3026 11.6638 69.402 11.9663 69.4103 12.3081H68.4844ZM78.2458 12.7058H77.2763C77.239 12.4986 77.1696 12.3163 77.0681 12.1589C76.9666 12.0015 76.8423 11.8679 76.6953 11.7581C76.5482 11.6483 76.3835 11.5654 76.2012 11.5095C76.021 11.4536 75.8294 11.4256 75.6264 11.4256C75.2597 11.4256 74.9314 11.5178 74.6414 11.7021C74.3534 11.8865 74.1256 12.1568 73.9578 12.5131C73.7921 12.8694 73.7092 13.3045 73.7092 13.8182C73.7092 14.3361 73.7921 14.7731 73.9578 15.1294C74.1256 15.4857 74.3545 15.755 74.6445 15.9373C74.9345 16.1196 75.2608 16.2108 75.6233 16.2108C75.8242 16.2108 76.0148 16.1838 76.195 16.13C76.3773 16.074 76.542 15.9922 76.6891 15.8845C76.8361 15.7768 76.9604 15.6452 77.0619 15.4899C77.1655 15.3324 77.237 15.1522 77.2763 14.9492L78.2458 14.9523C78.194 15.2651 78.0935 15.5531 77.9444 15.8161C77.7973 16.0771 77.6078 16.3029 77.3758 16.4935C77.1458 16.682 76.8827 16.8281 76.5865 16.9316C76.2903 17.0352 75.9671 17.087 75.6171 17.087C75.066 17.087 74.5751 16.9565 74.1442 16.6955C73.7133 16.4324 73.3736 16.0564 73.125 15.5676C72.8785 15.0787 72.7553 14.4956 72.7553 13.8182C72.7553 13.1387 72.8796 12.5556 73.1282 12.0688C73.3767 11.5799 73.7165 11.205 74.1473 10.944C74.5782 10.6809 75.0681 10.5494 75.6171 10.5494C75.9547 10.5494 76.2696 10.598 76.5617 10.6954C76.8558 10.7907 77.1199 10.9316 77.354 11.118C77.5881 11.3023 77.7818 11.5281 77.9351 11.7954C78.0883 12.0605 78.1919 12.364 78.2458 12.7058ZM79.3947 17V10.6364H83.3844V11.4629H80.3548V13.4018H83.1762V14.2252H80.3548V16.1735H83.4217V17H79.3947ZM84.6669 17V10.6364H86.9352C87.4282 10.6364 87.8373 10.7213 88.1626 10.8912C88.4898 11.061 88.7343 11.2961 88.8959 11.5965C89.0574 11.8948 89.1382 12.2397 89.1382 12.6312C89.1382 13.0207 89.0564 13.3635 88.8928 13.6597C88.7312 13.9539 88.4867 14.1828 88.1594 14.3464C87.8342 14.5101 87.4251 14.5919 86.9321 14.5919H85.2138V13.7654H86.8451C87.1558 13.7654 87.4085 13.7208 87.6032 13.6317C87.8 13.5427 87.944 13.4132 88.0352 13.2433C88.1263 13.0735 88.1719 12.8694 88.1719 12.6312C88.1719 12.3909 88.1253 12.1827 88.032 12.0067C87.9409 11.8306 87.7969 11.6959 87.6001 11.6027C87.4054 11.5074 87.1496 11.4598 86.8327 11.4598H85.627V17H84.6669ZM87.8083 14.1289L89.3806 17H88.2868L86.7456 14.1289H87.8083ZM89.9927 11.4629V10.6364H94.9177V11.4629H92.9322V17H91.9751V11.4629H89.9927ZM96.9662 10.6364V17H96.006V10.6364H96.9662ZM98.3644 17V10.6364H102.311V11.4629H99.3246V13.4018H102.028V14.2252H99.3246V17H98.3644ZM104.452 10.6364V17H103.491V10.6364H104.452ZM111.135 12.7058H110.166C110.128 12.4986 110.059 12.3163 109.958 12.1589C109.856 12.0015 109.732 11.8679 109.585 11.7581C109.438 11.6483 109.273 11.5654 109.091 11.5095C108.91 11.4536 108.719 11.4256 108.516 11.4256C108.149 11.4256 107.821 11.5178 107.531 11.7021C107.243 11.8865 107.015 12.1568 106.847 12.5131C106.681 12.8694 106.599 13.3045 106.599 13.8182C106.599 14.3361 106.681 14.7731 106.847 15.1294C107.015 15.4857 107.244 15.755 107.534 15.9373C107.824 16.1196 108.15 16.2108 108.513 16.2108C108.714 16.2108 108.904 16.1838 109.084 16.13C109.267 16.074 109.431 15.9922 109.578 15.8845C109.726 15.7768 109.85 15.6452 109.951 15.4899C110.055 15.3324 110.126 15.1522 110.166 14.9492L111.135 14.9523C111.083 15.2651 110.983 15.5531 110.834 15.8161C110.687 16.0771 110.497 16.3029 110.265 16.4935C110.035 16.682 109.772 16.8281 109.476 16.9316C109.18 17.0352 108.857 17.087 108.506 17.087C107.955 17.087 107.464 16.9565 107.034 16.6955C106.603 16.4324 106.263 16.0564 106.014 15.5676C105.768 15.0787 105.645 14.4956 105.645 13.8182C105.645 13.1387 105.769 12.5556 106.018 12.0688C106.266 11.5799 106.606 11.205 107.037 10.944C107.468 10.6809 107.958 10.5494 108.506 10.5494C108.844 10.5494 109.159 10.598 109.451 10.6954C109.745 10.7907 110.009 10.9316 110.243 11.118C110.477 11.3023 110.671 11.5281 110.824 11.7954C110.978 12.0605 111.081 12.364 111.135 12.7058ZM112.779 17H111.76L114.05 10.6364H115.159L117.449 17H116.43L114.631 11.7923H114.581L112.779 17ZM112.95 14.508H116.256V15.3159H112.95V14.508ZM117.302 11.4629V10.6364H122.227V11.4629H120.242V17H119.285V11.4629H117.302ZM123.316 17V10.6364H127.305V11.4629H124.276V13.4018H127.097V14.2252H124.276V16.1735H127.343V17H123.316Z" fill="#0E3EC1"/>
</g>
<defs>
<clipPath id="clip0_103_575">
<rect width="143" height="28" fill="white"/>
</clipPath>
</defs>
</svg>
