<svg width="68" height="68" viewBox="0 0 68 68" fill="none" xmlns="http://www.w3.org/2000/svg">
<circle cx="33.8579" cy="34.2343" r="33.6193" fill="url(#paint0_linear_220_686)"/>
<path d="M26.9586 43.7341V40.9642L33.4305 34.9717C33.981 34.439 34.4426 33.9596 34.8155 33.5335C35.1943 33.1074 35.4813 32.6901 35.6766 32.2817C35.8719 31.8674 35.9696 31.4206 35.9696 30.9412C35.9696 30.4085 35.8483 29.9498 35.6056 29.5651C35.3629 29.1745 35.0315 28.8756 34.6113 28.6684C34.1911 28.4554 33.7146 28.3488 33.182 28.3488C32.6256 28.3488 32.1403 28.4613 31.726 28.6862C31.3117 28.9111 30.9921 29.2337 30.7672 29.6539C30.5423 30.0741 30.4298 30.5742 30.4298 31.1542H26.781C26.781 29.9646 27.0503 28.9318 27.5889 28.0559C28.1275 27.1799 28.8821 26.5022 29.8528 26.0228C30.8234 25.5434 31.942 25.3037 33.2086 25.3037C34.5107 25.3037 35.6441 25.5346 36.6088 25.9962C37.5794 26.4519 38.3341 27.0852 38.8726 27.8961C39.4112 28.7069 39.6805 29.6361 39.6805 30.6837C39.6805 31.3703 39.5444 32.0479 39.2722 32.7167C39.0058 33.3855 38.5294 34.1283 37.8428 34.9451C37.1563 35.7559 36.1886 36.7295 34.9398 37.8659L32.2853 40.4671V40.5914H39.9202V43.7341H26.9586Z" fill="white"/>
<defs>
<linearGradient id="paint0_linear_220_686" x1="33.8579" y1="0.614989" x2="100.208" y2="184.442" gradientUnits="userSpaceOnUse">
<stop stop-color="#3B82F6"/>
<stop offset="1" stop-color="#0C254E"/>
</linearGradient>
</defs>
</svg>
