<svg width="68" height="68" viewBox="0 0 68 68" fill="none" xmlns="http://www.w3.org/2000/svg">
<circle cx="33.8636" cy="34.2343" r="33.6193" fill="url(#paint0_linear_220_687)"/>
<path d="M33.818 43.9827C32.4923 43.9827 31.3115 43.7548 30.2758 43.2991C29.2459 42.8375 28.4321 42.2042 27.8344 41.3993C27.2425 40.5884 26.9377 39.6533 26.9199 38.5939H30.7907C30.8144 39.0378 30.9594 39.4284 31.2257 39.7657C31.498 40.0972 31.859 40.3546 32.3088 40.5381C32.7586 40.7216 33.2646 40.8133 33.8269 40.8133C34.4128 40.8133 34.9307 40.7097 35.3805 40.5026C35.8303 40.2954 36.1825 40.0084 36.437 39.6414C36.6915 39.2745 36.8187 38.8513 36.8187 38.3719C36.8187 37.8866 36.6826 37.4575 36.4104 37.0846C36.144 36.7058 35.7593 36.4099 35.2562 36.1968C34.7591 35.9838 34.1672 35.8772 33.4807 35.8772H31.785V33.0541H33.4807C34.0607 33.0541 34.5726 32.9535 35.0165 32.7522C35.4663 32.551 35.8155 32.2728 36.0641 31.9177C36.3127 31.5567 36.437 31.1365 36.437 30.6571C36.437 30.2013 36.3275 29.8018 36.1085 29.4586C35.8954 29.1094 35.5936 28.8371 35.203 28.6418C34.8183 28.4465 34.3685 28.3488 33.8535 28.3488C33.3327 28.3488 32.8563 28.4435 32.4242 28.6329C31.9922 28.8164 31.6459 29.0798 31.3855 29.4231C31.1251 29.7663 30.986 30.1688 30.9682 30.6304H27.2839C27.3017 29.5829 27.6006 28.6596 28.1806 27.8606C28.7606 27.0615 29.5419 26.4371 30.5243 25.9873C31.5127 25.5316 32.6284 25.3037 33.8713 25.3037C35.126 25.3037 36.2239 25.5316 37.165 25.9873C38.106 26.4431 38.837 27.0586 39.3578 27.8339C39.8846 28.6033 40.145 29.4674 40.139 30.4262C40.145 31.4442 39.8283 32.2936 39.1891 32.9742C38.5558 33.6548 37.7302 34.0869 36.7122 34.2704V34.4124C38.0498 34.584 39.0678 35.0486 39.7662 35.8062C40.4705 36.5579 40.8197 37.4989 40.8138 38.6294C40.8197 39.6651 40.5208 40.5855 39.9171 41.3904C39.3193 42.1953 38.4937 42.8286 37.4402 43.2902C36.3867 43.7519 35.1793 43.9827 33.818 43.9827Z" fill="white"/>
<defs>
<linearGradient id="paint0_linear_220_687" x1="33.8637" y1="0.614989" x2="100.214" y2="184.442" gradientUnits="userSpaceOnUse">
<stop stop-color="#3B82F6"/>
<stop offset="1" stop-color="#0C254E"/>
</linearGradient>
</defs>
</svg>
