<svg width="80" height="13" viewBox="0 0 80 13" fill="none" xmlns="http://www.w3.org/2000/svg">
<path d="M6.81087 0.824463L8.93829 4.45163L13.0695 5.34L10.2531 8.47009L10.6789 12.6463L6.81087 10.9536L2.94283 12.6463L3.36862 8.47009L0.552246 5.34L4.68344 4.45163L6.81087 0.824463Z" fill="#FFCB45"/>
<path d="M23.5006 0.824463L25.628 4.45163L29.7592 5.34L26.9428 8.47009L27.3686 12.6463L23.5006 10.9536L19.6325 12.6463L20.0583 8.47009L17.2419 5.34L21.3731 4.45163L23.5006 0.824463Z" fill="#FFCB45"/>
<path d="M40.1901 0.824463L42.3176 4.45163L46.4488 5.34L43.6324 8.47009L44.0582 12.6463L40.1901 10.9536L36.3221 12.6463L36.7479 8.47009L33.9315 5.34L38.0627 4.45163L40.1901 0.824463Z" fill="#FFCB45"/>
<path d="M56.8798 0.824463L59.0073 4.45163L63.1385 5.34L60.3221 8.47009L60.7479 12.6463L56.8798 10.9536L53.0118 12.6463L53.4376 8.47009L50.6212 5.34L54.7524 4.45163L56.8798 0.824463Z" fill="#FFCB45"/>
<path d="M73.5695 0.824463L75.697 4.45163L79.8282 5.34L77.0118 8.47009L77.4376 12.6463L73.5695 10.9536L69.7015 12.6463L70.1273 8.47009L67.3109 5.34L71.4421 4.45163L73.5695 0.824463Z" fill="#FFCB45"/>
</svg>
