<svg width="29" height="28" viewBox="0 0 29 28" fill="none" xmlns="http://www.w3.org/2000/svg">
<rect x="0.612061" width="27.4022" height="27.4022" rx="13.7011" fill="#F3F3F3"/>
<g clip-path="url(#clip0_141_810)">
<path d="M14.3156 10.9314C12.7595 10.9314 11.5044 12.1669 11.5044 13.6986C11.5044 15.2303 12.7595 16.4658 14.3156 16.4658C15.8716 16.4658 17.1268 15.2303 17.1268 13.6986C17.1268 12.1669 15.8716 10.9314 14.3156 10.9314ZM14.3156 15.4977C13.31 15.4977 12.488 14.6909 12.488 13.6986C12.488 12.7063 13.3076 11.8995 14.3156 11.8995C15.3236 11.8995 16.1432 12.7063 16.1432 13.6986C16.1432 14.6909 15.3211 15.4977 14.3156 15.4977ZM17.8974 10.8182C17.8974 11.177 17.6038 11.4636 17.2417 11.4636C16.8772 11.4636 16.586 11.1746 16.586 10.8182C16.586 10.4617 16.8796 10.1727 17.2417 10.1727C17.6038 10.1727 17.8974 10.4617 17.8974 10.8182ZM19.7593 11.4733C19.7177 10.6086 19.5171 9.84277 18.8736 9.21177C18.2326 8.58077 17.4546 8.38329 16.5763 8.33993C15.671 8.28936 12.9577 8.28936 12.0525 8.33993C11.1766 8.38088 10.3985 8.57836 9.75508 9.20936C9.11162 9.84036 8.91345 10.6062 8.86941 11.4708C8.81803 12.3619 8.81803 15.0329 8.86941 15.924C8.911 16.7886 9.11162 17.5544 9.75508 18.1854C10.3985 18.8164 11.1741 19.0139 12.0525 19.0573C12.9577 19.1079 15.671 19.1079 16.5763 19.0573C17.4546 19.0163 18.2326 18.8188 18.8736 18.1854C19.5147 17.5544 19.7153 16.7886 19.7593 15.924C19.8107 15.0329 19.8107 12.3644 19.7593 11.4733ZM18.5898 16.8801C18.399 17.3521 18.0296 17.7158 17.5476 17.9061C16.8258 18.1878 15.1132 18.1228 14.3156 18.1228C13.518 18.1228 11.8029 18.1854 11.0836 17.9061C10.6041 17.7182 10.2346 17.3545 10.0413 16.8801C9.75508 16.1696 9.82114 14.4837 9.82114 13.6986C9.82114 12.9135 9.75753 11.2252 10.0413 10.5171C10.2322 10.0451 10.6016 9.68141 11.0836 9.49115C11.8054 9.20936 13.518 9.27439 14.3156 9.27439C15.1132 9.27439 16.8283 9.21177 17.5476 9.49115C18.0271 9.679 18.3965 10.0427 18.5898 10.5171C18.8761 11.2276 18.81 12.9135 18.81 13.6986C18.81 14.4837 18.8761 16.172 18.5898 16.8801Z" fill="black"/>
</g>
<defs>
<clipPath id="clip0_141_810">
<rect width="10.9609" height="12.331" fill="white" transform="translate(8.8327 7.53564)"/>
</clipPath>
</defs>
</svg>
