<svg width="29" height="28" viewBox="0 0 29 28" fill="none" xmlns="http://www.w3.org/2000/svg">
<rect x="0.60498" width="27.4022" height="27.4022" rx="13.7011" fill="#F3F3F3"/>
<rect x="0.60498" width="27.4022" height="27.4022" rx="13.7011" fill="#F3F3F3"/>
<g clip-path="url(#clip0_141_813)">
<path d="M21.7522 9.87657C21.5765 9.22478 21.0589 8.71146 20.4017 8.53725C19.2105 8.2207 14.434 8.2207 14.434 8.2207C14.434 8.2207 9.65742 8.2207 8.4662 8.53725C7.80902 8.71149 7.29142 9.22478 7.11575 9.87657C6.79657 11.058 6.79657 13.5228 6.79657 13.5228C6.79657 13.5228 6.79657 15.9877 7.11575 17.1691C7.29142 17.8209 7.80902 18.3128 8.4662 18.4871C9.65742 18.8036 14.434 18.8036 14.434 18.8036C14.434 18.8036 19.2105 18.8036 20.4017 18.4871C21.0589 18.3128 21.5765 17.8209 21.7522 17.1691C22.0713 15.9877 22.0713 13.5228 22.0713 13.5228C22.0713 13.5228 22.0713 11.058 21.7522 9.87657V9.87657ZM12.8718 15.7608V11.2849L16.864 13.5229L12.8718 15.7608V15.7608Z" fill="black"/>
</g>
<defs>
<clipPath id="clip0_141_813">
<rect width="15.327" height="10.5829" fill="white" transform="translate(6.77045 8.2207)"/>
</clipPath>
</defs>
</svg>
