<svg width="28" height="28" viewBox="0 0 28 28" fill="none" xmlns="http://www.w3.org/2000/svg">
<rect x="0.597839" width="27.4022" height="27.4022" rx="13.7011" fill="#F3F3F3"/>
<g clip-path="url(#clip0_141_811)">
<path d="M10.8285 18.8397H8.3323V10.8358H10.8285V18.8397ZM9.57907 9.74404C8.78086 9.74404 8.13342 9.08575 8.13342 8.29098C8.13342 7.90922 8.28573 7.5431 8.55684 7.27316C8.82795 7.00321 9.19566 6.85156 9.57907 6.85156C9.96248 6.85156 10.3302 7.00321 10.6013 7.27316C10.8724 7.5431 11.0247 7.90922 11.0247 8.29098C11.0247 9.08575 10.377 9.74404 9.57907 9.74404ZM20.1711 18.8397H17.6802V14.9435C17.6802 14.0149 17.6614 12.8241 16.3824 12.8241C15.0846 12.8241 14.8857 13.833 14.8857 14.8766V18.8397H12.3922V10.8358H14.7862V11.9276H14.8212C15.1544 11.2988 15.9685 10.6351 17.183 10.6351C19.7093 10.6351 20.1738 12.2916 20.1738 14.4431V18.8397H20.1711Z" fill="black"/>
</g>
<defs>
<clipPath id="clip0_141_811">
<rect width="12.0403" height="13.7011" fill="white" transform="translate(8.13342 6.85059)"/>
</clipPath>
</defs>
</svg>
