<svg width="13" height="14" viewBox="0 0 13 14" fill="none" xmlns="http://www.w3.org/2000/svg">
<path d="M3.46554 6.71298H4.74615V7.9936H3.46554V6.71298ZM12.4299 3.51143V12.4758C12.4299 13.1801 11.8536 13.7564 11.1493 13.7564H2.18492C1.47417 13.7564 0.904297 13.1801 0.904297 12.4758L0.9107 3.51143C0.9107 2.80709 1.47417 2.23081 2.18492 2.23081H2.82523V0.950195H4.10584V2.23081H9.22832V0.950195H10.5089V2.23081H11.1493C11.8536 2.23081 12.4299 2.80709 12.4299 3.51143ZM2.18492 4.79205H11.1493V3.51143H2.18492V4.79205ZM11.1493 12.4758V6.07267H2.18492V12.4758H11.1493ZM8.58801 7.9936H9.86863V6.71298H8.58801V7.9936ZM6.02677 7.9936H7.30739V6.71298H6.02677V7.9936Z" fill="url(#paint0_linear_113_1792)"/>
<defs>
<linearGradient id="paint0_linear_113_1792" x1="6.66708" y1="0.950195" x2="10.9922" y2="24.1609" gradientUnits="userSpaceOnUse">
<stop stop-color="#E44233"/>
<stop offset="1" stop-color="#ED7027"/>
</linearGradient>
</defs>
</svg>
