<svg width="18" height="18" viewBox="0 0 18 18" fill="none" xmlns="http://www.w3.org/2000/svg">
<path d="M6.78906 12C3.47535 12 0.789062 9.31371 0.789062 6C0.789062 2.68629 3.47535 0 6.78906 0C10.1028 0 12.7891 2.68629 12.7891 6C12.7854 9.3122 10.1013 11.9964 6.78906 12ZM6.78906 1.2C4.1381 1.2 1.98906 3.34903 1.98906 6C1.98906 8.65097 4.1381 10.8 6.78906 10.8C9.44003 10.8 11.5891 8.65097 11.5891 6C11.5861 3.35027 9.4388 1.20298 6.78906 1.2ZM9.78906 6.6H6.18906V3H7.38906V5.4H9.78906V6.6Z" fill="url(#paint0_linear_113_1793)"/>
<defs>
<linearGradient id="paint0_linear_113_1793" x1="6.78906" y1="0" x2="6.78906" y2="12" gradientUnits="userSpaceOnUse">
<stop stop-color="#F18720"/>
<stop offset="1" stop-color="#E33C34"/>
</linearGradient>
</defs>
</svg>
