<svg width="18" height="14" viewBox="0 0 18 14" fill="none" xmlns="http://www.w3.org/2000/svg">
<path d="M12.1677 5.44968C11.908 5.44968 11.6223 5.44968 11.3626 5.46699V2.10838C11.3626 0.809948 8.65323 0.22998 6.15159 0.22998C3.64994 0.22998 0.931885 0.809948 0.931885 2.10838C0.931885 2.16897 0.931885 2.25554 0.949197 2.31613L0.931885 8.58323C0.931885 9.87301 3.64128 10.4616 6.14293 10.4616C6.40262 10.4616 6.68827 10.4616 6.94796 10.4443V11.509C6.94796 12.7988 9.65736 13.3874 12.159 13.3874C14.6693 13.3874 17.37 12.8075 17.37 11.509V7.33674C17.3787 6.03831 14.678 5.44968 12.1677 5.44968ZM10.4278 5.55356C10.4797 5.53624 10.5316 5.51028 10.5663 5.46699V5.52759C10.5143 5.53624 10.471 5.53624 10.4278 5.55356ZM6.06502 1.11292C8.93023 1.11292 10.4797 1.86601 10.4797 2.19494C10.4797 2.52388 8.93889 3.27697 6.06502 3.27697C3.19982 3.27697 1.65035 2.52388 1.65035 2.19494C1.65035 1.86601 3.19982 1.11292 6.06502 1.11292ZM1.73691 3.3895C2.71507 3.95216 4.48094 4.20319 6.15159 4.20319C7.81358 4.20319 9.57945 3.95216 10.5663 3.3895V4.41094C10.5663 4.72256 9.02545 5.45834 6.15159 5.45834C3.28638 5.45834 1.73691 4.73122 1.73691 4.41094V3.3895ZM1.73691 5.47565C2.71507 6.03831 4.48094 6.28934 6.15159 6.28934C6.73155 6.28934 7.33749 6.24605 7.90014 6.18546C7.31152 6.47977 6.95661 6.85199 6.95661 7.32808V7.51852C6.69693 7.53583 6.41993 7.53583 6.15159 7.53583C3.28638 7.53583 1.73691 6.80871 1.73691 6.48843V5.47565ZM6.15159 9.63064C3.28638 9.63064 1.73691 8.90351 1.73691 8.59189V7.5618C2.72372 8.12445 4.48094 8.37549 6.15159 8.37549C6.41127 8.37549 6.69693 8.37549 6.95661 8.35817V9.61333C6.69693 9.63064 6.41127 9.63064 6.15159 9.63064ZM12.1677 12.5478C9.30245 12.5478 7.75299 11.8207 7.75299 11.5004V10.4789C8.7398 11.0416 10.497 11.2926 12.1677 11.2926C13.8297 11.2926 15.5955 11.0416 16.5823 10.4789V11.5004C16.5823 11.8207 15.0329 12.5478 12.1677 12.5478ZM12.1677 10.4616C9.30245 10.4616 7.75299 9.73451 7.75299 9.41423V8.3928C8.7398 8.95545 10.497 9.20648 12.1677 9.20648C13.8297 9.20648 15.5955 8.95545 16.5823 8.3928V9.41423C16.5823 9.73451 15.0329 10.4616 12.1677 10.4616ZM12.1677 8.37549C9.30245 8.37549 7.75299 7.63971 7.75299 7.32808C7.75299 7.01646 9.29379 6.28068 12.1677 6.28068C15.0329 6.28068 16.5823 7.0078 16.5823 7.32808C16.5823 7.63971 15.0329 8.37549 12.1677 8.37549Z" fill="url(#paint0_linear_113_1795)"/>
<defs>
<linearGradient id="paint0_linear_113_1795" x1="9.15098" y1="0.229981" x2="13.0351" y2="26.4265" gradientUnits="userSpaceOnUse">
<stop stop-color="#F18720"/>
<stop offset="1" stop-color="#E33C34"/>
</linearGradient>
</defs>
</svg>
