<svg width="373" height="338" viewBox="0 0 373 338" fill="none" xmlns="http://www.w3.org/2000/svg">
<mask id="mask0_553_662" style="mask-type:alpha" maskUnits="userSpaceOnUse" x="0" y="0" width="373" height="338">
<rect x="0.347168" y="0.0773926" width="371.844" height="337.559" fill="#D9D9D9"/>
</mask>
<g mask="url(#mask0_553_662)">
<path d="M38.2231 155.638C41.312 143.899 45.8674 132.574 51.8032 121.983C57.651 111.549 64.7894 101.854 73.024 93.1764C77.6564 88.2944 82.6279 83.7384 87.8854 79.5358C88.8992 78.7264 87.4638 77.3091 86.4592 78.1112C77.0313 85.6465 68.5675 94.3264 61.2532 103.922C53.8875 113.585 47.7519 124.166 43.0187 135.352C40.3038 141.767 38.0508 148.367 36.2781 155.102C35.9482 156.358 37.8932 156.895 38.2231 155.638Z" fill="#333333"/>
<path d="M246.322 318.845C226.788 329.404 204.926 335.34 182.724 336.098C164.75 336.71 146.725 334 129.757 328.036C113.77 322.416 98.7909 313.919 85.7516 303.108C72.7563 292.333 61.673 279.313 53.1506 264.75C44.5072 249.978 38.5586 233.691 35.6365 216.831C35.2625 214.676 34.9399 212.513 34.6649 210.343C34.5055 209.074 32.4871 209.058 32.6485 210.343C34.8464 227.774 40.1424 244.729 48.3532 260.274C56.3586 275.431 67.0753 289.163 79.8158 300.637C92.5783 312.13 107.328 321.334 123.269 327.739C139.764 334.368 157.469 337.888 175.243 338.181C197.622 338.55 219.963 333.771 240.198 324.209C242.612 323.068 244.993 321.857 247.342 320.586C248.482 319.967 247.464 318.226 246.322 318.845Z" fill="#333333"/>
<path d="M323.13 177.638C321.77 164.011 318.512 150.592 313.4 137.883C308.45 125.579 301.842 113.966 293.755 103.448C285.669 92.9291 276.199 83.5406 265.605 75.5475C254.94 67.4994 243.171 60.9529 230.722 56.0965C229.199 55.5032 227.666 54.9374 226.124 54.3935C224.898 53.9614 224.37 55.9061 225.589 56.3364C238.014 60.7148 249.813 66.8035 260.59 74.3755C271.261 81.8724 280.894 90.8361 289.176 100.902C297.475 110.988 304.379 122.223 309.66 134.166C315.097 146.46 318.773 159.557 320.558 172.877C322.681 188.708 322.179 204.921 319.037 220.582C318.613 222.695 318.138 224.799 317.621 226.892C317.312 228.15 319.255 228.688 319.566 227.427C323.572 211.186 324.789 194.28 323.13 177.638Z" fill="#333333"/>
<path d="M190.774 151.693C191.136 151.541 191.383 151.208 191.61 150.889C193.86 147.747 196.107 144.605 198.356 141.462L199.211 139.717C195.013 136.511 190.378 133.874 185.464 131.935L183.722 132.667C180.982 134.546 178.456 136.626 176.107 138.875C176.371 139.298 176.558 139.627 176.558 139.627C177.665 142.944 178.775 146.26 179.882 149.576L179.477 150.858C177.383 163.986 173.231 176.687 169.094 189.322C168.067 192.459 167.039 204.442 166.012 207.579L165.765 208.506C164.859 228.03 162.885 247.552 159.909 266.859L159.99 267.175C161.282 286.555 162.285 305.934 163.578 325.314C163.616 325.898 163.667 326.515 164.008 326.989C164.267 327.348 164.663 327.581 165.05 327.801C169.321 330.223 172.954 332.245 177.601 333.833L177.988 332.556C176.454 309.386 175.297 289.291 178.606 265.661C181.467 245.225 187.583 225.54 194.228 205.959L194.144 205.699C192.375 187.826 191.053 169.91 190.177 151.971L190.193 151.788C190.395 151.794 190.591 151.772 190.774 151.693Z" fill="#2A5BAD"/>
<path d="M216.695 34.2204L215.925 30.884C215.421 25.178 212.199 20.0031 208.145 15.9506C204.092 11.8982 199.214 8.79251 194.496 5.53848C194.496 5.53848 190.162 3.62672 188.983 3.49304C187.805 3.35937 184.718 2.94185 184.718 2.94185C180.023 2.05189 175.152 1.58494 170.481 2.59942C162.388 4.35736 155.953 10.252 148.848 14.504C148.507 14.7073 148.159 14.9105 147.805 15.101L143.51 21.6859C139.635 26.2474 138.175 32.4698 138.296 38.4505C138.417 44.4312 139.979 50.28 141.528 56.0574C141.528 56.0574 141.706 57.5333 141.979 59.6008C142.263 59.6081 142.547 59.6154 142.83 59.6264C143.697 59.6575 144.564 59.6996 145.429 59.7619C146.712 59.8553 148.188 60.1263 149.013 61.0144C149.213 59.7308 149.42 58.3482 149.623 56.9071C150.491 50.7543 153.768 42.3015 159.095 40.6113C159.095 40.6113 161.361 36.9434 163.867 36.5424C166.373 36.1414 169.502 35.3613 169.502 35.3613C174.379 31.5652 181.818 31.503 186.756 35.2203C190.688 38.1795 193.235 43.2501 197.986 44.5429C199.156 44.8615 200.338 44.9128 201.519 44.7846L203.781 49.0275C204.12 50.8312 204.763 52.6129 205.915 54.0431C207.066 55.4733 208.772 56.5189 210.607 56.6049H210.857L212.362 61.0346C213.099 58.9782 214.125 56.6525 216.316 56.3834C216.422 56.3705 216.53 56.3632 216.642 56.3596L216.571 55.2517C217.37 48.2803 216.068 41.2101 216.695 34.2204Z" fill="#A68478"/>
<path d="M144.927 66.1417C144.364 66.2131 143.799 66.2625 143.235 66.2973C143.136 66.3028 143.037 66.3083 142.938 66.3138C143.107 67.3924 143.279 68.4233 143.446 69.3261C143.532 69.3518 143.618 69.3811 143.702 69.4104C143.726 68.8079 143.75 68.1487 143.776 67.4547C144.942 68.0095 147.803 69.317 147.803 68.8171C147.803 68.5021 148.04 67.0683 148.386 64.9441C148.377 64.9514 148.37 64.9587 148.362 64.9642C147.396 65.7169 146.144 65.9879 144.927 66.1417Z" fill="#A68478"/>
<path d="M84.4617 104.496L84.2968 104.685C84.4049 104.633 84.5076 104.586 84.6011 104.542L84.4617 104.496Z" fill="#8EC3EF"/>
<path d="M91.7723 116.899C90.8118 116.274 89.8457 115.615 88.9071 114.956C89.3727 115.917 89.6862 116.595 89.6862 116.595C90.3791 116.705 91.0757 116.805 91.7723 116.899Z" fill="#8EC3EF"/>
<path d="M309.62 266.081C309.732 263.605 309.828 261.413 309.828 261.189C309.828 260.867 308.781 251.609 307.945 244.271C301.655 247.659 294.994 251.098 286.994 255.046L273.071 262.154L260.429 268.609L255.98 270.882C256.365 271.385 256.669 271.94 256.911 272.526C257.221 272.583 257.414 272.625 257.414 272.625C258.409 273.16 259.377 273.744 260.317 274.37C262.622 275.903 264.752 277.698 266.636 279.725C267.822 281.001 268.928 282.398 269.56 284.023C270.371 286.106 270.345 288.414 270.165 290.642C269.78 295.416 268.723 300.168 266.669 304.495C264.614 308.822 261.529 312.712 257.544 315.373C256.29 316.209 254.853 316.936 253.383 317.085C262.86 316.618 269.802 310.886 278.381 306.524C285.287 303.014 292.721 300.49 299.204 296.253C305.688 292.014 311.323 285.53 311.987 277.818C312.335 273.762 311.294 269.825 309.62 266.081Z" fill="#8EC3EF"/>
<path d="M252.701 317.107C252.642 317.105 252.583 317.103 252.525 317.099C252.547 317.107 252.559 317.112 252.559 317.112C252.607 317.11 252.653 317.107 252.701 317.107Z" fill="#8EC3EF"/>
<path d="M163.519 130.656L164.956 122.581C164.628 122.326 164.314 122.052 164.023 121.751C162.582 120.266 161.202 118.12 162.509 116.08L162.734 115.844C162.721 115.544 162.71 115.243 162.698 114.943L162.223 114.961C161.246 113.639 155.816 120.616 149.783 128.261L148.745 128.065C139.371 128.058 132.676 128.818 123.349 129.761L120.388 129.448C118.744 129.243 117.101 129.994 115.846 131.07C114.588 132.147 113.646 133.533 112.669 134.87C106.319 143.561 98.0895 150.671 89.9356 157.701C88.381 159.042 86.8265 160.382 85.272 161.723C85.1198 161.679 84.9695 161.635 84.8174 161.589C93.2371 148.41 101.543 135.152 108.949 121.385C109.556 120.257 110.166 119.098 110.361 117.833C110.555 116.567 110.262 115.152 109.301 114.304L108.953 114.203C108.438 114.923 107.941 115.648 107.461 116.373C107.461 116.373 107.138 116.857 106.537 117.505C106.704 117.496 106.87 117.49 107.037 117.481L108.825 117.1C108.825 117.1 100.878 123.507 99.0024 124.132C97.1271 124.756 87.5726 127.879 84.3242 127.41C81.0759 126.941 75.5177 112.982 75.5177 112.982L76.207 111.319C78.2033 108.79 80.1996 106.261 82.1978 103.732L81.4297 103.474C78.2931 102.48 75.437 105.494 73.5415 108.18C58.1631 129.955 44.0899 152.735 32.9882 176.965C30.9186 181.481 28.9516 186.048 27.3439 190.747C26.6876 192.662 26.0845 194.686 26.4108 196.684C26.6876 198.379 27.6116 199.898 28.6455 201.269C33.7178 207.999 42.0257 212.176 50.4583 212.236C53.7837 212.26 57.0834 211.683 60.3391 210.996C75.7157 207.753 94.8283 200.967 109.484 195.298C110.249 214.346 112.421 233.474 113.07 252.537L113.184 253.152L112.641 255.491C110.654 261.772 107.976 267.837 104.671 273.537L104.491 274.464C103.765 273.775 103.052 273.072 102.357 272.352C101.006 273.162 100.557 274.87 100.227 276.408C99.3489 280.49 98.4708 284.572 97.5927 288.654C97.4644 289.251 97.336 289.871 97.4772 290.466C97.611 291.027 97.9703 291.501 98.3223 291.957C99.0574 292.913 99.7925 293.869 100.529 294.825L100.495 294.999C97.9777 307.848 92.6835 326.202 87.9704 338.42H144.016C150.822 315.202 156.164 291.203 159.917 266.861C162.892 247.554 164.866 228.032 165.772 208.508C166.648 189.623 166.525 170.736 165.347 152.045C164.89 144.883 164.283 137.749 163.519 130.656Z" fill="#8EC3EF"/>
<path d="M252.03 317.039C251.967 317.028 251.905 317.021 251.845 317.008C250.752 316.777 249.779 316.153 248.928 315.428C246.354 313.23 244.725 309.963 244.517 306.588C244.517 306.588 244.58 306.303 244.692 305.784C244.31 305.535 243.641 305.12 243.392 305.12C243.291 305.12 242.908 304.797 242.411 304.338L241.945 304.721C241.04 305.852 239.309 305.953 237.967 305.36C237.555 305.766 237.275 306.023 237.275 306.023C236.065 307.455 234.024 308.062 232.178 307.72C231.962 307.68 231.748 307.627 231.539 307.563L230.846 308.548C230.211 309.595 228.921 310.113 227.696 310.104C226.47 310.095 225.293 309.639 224.189 309.108C223.058 308.566 221.936 307.914 221.178 306.916L217.958 304.059C216.547 300.829 212.917 298.672 212.428 295.182C212.332 294.499 212.367 293.805 212.433 293.116L212.369 293.149L190.751 303.505L188.681 303.961C187.825 304.149 187.37 302.994 188.124 302.549C196.061 297.857 205.308 291.875 213.086 286.923C213.113 286.667 213.141 286.412 213.167 286.156C213.387 284.068 213.614 281.959 214.314 279.979C215.016 278 216.25 276.136 218.068 275.083C218.068 275.083 222.499 268.76 224.554 269.01C224.857 268.626 225.189 268.267 225.561 267.947C226.884 266.804 228.373 265.94 229.999 266.586L230.391 266.692C231.355 265.947 232.327 265.214 233.313 264.498C233.597 264.293 233.894 264.083 234.239 264.02C234.825 263.916 235.396 264.264 235.834 264.667C237.423 266.132 237.957 268.582 237.262 270.611C237.374 270.737 237.485 270.862 237.597 270.986C243.78 266.672 251.531 261.12 257.845 256.487L257.733 255.961C256.411 249.587 256.352 240.669 257.122 230.55L257.302 230.7C259.337 237.272 262.503 245.322 265.186 251.658L265.568 252.165C279.392 247.139 293.261 242.238 307.171 237.461C307.023 236.164 306.933 235.375 306.933 235.375C306.203 230.447 305.358 225.536 304.348 220.656C299.412 196.774 290.647 173.875 281.919 151.1C280.893 148.423 279.269 145.288 276.4 145.174L272.385 143.242C257.119 138.776 242.442 132.31 228.846 124.061L228.27 123.769C228.024 122.092 227.65 120.44 227.055 118.853C224.508 112.066 216.961 105.26 211.11 100.975L211.04 101.059C210.793 100.907 210.64 100.847 210.551 100.836C210.371 100.812 210.424 100.977 210.424 100.977C210.545 101.105 210.668 101.235 210.789 101.363C215.018 105.875 218.849 110.898 219.354 117.053C219.594 119.997 218.906 122.929 218.222 125.802C216.092 134.76 213.962 143.72 211.546 152.603C211.09 154.279 210.626 155.953 210.147 157.623C205.489 173.902 199.682 189.896 194.232 205.961C187.588 225.542 181.473 245.227 178.61 265.663C175.301 289.293 176.456 309.388 177.992 332.558C178.12 334.49 178.25 336.444 178.38 338.422C178.397 338.676 178.413 338.929 178.432 339.185H254.58C253.67 328.488 253.377 328.458 251.879 317.826L252.03 317.039Z" fill="#8EC3EF"/>
<path d="M263.595 252.876L260.955 254.189C259.971 254.919 258.926 255.69 257.841 256.487C251.527 261.12 243.775 266.672 237.594 270.986C237.942 271.375 238.288 271.752 238.604 272.087C239.128 271.825 239.685 271.633 240.261 271.525C241.854 271.23 243.489 271.516 245.109 271.527C246.728 271.538 248.492 271.197 249.548 269.97C249.548 269.97 251.812 267.359 253.227 269.023C253.229 269.025 253.229 269.027 253.23 269.027C254.244 269.281 255.197 269.911 255.865 270.73C255.905 270.779 255.942 270.829 255.98 270.88L260.429 268.608L273.071 262.153L286.994 255.044C294.994 251.096 301.655 247.659 307.945 244.269C317.804 238.959 326.753 233.767 338.526 226.915C328.049 230.358 317.597 233.874 307.168 237.455C293.256 242.233 279.388 247.135 265.564 252.16C264.908 252.402 264.251 252.636 263.595 252.876Z" fill="white"/>
<path d="M90.7257 112.319C90.4874 112.775 84.6799 115.035 84.8156 115.569C84.9512 116.104 89.7156 122.883 90.3389 122.824C90.9622 122.766 97.8677 116.523 97.6899 116.373C97.5121 116.223 93.03 111.645 93.03 111.645L90.7257 112.319Z" fill="#FDEEE7"/>
<path d="M213.082 286.925C205.304 291.876 196.058 297.859 188.12 302.55C187.367 302.995 187.821 304.151 188.677 303.962L190.747 303.506L212.365 293.151L212.43 293.118C212.448 292.927 212.468 292.737 212.486 292.547C212.684 290.671 212.884 288.798 213.082 286.925Z" fill="white"/>
<path d="M215.925 78.8411C219.955 74.547 220.131 68.2568 219.605 62.668C219.43 60.3974 219.605 57.603 217.157 56.3797C216.979 56.3614 216.809 56.3559 216.644 56.3614C216.532 56.3651 216.424 56.3706 216.318 56.3852C214.127 56.6526 213.1 58.9782 212.364 61.0365L210.858 56.6068H210.609C208.774 56.5207 207.068 55.4751 205.916 54.045C204.765 52.6148 204.122 50.8331 203.782 49.0293L201.52 44.7865C200.34 44.9146 199.156 44.8634 197.988 44.5447C193.236 43.2519 190.69 38.1813 186.758 35.2221C181.819 31.5048 174.38 31.5671 169.504 35.3631C169.504 35.3631 166.375 36.1432 163.869 36.5443C161.363 36.9453 159.097 40.6132 159.097 40.6132C153.77 42.3034 150.494 50.7561 149.625 56.9089C149.422 58.3501 149.215 59.7326 149.015 61.0163C148.192 60.1282 146.716 59.8572 145.431 59.7638C144.566 59.7015 143.699 59.6594 142.832 59.6283C142.547 59.6191 142.265 59.61 141.981 59.6026C139.301 59.5349 136.615 59.5862 133.933 59.6393L129.36 59.5715C127.838 59.5349 126.317 59.5825 124.835 59.9103C122.705 60.3809 120.626 61.5034 119.482 63.3584L119.184 63.9572C117.323 64.0964 115.466 64.2795 113.615 64.5102C112.034 64.708 110.108 65.2537 109.813 66.8157L109.805 66.8303C108.047 66.7223 106.285 66.6527 104.524 66.6216C103.439 66.6033 102.295 66.6124 101.354 67.1545C100.445 67.6782 99.8694 68.6194 99.358 69.5368C96.2801 75.067 94.1976 81.1503 93.2407 87.4056L93.0134 90.8885C93.1344 92.5787 92.6009 94.2653 91.7833 95.7522C90.9657 97.2373 89.8732 98.5502 88.7861 99.8541C87.5432 101.346 86.2985 102.837 85.0556 104.329C85.0556 104.329 84.8705 104.419 84.601 104.547C84.5093 104.591 84.4067 104.639 84.2967 104.69C84.2967 104.69 84.1885 107.139 85.5652 108.904C86.4781 110.074 87.9887 113.07 88.9053 114.96C89.8457 115.619 90.8117 116.278 91.7705 116.902C96.6595 117.553 101.607 117.756 106.533 117.51C107.134 116.862 107.457 116.379 107.457 116.379C107.939 115.655 108.436 114.928 108.949 114.209C112.229 109.622 116.23 105.342 121.627 104.057C122.467 103.857 123.336 103.731 124.119 103.366C124.96 102.974 125.651 102.328 126.318 101.683C128.573 99.5061 130.744 97.2025 132.366 94.5216C133.988 91.8408 135.039 88.7405 134.89 85.6129L136.289 82.5163C136.863 80.5075 138.551 79.0133 140.327 77.9109C141.554 77.1491 142.865 76.5137 144.091 75.7574C144.241 75.9186 144.333 76.0174 144.333 76.0174C145.185 77.8926 146.164 79.7109 147.262 81.4542C147.985 82.5987 149.136 83.8641 150.439 83.4924C150.439 83.4924 150.655 83.6682 150.978 83.9117C152.806 91.806 156.769 99.1985 162.294 105.132C162.426 108.404 162.558 111.676 162.692 114.947C162.705 115.247 162.716 115.547 162.729 115.848L162.503 116.084C161.198 118.124 162.577 120.27 164.017 121.755C164.309 122.055 164.622 122.33 164.951 122.585C166.247 123.586 167.794 124.268 169.317 124.901C173.559 126.665 177.872 128.249 182.186 129.833C183.097 130.168 184.043 130.506 185.011 130.437C185.893 130.373 186.71 129.975 187.498 129.578C193.289 126.659 198.888 123.346 204.16 119.572C206.05 118.221 207.929 116.774 209.243 114.859C210.558 112.943 211.238 110.464 210.51 108.259L209.999 107.258C209.99 104.245 210.043 102.165 210.122 100.466C210.31 96.4206 210.642 94.5308 210.62 87.3617L210.42 87.4349C211.108 85.2723 211.672 83.0675 212.123 80.839L215.925 78.8411ZM143.447 69.3244C142.63 69.0827 141.757 69.0186 140.903 69.0809C139.462 69.1834 138.049 69.6247 136.806 70.359L136.238 70.2766C136.338 68.3685 136.434 66.1693 136.434 66.1693C138.599 66.3011 140.775 66.422 142.938 66.3121C143.037 66.3066 143.136 66.3011 143.235 66.2956C143.799 66.2608 144.364 66.2114 144.927 66.14C146.144 65.9862 147.396 65.7152 148.364 64.9625C148.373 64.9552 148.381 64.9479 148.388 64.9424C148.043 67.0666 147.805 68.5004 147.805 68.8154C147.805 69.3171 144.943 68.0078 143.777 67.4529C143.752 68.147 143.726 68.8044 143.704 69.4087C143.62 69.3794 143.534 69.3501 143.447 69.3244Z" fill="#FDEEE7"/>
<path d="M266.631 288.743C266.574 287.879 266.29 287.046 265.945 286.251C264.317 282.495 261.392 279.477 258.528 276.551C258.528 276.551 258.244 276.218 257.738 275.786C257.733 275.749 257.727 275.711 257.722 275.674C257.557 274.605 257.322 273.522 256.911 272.526C256.669 271.94 256.365 271.385 255.98 270.882C255.942 270.832 255.905 270.781 255.865 270.732C255.197 269.913 254.246 269.283 253.23 269.029C253.228 269.027 253.228 269.025 253.227 269.025C251.811 267.36 249.547 269.972 249.547 269.972C248.492 271.199 246.728 271.539 245.109 271.528C243.491 271.517 241.854 271.233 240.261 271.526C239.683 271.633 239.126 271.827 238.603 272.089C238.288 271.753 237.942 271.376 237.593 270.988C237.482 270.863 237.37 270.739 237.258 270.613C237.953 268.584 237.419 266.134 235.83 264.669C235.392 264.266 234.822 263.918 234.235 264.022C233.89 264.084 233.593 264.293 233.309 264.5C232.323 265.216 231.351 265.949 230.387 266.694L229.995 266.588C228.369 265.941 226.88 266.806 225.557 267.948C225.185 268.271 224.853 268.629 224.55 269.012C222.497 268.761 218.065 275.084 218.065 275.084C216.246 276.137 215.012 278.001 214.31 279.981C213.608 281.961 213.383 284.07 213.163 286.158C213.135 286.414 213.108 286.669 213.082 286.925C212.884 288.798 212.686 290.673 212.488 292.547C212.468 292.737 212.448 292.928 212.431 293.118C212.367 293.808 212.331 294.501 212.426 295.184C212.915 298.674 216.545 300.831 217.957 304.061L221.176 306.918C221.935 307.916 223.056 308.568 224.187 309.11C225.293 309.639 226.47 310.097 227.694 310.106C228.921 310.115 230.209 309.597 230.844 308.549L231.537 307.564C231.747 307.628 231.96 307.681 232.176 307.722C234.021 308.064 236.063 307.456 237.273 306.024C237.273 306.024 237.555 305.768 237.966 305.361C239.309 305.955 241.038 305.856 241.944 304.722L242.409 304.34C242.904 304.799 243.287 305.121 243.39 305.121C243.639 305.121 244.31 305.537 244.69 305.786C244.853 305.892 244.965 305.971 244.965 305.971C246.789 308.372 250.277 309.11 253.157 308.214C256.82 307.075 259.393 303.832 261.434 300.587C262.961 298.159 264.326 295.632 265.52 293.025C266.141 291.668 266.726 290.228 266.631 288.743Z" fill="#FDEEE7"/>
<path d="M177.603 333.619C172.956 332.035 169.321 330.013 165.051 327.593C164.667 327.375 164.271 327.143 164.01 326.782C163.669 326.309 163.618 325.692 163.579 325.108C162.287 305.747 161.284 286.385 159.992 267.023L159.911 266.707C156.161 291.028 150.817 315.004 144.01 338.2H178.379C178.248 336.225 178.116 334.272 177.99 332.342L177.603 333.619Z" fill="#E6EFFE"/>
<path d="M210.785 101.36C210.664 101.23 210.543 101.102 210.42 100.974C210.42 100.974 210.366 100.811 210.547 100.833C210.406 100.707 210.267 100.583 210.127 100.462C210.048 102.16 209.995 104.238 210.004 107.248L210.516 108.248C211.244 110.451 210.563 112.93 209.249 114.842C207.935 116.754 206.054 118.199 204.166 119.551C198.894 123.322 193.295 126.631 187.504 129.548C186.716 129.945 185.898 130.342 185.016 130.406C184.049 130.475 183.103 130.137 182.192 129.802C177.878 128.219 173.565 126.637 169.323 124.875C167.798 124.242 166.25 123.561 164.956 122.561L163.519 130.629C164.283 137.715 164.89 144.842 165.341 151.996C166.52 170.67 166.643 189.539 165.766 208.407L166.014 207.481C167.04 204.347 168.069 192.375 169.095 189.241C173.233 176.617 177.385 163.93 179.478 150.812L179.884 149.531C178.776 146.218 177.667 142.905 176.56 139.592C176.56 139.592 176.373 139.262 176.109 138.84C178.457 136.591 180.985 134.515 183.724 132.638L185.466 131.906C190.38 133.843 195.015 136.478 199.213 139.681L198.358 141.425C196.109 144.564 193.861 147.704 191.612 150.843C191.385 151.162 191.137 151.494 190.776 151.646C190.593 151.723 190.395 151.745 190.195 151.74L190.179 151.923C191.055 169.845 192.377 187.745 194.146 205.601L194.23 205.86C199.682 189.81 205.487 173.829 210.146 157.567C210.624 155.898 211.088 154.226 211.544 152.552C213.96 143.677 216.09 134.723 218.221 125.775C218.904 122.905 219.592 119.976 219.352 117.034C218.846 110.887 215.014 105.868 210.785 101.36Z" fill="#E6EFFE"/>
<path d="M269.558 283.853C268.928 282.23 267.821 280.836 266.634 279.559C264.752 277.534 262.622 275.741 260.316 274.21C259.375 273.584 258.405 273.002 257.412 272.466C257.412 272.466 257.219 272.424 256.91 272.367C257.32 273.362 257.557 274.444 257.72 275.512C257.725 275.549 257.731 275.587 257.736 275.624C258.244 276.056 258.526 276.388 258.526 276.388C261.39 279.312 264.316 282.327 265.943 286.079C266.288 286.873 266.572 287.706 266.629 288.569C266.726 290.055 266.14 291.493 265.52 292.845C264.327 295.45 262.961 297.977 261.434 300.401C259.393 303.643 256.82 306.883 253.157 308.021C250.277 308.915 246.789 308.178 244.965 305.78C244.965 305.78 244.853 305.703 244.69 305.595C244.576 306.113 244.516 306.398 244.516 306.398C244.723 309.772 246.352 313.034 248.926 315.229C249.775 315.954 250.748 316.577 251.843 316.808C251.905 316.821 251.967 316.828 252.028 316.839C252.193 316.867 252.358 316.889 252.523 316.898C252.581 316.901 252.64 316.903 252.699 316.905C252.926 316.912 253.153 316.903 253.379 316.881C254.849 316.733 256.286 316.009 257.54 315.171C261.525 312.512 264.611 308.625 266.666 304.303C268.721 299.98 269.777 295.231 270.162 290.463C270.343 288.24 270.369 285.935 269.558 283.853Z" fill="#E6EFFE"/>
<path d="M106.535 117.491C101.609 117.736 96.6614 117.533 91.7724 116.884C91.0758 116.79 90.3792 116.69 89.6862 116.578C89.6862 116.578 89.3746 115.903 88.9072 114.941C87.9906 113.053 86.48 110.06 85.5671 108.89C84.1886 107.127 84.2986 104.681 84.2986 104.681L84.4636 104.492L87.0593 101.512C86.4342 101.357 85.7999 101.238 85.162 101.159C84.8669 101.122 84.5515 101.097 84.2876 101.234C84.0933 101.335 83.9521 101.512 83.8164 101.682C83.2757 102.366 82.7367 103.049 82.1959 103.733C80.1996 106.26 78.2033 108.786 76.2051 111.313L75.5159 112.974C75.5159 112.974 81.074 126.922 84.3224 127.389C87.5708 127.857 97.1252 124.738 99.0006 124.114C100.876 123.49 108.823 117.089 108.823 117.089L107.035 117.469C106.869 117.476 106.702 117.484 106.535 117.491Z" fill="#E6EFFE"/>
<path d="M110.306 77.0208C109.459 77.4236 108.555 77.6031 107.62 77.6049C106.22 77.6067 106.216 79.7804 107.62 79.7804C108.951 79.7785 110.207 79.4709 111.404 78.8996C112.671 78.2971 111.567 76.422 110.306 77.0208Z" fill="#333333"/>
<path d="M113.422 99.6965C114.608 93.6609 113.73 87.4348 110.901 81.9687C110.258 80.7253 108.377 81.824 109.021 83.0674C111.567 87.986 112.39 93.6828 111.321 99.1178C111.054 100.486 113.153 101.072 113.422 99.6965Z" fill="#333333"/>
<path d="M79.0961 171.501C77.5489 179.377 74.4948 186.854 70.0806 193.56C69.3088 194.734 71.1933 195.823 71.9614 194.659C76.4673 187.814 79.6167 180.121 81.1969 172.082C81.4645 170.712 79.3656 170.128 79.0961 171.501Z" fill="#333333"/>
<path d="M120.384 128.362C117.239 128.091 114.791 130.257 113.004 132.588C111.037 135.154 109.142 137.734 106.988 140.151C102.654 145.011 97.8274 149.404 92.9236 153.68C91.6038 154.83 90.2802 155.975 88.9548 157.117C95.6532 146.559 102.218 135.912 108.245 124.954C109.934 121.885 113.178 117.274 110.458 113.965C112.951 110.583 115.908 107.408 119.794 105.787C121.046 105.265 122.366 105.082 123.655 104.692C125.026 104.276 126.075 103.429 127.09 102.451C129.284 100.341 131.391 98.0888 133.031 95.5123C134.91 92.5604 136.098 89.1361 135.981 85.611C135.933 84.2157 133.756 84.2083 133.803 85.611C134.016 91.9341 129.662 97.0322 125.327 101.127C124.256 102.139 123.242 102.583 121.814 102.897C120.544 103.178 119.327 103.593 118.152 104.152C115.833 105.254 113.789 106.91 112.014 108.748C109.935 110.9 108.174 113.343 106.517 115.826C106.379 116.033 106.326 116.238 106.333 116.426C101.065 116.666 95.7852 116.414 90.5699 115.633C90.5442 115.383 90.4929 115.132 90.4067 114.879C90.1317 114.075 89.5873 113.383 89.1198 112.685C88.6634 112 85.9429 107.84 85.459 105.384C85.5855 105.326 85.7101 105.232 85.8238 105.095C87.7046 102.837 89.6789 100.63 91.4314 98.2701C93.0281 96.1203 94.227 93.617 94.1005 90.8849C94.0364 89.4913 91.8567 89.4822 91.9227 90.8849C92.0401 93.3936 90.7972 95.5691 89.305 97.4955C88.5497 98.4715 87.7633 99.4237 86.9695 100.37C85.8861 100.101 84.5589 99.7753 83.6075 100.392C83.0777 100.737 82.7166 101.328 82.3316 101.817C82.1611 102.033 81.9925 102.247 81.822 102.463C81.7871 102.451 81.7523 102.438 81.7157 102.429C78.7313 101.594 76.0952 103.434 74.2015 105.584C71.987 108.098 70.1905 111.048 68.295 113.804C64.2382 119.699 60.2878 125.668 56.4729 131.724C48.8506 143.825 41.7673 156.273 35.4942 169.128C32.3228 175.625 29.2431 182.212 26.7958 189.02C25.6317 192.261 24.5208 195.6 25.969 198.94C27.1624 201.696 29.4062 204.131 31.6482 206.089C36.1395 210.008 41.7636 212.492 47.6884 213.161C54.3465 213.913 61.175 212.057 67.5801 210.414C80.4728 207.107 93.0813 202.686 105.519 197.977C106.5 197.605 107.479 197.228 108.458 196.852C108.913 207.217 109.759 217.567 110.528 227.911C111.136 236.113 111.693 244.32 111.978 252.541C112.025 253.936 114.203 253.943 114.155 252.541C113.653 238.032 112.293 223.575 111.327 209.094C110.366 194.69 109.794 180.21 110.922 165.799C111.539 157.914 112.348 149.714 114.984 142.211C115.45 140.887 113.345 140.318 112.883 141.633C110.537 148.306 109.704 155.524 109.028 162.53C108.328 169.767 108.082 177.042 108.126 184.31C108.146 187.733 108.232 191.154 108.363 194.571C96.8851 198.993 85.2812 203.148 73.4572 206.554C67.4371 208.288 61.2648 210.03 55.0412 210.85C48.9295 211.654 42.8543 210.67 37.4795 207.59C34.9699 206.153 32.7041 204.331 30.7793 202.172C28.706 199.846 26.9406 197.228 27.5566 193.979C28.1982 190.593 29.7252 187.251 31.0396 184.082C32.3998 180.802 33.8792 177.572 35.3934 174.36C41.177 162.087 47.7159 150.177 54.7773 138.593C58.3428 132.744 62.0421 126.978 65.8496 121.283C67.7194 118.486 69.6149 115.707 71.5324 112.943C73.2922 110.407 74.9549 107.388 77.4462 105.481C78.3041 104.824 79.261 104.377 80.2931 104.403C78.9201 106.142 77.547 107.882 76.174 109.622C75.833 108.68 74.295 108.43 74.1282 109.605C73.6461 112.989 75.3106 116.271 76.8248 119.204C77.5965 120.699 78.4526 122.147 79.3857 123.544C80.2455 124.832 81.1492 126.214 82.2216 127.34C82.1758 127.393 82.1336 127.454 82.0951 127.522C78.6653 133.533 75.0631 139.448 71.2959 145.255C70.5315 146.432 72.416 147.525 73.1768 146.354C76.9439 140.545 80.5443 134.632 83.9759 128.62C84.0218 128.54 84.0566 128.459 84.0804 128.38C84.8155 128.534 85.6075 128.507 86.4104 128.465C87.9429 128.386 89.4718 128.194 90.9786 127.906C94.0015 127.329 96.9364 126.306 99.6862 124.929C102.819 123.361 105.686 121.279 108.172 118.816C108.696 118.296 108.518 117.624 108.086 117.249C108.201 117.172 108.309 117.065 108.401 116.93C108.63 116.587 108.863 116.241 109.099 115.897C109.646 117.155 109.098 118.712 108.498 119.915C107.633 121.649 106.661 123.337 105.723 125.033C103.78 128.536 101.782 132.01 99.7449 135.46C95.7009 142.307 91.4974 149.058 87.239 155.773C84.8192 159.588 82.3829 163.391 79.9448 167.194C79.1877 168.377 81.0704 169.469 81.8256 168.293C82.931 166.568 84.0364 164.845 85.14 163.118C85.3032 163.08 85.4663 163.001 85.6185 162.869C95.1473 154.654 105.098 146.636 112.762 136.568C114.667 134.064 116.713 130.228 120.39 130.547C121.781 130.658 121.774 128.483 120.384 128.362ZM92.887 125.223C90.3535 125.921 87.4516 126.536 84.8082 126.317C83.5433 126.212 82.6212 124.385 81.954 123.443C81.1162 122.261 80.3371 121.037 79.6167 119.781C78.8119 118.373 78.0805 116.921 77.4334 115.432C77.0264 114.494 76.6029 113.491 76.3646 112.46C76.5773 112.434 76.7899 112.321 76.9732 112.09C78.4801 110.182 79.9851 108.274 81.492 106.368C82.0951 105.602 82.7001 104.839 83.3032 104.073C83.2738 104.205 83.2482 104.337 83.2317 104.472C83.0025 106.448 84.0841 108.483 85.0007 110.165C85.481 111.048 86.0089 111.903 86.5552 112.746C87.1125 113.604 87.8604 114.469 88.2766 115.405C88.7019 116.36 88.0474 117.609 87.6826 118.514C87.2482 119.591 86.7037 120.618 86.1024 121.61C85.3765 122.812 87.2573 123.907 87.9832 122.709C88.9182 121.164 89.7193 119.501 90.2619 117.774C95.1931 118.499 100.166 118.801 105.147 118.648C101.617 121.722 97.4167 123.978 92.887 125.223Z" fill="#333333"/>
<path d="M99.7467 283.777C100.185 281.735 100.625 279.695 101.063 277.655C101.32 276.463 101.49 274.872 102.298 273.852C106.507 278.069 111.27 281.715 116.443 284.678C117.66 285.376 118.76 283.497 117.543 282.799C113.241 280.336 109.252 277.403 105.629 274.041C108.96 268.261 111.66 262.136 113.684 255.78C114.11 254.443 112.009 253.87 111.583 255.201C109.668 261.217 107.129 266.996 104.009 272.484C103.71 272.187 103.413 271.887 103.118 271.583C102.799 271.254 102.192 271.151 101.798 271.413C100.427 272.321 99.754 273.738 99.3581 275.295C98.8374 277.335 98.458 279.419 98.0144 281.477C97.5487 283.645 97.0794 285.813 96.6157 287.981C96.4122 288.937 96.1739 289.926 96.4617 290.891C96.7165 291.746 97.3159 292.429 97.8494 293.122C98.3535 293.777 98.8576 294.431 99.3599 295.086C97.0611 306.656 93.8237 318.088 90.0804 329.269C89.085 332.243 88.0383 335.202 86.9109 338.13C86.4086 339.438 88.5131 340.004 89.0117 338.709C93.294 327.579 96.6835 316.055 99.4992 304.475C100.073 302.115 100.616 299.745 101.112 297.366C102.718 299.454 104.324 301.54 105.928 303.627C106.9 304.891 108.185 307.194 110.018 305.755C110.643 305.264 111.103 304.488 111.56 303.847C112.15 303.019 112.707 302.168 113.228 301.296C115.448 297.579 117.026 293.486 117.902 289.247C118.185 287.881 116.086 287.297 115.802 288.668C115.145 291.842 114.11 294.924 112.65 297.822C111.939 299.234 111.14 300.602 110.256 301.913C110.036 302.241 109.809 302.565 109.578 302.886C109.409 303.118 108.916 303.548 108.872 303.825C108.867 303.856 108.856 303.884 108.847 303.909C108.724 303.75 108.572 303.521 108.52 303.453C108.201 303.043 107.886 302.629 107.569 302.217C105.351 299.333 103.133 296.451 100.914 293.567C100.361 292.845 99.7999 292.129 99.2499 291.404C98.6615 290.626 98.4048 290.129 98.5918 289.12C98.9309 287.333 99.3636 285.557 99.7467 283.777Z" fill="#333333"/>
<path d="M177.651 290.714C177.858 282.753 178.511 274.843 179.579 266.987C186.923 247.166 196.168 228.235 205.515 209.302C208.248 203.769 210.98 198.233 213.713 192.699C214.331 191.448 212.453 190.344 211.832 191.6C202.27 210.965 192.323 230.187 183.935 250.1C183.011 252.295 182.105 254.498 181.218 256.71C182.111 251.845 183.159 247.001 184.368 242.185C188.289 226.532 193.532 211.254 198.787 196.01C204.136 180.494 209.436 164.969 213.608 149.089C215.782 140.816 217.883 132.495 219.718 124.141C220.536 120.422 220.815 116.714 219.669 113.029C218.994 110.859 217.953 108.849 216.712 106.963C217.445 107.638 218.164 108.327 218.862 109.037C221.432 111.643 223.837 114.522 225.436 117.836C227.231 121.557 227.493 125.765 227.671 129.825C227.869 134.343 227.92 138.864 227.955 143.385C227.96 144.03 227.99 144.68 227.969 145.322C227.949 145.925 227.704 146.018 227.201 146.335C226.151 146.994 225.115 147.675 224.089 148.371C222.232 149.628 220.389 150.902 218.494 152.1C217.793 151.671 217.091 151.243 216.391 150.814C215.192 150.082 214.096 151.962 215.291 152.693C221.583 156.535 227.872 160.377 234.164 164.218C226.085 171.117 219.029 179.159 213.222 188.055C212.453 189.231 214.338 190.322 215.102 189.154C221.068 180.014 228.391 171.823 236.783 164.843C237.339 164.38 237.115 163.471 236.563 163.134C231.229 159.877 225.896 156.621 220.562 153.363C222.017 152.415 223.449 151.429 224.888 150.453C225.856 149.796 226.829 149.146 227.815 148.52C228.653 147.987 229.656 147.524 229.993 146.513C230.296 145.606 230.142 144.519 230.134 143.579C230.125 142.288 230.114 140.995 230.098 139.704C230.068 137.251 230.024 134.797 229.944 132.343C229.872 130.188 229.821 127.979 229.619 125.795C239.874 131.887 250.712 136.987 261.947 141.001C265.295 142.197 268.677 143.292 272.088 144.291C273.436 144.687 274.011 142.588 272.668 142.193C260.844 138.721 249.384 134.075 238.501 128.298C235.414 126.659 232.378 124.93 229.388 123.121C229.35 123.097 229.309 123.077 229.271 123.059C229.014 121.526 228.646 120.019 228.1 118.565C226.734 114.936 224.356 111.766 221.757 108.926C218.723 105.613 215.271 102.694 211.654 100.037C211.53 99.9455 211.405 99.8869 211.282 99.8576C211.469 95.6935 211.722 91.5348 211.713 87.3597C211.713 87.2462 211.696 87.1436 211.671 87.0484C212.224 85.219 212.694 83.3622 213.086 81.4907C219.592 80.4067 220.897 71.1921 220.925 65.8816C220.934 64.0468 220.827 62.2046 220.508 60.3954C220.255 58.9689 219.883 57.3831 218.855 56.2972C218.494 55.9163 218.072 55.638 217.619 55.4622C217.638 55.3981 217.652 55.3303 217.66 55.2571C218.424 48.2564 217.19 41.232 217.784 34.224C217.902 32.8286 215.724 32.8378 215.607 34.224C215.013 41.2301 216.246 48.2564 215.482 55.2571C215.478 55.2974 215.475 55.3358 215.475 55.3743C215.332 55.4146 215.187 55.464 215.046 55.5226C214.492 55.7552 214.034 56.0921 213.641 56.4913C213.612 56.4858 213.583 56.4821 213.555 56.4785C213.242 56.1635 212.76 55.995 212.25 56.2166C212.045 56.3063 211.841 56.3979 211.638 56.4895C211.563 56.0134 211.218 55.5665 210.607 55.5208C207.115 55.2552 205.429 51.7613 204.829 48.7399C204.558 47.3683 202.459 47.9488 202.729 49.3185C203.464 53.034 205.656 56.636 209.432 57.5149C207.805 58.306 206.208 59.1557 204.644 60.0676C203.707 58.0185 201.715 56.7532 199.517 56.2716C196.87 55.6911 193.938 55.7204 191.244 55.8778C186.694 56.1415 180.182 57.7035 179.381 63.0598C179.363 63.177 179.35 63.2942 179.337 63.4114C177.385 62.2632 174.941 62.4042 173.048 63.5945C172.534 62.6935 171.825 61.9135 170.874 61.3385C168.577 59.9523 165.678 59.6043 163.046 59.738C159.95 59.8955 156.722 60.5565 153.787 61.5454C152.661 61.9244 151.592 62.45 150.689 63.1404C150.764 62.6478 150.731 62.1222 150.558 61.5692C149.741 58.9469 146.569 58.729 144.282 58.6045C140.833 58.4159 137.38 58.4855 133.93 58.5532C133.647 58.5587 133.424 58.6521 133.255 58.7968C131.849 58.3902 130.177 58.4873 128.801 58.4763C124.92 58.4433 120.786 59.3589 118.537 62.8107C118.513 62.8474 118.493 62.8822 118.474 62.9188C116.498 63.0561 114.484 63.199 112.553 63.5853C111.169 63.8618 109.778 64.4881 109.089 65.704C108.478 65.6692 107.869 65.6399 107.259 65.6143C104.379 65.4971 101.204 65.0723 99.2609 67.6506C98.238 69.0093 97.4993 70.6446 96.777 72.1755C96.0511 73.7192 95.3911 75.2958 94.8063 76.8981C93.5983 80.2107 92.7294 83.6351 92.1849 87.118C91.9704 88.4877 94.0694 89.0774 94.2857 87.6966C95.1216 82.3587 96.7238 77.1508 99.1271 72.3073C99.6771 71.1994 100.218 70.0018 100.955 69.0038C101.782 67.885 102.88 67.7055 104.192 67.7073C107.105 67.711 110.029 67.8996 112.929 68.1542C114.295 68.2732 115.659 68.416 117.019 68.5827C117.692 68.6651 118.396 68.7054 119.052 68.8793C119.842 69.0899 120.003 69.6338 120.161 70.3717C120.716 72.9793 120.779 75.7554 120.604 78.407C120.427 81.108 119.913 83.8017 119.061 86.3727C118.762 87.2736 118.322 88.4309 117.169 88.2478C115.939 88.0519 115.367 86.8195 115.173 85.7208C114.933 84.3602 115.169 82.9593 115.18 81.5896C115.191 80.2986 115.008 79.0168 114.533 77.8119C113.618 75.4881 111.91 73.5543 109.664 72.4373C108.414 71.8147 107.309 73.6917 108.564 74.3161C110.867 75.4606 112.575 77.6434 112.936 80.2181C113.327 83.0015 112.229 85.9991 113.957 88.5207C115.318 90.5039 118.324 91.2308 120.018 89.233C120.359 88.832 120.617 88.3687 120.83 87.8798C122.617 89.6633 126.13 90.2365 127.686 88.202C128.489 87.1528 128.986 85.7428 129.387 84.4023C129.732 84.7319 130.159 84.992 130.656 85.1531C132.238 85.6659 133.88 84.8327 134.953 83.6882C135.11 83.5197 135.259 83.3439 135.4 83.1644C135.884 83.7394 137.039 83.7596 137.339 82.8074C138.084 80.4433 140.346 79.112 142.388 77.9767C142.782 77.7569 143.24 77.5262 143.719 77.2735C144.487 78.8794 145.33 80.4726 146.331 81.9339C147.218 83.2304 148.397 84.3199 149.961 84.2906C151.814 92.1849 155.748 99.5939 161.226 105.58C161.336 108.301 161.446 111.022 161.556 113.742C160.788 113.928 160.001 114.568 159.517 114.996C157.88 116.45 156.48 118.191 155.092 119.874C153.123 122.26 151.207 124.689 149.294 127.119C149.143 127.031 148.96 126.978 148.742 126.978C140.234 126.979 131.801 127.818 123.345 128.673C121.965 128.812 121.95 130.99 123.345 130.849C131.45 130.028 139.536 129.226 147.684 129.158C146.115 131.145 144.538 133.123 142.921 135.071C140.874 137.54 138.784 139.999 136.458 142.213C135.917 142.728 136.12 143.535 136.678 143.922C139.686 146.004 142.951 147.657 146.397 148.875C142.465 153.801 138.551 158.74 134.658 163.697C134.344 164.098 134.238 164.548 134.487 165.015C139.585 174.557 142.26 185.098 144.839 195.534C147.633 206.843 150.423 218.154 153.215 229.466C154.786 235.831 156.357 242.196 157.928 248.563C158.263 249.922 160.364 249.347 160.029 247.985C157.2 236.527 154.371 225.069 151.543 213.611C148.852 202.712 146.459 191.677 143.196 180.93C141.492 175.312 139.427 169.793 136.713 164.581C142.366 157.384 148.063 150.223 153.801 143.094C154.672 142.013 153.14 140.464 152.261 141.556C150.782 143.394 149.305 145.235 147.829 147.079C147.805 147.069 147.781 147.058 147.757 147.051C144.643 146.016 141.697 144.595 138.945 142.828C146.619 135.212 152.28 125.793 159.662 117.919C160.003 117.554 160.351 117.195 160.712 116.853C160.854 116.719 160.998 116.587 161.145 116.459C160.806 117.466 160.848 118.448 161.156 119.374C161.117 119.501 161.105 119.645 161.127 119.81C162.982 133.954 164.194 148.179 164.795 162.431C165.398 176.748 165.389 191.089 164.808 205.406C164.221 219.848 163.051 234.265 161.323 248.616C159.594 262.975 157.293 277.265 154.448 291.444C151.635 305.464 148.285 319.377 144.394 333.139C143.922 334.805 143.442 336.47 142.954 338.132C142.56 339.478 144.661 340.053 145.055 338.711C149.086 324.942 152.58 311.018 155.53 296.978C156.978 290.085 158.294 283.165 159.48 276.225C159.948 283.684 160.39 291.144 160.832 298.604C161.134 303.711 161.438 308.819 161.755 313.924C161.919 316.543 162.084 319.161 162.254 321.78C162.337 323.054 162.386 324.338 162.509 325.609C162.604 326.585 162.842 327.469 163.605 328.138C164.485 328.91 165.675 329.41 166.69 329.976C167.794 330.59 168.903 331.192 170.027 331.765C172.3 332.923 174.639 333.941 177.044 334.789C177.141 336.253 177.238 337.72 177.336 339.185C177.427 340.575 179.605 340.586 179.513 339.185C178.452 323.051 177.229 306.892 177.651 290.714ZM197.843 192.08C196.82 195.047 195.795 198.013 194.778 200.982C193.614 188.656 192.659 176.308 191.917 163.949C191.691 160.179 191.486 156.405 191.299 152.633C191.469 152.554 191.634 152.451 191.794 152.319C192.47 151.759 192.943 150.891 193.449 150.182C194.087 149.292 194.723 148.402 195.361 147.511C196.672 145.678 197.984 143.845 199.295 142.012C199.469 141.77 199.519 141.53 199.484 141.312C203.392 144.429 206.89 148.058 209.843 152.094C210.003 152.312 210.202 152.446 210.413 152.512C206.719 165.854 202.356 178.983 197.843 192.08ZM167.178 167.883C167.015 162.693 166.773 157.505 166.448 152.323C169.194 148.174 172.291 144.262 175.785 140.746C176.806 143.799 177.825 146.853 178.846 149.906C178.639 150.027 178.479 150.243 178.428 150.571C176.877 160.203 174.245 169.611 171.319 178.905C170.595 181.201 169.854 183.494 169.108 185.783C168.615 187.293 168.041 188.791 167.71 190.348C167.583 190.945 167.471 191.545 167.365 192.148C167.491 184.059 167.431 175.969 167.178 167.883ZM180.861 149.076C179.775 145.831 178.692 142.585 177.607 139.34C177.576 139.247 177.535 139.164 177.489 139.091C179.609 137.11 181.863 135.269 184.27 133.608C184.613 133.372 184.754 133.039 184.756 132.707C184.864 132.821 185.002 132.918 185.172 132.986C189.882 134.859 194.322 137.382 198.358 140.439C198.015 140.429 197.663 140.567 197.414 140.915C195.242 143.951 193.11 147.022 190.894 150.029C190.619 150.402 190.509 150.664 190.025 150.684C189.61 150.701 189.126 150.536 188.719 150.464C187.829 150.307 186.938 150.151 186.047 149.994C184.32 149.686 182.591 149.382 180.861 149.076ZM218.122 120.869C217.552 124.965 216.338 129.021 215.372 133.039C214.386 137.142 213.381 141.244 212.334 145.333C211.924 146.932 211.502 148.527 211.071 150.118C204.71 141.75 196.224 135.216 186.503 131.193C186.771 131.101 187.037 130.995 187.304 130.874C189.445 129.911 191.517 128.73 193.563 127.58C197.733 125.236 201.821 122.683 205.658 119.821C209.348 117.069 213.06 112.943 211.568 107.966C211.478 107.668 211.304 107.464 211.091 107.343C211.093 107.314 211.095 107.285 211.095 107.254C211.091 105.961 211.115 104.672 211.154 103.381C215.509 108.299 219.08 113.974 218.122 120.869ZM208.915 107.254C208.917 107.69 209.128 107.988 209.418 108.153C209.41 108.274 209.423 108.404 209.465 108.545C210.607 112.354 207.64 115.589 204.844 117.726C201.63 120.186 198.175 122.37 194.688 124.421C192.895 125.476 191.077 126.487 189.236 127.457C187.546 128.349 185.682 129.722 183.695 129.184C181.698 128.642 179.748 127.778 177.81 127.054C175.777 126.296 173.752 125.522 171.737 124.714C169.722 123.907 167.572 123.154 165.803 121.863C164.302 120.768 162.379 118.651 163.402 116.712C163.66 116.543 163.838 116.254 163.821 115.84C163.713 113.19 163.607 110.543 163.499 107.893C165.57 109.861 167.821 111.639 170.232 113.183C173.348 115.177 176.828 116.73 180.525 117.186C184.397 117.662 188.012 116.474 191.319 114.52C197.328 110.969 202.29 105.769 205.957 99.8649C207.277 97.7389 208.421 95.525 209.409 93.2433C209.223 97.9165 208.904 102.575 208.915 107.254ZM183.202 60.5584C184.908 59.2271 187.073 58.5734 189.185 58.2511C191.596 57.8848 194.085 57.9489 196.512 58.0826C198.828 58.2108 201.924 58.6704 202.78 61.2249C202.828 61.3659 202.894 61.485 202.974 61.5838C202.958 61.9171 203.099 62.2559 203.333 62.4903C203.231 62.6954 203.216 62.9096 203.269 63.1111C203.253 64.9166 203.112 66.7295 202.778 68.5039C202.52 69.8791 202.219 71.7891 201.141 72.7999C200.378 73.5159 199.236 73.84 198.259 74.1275C197.016 74.4956 195.744 74.7758 194.461 74.9552C192.113 75.283 189.422 75.4478 187.099 74.8636C185.099 74.3601 184.047 72.6662 183.235 70.8954C182.476 69.2364 181.807 67.3484 181.544 65.5392C181.269 63.6458 181.632 61.7816 183.202 60.5584ZM155.187 63.3857C157.361 62.7576 159.622 62.2321 161.876 61.9995C164.078 61.7725 166.34 61.8274 168.439 62.591C170.443 63.3198 171.598 64.717 171.887 66.8339C172.118 68.5332 171.873 70.3662 171.581 72.0454C171.293 73.6953 170.885 75.6822 169.645 76.9073C168.864 77.68 167.798 78.0444 166.764 78.3484C165.451 78.733 164.1 79.0205 162.742 79.1871C160.366 79.4783 157.744 79.5954 155.422 78.9399C153.886 78.5059 152.624 77.9748 151.664 76.6472C150.415 74.9186 149.939 72.7138 149.721 70.6336C149.657 70.0238 149.193 69.6814 148.711 69.61C148.696 69.2236 148.734 68.8903 148.846 68.5112C149.44 68.6156 150.184 68.275 150.28 67.4949C150.573 65.1016 153.169 63.9699 155.187 63.3857ZM137.074 68.8152C137.02 68.308 136.973 67.7989 136.925 67.288C138.793 67.4034 140.716 67.5242 142.615 67.4546C142.535 67.6341 142.502 67.8337 142.513 68.0296C140.674 67.8044 138.769 68.2091 137.092 68.991C137.086 68.9306 137.079 68.8738 137.074 68.8152ZM148.155 67.1507C148.135 67.147 148.117 67.1415 148.096 67.1378C147.576 67.0646 147.055 67.006 146.535 66.9584C147.173 66.8009 147.82 66.5336 148.41 66.1765C148.3 66.4859 148.214 66.8101 148.155 67.1507ZM141.987 60.6866C143.222 60.7177 144.469 60.747 145.697 60.8715C146.524 60.9557 147.631 61.0967 148.216 61.756C148.883 62.5068 148.371 63.5634 147.688 64.1072C146.821 64.7958 145.613 64.9807 144.542 65.0997C141.941 65.3891 139.317 65.2572 136.711 65.0997C136.636 64.3966 136.549 63.6934 136.439 62.9957C136.315 62.201 136.091 61.3916 135.699 60.6921C137.796 60.6536 139.891 60.6335 141.987 60.6866ZM127.407 83.3732C127.059 84.4664 126.537 87.1436 125.164 87.2773C124.014 87.389 122.234 86.836 121.932 85.6054C121.884 85.4095 121.798 85.2557 121.69 85.1366C122.058 83.7358 122.337 82.3148 122.531 80.8791C122.951 77.7716 122.956 74.6384 122.538 71.5327C122.364 70.2344 122.243 68.7053 121.299 67.6964C120.317 66.6453 118.742 66.6196 117.411 66.4511C115.673 66.2332 113.932 66.0538 112.187 65.9109C112.592 65.7736 113.024 65.6949 113.396 65.6326C115.001 65.3634 116.649 65.2481 118.269 65.1144C119.954 64.9752 121.64 64.8727 123.329 64.8086C124.527 64.7628 126.841 64.2354 127.571 65.4751C128.247 66.6233 128.388 68.2915 128.577 69.588C128.799 71.1079 128.887 72.6516 128.876 74.1861C128.85 77.3046 128.353 80.4012 127.407 83.3732ZM133.981 81.4047C133.556 82.0621 132.96 82.7652 132.194 83.0271C131.669 83.2066 130.463 83.0472 130.612 82.2232C130.691 81.7782 130.522 81.4157 130.251 81.1776C130.544 79.8518 130.755 78.5077 130.89 77.1563C131.094 75.1237 131.105 73.0709 130.922 71.0365C130.753 69.1796 130.524 67.1928 129.906 65.4257C129.285 63.6476 128.065 62.6258 126.153 62.569C124.595 62.5232 123.019 62.6002 121.453 62.7045C123.563 60.8147 126.784 60.5877 129.536 60.6628C130.984 60.703 133.209 60.4064 133.932 61.9702C134.601 63.4187 134.531 65.3085 134.692 66.8558C135.044 70.2271 135.653 73.7045 135.349 77.0995C135.213 78.6121 134.813 80.121 133.981 81.4047ZM137.251 78.9802C137.563 77.4896 137.631 75.9294 137.576 74.4443C137.537 73.3969 137.446 72.3512 137.339 71.3075C137.345 71.3038 137.35 71.302 137.356 71.2983C139.105 70.3076 141.356 69.751 143.321 70.423C144.223 70.7325 145.097 71.388 145.416 72.3201C145.822 73.5012 144.725 74.0579 143.862 74.6146C141.647 76.0429 139.081 77.1563 137.251 78.9802ZM147.297 79.3446C146.689 78.3045 146.126 77.2424 145.6 76.1601C146.731 75.3691 147.647 74.382 147.701 73.0764C147.739 72.159 147.453 71.313 146.965 70.5878C147.002 70.608 147.039 70.6263 147.074 70.6464C147.224 70.7306 147.391 70.7728 147.559 70.7783C147.871 73.5928 148.668 76.7571 150.659 78.8172C149.99 78.6487 149.057 79.2182 149.185 80.1521C149.275 80.8022 149.385 81.4486 149.503 82.0932C148.509 81.7819 147.708 80.0441 147.297 79.3446ZM151.288 79.5735C151.277 79.4929 151.259 79.4178 151.235 79.3501C151.799 79.8207 152.445 80.2107 153.185 80.4964C155.887 81.5402 158.782 81.6958 161.647 81.4688C164.393 81.2508 167.62 80.815 170.014 79.3519C172.016 78.1268 172.952 75.9239 173.462 73.721C173.959 71.573 174.314 69.1485 174.08 66.9456C174.074 66.8888 174.065 66.8339 174.058 66.7771C174.443 66.3138 174.888 65.9677 175.369 65.7498C175.086 65.986 174.921 66.3559 175.044 66.8192C175.524 68.6449 175.885 70.5017 176.067 72.3824C176.146 73.1954 176.318 74.1293 175.722 74.7831C175.293 75.2555 174.707 75.5448 174.296 76.0466C171.832 79.0589 176.551 81.3937 178.769 82.2086C179.581 82.507 180.296 81.6171 180.109 80.87C180.056 80.6594 180.005 80.4506 179.951 80.24C179.741 79.3977 178.852 79.3006 178.289 79.6723C177.929 79.5057 177.577 79.3244 177.233 79.1248C176.789 78.8666 175.948 78.4308 175.86 77.8705C175.774 77.3193 176.509 76.9549 176.875 76.6545C177.33 76.281 177.717 75.8635 177.966 75.3233C178.569 74.0195 178.272 72.452 178.094 71.0877C177.88 69.4506 177.563 67.8374 177.145 66.2406C177.024 65.7773 176.698 65.541 176.336 65.4825C177.152 65.3909 178.008 65.618 178.795 66.1875C179.039 66.3651 179.281 66.4145 179.499 66.3797C179.708 67.4986 180.056 68.5973 180.428 69.6686C181.165 71.7836 182.12 74.0982 183.858 75.5961C185.913 77.3669 188.921 77.4218 191.499 77.3614C194.485 77.2918 197.634 76.812 200.413 75.684C201.546 75.2244 202.602 74.6073 203.3 73.5818C203.896 72.7083 204.254 71.6517 204.527 70.6409C205.156 68.3171 205.403 65.856 205.443 63.4462C206.622 62.5104 208.114 61.8384 209.398 61.0876C210.072 60.6939 210.749 60.3002 211.423 59.9046C211.57 59.8186 211.726 59.716 211.889 59.6062C211.865 60.6573 213.372 61.3751 213.874 60.2526C214.329 59.2344 214.851 57.8354 216.021 57.4637C217.194 57.0901 217.76 58.3866 218.032 59.2949C218.796 61.8457 218.835 64.6621 218.712 67.3027C218.589 69.9432 218.149 72.6534 217.104 75.098C216.439 76.6545 215.31 78.4088 213.682 79.0974C213.651 79.0388 213.614 78.9838 213.574 78.9326C213.757 77.8686 213.915 76.801 214.052 75.7316C214.23 74.3473 212.05 74.3601 211.874 75.7316C210.136 89.3081 204.168 102.972 192.685 111.053C189.851 113.048 186.608 114.954 183.06 115.126C179.444 115.302 175.895 113.965 172.798 112.198C169.297 110.198 166.107 107.615 163.325 104.659C163.226 104.357 163.007 104.146 162.747 104.033C161.356 102.498 160.071 100.87 158.909 99.1782C154.888 93.3221 152.263 86.6089 151.288 79.5735ZM163.704 122.888C164.776 123.828 166.008 124.595 167.117 125.115C171.55 127.19 176.234 128.796 180.824 130.482C181.863 130.865 182.901 131.31 184.005 131.464C184.175 131.488 184.342 131.501 184.507 131.506C184.47 131.625 184.45 131.751 184.448 131.88C184.148 131.537 183.667 131.389 183.174 131.729C176.481 136.348 170.901 142.231 166.219 148.822C165.669 140.918 164.927 133.028 163.985 125.163C163.893 124.405 163.799 123.647 163.704 122.888ZM165.919 327.043C165.572 326.845 165.092 326.654 164.877 326.303C164.641 325.915 164.67 325.363 164.641 324.92C164.553 323.611 164.469 322.302 164.384 320.992C164.223 318.504 164.067 316.017 163.913 313.528C163.306 303.71 162.742 293.887 162.148 284.066C161.807 278.435 161.455 272.805 161.081 267.175C161.072 267.051 161.046 266.937 161.007 266.835C161.64 262.72 162.228 258.598 162.769 254.471C164.65 240.138 165.975 225.732 166.72 211.297C166.773 210.277 166.82 209.258 166.868 208.239C166.949 208.138 167.017 208.015 167.062 207.87C167.803 205.539 168.019 202.994 168.351 200.582C168.756 197.647 169.099 194.693 169.64 191.778C170.303 188.205 171.739 184.753 172.841 181.298C174.322 176.65 175.746 171.985 177.011 167.273C178.432 161.979 179.64 156.628 180.514 151.217C182.421 151.552 184.327 151.889 186.234 152.224C187.198 152.394 188.16 152.578 189.126 152.735C189.807 166.425 190.741 180.102 191.939 193.757C192.289 197.74 192.661 201.721 193.053 205.7C193.06 205.776 193.075 205.845 193.093 205.913C189.522 216.442 186.102 227.021 183.255 237.77C180.747 247.241 178.78 256.824 177.444 266.5C177.422 266.56 177.398 266.621 177.376 266.679C177.293 266.903 177.286 267.104 177.334 267.28C176.522 273.315 175.957 279.386 175.664 285.489C174.912 301.146 175.854 316.803 176.888 332.424C173.061 330.994 169.473 329.062 165.919 327.043Z" fill="#333333"/>
<path d="M231.062 275.387C232.153 275.128 233.214 274.79 234.252 274.37C234.796 274.151 235.181 273.645 235.012 273.032C234.869 272.515 234.22 272.05 233.672 272.272C232.633 272.691 231.572 273.03 230.483 273.288C229.119 273.612 229.696 275.711 231.062 275.387Z" fill="#333333"/>
<path d="M339.505 226.529C339.351 226.06 338.927 225.699 338.339 225.84C338.269 225.853 338.199 225.875 338.128 225.904C327.904 229.264 317.705 232.692 307.525 236.185C307.839 235.948 308.051 235.564 307.98 235.084C306.009 221.83 302.999 208.808 299.087 195.993C295.21 183.294 290.603 170.831 285.879 158.427C284.662 155.231 283.604 151.898 282.116 148.816C280.97 146.445 279.19 144.286 276.396 144.085C274.997 143.984 275.005 146.159 276.396 146.26C278.638 146.423 279.87 148.968 280.623 150.778C281.8 153.601 282.825 156.5 283.914 159.359C286.209 165.389 288.475 171.43 290.64 177.508C294.922 189.52 298.821 201.687 301.773 214.1C303.466 221.224 304.803 228.42 305.879 235.661C305.961 236.21 306.343 236.446 306.759 236.448C297.769 239.536 288.797 242.672 279.844 245.864C275.228 247.51 270.618 249.173 266.011 250.845C263.183 244.147 260.508 237.353 258.347 230.409C258.317 230.316 258.279 230.233 258.235 230.158C258.385 228.239 258.559 226.322 258.756 224.41C260.108 211.203 262.371 198.088 265.047 185.089C266.457 178.242 268 171.424 269.692 164.642C270.031 163.283 267.932 162.704 267.591 164.063C264.438 176.698 261.766 189.463 259.617 202.307C257.524 214.816 255.788 227.497 255.551 240.193C255.454 245.472 255.599 250.836 256.635 256.029C250.673 260.408 244.662 264.718 238.602 268.957C238.693 266.591 237.714 264.132 235.505 263.158C233.515 262.277 231.61 264.367 230.158 265.498C227.027 264.52 224.373 267.113 222.792 269.73C222.539 269.644 222.244 269.657 221.944 269.827C220.202 270.809 218.884 272.285 217.925 273.988C217.792 274.008 217.654 274.057 217.515 274.141C213.331 276.69 212.444 281.637 211.991 286.328C206.213 290.009 200.453 293.719 194.629 297.326C193.194 298.216 191.755 299.099 190.309 299.972C189.586 300.408 188.864 300.842 188.138 301.272C187.542 301.626 186.961 301.952 186.74 302.651C186.356 303.856 187.315 305.09 188.565 305.059C189.293 305.041 190.109 304.792 190.806 304.605C191.366 304.455 191.883 304.164 192.408 303.913C193.614 303.334 194.82 302.757 196.026 302.181C199.418 300.556 202.809 298.932 206.2 297.308C207.902 296.493 209.603 295.678 211.304 294.863C211.319 295.068 211.342 295.272 211.374 295.475C211.553 296.616 212.039 297.687 212.672 298.648C214.03 300.71 215.973 302.342 217.014 304.612C217.597 305.883 219.474 304.779 218.895 303.514C217.968 301.488 216.342 299.965 215.018 298.209C214.411 297.405 213.863 296.533 213.606 295.552C213.243 294.162 213.566 292.635 213.715 291.234C213.852 289.928 213.96 288.606 214.09 287.286C214.134 287.147 214.147 287.002 214.133 286.859C214.285 285.363 214.474 283.871 214.776 282.409C215.069 280.997 215.533 279.586 216.288 278.373C216.123 279.091 215.993 279.818 215.881 280.547C215.645 282.085 215.379 283.667 215.333 285.226C215.243 288.344 217.148 290.963 218.728 293.504C220.479 296.323 222.371 299.049 224.38 301.69C225.218 302.79 227.11 301.706 226.261 300.591C224.512 298.293 222.851 295.931 221.297 293.497C220.536 292.307 219.799 291.1 219.088 289.881C218.371 288.65 217.61 287.43 217.515 285.975C217.421 284.554 217.704 283.069 217.902 281.664C218.096 280.292 218.342 278.923 218.745 277.597C219.242 275.967 220.021 274.411 221.172 273.187C220.649 274.515 220.195 275.868 219.815 277.243C219.287 279.155 218.651 281.298 218.996 283.292C219.297 285.037 220.446 286.447 221.652 287.678C223.102 289.155 224.565 290.606 225.925 292.17C228.677 295.334 231.124 298.738 233.46 302.215C234.257 303.402 235.1 304.644 236.219 305.541C233.859 307.764 230.327 306.541 228.616 304.05C227.828 302.902 225.94 303.99 226.736 305.149C227.55 306.336 228.613 307.365 229.868 308.042C228.074 310.577 223.35 307.885 221.942 306.151C221.058 305.063 219.526 306.61 220.402 307.689C221.768 309.37 224.147 310.575 226.248 311.022C228.356 311.47 230.53 310.943 231.782 309.099C231.856 308.989 231.907 308.881 231.936 308.775C231.967 308.78 232 308.788 232.032 308.793C234.235 309.163 236.532 308.465 238.041 306.792C238.099 306.728 238.149 306.66 238.187 306.592C239.428 306.956 240.805 306.85 241.889 306.178C242.055 306.303 242.279 306.369 242.561 306.341C242.858 306.31 243.153 306.283 243.45 306.255C243.428 306.356 243.419 306.466 243.427 306.588C243.753 311.002 246.297 315.997 250.602 317.751C250.675 317.781 250.746 317.804 250.82 317.83C250.811 317.92 250.812 318.015 250.827 318.114C251.819 325.142 252.884 332.108 253.489 339.184C253.606 340.568 255.786 340.581 255.667 339.184C255.065 332.137 254.013 325.191 253.021 318.196C253.284 318.193 253.544 318.172 253.804 318.138C259.606 317.716 264.869 315.345 269.91 312.505C272.667 310.952 275.377 309.313 278.183 307.846C281.236 306.251 284.396 304.876 287.54 303.477C293.562 300.798 299.635 297.965 304.555 293.488C308.821 289.608 312.216 284.521 312.975 278.712C313.51 274.61 312.66 270.644 311.142 266.884C311.351 266.712 311.479 266.441 311.446 266.073C310.81 258.948 310.134 251.823 309.314 244.718C315.358 241.453 321.36 238.105 327.318 234.674C331.244 232.412 335.16 230.134 339.076 227.856C339.622 227.538 339.697 226.981 339.505 226.529ZM197.671 298.987C195.357 300.095 193.042 301.205 190.729 302.313C190.611 302.369 190.494 302.43 190.375 302.485C190.369 302.485 190.362 302.486 190.349 302.488C190.556 302.364 190.763 302.241 190.971 302.115C192.36 301.278 193.744 300.43 195.126 299.579C200.706 296.132 206.224 292.589 211.751 289.062C211.709 289.544 211.665 290.018 211.617 290.479C211.55 291.118 211.46 291.767 211.388 292.417C206.816 294.607 202.243 296.797 197.671 298.987ZM233.263 265.872C233.544 265.665 233.958 265.218 234.299 265.143C235.027 264.982 235.733 266.148 236.002 266.701C236.633 268 236.613 269.499 235.995 270.776C235.784 270.922 235.573 271.071 235.362 271.217C234.554 271.777 234.862 272.883 235.518 273.2C235.126 273.682 234.791 274.209 234.527 274.773C233.443 277.092 233.7 279.783 235.199 281.862C236.855 284.153 239.412 285.077 242.178 284.702C244.068 284.446 245.874 283.755 247.782 283.616C249.7 283.477 251.569 283.735 253.393 284.334C254.728 284.772 255.3 282.673 253.973 282.235C252.158 281.638 250.239 281.34 248.327 281.408C246.506 281.474 244.792 281.953 243.025 282.343C241.399 282.702 239.722 282.843 238.277 281.88C237.104 281.096 236.268 279.787 236.061 278.392C235.625 275.456 238.171 272.79 241.001 272.514C244.208 272.2 247.793 273.446 250.319 270.737C250.512 270.53 250.602 270.301 250.616 270.078C250.831 270.201 251.1 270.241 251.412 270.144C254.145 269.298 255.828 272.189 256.371 274.409C256.723 275.848 256.829 277.33 257.062 278.789C257.294 280.248 257.755 281.569 258.283 282.942C258.844 284.405 259.016 285.636 258.286 287.075C257.661 288.309 256.847 289.478 256.022 290.586C254.321 292.871 252.286 294.898 250.057 296.667C248.959 297.537 250.51 299.068 251.597 298.205C254.198 296.141 256.477 293.724 258.391 291.01C259.326 289.685 260.341 288.243 260.79 286.665C261.282 284.938 260.772 283.341 260.134 281.735C259.778 280.84 259.551 279.915 259.373 278.981C260.957 280.642 262.479 282.369 263.696 284.319C264.458 285.544 265.271 286.943 265.502 288.388C265.758 289.996 265.012 291.563 264.349 292.981C262.959 295.951 261.366 298.87 259.489 301.564C258.854 302.474 258.149 303.382 257.359 304.206C257.283 304.184 257.205 304.166 257.12 304.158C253.3 303.77 249.463 303.691 245.636 303.917C246.767 302.961 247.943 302.069 249.177 301.243C250.09 300.631 249.606 299.331 248.789 299.192C248.723 298.983 248.594 298.787 248.387 298.628C245.265 296.226 242.006 294.012 238.741 291.811C235.59 289.685 232.211 287.667 229.342 285.162C226.545 282.719 225.638 279.239 225.804 275.619C225.883 273.902 226.015 271.668 227.394 270.49C228.866 269.234 230.391 268.034 231.934 266.866C232.373 266.531 232.816 266.2 233.263 265.872ZM255.023 306.154C254.523 306.473 253.997 306.749 253.439 306.966C251.133 307.867 248.442 307.61 246.567 306.044C249.384 305.914 252.207 305.951 255.023 306.154ZM241.174 303.951C240.25 304.986 238.741 304.708 237.72 303.957C236.435 303.014 235.621 301.52 234.743 300.227C232.822 297.396 230.802 294.625 228.618 291.988C227.52 290.662 226.376 289.371 225.181 288.13C224.116 287.024 222.879 286.008 221.98 284.755C220.943 283.308 220.99 281.836 221.346 280.153C221.716 278.404 222.208 276.679 222.807 274.995C223.185 273.938 223.588 272.852 224.092 271.825C223.72 273.193 223.643 274.731 223.61 275.976C223.555 278.108 223.847 280.324 224.642 282.31C226.29 286.427 230.415 288.764 233.911 291.161C238.257 294.14 242.682 297.006 246.877 300.197C245.769 300.994 244.701 301.84 243.67 302.736C243.194 303.149 243.245 303.688 243.542 304.07C243.298 304.092 243.053 304.116 242.809 304.14C242.46 303.609 241.716 303.343 241.174 303.951ZM247.982 312.862C246.944 311.5 246.217 309.916 245.85 308.249C247.652 309.45 249.947 309.87 252.105 309.555C255.271 309.093 257.918 307.004 259.901 304.6C262.226 301.785 264.05 298.522 265.659 295.261C266.471 293.613 267.379 291.889 267.646 290.053C267.903 288.291 267.364 286.672 266.611 285.099C264.889 281.51 262.05 278.597 259.298 275.782C259.144 275.625 258.977 275.531 258.809 275.486C258.757 275.185 258.701 274.885 258.638 274.586C261.865 276.551 264.928 279.025 267.173 282.025C270.035 285.848 269.287 290.932 268.449 295.336C267.615 299.72 266.088 303.97 263.604 307.696C262.446 309.436 261.08 311.033 259.533 312.439C258.009 313.823 256.204 315.248 254.195 315.818C251.619 316.552 249.465 314.809 247.982 312.862ZM298.845 247.846C295.773 249.437 292.686 251.001 289.589 252.544C289.533 252.561 289.476 252.576 289.419 252.592C289.23 252.649 289.082 252.74 288.966 252.854C288.127 253.271 287.285 253.689 286.446 254.105C285.19 254.725 286.292 256.602 287.545 255.983C288.469 255.527 289.39 255.062 290.312 254.603C294.207 253.564 298.042 255.278 301.538 256.899C302.801 257.485 303.908 255.61 302.638 255.02C300.163 253.874 297.562 252.727 294.885 252.293C299.034 250.178 303.16 248.025 307.263 245.826C307.883 251.295 308.422 256.776 308.924 262.259C308.066 260.693 307.138 259.175 306.2 257.708C305.446 256.533 303.562 257.622 304.319 258.807C307.697 264.081 311.036 269.992 310.966 276.445C310.902 282.186 307.828 287.311 303.8 291.217C299.333 295.548 293.696 298.335 288.079 300.87C285.087 302.219 282.066 303.508 279.116 304.948C276.359 306.294 273.705 307.821 271.049 309.352C267.657 311.307 264.217 313.217 260.569 314.49C261.518 313.638 262.371 312.747 263.084 311.934C266.403 308.159 268.638 303.56 269.918 298.72C270.616 296.079 271.04 293.362 271.256 290.64C271.456 288.119 271.421 285.522 270.378 283.171C269.269 280.67 267.21 278.595 265.203 276.788C263.003 274.806 260.563 273.103 257.965 271.688C257.865 271.633 257.764 271.596 257.665 271.574C256.798 269.829 255.23 268.377 253.384 267.954C262.884 263.458 272.744 259.768 282.86 256.91C284.205 256.529 283.633 254.43 282.281 254.811C271.538 257.846 261.08 261.823 251.027 266.672C250.372 266.987 250.356 267.643 250.664 268.117C250.266 268.307 250.085 268.674 250.075 269.047C249.696 268.794 249.186 268.767 248.779 269.203C246.713 271.418 242.97 270.034 240.341 270.42C240.323 270.424 240.303 270.428 240.285 270.431C247.427 265.427 254.504 260.325 261.507 255.13C262.62 254.304 261.535 252.416 260.407 253.251C259.799 253.704 259.186 254.154 258.576 254.604C257.833 250.437 257.689 246.161 257.709 241.938C257.718 239.929 257.778 237.922 257.872 235.915C259.711 241.211 261.802 246.423 263.978 251.587C263.755 251.667 263.529 251.748 263.305 251.83C262 252.306 262.563 254.409 263.885 253.929C283.215 246.884 302.632 240.078 322.132 233.516C324.376 232.762 326.619 232.013 328.865 231.264C318.962 236.974 309.004 242.588 298.845 247.846Z" fill="#333333"/>
<path d="M249.313 196.383C237.37 200.049 224.921 201.804 212.428 201.58C211.025 201.555 211.025 203.73 212.428 203.756C225.099 203.983 237.777 202.199 249.892 198.482C251.229 198.072 250.658 195.971 249.313 196.383Z" fill="#333333"/>
<path d="M187.482 271.248C187.139 270.772 186.534 270.541 185.992 270.858C185.521 271.133 185.255 271.867 185.601 272.347C185.97 272.859 185.268 273.097 184.833 272.956C184.384 272.812 184.06 272.257 184.417 271.85C185.339 270.803 183.805 269.257 182.877 270.312C181.401 271.991 182.232 274.584 184.424 275.099C186.555 275.597 188.972 273.314 187.482 271.248Z" fill="#333333"/>
<path d="M241.691 318.044C237.133 318.923 232.576 319.804 228.019 320.683C226.644 320.948 227.227 323.045 228.598 322.781C233.155 321.903 237.713 321.022 242.27 320.143C243.645 319.875 243.062 317.779 241.691 318.044Z" fill="#333333"/>
<path d="M227.744 319.952C227.427 317.711 227.247 315.457 227.179 313.195C227.137 311.798 224.959 311.793 225.001 313.195C225.077 315.655 225.3 318.096 225.645 320.531C225.839 321.91 227.938 321.324 227.744 319.952Z" fill="#333333"/>
<path d="M78.3701 126.708C78.8009 125.804 78.5039 124.681 77.624 124.17C77.481 124.088 77.3252 124.046 77.1675 124.035C77.0282 123.843 76.8302 123.693 76.5882 123.636C75.525 123.379 74.4508 124.072 74.2253 125.145C73.9907 126.254 74.7661 127.241 75.7743 127.608C76.7092 127.945 77.9191 127.655 78.3701 126.708ZM76.5131 126.04C76.5168 126.042 76.5204 126.046 76.5241 126.047C76.6396 126.115 76.5589 126.093 76.5131 126.04Z" fill="#333333"/>
<path d="M148.714 54.4769C149.57 52.8985 150.296 51.2449 150.846 49.5346C151.389 47.8444 151.675 46.0791 152.265 44.4036C152.749 43.0283 153.556 41.567 154.894 40.8602C156.045 40.2522 157.46 40.3621 158.329 41.3784C159.24 42.446 160.773 40.9005 159.869 39.8402C158.782 38.5657 157.055 38.1171 155.436 38.3991C153.691 38.7031 152.294 39.9135 151.339 41.3546C150.241 43.01 149.799 44.984 149.325 46.883C148.756 49.1573 147.953 51.3163 146.833 53.3801C146.166 54.6106 148.045 55.7093 148.714 54.4769Z" fill="#333333"/>
<path d="M162.681 30.1954C161.259 29.679 159.678 29.8566 158.238 30.2064C155.367 30.9041 151.42 32.9056 148.898 30.3474C147.913 29.3476 146.373 30.8876 147.358 31.8856C149.609 34.1691 152.92 33.975 155.781 33.1821C157.277 32.7682 158.778 32.1365 160.344 32.0541C162.146 31.9588 163.017 32.8232 163.904 34.2826C164.63 35.4784 166.514 34.3852 165.785 33.1839C165.011 31.9094 164.135 30.7228 162.681 30.1954Z" fill="#333333"/>
<path d="M169.266 30.8858C169.185 27.6263 168.307 24.4822 166.676 21.6585C165.975 20.4462 164.093 21.5413 164.795 22.7572C166.236 25.2513 167.017 28.0072 167.088 30.8858C167.123 32.2849 169.301 32.2885 169.266 30.8858Z" fill="#333333"/>
<path d="M177.818 31.3876C174.639 31.4719 171.491 32.49 168.954 34.4201C167.854 35.2569 168.938 37.1467 170.054 36.2989C174.553 32.8782 181.042 32.6127 185.739 35.8209C190.188 38.8589 192.672 44.6766 198.399 45.7497C202.336 46.4876 206.144 44.8011 209.627 43.1658C210.893 42.5707 209.79 40.6956 208.527 41.287C205.41 42.7502 201.788 44.4404 198.276 43.4936C195.663 42.7886 193.735 40.7304 191.964 38.8058C190.109 36.7915 188.274 34.6929 185.856 33.3342C183.427 31.9681 180.597 31.3144 177.818 31.3876Z" fill="#333333"/>
<path d="M214.25 68.6267C214.893 68.6267 215.273 68.125 215.339 67.539C215.379 67.1801 215.594 66.6179 215.841 66.3029C216.204 65.8415 216.292 65.2152 215.841 64.7647C215.463 64.3875 214.666 64.2996 214.301 64.7647C213.645 65.6016 213.28 66.4824 213.161 67.539C213.095 68.125 213.709 68.6267 214.25 68.6267Z" fill="#333333"/>
<path d="M142.58 55.7681C139.726 45.1252 136.417 31.8729 144.282 22.4532C145.173 21.3856 143.64 19.8383 142.742 20.915C134.287 31.0415 137.385 44.7993 140.481 56.3449C140.843 57.6963 142.943 57.1232 142.58 55.7681Z" fill="#333333"/>
<path d="M143.019 17.5603C145.964 17.617 148.529 16.0202 150.931 14.4967C153.297 12.9933 155.583 11.3672 157.915 9.81248C162.641 6.66283 167.684 3.76771 173.453 3.23301C177.128 2.89241 180.813 3.31541 184.426 3.99112C185.796 4.24749 186.384 2.15077 185.005 1.89258C178.809 0.733431 172.459 0.378181 166.472 2.669C161.209 4.68331 156.676 8.06369 152.034 11.1749C149.418 12.9273 146.318 15.4471 143.019 15.3848C141.616 15.3573 141.616 17.5328 143.019 17.5603Z" fill="#333333"/>
<path d="M196.267 8.06365C199.233 10.0871 202.206 12.1179 204.934 14.4618C209.841 18.6809 214.191 24.2349 214.836 30.884C214.97 32.2647 217.15 32.2793 217.014 30.884C216.345 24.0078 212.296 18.137 207.262 13.6177C204.538 11.1712 201.542 9.04883 198.527 6.97958C195.491 4.89752 192.221 2.96561 189.753 0.191352C188.82 -0.857921 187.286 0.685775 188.213 1.72955C190.492 4.29322 193.454 6.14456 196.267 8.06365Z" fill="#333333"/>
<path d="M174.987 19.6606C175.933 18.8274 176.877 17.9942 177.823 17.161C178.875 16.2326 177.332 14.6999 176.283 15.6228C175.337 16.456 174.393 17.2892 173.447 18.1224C172.393 19.049 173.939 20.5835 174.987 19.6606Z" fill="#333333"/>
<path d="M154.461 59.4688C157.992 55.7863 163.504 55.2076 167.752 58.0185C168.923 58.7931 170.016 56.9107 168.852 56.1397C163.816 52.807 157.092 53.5815 152.921 57.9306C151.952 58.9414 153.49 60.4815 154.461 59.4688Z" fill="#333333"/>
<path d="M192.135 49.8404C189.06 50.0675 184.828 51.2193 183.258 54.1529C182.598 55.3871 184.477 56.4877 185.139 55.2516C185.755 54.1016 186.903 53.501 188.076 53.0267C189.476 52.4609 190.98 52.0617 192.494 51.9957C195.077 51.884 197.563 52.7722 199.176 54.8451C200.036 55.9493 201.566 54.4001 200.716 53.3069C198.706 50.7249 195.33 49.606 192.135 49.8404Z" fill="#333333"/>
<path d="M171.574 94.6351C179.449 99.4823 189.04 95.9481 194.879 89.647C195.83 88.6215 194.294 87.0778 193.339 88.1087C188.157 93.7012 179.73 97.0999 172.672 92.7563C171.477 92.0202 170.382 93.9008 171.574 94.6351Z" fill="#333333"/>
<path d="M162.665 72.527C163.471 72.9445 164.434 72.7302 165.077 72.1186C165.788 71.4429 165.92 70.4211 165.831 69.4927C165.702 68.1724 164.976 66.6983 163.743 66.3504C163.708 66.3266 163.673 66.3028 163.634 66.279C163.237 66.0262 162.668 66.1178 162.322 66.4346C161.941 66.5866 161.733 66.8851 161.667 67.211C161.407 67.5315 161.222 67.9344 161.152 68.3757C160.934 69.7527 161.293 71.8183 162.665 72.527Z" fill="#333333"/>
<path d="M193.295 69.2897C194.102 69.7072 195.064 69.4929 195.707 68.8813C196.419 68.2056 196.551 67.1838 196.461 66.2554C196.333 64.9351 195.607 63.461 194.373 63.1131C194.338 63.0893 194.303 63.0655 194.265 63.0416C193.867 62.7889 193.299 62.8805 192.952 63.1973C192.571 63.3493 192.364 63.6478 192.298 63.9737C192.037 64.2942 191.852 64.697 191.783 65.1384C191.565 66.5154 191.924 68.581 193.295 69.2897Z" fill="#333333"/>
<path d="M243.925 36.1156C240.796 36.0716 238.893 33.3816 237.854 30.7191C237.383 29.5141 237.034 28.2616 236.776 26.9926C236.693 26.5842 236.624 26.174 236.56 25.762C236.554 25.7272 236.55 25.7034 236.547 25.6814C236.547 25.6741 236.543 25.6503 236.538 25.5972C236.532 25.5551 236.527 25.5111 236.523 25.469C236.393 24.2073 234.51 24.1451 234.506 25.469C234.495 29.8547 232.305 34.8978 227.66 36.1522C227.157 36.2877 226.943 36.6814 226.946 37.0824C226.906 37.489 227.088 37.9028 227.562 38.064C227.623 38.0896 227.689 38.1079 227.757 38.1207C232.402 39.3311 234.495 44.4292 234.506 48.7764C234.51 50.0857 236.429 50.0564 236.523 48.7764C236.572 48.1026 236.6 47.9927 236.73 47.2712C236.954 46.0406 237.275 44.8229 237.718 43.6528C238.765 40.8858 240.758 38.313 243.927 38.1299C245.212 38.0548 245.232 36.1339 243.925 36.1156ZM235.608 43.4751C234.666 40.8199 232.994 38.4632 230.58 37.0971C233.001 35.6852 234.692 33.3065 235.636 30.6293C236.572 33.323 238.094 35.8391 240.373 37.1612C238.094 38.4723 236.547 40.8529 235.608 43.4751Z" fill="#E33B34"/>
<path d="M362.472 136.87C360.78 136.87 359.088 136.87 357.396 136.87C357.396 135.648 357.396 134.425 357.396 133.203C357.396 132.735 357.396 132.268 357.396 131.801C357.396 131.045 356.22 131.043 356.22 131.801C356.22 133.491 356.22 135.181 356.22 136.871C354.997 136.871 353.772 136.871 352.55 136.871C352.082 136.871 351.613 136.871 351.143 136.871C350.386 136.871 350.385 138.047 351.143 138.047C352.835 138.047 354.527 138.047 356.22 138.047C356.22 139.268 356.22 140.492 356.22 141.713C356.22 142.182 356.22 142.649 356.22 143.118C356.22 143.874 357.396 143.876 357.396 143.118C357.396 141.427 357.396 139.737 357.396 138.047C358.619 138.047 359.844 138.047 361.066 138.047C361.536 138.047 362.003 138.047 362.471 138.047C363.23 138.045 363.231 136.87 362.472 136.87Z" fill="#7BB042"/>
<path d="M15.4906 158.406C13.289 158.406 11.0855 158.406 8.8839 158.406C8.8839 156.815 8.8839 155.224 8.8839 153.632C8.8839 153.022 8.8839 152.415 8.8839 151.805C8.8839 150.82 7.35138 150.818 7.35138 151.805C7.35138 154.004 7.35138 156.205 7.35138 158.404C5.75836 158.404 4.16533 158.404 2.57231 158.404C1.96187 158.404 1.35326 158.404 0.742812 158.404C-0.243432 158.404 -0.245265 159.935 0.742812 159.935C2.94444 159.935 5.14791 159.935 7.34954 159.935C7.34954 161.527 7.34954 163.118 7.34954 164.709C7.34954 165.319 7.34954 165.927 7.34954 166.537C7.34954 167.522 8.88207 167.524 8.88207 166.537C8.88207 164.337 8.88207 162.136 8.88207 159.937C10.4751 159.937 12.0681 159.937 13.6611 159.937C14.2716 159.937 14.8802 159.937 15.4906 159.937C16.4769 159.937 16.4787 158.406 15.4906 158.406Z" fill="#E33B34"/>
<path d="M41.7617 104.196C41.7397 105.402 41.0119 106.512 39.8662 106.941C38.6948 107.378 37.3529 107.019 36.5555 106.06C35.7746 105.119 35.6774 103.747 36.2989 102.7C36.9185 101.658 38.1595 101.084 39.3548 101.31C40.7535 101.573 41.7379 102.791 41.7617 104.196C41.7727 104.822 42.7498 104.824 42.7388 104.196C42.7094 102.54 41.6902 101.077 40.1265 100.51C38.6197 99.9638 36.8488 100.456 35.8296 101.685C34.7737 102.96 34.6124 104.815 35.4868 106.232C36.3392 107.615 37.9652 108.316 39.5582 108.032C41.4042 107.704 42.7058 106.032 42.7388 104.194C42.7498 103.568 41.7727 103.568 41.7617 104.196Z" fill="#F38820"/>
<path d="M39.3145 98.5335C39.3145 97.5301 39.3145 96.5266 39.3145 95.5231C39.3145 94.895 38.3374 94.895 38.3374 95.5231C38.3374 96.5266 38.3374 97.5301 38.3374 98.5335C38.3374 99.1598 39.3145 99.1616 39.3145 98.5335Z" fill="#F38820"/>
<path d="M35.1623 99.8465C34.4529 99.1378 33.7416 98.4273 33.0322 97.7186C32.5867 97.2736 31.8975 97.964 32.3411 98.409C33.0505 99.1176 33.7618 99.8281 34.4712 100.537C34.9167 100.98 35.6078 100.291 35.1623 99.8465Z" fill="#F38820"/>
<path d="M33.1568 103.708C32.1522 103.708 31.1477 103.708 30.1431 103.708C29.5143 103.708 29.5143 104.685 30.1431 104.685C31.1477 104.685 32.1522 104.685 33.1568 104.685C33.7856 104.685 33.7856 103.708 33.1568 103.708Z" fill="#F38820"/>
<path d="M34.4712 107.856C33.7618 108.565 33.0505 109.275 32.3411 109.984C31.8956 110.429 32.5867 111.117 33.0322 110.674C33.7416 109.966 34.4529 109.255 35.1623 108.546C35.6078 108.101 34.9167 107.411 34.4712 107.856Z" fill="#F38820"/>
<path d="M38.3374 109.859C38.3374 110.863 38.3374 111.866 38.3374 112.87C38.3374 113.498 39.3145 113.498 39.3145 112.87C39.3145 111.866 39.3145 110.863 39.3145 109.859C39.3145 109.231 38.3374 109.23 38.3374 109.859Z" fill="#F38820"/>
<path d="M42.4894 108.545C43.1988 109.253 43.9101 109.964 44.6196 110.673C45.065 111.118 45.7543 110.427 45.3107 109.982C44.6012 109.274 43.8899 108.563 43.1805 107.854C42.7351 107.411 42.0439 108.102 42.4894 108.545Z" fill="#F38820"/>
<path d="M44.4949 104.685C45.4995 104.685 46.5041 104.685 47.5086 104.685C48.1374 104.685 48.1374 103.708 47.5086 103.708C46.5041 103.708 45.4995 103.708 44.4949 103.708C43.8661 103.708 43.8661 104.685 44.4949 104.685Z" fill="#F38820"/>
<path d="M43.1805 100.537C43.8899 99.8281 44.6012 99.1176 45.3107 98.409C45.7561 97.964 45.065 97.2755 44.6196 97.7186C43.9101 98.4273 43.1988 99.1378 42.4894 99.8465C42.0439 100.291 42.7351 100.982 43.1805 100.537Z" fill="#F38820"/>
<path d="M13.223 226.158C13.223 226.131 13.223 226.105 13.2194 226.08C13.1515 223.95 11.828 222.075 9.80966 221.342C7.84084 220.628 5.52922 221.273 4.19651 222.879C2.81613 224.543 2.60715 226.968 3.74921 228.819C4.86378 230.625 6.98658 231.54 9.06723 231.17C11.4522 230.746 13.1405 228.607 13.2194 226.237C13.223 226.213 13.223 226.188 13.223 226.158ZM9.47236 229.746C7.9435 230.319 6.18916 229.848 5.14792 228.594C4.12684 227.365 4.00036 225.572 4.81428 224.205C5.62271 222.844 7.24323 222.095 8.80692 222.39C10.6309 222.732 11.916 224.324 11.949 226.16C11.9196 227.735 10.9682 229.185 9.47236 229.746Z" fill="#7BB042"/>
<path d="M320.92 80.6411C320.92 80.6136 320.92 80.588 320.916 80.5624C320.849 78.4327 319.525 76.5576 317.507 75.8251C315.538 75.1109 313.226 75.7555 311.894 77.3614C310.513 79.026 310.304 81.4505 311.446 83.3018C312.561 85.1074 314.684 86.023 316.764 85.6531C319.149 85.2282 320.838 83.0894 320.916 80.7199C320.92 80.696 320.92 80.6686 320.92 80.6411ZM317.169 84.2266C315.641 84.7998 313.886 84.3291 312.845 83.0748C311.824 81.846 311.697 80.0533 312.511 78.6854C313.32 77.3248 314.94 76.5759 316.504 76.8707C318.328 77.2131 319.613 78.8044 319.646 80.6411C319.617 82.2178 318.665 83.6662 317.169 84.2266Z" fill="#F38820"/>
<path d="M112.106 22.867C115.943 28.2067 119.565 33.6966 122.964 39.3239C123.633 40.4318 125.378 39.4209 124.705 38.3076C121.305 32.6803 117.682 27.1904 113.847 21.8506C113.098 20.8069 111.347 21.8104 112.106 22.867Z" fill="#333333"/>
<path d="M107.396 35.7879C110.267 38.1574 113.138 40.5252 116.009 42.8947C117.002 43.7151 118.436 42.2977 117.435 41.47C114.564 39.1005 111.693 36.7328 108.823 34.3632C107.829 33.5428 106.394 34.9602 107.396 35.7879Z" fill="#333333"/>
<path d="M97.6257 48.4578C104.331 48.1996 111.028 48.7874 117.582 50.2377C118.846 50.5179 119.385 48.575 118.117 48.2948C111.395 46.8079 104.506 46.1779 97.6257 46.4435C96.3333 46.4929 96.326 48.5072 97.6257 48.4578Z" fill="#333333"/>
</g>
</svg>
