<svg width="155" height="35" viewBox="0 0 155 35" fill="none" xmlns="http://www.w3.org/2000/svg">
<path d="M40.3561 31.5156V23.0356H41.6296V30.4164H45.4499V31.5156H40.3561V31.5156Z" fill="#808285"/>
<path d="M49.5204 31.6453C48.8988 31.6453 48.3606 31.5079 47.9134 31.2408C47.4662 30.9736 47.1175 30.592 46.8749 30.1035C46.6324 29.615 46.5111 29.0349 46.5111 28.3785C46.5111 27.7297 46.6324 27.1496 46.8749 26.6535C47.1175 26.1574 47.4586 25.7681 47.8983 25.4857C48.3379 25.2033 48.8458 25.0659 49.437 25.0659C49.7933 25.0659 50.1419 25.127 50.4755 25.2415C50.809 25.3636 51.1122 25.5468 51.3775 25.7987C51.6428 26.0505 51.855 26.3787 52.0066 26.7833C52.1582 27.1878 52.234 27.6763 52.234 28.2564V28.6991H47.2085V27.7679H51.0288C51.0288 27.4397 50.9606 27.1496 50.8317 26.8978C50.7029 26.6459 50.5134 26.4474 50.2784 26.3024C50.0434 26.1574 49.7629 26.0811 49.4446 26.0811C49.0959 26.0811 48.8003 26.165 48.5426 26.3329C48.2848 26.5009 48.0878 26.7222 47.9513 26.997C47.8149 27.2718 47.7467 27.5618 47.7467 27.8824V28.6075C47.7467 29.0349 47.8225 29.3936 47.9741 29.6913C48.1257 29.989 48.3303 30.218 48.6032 30.3706C48.8685 30.5233 49.1869 30.6072 49.5431 30.6072C49.7781 30.6072 49.9903 30.5767 50.1798 30.508C50.3693 30.4393 50.5361 30.3401 50.6801 30.2027C50.8166 30.0653 50.9303 29.8974 50.9985 29.699L52.1658 29.9127C52.0748 30.2561 51.9081 30.5614 51.6655 30.821C51.423 31.0805 51.1273 31.2789 50.7635 31.4239C50.3921 31.5766 49.9828 31.6453 49.5204 31.6453Z" fill="#808285"/>
<path d="M55.4404 31.6604C55.0387 31.6604 54.6748 31.5841 54.3565 31.4314C54.0305 31.2788 53.7804 31.0651 53.5909 30.775C53.4014 30.485 53.3104 30.1339 53.3104 29.7217C53.3104 29.363 53.3786 29.0653 53.5151 28.8363C53.6515 28.6074 53.841 28.4242 54.0684 28.2868C54.3034 28.1494 54.5611 28.0502 54.8492 27.9815C55.1372 27.9128 55.4328 27.8594 55.7284 27.8212C56.1074 27.7754 56.4182 27.7372 56.6532 27.7143C56.8882 27.6838 57.0625 27.638 57.1687 27.5693C57.2748 27.5006 57.3278 27.3938 57.3278 27.2487V27.2182C57.3278 26.8595 57.2293 26.5771 57.0246 26.3786C56.82 26.1802 56.5244 26.0809 56.1226 26.0809C55.7057 26.0809 55.3798 26.1725 55.1448 26.3557C54.9098 26.5389 54.743 26.745 54.6521 26.9663L53.4923 26.6992C53.6288 26.3099 53.8334 25.997 54.0987 25.7604C54.364 25.5238 54.6672 25.3482 55.0159 25.2413C55.3646 25.1345 55.7209 25.0811 56.1074 25.0811C56.3576 25.0811 56.6305 25.1116 56.9109 25.1726C57.1914 25.2337 57.4567 25.3406 57.7068 25.5009C57.957 25.6611 58.1616 25.8825 58.3208 26.1725C58.48 26.4626 58.5558 26.8442 58.5558 27.3022V31.5307H57.3506V30.6605H57.3051C57.2293 30.8208 57.108 30.9811 56.9488 31.1338C56.7897 31.2864 56.585 31.4162 56.3349 31.5154C56.0847 31.6146 55.7891 31.6604 55.4404 31.6604ZM55.7057 30.6682C56.0468 30.6682 56.3349 30.5995 56.5774 30.4621C56.82 30.3247 57.0019 30.1492 57.1308 29.9278C57.2596 29.7065 57.3203 29.4698 57.3203 29.218V28.4013C57.2748 28.4471 57.1914 28.4852 57.0701 28.5234C56.9413 28.5616 56.8048 28.5921 56.6456 28.615C56.4865 28.6379 56.3349 28.6684 56.1833 28.6837C56.0317 28.7066 55.9104 28.7218 55.8043 28.7371C55.5693 28.7676 55.3495 28.8211 55.1524 28.8898C54.9553 28.9585 54.8037 29.0653 54.6824 29.1951C54.5687 29.3325 54.5081 29.508 54.5081 29.7294C54.5081 30.0347 54.6218 30.2636 54.8492 30.4239C55.0766 30.5842 55.357 30.6682 55.7057 30.6682Z" fill="#808285"/>
<path d="M60.1929 31.5157V25.15H61.3829V26.1575H61.4512C61.5649 25.814 61.7695 25.5469 62.0651 25.3485C62.3532 25.15 62.6867 25.0508 63.0581 25.0508C63.1339 25.0508 63.2249 25.0508 63.331 25.0584C63.4371 25.066 63.5205 25.0737 63.5811 25.0813V26.2644C63.5281 26.2491 63.4447 26.2338 63.3158 26.2186C63.187 26.2033 63.0657 26.188 62.9368 26.188C62.6488 26.188 62.3911 26.2491 62.1637 26.3712C61.9363 26.4934 61.7619 26.6613 61.6255 26.8826C61.4966 27.0963 61.4284 27.3482 61.4284 27.623V31.508H60.1929V31.5157Z" fill="#808285"/>
<path d="M65.878 27.7375V31.5157H64.65V25.1501H65.8325V26.1881H65.9083C66.0523 25.8523 66.2797 25.5775 66.5905 25.379C66.9013 25.173 67.2955 25.0737 67.7654 25.0737C68.1975 25.0737 68.5765 25.1653 68.8948 25.3485C69.2208 25.5317 69.4709 25.7988 69.6453 26.1576C69.8196 26.5163 69.9106 26.9514 69.9106 27.478V31.5233H68.6826V27.623C68.6826 27.1651 68.5613 26.7987 68.3263 26.5392C68.0838 26.2797 67.7578 26.1499 67.3409 26.1499C67.0529 26.1499 66.8027 26.211 66.5829 26.3331C66.3631 26.4552 66.1888 26.6384 66.0599 26.875C65.9386 27.1193 65.878 27.4017 65.878 27.7375Z" fill="#808285"/>
<path d="M72.1845 24.1729C71.9723 24.1729 71.7904 24.0966 71.6388 23.9515C71.4872 23.8065 71.4114 23.631 71.4114 23.4325C71.4114 23.2264 71.4872 23.0509 71.6388 22.9059C71.7904 22.7608 71.9723 22.6921 72.1845 22.6921C72.3968 22.6921 72.5787 22.7608 72.7303 22.9059C72.8819 23.0509 72.9577 23.2264 72.9577 23.4325C72.9577 23.631 72.8819 23.8065 72.7303 23.9515C72.5863 24.1042 72.4044 24.1729 72.1845 24.1729ZM71.563 31.5155V25.1499H72.7909V31.5155H71.563V31.5155Z" fill="#808285"/>
<path d="M75.6789 27.7375V31.5157H74.4509V25.1501H75.6334V26.1881H75.7092C75.8532 25.8523 76.0806 25.5775 76.3914 25.379C76.7022 25.173 77.0964 25.0737 77.5663 25.0737C77.9984 25.0737 78.3774 25.1653 78.6957 25.3485C79.0217 25.5317 79.2718 25.7988 79.4462 26.1576C79.6205 26.5163 79.7115 26.9514 79.7115 27.478V31.5233H78.4835V27.623C78.4835 27.1651 78.3622 26.7987 78.1272 26.5392C77.8847 26.2797 77.5587 26.1499 77.1418 26.1499C76.8538 26.1499 76.6037 26.211 76.3838 26.3331C76.164 26.4552 75.9897 26.6384 75.8608 26.875C75.7395 27.1193 75.6789 27.4017 75.6789 27.7375Z" fill="#808285"/>
<path d="M84.017 34.0343C83.5167 34.0343 83.0847 33.9656 82.7208 33.8359C82.357 33.7061 82.0689 33.5306 81.8415 33.3092C81.6141 33.0879 81.4474 32.8513 81.3337 32.5917L82.3949 32.149C82.4707 32.2712 82.5692 32.4009 82.6905 32.5383C82.8118 32.6757 82.9861 32.7902 83.1984 32.8894C83.4106 32.9886 83.6911 33.0344 84.0322 33.0344C84.5021 33.0344 84.8811 32.9199 85.1919 32.691C85.4951 32.462 85.6467 32.1033 85.6467 31.6071V30.3554H85.5709C85.4951 30.4928 85.389 30.6378 85.2525 30.8057C85.1161 30.9736 84.9266 31.1186 84.684 31.2331C84.4415 31.3552 84.1307 31.4163 83.7441 31.4163C83.2438 31.4163 82.7966 31.3018 82.3949 31.0652C81.9931 30.8286 81.6824 30.4775 81.4474 30.0195C81.22 29.5539 81.0987 28.9891 81.0987 28.3098C81.0987 27.6305 81.2124 27.0504 81.4398 26.5696C81.6672 26.0887 81.9856 25.7147 82.3873 25.4552C82.789 25.1957 83.2438 25.0659 83.7517 25.0659C84.1459 25.0659 84.4566 25.1346 84.6992 25.2644C84.9418 25.3941 85.1313 25.5468 85.2677 25.7223C85.4041 25.8979 85.5103 26.0505 85.5785 26.1803H85.6694V25.1499H86.8747V31.6529C86.8747 32.2025 86.7458 32.6452 86.4957 32.9963C86.2455 33.3474 85.9044 33.6069 85.4724 33.7748C85.0403 33.9504 84.5552 34.0343 84.017 34.0343ZM84.0018 30.3935C84.3581 30.3935 84.6537 30.3096 84.9039 30.1416C85.1464 29.9737 85.3359 29.7371 85.4648 29.4242C85.5936 29.1112 85.6543 28.7372 85.6543 28.2945C85.6543 27.8671 85.5936 27.4931 85.4648 27.1649C85.3359 26.8367 85.154 26.5848 84.9114 26.4016C84.6689 26.2185 84.3657 26.1269 84.0094 26.1269C83.638 26.1269 83.3272 26.2261 83.0847 26.4169C82.8345 26.6077 82.6526 26.8672 82.5237 27.1954C82.4025 27.5236 82.3342 27.89 82.3342 28.2945C82.3342 28.7143 82.3949 29.0807 82.5237 29.3936C82.6526 29.7066 82.8345 29.9508 83.0847 30.134C83.3348 30.3096 83.638 30.3935 84.0018 30.3935Z" fill="#808285"/>
<path d="M98.6844 25.7906H97.4034C97.3503 25.5158 97.2593 25.2716 97.1305 25.0579C96.994 24.8442 96.8349 24.6686 96.6378 24.5236C96.4407 24.3786 96.2285 24.2641 95.9859 24.1954C95.7433 24.119 95.4932 24.0809 95.2203 24.0809C94.7352 24.0809 94.3031 24.203 93.9166 24.4473C93.5376 24.6915 93.2344 25.0502 93.0145 25.5311C92.7947 26.0043 92.681 26.5844 92.681 27.2713C92.681 27.9583 92.7947 28.546 93.0145 29.0192C93.2344 29.4925 93.5376 29.8512 93.9241 30.0954C94.3107 30.3397 94.7428 30.4618 95.2203 30.4618C95.4856 30.4618 95.7433 30.4236 95.9783 30.355C96.2133 30.2863 96.4331 30.1718 96.6302 30.0267C96.8273 29.8817 96.9865 29.7062 97.1229 29.5001C97.2593 29.294 97.3503 29.0498 97.4034 28.7826L98.6844 28.7902C98.6162 29.21 98.4797 29.5917 98.2902 29.9428C98.0931 30.2939 97.843 30.5916 97.5398 30.8434C97.2366 31.0953 96.8879 31.2938 96.4938 31.4312C96.0996 31.5685 95.6751 31.6372 95.2127 31.6372C94.4851 31.6372 93.8332 31.4617 93.2647 31.1106C92.6962 30.7595 92.2414 30.2634 91.9154 29.6069C91.5895 28.9582 91.4227 28.1796 91.4227 27.2713C91.4227 26.3631 91.5895 25.5845 91.9154 24.9357C92.2414 24.287 92.6962 23.7832 93.2647 23.4397C93.8332 23.0886 94.4851 22.9131 95.2127 22.9131C95.66 22.9131 96.0769 22.9741 96.4634 23.1039C96.85 23.2337 97.1987 23.4168 97.5095 23.6687C97.8203 23.913 98.078 24.2183 98.2751 24.5694C98.4721 24.9357 98.6086 25.3403 98.6844 25.7906Z" fill="#808285"/>
<path d="M102.831 31.6453C102.209 31.6453 101.671 31.5079 101.224 31.2408C100.776 30.9736 100.428 30.592 100.185 30.1035C99.9427 29.615 99.8214 29.0349 99.8214 28.3785C99.8214 27.7297 99.9427 27.1496 100.185 26.6535C100.428 26.1574 100.769 25.7681 101.209 25.4857C101.648 25.2033 102.156 25.0659 102.747 25.0659C103.104 25.0659 103.452 25.127 103.786 25.2415C104.119 25.356 104.422 25.5468 104.688 25.7987C104.953 26.0505 105.165 26.3787 105.317 26.7833C105.469 27.1878 105.544 27.6763 105.544 28.2564V28.6991H100.519V27.7679H104.339C104.339 27.4397 104.271 27.1496 104.142 26.8978C104.013 26.6459 103.824 26.4474 103.589 26.3024C103.354 26.1574 103.073 26.0811 102.755 26.0811C102.406 26.0811 102.111 26.165 101.853 26.3329C101.595 26.5009 101.398 26.7222 101.262 26.997C101.125 27.2718 101.057 27.5618 101.057 27.8824V28.6075C101.057 29.0349 101.133 29.3936 101.284 29.6913C101.436 29.989 101.641 30.218 101.913 30.3706C102.179 30.5233 102.497 30.6072 102.853 30.6072C103.088 30.6072 103.301 30.5767 103.49 30.508C103.68 30.4393 103.846 30.3401 103.99 30.2027C104.127 30.0653 104.241 29.8974 104.309 29.699L105.476 29.9127C105.385 30.2561 105.218 30.5614 104.976 30.821C104.733 31.0805 104.438 31.2789 104.074 31.4239C103.702 31.5766 103.293 31.6453 102.831 31.6453Z" fill="#808285"/>
<path d="M108.136 27.7375V31.5157H106.909V25.1501H108.091V26.1881H108.167C108.311 25.8523 108.538 25.5775 108.849 25.379C109.16 25.173 109.554 25.0737 110.024 25.0737C110.456 25.0737 110.835 25.1653 111.153 25.3485C111.479 25.5317 111.729 25.7988 111.904 26.1576C112.078 26.5163 112.169 26.9514 112.169 27.478V31.5233H110.941V27.623C110.941 27.1651 110.82 26.7987 110.585 26.5392C110.342 26.2797 110.016 26.1499 109.599 26.1499C109.311 26.1499 109.061 26.211 108.841 26.3331C108.622 26.4552 108.447 26.6384 108.318 26.875C108.205 27.1193 108.136 27.4017 108.136 27.7375Z" fill="#808285"/>
<path d="M116.778 25.1574V26.1496H113.329V25.1574H116.778ZM114.254 23.6309H115.482V29.653C115.482 29.8897 115.52 30.0728 115.588 30.195C115.656 30.3171 115.755 30.3934 115.868 30.4392C115.982 30.485 116.103 30.5003 116.24 30.5003C116.338 30.5003 116.422 30.4926 116.497 30.4774C116.573 30.4621 116.626 30.4545 116.672 30.4468L116.892 31.4696C116.823 31.5002 116.717 31.5231 116.588 31.5536C116.459 31.5841 116.293 31.5994 116.096 31.5994C115.77 31.607 115.474 31.5459 115.194 31.4238C114.913 31.3017 114.686 31.1109 114.511 30.859C114.337 30.6071 114.254 30.2866 114.254 29.9049V23.6309V23.6309Z" fill="#808285"/>
<path d="M120.795 31.6453C120.174 31.6453 119.636 31.5079 119.188 31.2408C118.741 30.9736 118.392 30.592 118.15 30.1035C117.907 29.615 117.786 29.0349 117.786 28.3785C117.786 27.7297 117.907 27.1496 118.15 26.6535C118.392 26.1574 118.734 25.7681 119.173 25.4857C119.613 25.2033 120.121 25.0659 120.712 25.0659C121.068 25.0659 121.417 25.127 121.75 25.2415C122.084 25.3636 122.387 25.5468 122.652 25.7987C122.918 26.0505 123.13 26.3787 123.282 26.7833C123.433 27.1878 123.509 27.6763 123.509 28.2564V28.6991H118.483V27.7679H122.304C122.304 27.4397 122.236 27.1496 122.107 26.8978C121.978 26.6459 121.788 26.4474 121.553 26.3024C121.318 26.1574 121.038 26.0811 120.72 26.0811C120.371 26.0811 120.075 26.165 119.818 26.3329C119.56 26.5009 119.363 26.7222 119.226 26.997C119.09 27.2718 119.022 27.5618 119.022 27.8824V28.6075C119.022 29.0349 119.097 29.3936 119.249 29.6913C119.401 29.989 119.605 30.218 119.878 30.3706C120.143 30.5233 120.462 30.6072 120.818 30.6072C121.053 30.6072 121.265 30.5767 121.455 30.508C121.644 30.4393 121.811 30.3401 121.955 30.2027C122.092 30.0653 122.205 29.8974 122.273 29.699L123.441 29.9127C123.35 30.2561 123.183 30.5614 122.94 30.821C122.698 31.0805 122.402 31.2789 122.038 31.4239C121.667 31.5766 121.25 31.6453 120.795 31.6453Z" fill="#808285"/>
<path d="M124.873 31.5157V25.15H126.063V26.1575H126.132C126.245 25.814 126.45 25.5469 126.745 25.3485C127.034 25.15 127.367 25.0508 127.738 25.0508C127.814 25.0508 127.905 25.0508 128.011 25.0584C128.117 25.066 128.201 25.0737 128.262 25.0813V26.2644C128.208 26.2491 128.125 26.2338 127.996 26.2186C127.867 26.2033 127.746 26.188 127.617 26.188C127.329 26.188 127.071 26.2491 126.844 26.3712C126.617 26.4934 126.442 26.6613 126.306 26.8826C126.177 27.0963 126.109 27.3482 126.109 27.623V31.508H124.873V31.5157Z" fill="#808285"/>
<path d="M50.862 11.9682C51.4987 12.7773 51.8171 13.6856 51.8171 14.7007C51.8171 15.5708 51.5897 16.357 51.1425 17.0516C50.6952 17.7538 50.0434 18.3033 49.1944 18.7002C48.3454 19.1048 47.36 19.3032 46.2306 19.3032H39.4313V2.18311H45.9123C47.072 2.18311 48.065 2.38156 48.8988 2.77082C49.7326 3.16772 50.3617 3.69438 50.7786 4.35842C51.2031 5.02246 51.4153 5.77046 51.4153 6.58716C51.4153 7.57178 51.15 8.39611 50.6346 9.05252C50.1116 9.70893 49.4142 10.1974 48.5274 10.5027C49.4521 10.6783 50.2253 11.1591 50.862 11.9682ZM42.2208 9.38072H45.6697C46.5793 9.38072 47.2994 9.16701 47.8073 8.75484C48.3227 8.33505 48.5804 7.73206 48.5804 6.9459C48.5804 6.175 48.3227 5.57202 47.8073 5.13695C47.2918 4.70189 46.5793 4.48817 45.6697 4.48817H42.2208V9.38072ZM48.2166 16.3265C48.7548 15.8685 49.0201 15.2274 49.0201 14.403C49.0201 13.5634 48.732 12.8994 48.1635 12.4109C47.595 11.9224 46.837 11.6705 45.8895 11.6705H42.2208V17.0134H45.9881C46.9356 17.0134 47.6784 16.7844 48.2166 16.3265Z" fill="#404041"/>
<path d="M58.2829 6.09107C58.9575 5.7018 59.761 5.51099 60.6934 5.51099V8.41904H59.9808C58.8893 8.41904 58.0631 8.70145 57.4946 9.25863C56.9337 9.81582 56.6532 10.7852 56.6532 12.1667V19.3109H53.8638V5.73233H56.6532V7.70157C57.0625 7.01462 57.6083 6.4727 58.2829 6.09107Z" fill="#404041"/>
<path d="M62.2017 8.83884C62.7626 7.78553 63.5282 6.96883 64.4984 6.38874C65.4687 5.80866 66.545 5.51099 67.7124 5.51099C68.7736 5.51099 69.6983 5.71707 70.4866 6.13687C71.275 6.55666 71.9117 7.07569 72.3816 7.70157V5.73233H75.1938V19.3109H72.3892V17.2882C71.9193 17.9294 71.275 18.4636 70.4563 18.8911C69.6377 19.3185 68.7129 19.5322 67.6669 19.5322C66.5071 19.5322 65.4459 19.2345 64.4833 18.6316C63.5206 18.0362 62.7626 17.1966 62.1941 16.1204C61.6332 15.0442 61.3527 13.823 61.3527 12.4644C61.3527 11.0981 61.6408 9.88451 62.2017 8.83884ZM71.8131 10.0677C71.4266 9.38076 70.9263 8.8541 70.3123 8.48773C69.6907 8.129 69.0237 7.94581 68.3036 7.94581C67.5835 7.94581 66.9165 8.12136 66.2949 8.47247C65.6733 8.82357 65.1731 9.34259 64.7941 10.0219C64.4075 10.7012 64.218 11.5103 64.218 12.4491C64.218 13.3879 64.4075 14.2046 64.7941 14.9144C65.1806 15.6243 65.6809 16.1586 66.3101 16.5249C66.9392 16.8989 67.6062 17.0821 68.3036 17.0821C69.0237 17.0821 69.6907 16.8989 70.3123 16.5402C70.9339 16.1815 71.4341 15.6472 71.8131 14.9526C72.1997 14.258 72.3892 13.4413 72.3892 12.5025C72.3892 11.5713 72.1997 10.7546 71.8131 10.0677Z" fill="#404041"/>
<path d="M87.5493 6.17503C88.3907 6.61773 89.0425 7.27414 89.5201 8.14426C89.99 9.01439 90.2326 10.0677 90.2326 11.2966V19.3032H87.4659V11.7164C87.4659 10.5028 87.1627 9.57157 86.5639 8.92279C85.9575 8.27402 85.1388 7.95344 84.0928 7.95344C83.0467 7.95344 82.2205 8.27402 81.6065 8.92279C80.9926 9.57157 80.6893 10.5028 80.6893 11.7164V19.3032H77.8999V5.73233H80.6893V7.28177C81.1442 6.72458 81.7278 6.28952 82.4403 5.97658C83.1529 5.66364 83.9033 5.51099 84.7068 5.51099C85.7604 5.51099 86.7079 5.73233 87.5493 6.17503Z" fill="#404041"/>
<path d="M92.7113 8.83885C93.2722 7.78554 94.0378 6.96885 95.008 6.38876C95.9783 5.80868 97.0622 5.511 98.2523 5.511C99.1315 5.511 100.003 5.70182 100.86 6.09109C101.716 6.48035 102.399 6.99174 102.899 7.63289V1.07642H105.711V19.3109H102.899V17.2653C102.444 17.9217 101.807 18.4637 101.004 18.8911C100.2 19.3185 99.268 19.5322 98.2295 19.5322C97.0546 19.5322 95.9858 19.2346 95.0156 18.6316C94.0454 18.0362 93.2798 17.1966 92.7189 16.1204C92.1579 15.0442 91.8775 13.823 91.8775 12.4644C91.8699 11.0981 92.1503 9.88453 92.7113 8.83885ZM102.323 10.0677C101.936 9.38077 101.436 8.85412 100.822 8.48775C100.2 8.12901 99.5333 7.94583 98.8132 7.94583C98.0931 7.94583 97.426 8.12138 96.8045 8.47248C96.1829 8.82359 95.6826 9.34261 95.3036 10.0219C94.9171 10.7012 94.7276 11.5103 94.7276 12.4491C94.7276 13.3879 94.9171 14.2046 95.3036 14.9145C95.6902 15.6243 96.1905 16.1586 96.8196 16.525C97.4488 16.899 98.1158 17.0821 98.8132 17.0821C99.5333 17.0821 100.2 16.899 100.822 16.5402C101.443 16.1815 101.944 15.6472 102.323 14.9526C102.709 14.2581 102.899 13.4414 102.899 12.5025C102.899 11.5714 102.709 10.7547 102.323 10.0677Z" fill="#404041"/>
<path d="M108.554 3.41191C108.212 3.06844 108.038 2.64101 108.038 2.12962C108.038 1.61823 108.212 1.1908 108.554 0.847327C108.895 0.503857 109.319 0.335938 109.827 0.335938C110.32 0.335938 110.729 0.511489 111.078 0.85496C111.426 1.19843 111.593 1.62586 111.593 2.13725C111.593 2.64864 111.419 3.07607 111.078 3.41954C110.737 3.76301 110.32 3.93856 109.827 3.93856C109.319 3.93093 108.895 3.76301 108.554 3.41191ZM111.199 5.73224V19.3108H108.41V5.73224H111.199Z" fill="#404041"/>
<path d="M113.799 8.83884C114.36 7.78553 115.125 6.96883 116.096 6.38874C117.066 5.80866 118.142 5.51099 119.31 5.51099C120.371 5.51099 121.296 5.71707 122.084 6.13687C122.872 6.55666 123.509 7.07569 123.979 7.70157V5.73233H126.791V19.3109H123.979V17.2882C123.509 17.9294 122.865 18.4636 122.046 18.8911C121.227 19.3185 120.303 19.5322 119.257 19.5322C118.097 19.5322 117.036 19.2345 116.073 18.6316C115.11 18.0362 114.352 17.1966 113.784 16.1204C113.223 15.0442 112.942 13.823 112.942 12.4644C112.958 11.0981 113.238 9.88451 113.799 8.83884ZM123.418 10.0677C123.031 9.38076 122.531 8.8541 121.917 8.48773C121.296 8.129 120.629 7.94581 119.908 7.94581C119.188 7.94581 118.521 8.12136 117.9 8.47247C117.278 8.82357 116.778 9.34259 116.399 10.0219C116.012 10.7012 115.823 11.5103 115.823 12.4491C115.823 13.3879 116.012 14.2046 116.399 14.9144C116.785 15.6243 117.286 16.1586 117.915 16.5249C118.544 16.8989 119.211 17.0821 119.908 17.0821C120.629 17.0821 121.296 16.8989 121.917 16.5402C122.539 16.1815 123.039 15.6472 123.418 14.9526C123.805 14.258 123.994 13.4413 123.994 12.5025C123.994 11.5713 123.797 10.7546 123.418 10.0677Z" fill="#404041"/>
<path d="M139.146 6.17503C139.988 6.61773 140.64 7.27414 141.117 8.14426C141.587 9.01439 141.83 10.0677 141.83 11.2966V19.3032H139.063V11.7164C139.063 10.5028 138.76 9.57157 138.161 8.92279C137.555 8.27402 136.736 7.95344 135.69 7.95344C134.644 7.95344 133.818 8.27402 133.204 8.92279C132.59 9.57157 132.287 10.5028 132.287 11.7164V19.3032H129.497V5.73233H132.287V7.28177C132.741 6.72458 133.325 6.28952 134.038 5.97658C134.75 5.66364 135.5 5.51099 136.304 5.51099C137.358 5.51099 138.313 5.73233 139.146 6.17503Z" fill="#404041"/>
<path d="M146.438 18.9521C145.597 18.5628 144.938 18.0438 144.445 17.3721C143.952 16.7081 143.694 15.9601 143.664 15.1434H146.552C146.598 15.7158 146.87 16.1967 147.371 16.5859C147.871 16.9752 148.493 17.166 149.243 17.166C150.024 17.166 150.63 17.0134 151.062 16.7081C151.494 16.4028 151.706 16.0135 151.706 15.5403C151.706 15.0289 151.464 14.6549 150.986 14.4106C150.501 14.1664 149.743 13.8916 148.697 13.6016C147.689 13.3192 146.863 13.052 146.226 12.7925C145.589 12.533 145.036 12.1285 144.574 11.5865C144.111 11.0446 143.876 10.3271 143.876 9.44175C143.876 8.71665 144.089 8.06024 144.513 7.45726C144.938 6.85427 145.544 6.38868 146.332 6.03758C147.121 5.68647 148.03 5.51855 149.061 5.51855C150.592 5.51855 151.828 5.90782 152.768 6.68635C153.708 7.46489 154.208 8.53346 154.269 9.87682H151.479C151.434 9.2662 151.183 8.78534 150.744 8.42661C150.304 8.06787 149.705 7.88469 148.955 7.88469C148.22 7.88469 147.659 8.02207 147.265 8.30448C146.87 8.58689 146.681 8.95326 146.681 9.41122C146.681 9.76996 146.81 10.0753 147.075 10.3195C147.333 10.5638 147.651 10.7622 148.03 10.8996C148.402 11.037 148.962 11.2125 149.69 11.4262C150.668 11.6858 151.471 11.9529 152.101 12.2277C152.73 12.4948 153.268 12.8994 153.73 13.426C154.193 13.9527 154.42 14.6472 154.443 15.5174C154.443 16.2883 154.231 16.9828 153.806 17.5858C153.382 18.1964 152.783 18.6697 152.01 19.0131C151.236 19.3566 150.327 19.5322 149.281 19.5322C148.227 19.5322 147.28 19.3337 146.438 18.9521Z" fill="#404041"/>
<path d="M7.57271 14.899H6.38265C2.8731 14.899 0.0230103 12.0291 0.0230103 8.49522V7.29689C0.0230103 3.76295 2.8731 0.893066 6.38265 0.893066H7.57271C11.0823 0.893066 13.9323 3.76295 13.9323 7.29689V8.49522C13.9323 12.0368 11.0823 14.899 7.57271 14.899Z" fill="#00AB47"/>
<path d="M32.3591 0.893066H18.4498V14.899H32.3591V0.893066Z" fill="#2287FD"/>
<path d="M13.9094 33.4772L6.10352e-05 19.4712H13.9094V33.4772Z" fill="#FF2925"/>
<path d="M32.3591 33.4772H18.4498V32.2788C18.4498 25.2033 24.1424 19.4712 31.169 19.4712H32.3591V33.4772V33.4772Z" fill="#FFB900"/>
</svg>
