<?xml version="1.0" encoding="utf-8"?>
<!-- Generator: Adobe Illustrator 25.2.0, SVG Export Plug-In . SVG Version: 6.00 Build 0)  -->
<svg version="1.1" id="Layer_1" xmlns="http://www.w3.org/2000/svg" xmlns:xlink="http://www.w3.org/1999/xlink" x="0px" y="0px"
	 viewBox="0 0 210 50" style="enable-background:new 0 0 210 50;" xml:space="preserve">
<style type="text/css">
	.st0{fill:#404041;}
	.st1{fill:#6D6E70;}
	.st2{fill:#00AB47;}
	.st3{fill:#2287FD;}
	.st4{fill:#FF2925;}
	.st5{fill:#FFB900;}
</style>
<g>
	<path class="st0" d="M68.2,20.5c0.8,1,1.1,2,1.1,3.3c0,1-0.3,2-0.8,2.8c-0.5,0.8-1.3,1.5-2.3,2s-2.2,0.7-3.6,0.7h-8.2V8.9h7.8
		c1.4,0,2.6,0.2,3.6,0.7c1,0.5,1.8,1.1,2.3,1.9c0.5,0.8,0.8,1.7,0.8,2.7c0,1.2-0.3,2.2-0.9,2.9c-0.6,0.8-1.5,1.4-2.5,1.7
		C66.5,19,67.4,19.6,68.2,20.5z M57.8,17.4H62c1.1,0,2-0.2,2.6-0.7s0.9-1.2,0.9-2.2c0-0.9-0.3-1.6-0.9-2.2c-0.6-0.5-1.5-0.8-2.6-0.8
		h-4.1V17.4z M65,25.7c0.6-0.5,1-1.3,1-2.3c0-1-0.3-1.8-1-2.4c-0.7-0.6-1.6-0.9-2.7-0.9h-4.4v6.4h4.5C63.5,26.6,64.4,26.3,65,25.7z"
		/>
	<path class="st0" d="M77.7,13.5c0.8-0.5,1.8-0.7,2.9-0.7v3.5h-0.9c-1.3,0-2.3,0.3-3,1c-0.7,0.7-1,1.8-1,3.5v8.5h-3.3V13.1h3.3v2.4
		C76.2,14.6,76.9,14,77.7,13.5z"/>
	<path class="st0" d="M83,16.8c0.7-1.3,1.6-2.2,2.8-2.9c1.2-0.7,2.5-1,3.9-1c1.3,0,2.4,0.2,3.3,0.7c0.9,0.5,1.7,1.1,2.3,1.9v-2.4
		h3.4v16.2h-3.4v-2.4c-0.6,0.8-1.3,1.4-2.3,1.9s-2.1,0.8-3.3,0.8c-1.4,0-2.7-0.4-3.8-1.1c-1.2-0.7-2.1-1.7-2.7-3s-1-2.7-1-4.4
		S82.3,18,83,16.8z M94.5,18.3c-0.5-0.8-1.1-1.4-1.8-1.9c-0.7-0.4-1.5-0.6-2.4-0.6c-0.9,0-1.7,0.2-2.4,0.6c-0.7,0.4-1.3,1-1.8,1.9
		c-0.5,0.8-0.7,1.8-0.7,2.9c0,1.1,0.2,2.1,0.7,2.9c0.5,0.8,1.1,1.5,1.8,1.9c0.8,0.4,1.6,0.7,2.4,0.7c0.9,0,1.7-0.2,2.4-0.6
		c0.7-0.4,1.3-1.1,1.8-1.9c0.5-0.8,0.7-1.8,0.7-2.9C95.2,20.1,95,19.1,94.5,18.3z"/>
	<path class="st0" d="M114,13.6c1,0.5,1.8,1.3,2.4,2.4c0.6,1,0.9,2.3,0.9,3.8v9.5h-3.3v-9c0-1.4-0.4-2.6-1.1-3.3
		c-0.7-0.8-1.7-1.2-3-1.2c-1.3,0-2.2,0.4-3,1.2c-0.7,0.8-1.1,1.9-1.1,3.3v9h-3.3V13.1h3.3v1.9c0.5-0.7,1.2-1.2,2.1-1.6
		c0.9-0.4,1.8-0.6,2.7-0.6C111.9,12.8,113,13.1,114,13.6z"/>
	<path class="st0" d="M120.8,16.8c0.7-1.3,1.6-2.2,2.8-2.9c1.2-0.7,2.5-1,3.9-1c1.1,0,2.1,0.2,3.1,0.7c1,0.5,1.8,1.1,2.5,1.8V7.5
		h3.4v21.7H133v-2.4c-0.5,0.8-1.3,1.4-2.3,1.9c-1,0.5-2.1,0.8-3.3,0.8c-1.4,0-2.7-0.4-3.9-1.1c-1.2-0.7-2.1-1.7-2.8-3s-1-2.7-1-4.4
		S120.1,18,120.8,16.8z M132.4,18.3c-0.5-0.8-1.1-1.4-1.8-1.9c-0.7-0.4-1.5-0.6-2.4-0.6c-0.9,0-1.7,0.2-2.4,0.6
		c-0.7,0.4-1.3,1-1.8,1.9c-0.5,0.8-0.7,1.8-0.7,2.9c0,1.1,0.2,2.1,0.7,2.9c0.5,0.8,1.1,1.5,1.8,1.9c0.8,0.4,1.6,0.7,2.4,0.7
		c0.9,0,1.7-0.2,2.4-0.6c0.7-0.4,1.3-1.1,1.8-1.9c0.5-0.8,0.7-1.8,0.7-2.9C133,20.1,132.8,19.1,132.4,18.3z"/>
	<path class="st0" d="M140.4,10.3c-0.4-0.4-0.6-0.9-0.6-1.5c0-0.6,0.2-1.1,0.6-1.5s0.9-0.6,1.5-0.6c0.6,0,1.1,0.2,1.5,0.6
		s0.6,0.9,0.6,1.5c0,0.6-0.2,1.1-0.6,1.5c-0.4,0.4-0.9,0.6-1.5,0.6C141.3,10.9,140.8,10.7,140.4,10.3z M143.6,13.1v16.2h-3.3V13.1
		H143.6z"/>
	<path class="st0" d="M147.3,16.8c0.7-1.3,1.6-2.2,2.8-2.9c1.2-0.7,2.5-1,3.9-1c1.3,0,2.4,0.2,3.3,0.7c0.9,0.5,1.7,1.1,2.3,1.9v-2.4
		h3.4v16.2h-3.4v-2.4c-0.6,0.8-1.3,1.4-2.3,1.9s-2.1,0.8-3.3,0.8c-1.4,0-2.7-0.4-3.8-1.1c-1.2-0.7-2.1-1.7-2.7-3s-1-2.7-1-4.4
		S146.6,18,147.3,16.8z M158.9,18.3c-0.5-0.8-1.1-1.4-1.8-1.9c-0.7-0.4-1.5-0.6-2.4-0.6c-0.9,0-1.7,0.2-2.4,0.6
		c-0.7,0.4-1.3,1-1.8,1.9c-0.5,0.8-0.7,1.8-0.7,2.9c0,1.1,0.2,2.1,0.7,2.9c0.5,0.8,1.1,1.5,1.8,1.9c0.8,0.4,1.6,0.7,2.4,0.7
		c0.9,0,1.7-0.2,2.4-0.6c0.7-0.4,1.3-1.1,1.8-1.9c0.5-0.8,0.7-1.8,0.7-2.9C159.5,20.1,159.3,19.1,158.9,18.3z"/>
	<path class="st0" d="M178.3,13.6c1,0.5,1.8,1.3,2.4,2.4c0.6,1,0.9,2.3,0.9,3.8v9.5h-3.3v-9c0-1.4-0.4-2.6-1.1-3.3
		c-0.7-0.8-1.7-1.2-3-1.2c-1.3,0-2.2,0.4-3,1.2c-0.7,0.8-1.1,1.9-1.1,3.3v9h-3.3V13.1h3.3v1.9c0.5-0.7,1.2-1.2,2.1-1.6
		c0.9-0.4,1.8-0.6,2.7-0.6C176.2,12.8,177.3,13.1,178.3,13.6z"/>
	<path class="st0" d="M187.7,28.9c-1-0.5-1.8-1.1-2.4-1.9c-0.6-0.8-0.9-1.7-0.9-2.7h3.5c0.1,0.7,0.4,1.3,1,1.7
		c0.6,0.5,1.3,0.7,2.2,0.7c0.9,0,1.7-0.2,2.2-0.5c0.5-0.4,0.8-0.8,0.8-1.4c0-0.6-0.3-1.1-0.9-1.4c-0.6-0.3-1.5-0.6-2.7-1
		c-1.2-0.3-2.2-0.7-3-1c-0.8-0.3-1.4-0.8-2-1.4c-0.6-0.6-0.8-1.5-0.8-2.6c0-0.9,0.3-1.6,0.8-2.4c0.5-0.7,1.2-1.3,2.2-1.7
		c1-0.4,2-0.6,3.3-0.6c1.8,0,3.3,0.5,4.5,1.4c1.1,0.9,1.7,2.2,1.8,3.8h-3.3c-0.1-0.7-0.4-1.3-0.9-1.7c-0.5-0.4-1.2-0.6-2.1-0.6
		c-0.9,0-1.6,0.2-2,0.5c-0.5,0.3-0.7,0.8-0.7,1.3c0,0.4,0.2,0.8,0.5,1.1c0.3,0.3,0.7,0.5,1.1,0.7c0.5,0.2,1.1,0.4,2,0.6
		c1.2,0.3,2.1,0.6,2.9,1c0.8,0.3,1.4,0.8,2,1.4c0.5,0.6,0.8,1.5,0.9,2.5c0,0.9-0.3,1.7-0.8,2.5c-0.5,0.7-1.2,1.3-2.2,1.7
		c-0.9,0.4-2,0.6-3.3,0.6C189.8,29.5,188.7,29.3,187.7,28.9z"/>
</g>
<g>
	<path class="st1" d="M57,44.5h-1.5l3.4-9.4h1.6l3.4,9.4h-1.5l-2.7-7.7h-0.1L57,44.5z M57.2,40.8h4.9V42h-4.9V40.8z"/>
	<path class="st1" d="M68.2,44.7c-0.7,0-1.3-0.2-1.8-0.5c-0.5-0.3-0.9-0.7-1.1-1.3c-0.3-0.5-0.4-1.2-0.4-1.9c0-0.7,0.1-1.3,0.4-1.9
		c0.3-0.5,0.6-1,1.1-1.3c0.5-0.3,1.1-0.5,1.7-0.5c0.5,0,1,0.1,1.4,0.3c0.4,0.2,0.8,0.5,1,0.8c0.3,0.4,0.4,0.8,0.5,1.2h-1.3
		c-0.1-0.3-0.2-0.6-0.5-0.9c-0.3-0.2-0.6-0.4-1-0.4c-0.4,0-0.7,0.1-1,0.3c-0.3,0.2-0.5,0.5-0.7,0.9c-0.2,0.4-0.2,0.8-0.2,1.3
		c0,0.5,0.1,1,0.2,1.3c0.2,0.4,0.4,0.7,0.7,0.9c0.3,0.2,0.6,0.3,1,0.3c0.3,0,0.5,0,0.7-0.1c0.2-0.1,0.4-0.2,0.5-0.4
		c0.1-0.2,0.2-0.4,0.3-0.7h1.3c0,0.5-0.2,0.9-0.4,1.2c-0.2,0.4-0.6,0.6-1,0.8C69.2,44.6,68.7,44.7,68.2,44.7z"/>
	<path class="st1" d="M74.9,44.7c-0.4,0-0.8-0.1-1.2-0.2c-0.4-0.2-0.6-0.4-0.9-0.7s-0.3-0.7-0.3-1.2c0-0.4,0.1-0.7,0.2-1
		c0.2-0.3,0.4-0.5,0.6-0.6c0.3-0.1,0.5-0.3,0.9-0.3s0.6-0.1,1-0.2c0.4,0,0.8-0.1,1-0.1c0.3,0,0.5-0.1,0.6-0.2
		c0.1-0.1,0.2-0.2,0.2-0.4v0c0-0.4-0.1-0.7-0.3-0.9c-0.2-0.2-0.6-0.3-1-0.3c-0.5,0-0.8,0.1-1.1,0.3c-0.3,0.2-0.4,0.4-0.5,0.7
		l-1.3-0.3c0.2-0.4,0.4-0.8,0.7-1c0.3-0.3,0.6-0.5,1-0.6s0.8-0.2,1.2-0.2c0.3,0,0.6,0,0.9,0.1c0.3,0.1,0.6,0.2,0.9,0.4
		c0.3,0.2,0.5,0.4,0.7,0.7c0.2,0.3,0.3,0.7,0.3,1.3v4.7H77v-1h-0.1c-0.1,0.2-0.2,0.4-0.4,0.5c-0.2,0.2-0.4,0.3-0.7,0.4
		C75.6,44.6,75.2,44.7,74.9,44.7z M75.2,43.6c0.4,0,0.7-0.1,1-0.2s0.5-0.3,0.6-0.6c0.1-0.2,0.2-0.5,0.2-0.8v-0.9
		c0,0-0.1,0.1-0.3,0.1c-0.1,0-0.3,0.1-0.5,0.1c-0.2,0-0.3,0.1-0.5,0.1s-0.3,0-0.4,0.1c-0.3,0-0.5,0.1-0.7,0.2
		c-0.2,0.1-0.4,0.2-0.5,0.3c-0.1,0.1-0.2,0.3-0.2,0.6c0,0.3,0.1,0.6,0.4,0.8C74.4,43.5,74.8,43.6,75.2,43.6z"/>
	<path class="st1" d="M83,44.7c-0.6,0-1.1-0.1-1.5-0.4c-0.4-0.3-0.8-0.7-1-1.3s-0.4-1.2-0.4-2s0.1-1.4,0.4-2s0.6-1,1.1-1.2
		c0.4-0.3,1-0.4,1.5-0.4c0.4,0,0.8,0.1,1.1,0.2s0.5,0.3,0.6,0.5s0.3,0.4,0.3,0.5h0.1v-3.5h1.4v9.4h-1.3v-1.1h-0.1
		c-0.1,0.1-0.2,0.3-0.4,0.5c-0.2,0.2-0.4,0.4-0.6,0.5C83.8,44.6,83.5,44.7,83,44.7z M83.3,43.5c0.4,0,0.7-0.1,1-0.3s0.5-0.5,0.6-0.9
		c0.1-0.4,0.2-0.8,0.2-1.3c0-0.5-0.1-0.9-0.2-1.3c-0.1-0.4-0.3-0.7-0.6-0.9s-0.6-0.3-1-0.3c-0.4,0-0.8,0.1-1,0.3
		c-0.3,0.2-0.5,0.5-0.6,0.9c-0.1,0.4-0.2,0.8-0.2,1.3c0,0.5,0.1,0.9,0.2,1.3c0.1,0.4,0.3,0.7,0.6,0.9S82.9,43.5,83.3,43.5z"/>
	<path class="st1" d="M91.8,44.7c-0.7,0-1.3-0.1-1.8-0.4s-0.9-0.7-1.2-1.3s-0.4-1.2-0.4-1.9c0-0.7,0.1-1.4,0.4-1.9
		c0.3-0.5,0.6-1,1.1-1.3c0.5-0.3,1.1-0.5,1.7-0.5c0.4,0,0.8,0.1,1.2,0.2c0.4,0.1,0.7,0.3,1,0.6s0.5,0.6,0.7,1.1s0.3,1,0.3,1.6v0.5
		h-5.6v-1h4.2c0-0.4-0.1-0.7-0.2-1c-0.1-0.3-0.4-0.5-0.6-0.7c-0.3-0.2-0.6-0.2-0.9-0.2c-0.4,0-0.7,0.1-1,0.3s-0.5,0.4-0.7,0.7
		c-0.2,0.3-0.2,0.6-0.2,1v0.8c0,0.5,0.1,0.9,0.2,1.2c0.2,0.3,0.4,0.6,0.7,0.8c0.3,0.2,0.6,0.3,1,0.3c0.3,0,0.5,0,0.7-0.1
		s0.4-0.2,0.6-0.3c0.2-0.1,0.3-0.3,0.4-0.6l1.3,0.2c-0.1,0.4-0.3,0.7-0.6,1c-0.3,0.3-0.6,0.5-1,0.7S92.3,44.7,91.8,44.7z"/>
	<path class="st1" d="M96.6,44.5v-7h1.3v1.1H98c0.1-0.4,0.4-0.7,0.7-0.9s0.7-0.3,1.2-0.3c0.5,0,0.9,0.1,1.2,0.3
		c0.3,0.2,0.6,0.5,0.7,0.9h0.1c0.2-0.4,0.4-0.7,0.8-0.9c0.4-0.2,0.8-0.3,1.3-0.3c0.6,0,1.2,0.2,1.6,0.6c0.4,0.4,0.6,1,0.6,1.8v4.7
		h-1.4v-4.6c0-0.5-0.1-0.8-0.4-1s-0.6-0.3-0.9-0.3c-0.4,0-0.8,0.1-1,0.4S102,39.6,102,40v4.5h-1.4v-4.7c0-0.4-0.1-0.7-0.4-0.9
		s-0.5-0.3-0.9-0.3c-0.3,0-0.5,0.1-0.7,0.2c-0.2,0.1-0.4,0.3-0.5,0.6s-0.2,0.5-0.2,0.8v4.3H96.6z"/>
	<path class="st1" d="M108.8,47.2c-0.2,0-0.4,0-0.6,0c-0.2,0-0.3-0.1-0.4-0.1l0.3-1.1c0.2,0.1,0.5,0.1,0.7,0.1
		c0.2,0,0.4-0.1,0.5-0.2c0.2-0.1,0.3-0.4,0.4-0.7l0.2-0.5l-2.6-7.1h1.5l1.8,5.5h0.1l1.8-5.5h1.5l-2.9,8c-0.1,0.4-0.3,0.7-0.5,0.9
		c-0.2,0.3-0.5,0.4-0.7,0.6S109.2,47.2,108.8,47.2z"/>
</g>
<g>
	<path class="st2" d="M14.6,22.3L14.6,22.3c-4.6,0-8.4-3.8-8.4-8.4v0c0-4.6,3.8-8.4,8.4-8.4h0c4.6,0,8.4,3.8,8.4,8.4v0
		C23,18.5,19.2,22.3,14.6,22.3z"/>
	<rect x="28.4" y="5.5" class="st3" width="16.8" height="16.8"/>
	<polygon class="st4" points="22.9,44.5 6.2,27.7 22.9,27.7 	"/>
	<path class="st5" d="M45.2,44.5H28.4v0c0-9.3,7.5-16.8,16.8-16.8h0V44.5z"/>
</g>
</svg>
