<svg width="314" height="372" viewBox="0 0 314 372" fill="none" xmlns="http://www.w3.org/2000/svg">
<path d="M310.366 236.146C306.001 223.576 304.301 210.268 301.633 197.231C298.966 184.195 295.156 171.041 287.244 160.341L284.347 156.984C280.105 153.05 274.336 151.311 268.781 149.693C263.289 148.092 257.797 146.492 252.306 144.89C246.928 143.323 241.328 141.632 237.274 137.767C236.27 136.809 235.336 135.704 234.057 135.165L233.326 135.189C233.278 135.047 233.231 134.903 233.184 134.761C232.488 132.67 231.752 130.509 230.249 128.896C228.745 127.285 226.248 126.376 224.278 127.367C224.278 127.367 223.907 127.467 223.245 127.644C223.409 132.575 223.992 137.66 224.929 141.72C224.929 141.72 225.662 143.348 226.443 145.086C226.251 145.733 226.01 146.363 225.721 146.967C223.949 150.658 220.701 153.442 217.226 155.611C213.753 157.778 209.981 159.437 206.486 161.57C201.198 164.799 196.574 169.111 192.987 174.162C192.987 174.162 192.897 174.414 192.746 174.838L192.427 173.703C190.808 168.581 186.674 164.662 182.338 161.493C178 158.324 173.26 155.624 169.529 151.761C167.893 150.066 166.464 148.071 165.468 145.921L165.815 143.537C166.391 140.116 166.826 135.92 167.069 131.739H167.067C165.262 131.699 164.4 130.055 162.61 130.286C160.82 130.518 159.836 132.439 159.192 134.123C158.751 135.278 158.326 136.441 157.917 137.608H157.915C143.281 143.427 127.026 148.634 112.394 154.453C107.467 156.413 102.501 158.391 98.0501 161.275C93.5979 164.158 89.6412 168.04 87.5381 172.911L86.4782 176.054C85.489 185.332 84.4998 194.608 83.5106 203.886C83.0051 208.621 82.4995 213.362 81.5879 218.035C79.6483 227.966 75.8668 237.692 76.1314 247.805C76.1314 247.805 76.8796 249.045 77.9631 250.581C77.9564 249.451 77.9463 248.321 77.9345 247.191C77.9345 247.191 87.3224 242.01 101.409 243.611C115.495 245.212 123.909 250.419 123.909 250.419C123.909 250.419 124.153 252.343 124.499 254.879C131.794 250.241 138.62 244.701 145.325 239.226L147.856 236.382C150.163 232.495 152.484 228.591 155.362 225.108C158.165 221.716 161.481 218.748 165.163 216.339C165.711 215.981 166.272 215.631 166.894 215.427C167.709 215.157 168.584 215.148 169.443 215.141C170.938 215.129 172.431 215.119 173.926 215.108V181.306V177.759C173.926 176.235 175.161 174.999 176.686 174.999H192.695H210.682C212.192 174.999 213.422 176.212 213.443 177.722C213.471 179.81 213.49 182.541 213.505 185.55C213.522 189.125 213.535 193.089 213.549 196.836C214.112 196.85 216.405 197.035 216.828 199.12C217.31 201.499 217.88 201.573 217.88 201.573C221.39 205.455 228.88 203.358 231.989 207.567C232.557 208.337 232.906 209.246 233.171 210.166C234.869 216.05 233.454 222.608 235.769 228.277L238.312 230.299C243.624 232.781 248.65 235.874 253.259 239.498C259.36 244.293 264.902 250.115 271.912 253.309C277.544 251.875 284.425 249.871 290.056 248.437C293.861 247.469 297.693 246.495 301.613 246.28C303.753 246.162 305.934 246.283 308.025 246.741C310.118 247.199 311.481 249.045 311.517 251.039C311.877 250.637 312.113 250.363 312.113 250.363C313.932 245.826 311.968 240.763 310.366 236.146Z" fill="#8EC3EF"/>
<path d="M173.919 228.37V224.872C173.2 225.09 172.492 225.348 171.803 225.662C170.249 226.372 169.224 227.079 167.645 227.696C169.3 228.227 171.218 228.264 172.987 228.328C173.299 228.338 173.609 228.353 173.919 228.37Z" fill="#8EC3EF"/>
<path d="M267.723 296.88C263.987 294.756 260.248 292.572 257.012 289.744C254.461 287.514 252.262 284.92 250.071 282.335C248.937 280.995 247.801 279.656 246.667 278.316C243.981 275.144 241.293 271.973 238.607 268.8C235.463 265.087 232.296 261.345 229.922 257.099L226.277 254.068C224.374 252.931 222.34 251.759 220.124 251.808C219.125 251.83 218.153 252.103 217.17 252.287C213.918 252.901 208.746 252.994 205.696 251.708C203.064 251.985 200.425 252.169 197.783 252.289C198.066 252.461 198.226 252.559 198.226 252.559C199.077 253.73 198.549 255.485 197.461 256.44C196.372 257.394 194.894 257.744 193.475 258.034C185.58 259.654 177.517 260.464 169.457 260.442C169.457 260.442 167.168 260.17 166.75 260.318C166.51 260.404 166.262 260.281 166.053 260.43C164.373 261.619 163.166 263.376 161.525 264.621C158.751 266.724 154.777 267.109 151.652 265.58C151.652 265.58 151.067 265.734 150.303 265.917C144.245 272.507 139.394 278.902 134.47 286.484C131.231 291.469 128.149 296.755 124.382 301.317V301.319C125.041 319.167 120.953 354.157 119.676 368.487L268.861 371.077C269.38 354.086 268.906 313.948 267.676 296.993L267.723 296.88Z" fill="#8EC3EF"/>
<path d="M173.919 228.37C178.939 228.639 183.905 229.571 188.849 230.504C193.125 231.31 197.402 232.115 201.677 232.921C194.506 231.37 187.427 228.825 180.494 226.485C178.939 225.96 177.389 225.412 175.84 224.867C175.84 224.867 175.666 224.721 175.392 224.487C174.896 224.6 174.404 224.726 173.919 224.873V228.37Z" fill="#939597"/>
<path d="M213.436 177.719C213.416 176.208 212.185 174.995 210.675 174.995H192.688H176.679C175.154 174.995 173.919 176.232 173.919 177.756V181.303V215.104C178.423 215.07 182.928 215.037 187.43 215.003C189.463 214.988 192.044 215.366 192.562 217.331C192.862 218.473 192.265 219.545 191.364 220.375C191.996 220.686 192.425 220.904 192.425 220.904L205.698 224.377L215.384 225.757C211.852 224.257 208.348 220.243 205.061 218.572C203.541 217.8 201.867 217.393 200.217 216.961C194.67 215.505 189.215 213.697 183.897 211.55C182.512 210.991 181 210.276 180.459 208.884C179.674 206.869 181.544 204.62 183.656 204.153C185.767 203.683 187.936 204.431 189.989 205.117C195.381 206.923 200.891 208.377 206.473 209.469C208.726 209.91 211.006 210.297 213.156 211.092L213.417 196.831C213.417 196.831 213.463 196.829 213.542 196.831C213.527 193.086 213.515 189.12 213.498 185.545C213.483 182.538 213.464 179.806 213.436 177.719Z" fill="#939597"/>
<path d="M203.825 115.284C203.832 115.334 203.839 115.385 203.845 115.434C203.85 115.431 203.854 115.427 203.859 115.424L203.825 115.284Z" fill="#EBA9AC"/>
<path d="M182.815 115.544L182.633 115.896C182.441 120.333 184.845 124.418 187.168 128.204C188.13 129.771 189.173 131.417 190.814 132.245C192.885 133.288 195.491 132.741 197.38 131.395C199.269 130.048 200.561 128.03 201.645 125.979C202.275 124.788 202.851 123.563 203.262 122.279C203.967 120.08 204.166 117.722 203.844 115.436C202.472 116.578 200.701 117.119 198.949 117.456C193.548 118.497 187.825 117.818 182.815 115.544Z" fill="#EBA9AC"/>
<path d="M312.18 279.024C312.113 270.68 311.677 262.339 310.871 254.034C311.03 253.346 311.124 252.933 311.124 252.933L311.142 252.889C311.404 252.28 311.518 251.65 311.508 251.034C311.474 249.039 310.111 247.192 308.016 246.736C305.925 246.28 303.745 246.157 301.604 246.275C297.685 246.491 293.851 247.464 290.048 248.432C284.416 249.866 277.535 251.87 271.904 253.304C264.893 250.11 259.349 244.288 253.251 239.493C248.642 235.869 243.615 232.776 238.303 230.294L235.761 228.272C233.445 222.603 234.861 216.045 233.162 210.161C232.896 209.242 232.549 208.332 231.981 207.561C228.872 203.353 221.379 205.448 217.871 201.568C217.871 201.568 217.301 201.495 216.819 199.115C216.396 197.032 214.105 196.846 213.54 196.831C213.461 196.829 213.415 196.831 213.415 196.831L213.154 211.092C211.004 210.296 208.724 209.91 206.471 209.469C200.89 208.377 195.379 206.923 189.987 205.117C187.934 204.43 185.767 203.683 183.654 204.152C181.542 204.622 179.672 206.869 180.457 208.884C181 210.276 182.51 210.991 183.895 211.55C189.213 213.697 194.668 215.506 200.216 216.961C201.865 217.393 203.539 217.8 205.059 218.572C208.348 220.241 211.85 224.255 215.382 225.757L205.696 224.377L192.424 220.904C192.424 220.904 191.994 220.686 191.362 220.375C192.263 219.545 192.862 218.473 192.56 217.331C192.043 215.366 189.459 214.988 187.429 215.003C182.924 215.037 178.42 215.07 173.917 215.104C172.422 215.116 170.929 215.126 169.435 215.138C168.575 215.145 167.701 215.153 166.885 215.423C166.263 215.63 165.702 215.978 165.154 216.336C161.472 218.745 158.156 221.713 155.354 225.105C152.475 228.59 150.155 232.494 147.848 236.379L145.317 239.222C138.613 244.697 131.787 250.238 124.49 254.875C124.145 252.34 123.9 250.415 123.9 250.415C123.9 250.415 115.486 245.209 101.4 243.608C87.3139 242.006 77.9259 247.187 77.9259 247.187C77.9377 248.317 77.9478 249.448 77.9545 250.578C78.059 267.501 77.5686 284.428 76.4834 301.317L77.4507 303.262C79.2504 307.161 82.9173 309.809 86.4308 312.279C87.9054 313.315 89.4068 314.365 91.1189 314.926C93.9298 315.849 96.9883 315.362 99.8868 314.771C105.478 313.632 111.098 312.097 115.914 309.036C119.185 306.958 121.929 304.289 124.384 301.314C128.15 296.749 131.231 291.465 134.471 286.48C139.397 278.9 144.247 272.503 150.305 265.913C151.068 265.731 151.653 265.577 151.653 265.577C154.779 267.107 158.752 266.721 161.526 264.617C163.168 263.372 164.374 261.617 166.054 260.426C166.263 260.279 166.511 260.401 166.752 260.315C167.172 260.166 169.458 260.438 169.458 260.438C177.518 260.458 185.58 259.651 193.477 258.031C194.896 257.74 196.374 257.391 197.462 256.436C198.551 255.482 199.076 253.726 198.227 252.556C198.227 252.556 198.067 252.458 197.784 252.286C200.426 252.166 203.065 251.981 205.697 251.704C208.748 252.99 213.919 252.899 217.172 252.284C218.152 252.098 219.126 251.826 220.126 251.804C222.34 251.755 224.376 252.927 226.278 254.064L229.923 257.095C232.298 261.342 235.462 265.085 238.608 268.797C241.295 271.969 243.982 275.14 246.669 278.312C247.803 279.652 248.938 280.992 250.073 282.331C252.262 284.916 254.462 287.512 257.014 289.741C260.249 292.568 263.989 294.753 267.725 296.876C267.731 296.879 267.736 296.883 267.743 296.886C274.773 300.881 281.9 304.731 289.299 307.992C292.651 309.468 296.303 310.848 299.892 310.12C305.197 309.044 308.562 303.733 310.133 298.554C312.042 292.268 312.233 285.597 312.18 279.024ZM171.804 225.662C172.493 225.348 173.199 225.09 173.921 224.872C174.406 224.725 174.898 224.598 175.393 224.485C175.668 224.72 175.842 224.865 175.842 224.865C177.39 225.412 178.939 225.958 180.496 226.483C187.429 228.823 194.508 231.369 201.678 232.919C197.403 232.114 193.126 231.308 188.851 230.502C183.907 229.571 178.942 228.637 173.921 228.368C173.61 228.352 173.3 228.338 172.99 228.326C171.221 228.262 169.303 228.225 167.648 227.694C169.226 227.078 170.249 226.372 171.804 225.662Z" fill="#FDEEE7"/>
<path d="M157.477 84.8462C157.937 88.3599 158.481 91.8619 159.113 95.3486C160.539 103.221 162.425 111.089 165.95 118.271C166.348 119.08 166.769 119.88 167.211 120.671C167.357 123.916 167.296 127.822 167.069 131.738C166.826 135.92 166.392 140.115 165.815 143.536L165.468 145.919C166.464 148.07 167.893 150.065 169.529 151.759C173.262 155.623 178.002 158.322 182.338 161.491C186.676 164.66 190.808 168.579 192.427 173.701L192.746 174.837C192.897 174.413 192.987 174.161 192.987 174.161C196.574 169.108 201.197 164.795 206.486 161.569C209.981 159.435 213.751 157.776 217.226 155.609C220.699 153.442 223.948 150.658 225.721 146.965C226.011 146.362 226.251 145.732 226.444 145.085C225.662 143.348 224.929 141.718 224.929 141.718C223.992 137.659 223.409 132.574 223.245 127.643C223.131 124.195 223.223 120.823 223.545 117.929C223.545 117.929 223.503 117.885 223.427 117.804C228.633 109.128 232.139 99.3894 234.542 89.3296C235.575 88.936 236.389 88.6269 236.389 88.6269V89.0137C238.039 88.1708 239.815 87.5406 241.3 86.4308C245.039 83.635 246.069 78.562 246.827 73.9553C247.019 72.7847 247.213 71.5886 247.021 70.4197C246.829 69.249 246.18 68.0867 245.103 67.5901C244.114 67.1357 243.049 67.3232 242.075 67.8367C241.912 67.9229 241.75 68.0175 241.593 68.1205C241.805 69.3858 241.93 70.195 241.917 70.2507C241.851 70.543 239.067 72.6867 239.067 72.6867C237.185 73.1867 235.528 73.3404 234.071 73.2171C226.531 72.5769 224.315 64.5173 223.702 58.7331C222.386 58.9122 221.058 58.8598 219.743 58.478C215.984 57.3884 213.492 53.9474 210.487 51.4387C207.211 48.7021 203.045 46.9756 198.777 46.8827C194.508 46.7898 190.176 48.3946 187.195 51.4506C187.195 51.4506 183.787 53.5419 182.623 53.8342C181.457 54.1264 179.096 53.4575 179.096 53.4575C177.46 52.2226 175.183 52.0368 173.23 52.6618C171.277 53.2868 169.622 54.6383 168.304 56.2076C168.281 56.2363 168.255 56.2668 168.232 56.2955C167.401 60.294 162.037 63.4294 159.054 64.8534C158.006 65.3535 157.251 65.644 157.091 65.6846C156.331 65.8788 154.469 64.35 154.201 64.3314C153.803 64.3044 153.552 64.2909 153.552 64.2909C153.34 64.0071 152.932 63.9801 152.602 64.1253C152.503 64.1693 152.408 64.2267 152.331 64.301C151.995 64.6169 151.869 65.0899 151.773 65.541C150.322 72.2931 152.374 79.7006 157.093 84.7449L157.477 84.8462ZM182.633 115.895L182.815 115.544C187.825 117.82 193.546 118.497 198.95 117.456C200.703 117.118 202.474 116.576 203.846 115.436C203.839 115.385 203.832 115.335 203.825 115.286L203.859 115.426C203.854 115.429 203.851 115.433 203.846 115.436C204.168 117.723 203.969 120.082 203.264 122.279C202.853 123.563 202.277 124.788 201.647 125.979C200.563 128.03 199.271 130.05 197.381 131.395C195.492 132.741 192.887 133.288 190.816 132.244C189.173 131.417 188.13 129.771 187.169 128.204C184.846 124.416 182.443 120.332 182.633 115.895Z" fill="#FDEEE7"/>
<path d="M239.76 29.7786L237.599 24.3171C235.063 18.391 229.778 13.71 223.591 11.9058C221.479 11.2909 219.282 10.9953 217.187 10.328C210.783 8.29076 205.726 2.93401 199.169 1.46601C194.66 0.455813 189.888 1.43223 185.671 3.32423C181.455 5.21793 177.701 7.98331 173.983 10.7284C173.983 10.7284 163.871 14.8773 162.802 17.1122C161.734 19.3472 159.55 24.8627 159.55 24.8627C156.262 26.2851 153.438 28.7582 151.593 31.8311C150.099 34.3177 149.257 37.1338 148.492 39.9329C148.022 41.6577 147.572 43.3993 147.452 45.1832C147.097 50.4167 149.562 55.3815 151.96 60.0473C151.96 60.0473 152.324 62.1421 152.599 64.1253C152.929 63.98 153.338 64.0087 153.549 64.2908C153.549 64.2908 153.802 64.306 154.198 64.3314C154.464 64.35 156.328 65.8788 157.088 65.6845C157.248 65.644 158.003 65.3534 159.051 64.8534C162.034 63.4293 167.398 60.294 168.228 56.2954C168.252 56.2667 168.276 56.2363 168.301 56.2076C169.62 54.6382 171.273 53.2868 173.226 52.6617C175.18 52.0367 177.455 52.2225 179.092 53.4574C179.092 53.4574 181.453 54.1247 182.62 53.8341C183.786 53.5419 187.191 51.4505 187.191 51.4505C190.172 48.3946 194.507 46.7898 198.773 46.8827C203.042 46.9756 207.208 48.702 210.484 51.4387C213.488 53.9473 215.98 57.3884 219.74 58.478C221.054 58.8598 222.381 58.9121 223.698 58.7331C224.312 64.5172 226.528 72.5751 234.067 73.2171C235.525 73.3404 237.181 73.1883 239.064 72.6866C239.064 72.6866 241.848 70.5412 241.913 70.2507C241.925 70.1949 241.8 69.3874 241.59 68.1205C241.748 68.0174 241.908 67.9228 242.072 67.8367L242.233 65.9852C242.244 61.6454 242.255 57.3073 242.265 52.9675C242.287 45.1562 242.281 37.1743 239.76 29.7786Z" fill="#E2CEBC" stroke="#333333" stroke-miterlimit="10"/>
<path d="M77.5335 302.073C78.4316 287.989 78.9271 273.88 79.0063 259.768C79.0282 255.94 79.0164 252.11 78.9793 248.282C83.5882 245.809 89.5081 245.674 94.5299 245.398C101.168 245.035 107.792 245.397 114.121 247.571C117.202 248.63 120.24 250.058 122.852 252.034C122.849 252.983 122.842 253.933 122.824 254.882C122.82 255.034 122.845 255.168 122.891 255.284C122.347 255.622 121.801 255.955 121.25 256.283C117.15 258.72 112.868 260.866 108.382 262.492C104.253 263.989 99.9561 264.927 95.7887 266.298C91.3938 267.744 87.0984 269.753 83.9792 273.282C83.0894 274.289 84.5639 275.779 85.4587 274.765C91.2354 268.229 100.704 267.434 108.473 264.682C117.524 261.477 125.717 256.33 133.381 250.612C137.703 247.387 141.886 243.978 146.058 240.562C147.102 239.707 145.614 238.231 144.579 239.079C138.219 244.285 131.819 249.497 124.93 253.983C124.94 253.245 124.947 252.507 124.947 251.77C125.021 251.578 125.031 251.37 124.947 251.171C124.937 243.106 124.433 235.046 123.846 227.005C123.166 217.655 122.514 208.29 120.608 199.092C119.546 193.966 118.156 188.915 116.464 183.962C116.031 182.692 114.009 183.238 114.445 184.52C117.456 193.341 119.465 202.458 120.476 211.726C121.472 220.855 122.072 230.068 122.524 239.239C122.692 242.653 122.807 246.071 122.84 249.49C118.119 246.333 112.47 244.456 106.894 243.684C103.16 243.167 99.3899 243.084 95.6269 243.248C92.0948 243.402 88.5257 243.652 85.0357 244.235C82.2536 244.699 79.5573 245.512 77.1644 246.948C77.2975 238.178 80.196 229.783 82.0783 221.284C84.1275 212.037 84.7493 202.482 85.7486 193.081C86.3367 187.552 86.9248 182.021 87.5129 176.492C87.6562 175.151 85.5615 175.161 85.42 176.492C84.3785 186.28 83.3472 196.068 82.2957 205.854C81.7918 210.548 81.2307 215.238 80.2465 219.861C79.2961 224.323 78.0474 228.713 77.0111 233.154C75.8432 238.162 74.9602 243.267 75.0714 248.426C75.0714 248.437 75.0731 248.449 75.0731 248.461C74.876 248.708 74.8456 248.985 74.9265 249.237C74.9383 249.383 74.9838 249.524 75.0765 249.645C75.5652 250.289 76.0556 250.931 76.5443 251.574C76.6454 251.708 76.7667 251.823 76.8998 251.909C76.9639 264.655 76.701 277.402 76.096 290.133C75.9073 294.114 75.6832 298.096 75.4287 302.074C75.3545 303.421 77.4475 303.416 77.5335 302.073Z" fill="#333333"/>
<path d="M167.033 259.96C165.689 259.467 164.303 261.131 163.471 261.976C162.465 262.998 161.516 264.111 160.284 264.869C157.873 266.354 154.749 266.545 152.184 265.341C152.132 265.317 152.081 265.298 152.03 265.282C151.741 264.694 150.949 264.346 150.374 264.964C145.838 269.848 141.625 275.019 137.771 280.46C134.075 285.676 130.857 291.199 127.252 296.473C126.128 298.116 124.943 299.738 123.674 301.285C123.583 301.358 123.506 301.449 123.449 301.559C120.931 304.586 118.076 307.316 114.676 309.345C111.769 311.08 108.594 312.274 105.345 313.187C102.115 314.094 98.6685 315.018 95.3032 315.165C93.3619 315.251 91.5234 314.928 89.8046 313.996C88.2003 313.126 86.7157 312.002 85.2446 310.926C82.4877 308.911 79.8504 306.632 78.359 303.492C77.781 302.274 75.9745 303.336 76.5526 304.551C77.9108 307.411 80.179 309.647 82.6444 311.572C85.1991 313.567 88.0166 315.913 91.1712 316.827C94.5449 317.803 98.1444 317.018 101.486 316.295C104.882 315.558 108.245 314.643 111.454 313.293C116.12 311.33 120.031 308.364 123.408 304.747C123.533 312.707 122.982 320.694 122.394 328.623C121.683 338.217 120.752 347.79 119.802 357.362C119.403 361.377 118.993 365.391 118.634 369.41C118.515 370.754 120.607 370.746 120.727 369.41C121.442 361.392 122.308 353.39 123.058 345.376C123.976 335.578 124.82 325.765 125.262 315.932C125.464 311.431 125.59 306.918 125.444 302.412C125.759 302.027 126.071 301.639 126.376 301.242C130.349 296.082 133.558 290.386 137.186 284.987C141.411 278.701 146.072 272.753 151.185 267.175C153.847 268.408 156.919 268.582 159.669 267.496C161.053 266.951 162.246 266.141 163.321 265.116C163.882 264.582 164.406 264.01 164.951 263.457C165.24 263.163 165.532 262.873 165.839 262.597C165.992 262.459 166.147 262.325 166.307 262.195C166.484 262.112 166.58 262.053 166.6 262.018C167.777 262.315 168.247 260.406 167.033 259.96Z" fill="#333333"/>
<path d="M149.38 250.406C149.838 251.664 151.862 251.12 151.399 249.848C150.506 247.395 152.268 244.828 151.997 242.302C151.85 240.942 151.006 239.79 151.272 238.386C151.557 236.881 152.575 235.535 153.495 234.356C154.316 233.303 152.845 231.81 152.016 232.872C150.974 234.209 149.943 235.596 149.417 237.229C148.885 238.885 149.257 240.184 149.763 241.767C150.216 243.186 149.707 244.659 149.394 246.054C149.068 247.5 148.861 248.982 149.38 250.406Z" fill="#333333"/>
<path d="M230.211 220.789C230.114 219.451 228.021 219.439 228.118 220.789C228.233 222.346 227.82 223.826 226.801 225.025C225.933 226.047 227.405 227.539 228.28 226.509C229.647 224.9 230.366 222.91 230.211 220.789Z" fill="#333333"/>
<path d="M222.974 236.116C222.362 238.521 220.949 240.385 219.385 242.261C218.527 243.292 220 244.784 220.864 243.745C222.342 241.971 223.813 240.162 224.61 237.964C225.183 236.388 225.167 233.962 226.678 232.932C227.785 232.176 226.74 230.359 225.622 231.121C223.898 232.295 223.461 234.202 222.974 236.116Z" fill="#333333"/>
<path d="M226.808 253.798C225.124 252.792 223.358 251.774 221.39 251.482C219.486 251.199 217.694 251.831 215.826 252.08C213.947 252.328 211.918 252.446 209.948 252.252C210.524 251.941 211.052 251.549 211.498 251.041C213.298 248.988 212.445 246.164 210.364 244.694C209.151 243.837 207.636 243.571 206.185 243.473C204.476 243.358 202.756 243.381 201.045 243.315C197.602 243.185 194.165 242.961 190.734 242.647C194.62 242.564 198.507 242.346 202.355 241.961C204.759 241.719 207.644 240.755 208.082 237.993C208.515 235.251 206.025 233.499 203.696 232.859C203.65 232.844 203.603 232.83 203.553 232.82C203.546 232.818 203.539 232.817 203.532 232.817C203.505 232.81 203.477 232.801 203.45 232.795C202.469 232.556 201.478 232.349 200.484 232.156C193.211 230.465 186.105 227.962 179.067 225.46C180.803 225.223 182.551 225.046 184.278 224.754C186.691 224.346 189.375 223.725 191.401 222.24C199.434 224.672 207.681 226.314 216.026 227.178C216.159 227.215 216.286 227.227 216.4 227.217C216.54 227.23 216.682 227.247 216.822 227.26C218.161 227.391 218.153 225.292 216.822 225.162C216.714 225.152 216.606 225.139 216.496 225.129C213.972 224.314 211.896 222.382 209.872 220.743C207.683 218.971 205.526 217.464 202.803 216.635C199.588 215.657 196.32 214.878 193.12 213.837C189.989 212.82 186.828 211.749 183.809 210.425C182.83 209.994 181.489 209.354 181.329 208.149C181.174 206.98 182.232 205.894 183.199 205.433C184.605 204.762 186.31 205.119 187.738 205.523C189.274 205.957 190.778 206.516 192.301 206.992C195.477 207.986 198.691 208.857 201.935 209.606C205.143 210.347 208.451 210.775 211.609 211.719C214.902 212.704 217.752 214.815 221.189 215.356C224.292 215.844 227.77 215.434 230.515 217.218C231.648 217.954 232.699 216.14 231.572 215.407C228.961 213.709 225.834 213.755 222.846 213.466C221.215 213.307 219.664 212.928 218.165 212.26C217 211.741 215.869 211.153 214.707 210.638C214.592 206.725 214.548 202.81 214.535 198.892C215.822 199.034 216.323 201.081 216.405 202.173C216.545 204.023 216.346 205.894 215.944 207.698C215.65 209.014 217.668 209.575 217.962 208.256C218.262 206.911 218.508 205.452 218.569 203.999C221.36 205.795 225.02 205.703 228.147 206.725C230.424 207.47 231.629 208.977 232.247 211.281C232.982 214.015 233.048 216.859 233.181 219.67C233.333 222.87 233.57 226.108 234.757 229.115C235.247 230.357 237.271 229.815 236.775 228.558C234.612 223.073 235.739 217.033 234.428 211.373C233.879 209.001 232.866 206.825 230.697 205.565C228.892 204.518 226.784 204.197 224.764 203.827C222.575 203.428 220.207 203.019 218.616 201.323C218.547 201.249 218.473 201.19 218.399 201.142C218.35 200.874 218.294 200.608 218.224 200.348C217.745 198.569 216.346 196.895 214.531 196.791C214.525 190.809 214.563 184.827 214.493 178.85C214.474 177.274 214.095 175.81 212.659 174.935C212.012 174.541 211.288 174.389 210.541 174.377C209.651 174.364 208.761 174.377 207.872 174.377C203.928 174.377 199.985 174.377 196.042 174.377C195.508 174.377 194.974 174.377 194.439 174.377C196.504 171.607 198.88 169.076 201.515 166.843C204.512 164.304 207.841 162.304 211.304 160.473C217.635 157.124 225.006 153.351 227.366 146.004C228.52 142.411 228.203 138.198 225.856 135.147C225.554 134.755 225.111 134.653 224.718 134.734C224.476 132.729 224.314 130.709 224.238 128.685C224.417 128.704 224.609 128.675 224.806 128.585C226.166 127.96 227.785 128.499 228.901 129.384C230.252 130.457 231.024 132.14 231.605 133.721C232.974 137.441 234.126 141.253 235.377 145.016C236.642 148.825 237.906 152.636 239.172 156.445C239.815 158.383 240.275 160.02 239.74 162.049C239.236 163.954 238.558 165.829 237.921 167.693C236.76 171.09 235.505 174.453 234.167 177.783C229.521 168.927 218.598 163.888 208.854 166.65C207.56 167.017 208.109 169.042 209.41 168.674C218.827 166.005 229.78 171.47 233.203 180.704C233.582 181.726 234.822 181.663 235.222 180.704C236.904 176.659 238.461 172.566 239.881 168.422C240.575 166.399 241.344 164.356 241.843 162.273C242.353 160.135 241.988 158.292 241.309 156.243C239.906 152.016 238.501 147.789 237.097 143.563C236.417 141.514 235.737 139.466 235.057 137.417C235.847 138.094 236.546 138.897 237.34 139.571C238.624 140.661 240.031 141.595 241.521 142.379C244.557 143.978 247.849 145.024 251.128 145.992C258.598 148.196 266.198 150.119 273.571 152.639C277.199 153.879 280.748 155.496 283.606 158.109C284.598 159.018 286.083 157.538 285.085 156.626C279.774 151.768 272.551 150.068 265.834 148.105C261.894 146.955 257.954 145.803 254.015 144.652C250.627 143.662 247.18 142.738 243.966 141.253C242.185 140.431 240.451 139.446 238.937 138.187C237.49 136.985 236.326 135.393 234.583 134.589C234.415 134.512 234.249 134.481 234.091 134.484C233.742 133.452 233.37 132.43 232.918 131.442C231.393 128.106 227.935 125.202 224.187 126.592C224.16 123.784 224.29 120.985 224.585 118.242C226.756 114.515 228.623 110.618 230.22 106.702C232.456 101.221 234.19 95.5547 235.559 89.7959C235.845 90.1827 236.364 90.4125 236.914 90.1354C238.466 89.3533 240.127 88.7401 241.558 87.7366C242.704 86.9342 243.661 85.946 244.456 84.7939C246.109 82.3985 246.89 79.476 247.437 76.6532C247.992 73.7915 249.013 70.0092 246.711 67.6391C245.67 66.5664 244.426 66.3113 243.204 66.5445C243.251 66.4279 243.278 66.2945 243.278 66.1424C243.294 59.8887 243.398 53.6281 243.285 47.3761C243.177 41.3655 242.684 35.2959 240.766 29.5641C240.34 28.2904 238.317 28.8361 238.747 30.1216C240.646 35.8044 241.106 41.7777 241.197 47.7342C241.292 53.868 241.199 60.0086 241.184 66.1424C241.182 66.5968 241.42 66.8992 241.735 67.0479C240.737 67.5395 239.822 68.2895 239.13 69.0936C239.05 69.1865 238.99 69.2828 238.948 69.3791C238.6 68.5716 237.052 68.7439 236.915 69.8758C236.534 73.0263 236.085 76.1751 235.55 79.3105C235.186 79.3426 234.866 79.5757 234.794 80.0656C233.998 85.4004 233.154 90.9024 230.454 95.6307C229.969 94.8334 229.214 94.2185 228.092 93.9482C228.046 93.938 228.003 93.9296 227.96 93.9245C227.839 93.7826 227.664 93.6728 227.426 93.6205C222.553 92.5241 217.312 92.0291 212.272 92.5748C212.563 92.1052 212.717 91.5004 212.755 90.8787C213.055 89.6861 212.57 88.2097 211.7 87.3549C211.544 87.1555 211.362 86.9782 211.144 86.8396C210.189 86.2298 209.577 86.5778 209.195 87.2704C209.157 87.3042 209.12 87.3414 209.085 87.3785C208.935 87.5373 208.812 87.7181 208.711 87.9123C208.475 88.1776 208.306 88.5239 208.244 88.9546C208.163 89.5087 208.273 90.0763 208.241 90.6355C208.212 91.1541 208.141 91.6541 208.222 92.171C208.278 92.5359 208.396 92.8789 208.569 93.1812C206.099 93.7472 203.661 94.8705 202.023 96.8656C200.432 98.8015 199.781 101.278 200.464 103.724C201.992 109.199 207.675 111.238 212.752 111.787C217.324 112.282 222.851 112.872 226.585 109.841C223.355 116.826 219.216 123.384 213.972 129.035C210.157 133.145 205.748 136.757 200.177 138.039C194.888 139.257 189.165 138.461 184.248 136.228C174.211 131.67 167.772 121.805 164.218 111.699C163.957 110.954 163.707 110.206 163.47 109.454C164.498 110.414 165.718 111.15 167.105 111.583C169.834 112.436 172.807 112.159 175.613 111.968C180.807 111.615 186.747 110.507 189.357 105.388C190.087 103.957 190.398 102.405 190.227 100.878C190.284 100.861 190.343 100.841 190.402 100.813C192.975 99.6225 196.002 99.7475 198.49 101.084C199.49 101.621 200.4 100.42 199.95 99.6462C200.031 99.2661 199.901 98.859 199.444 98.6241C198.081 97.9248 196.644 97.4856 195.183 97.2997C195.231 97.1815 195.258 97.0497 195.258 96.9112C195.258 96.396 195.258 95.879 195.258 95.3638C195.258 94.8148 194.776 94.2894 194.212 94.3148C193.646 94.3401 193.165 94.7759 193.165 95.3638C193.165 95.8807 193.165 96.396 193.165 96.9112C193.165 97.0092 193.182 97.1072 193.211 97.2018C191.873 97.2406 190.538 97.494 189.242 97.9518C188.036 95.9061 185.946 94.509 183.747 93.71C182.237 93.161 180.624 92.84 178.99 92.6542C179.315 92.1744 179.484 91.5359 179.526 90.8787C179.826 89.6861 179.34 88.2097 178.471 87.3549C178.314 87.1555 178.132 86.9782 177.915 86.8396C176.959 86.2298 176.348 86.5778 175.965 87.2704C175.928 87.3042 175.891 87.3414 175.856 87.3785C175.706 87.5373 175.583 87.7181 175.481 87.9123C175.246 88.1776 175.077 88.5239 175.015 88.9546C174.934 89.5087 175.043 90.0763 175.011 90.6355C174.983 91.1541 174.912 91.6541 174.993 92.171C175.006 92.2555 175.023 92.3383 175.043 92.4194C174.629 92.4126 174.218 92.4092 173.81 92.4092C170.195 92.4042 166.584 92.8282 163.058 93.6222C162.823 93.6745 162.647 93.7843 162.526 93.9262C162.482 93.9313 162.438 93.9397 162.393 93.9499C162.125 94.0141 161.877 94.0968 161.648 94.1948C160.46 91.5578 159.557 88.811 158.92 85.9882C158.861 85.7298 158.736 85.5456 158.576 85.4223C158.099 81.836 157.708 78.2378 157.412 74.6328C157.28 73.0314 157.167 71.4282 157.069 69.8251C156.987 68.4838 154.894 68.4736 154.976 69.8251C155.224 73.8861 155.583 77.9371 156.052 81.9779C154.624 79.9034 153.583 77.5756 152.973 75.1143C152.567 73.4756 152.359 71.7999 152.356 70.1106C152.354 69.2237 152.402 68.3301 152.518 67.4516C152.57 67.0546 152.638 66.6593 152.717 66.2674C152.762 66.036 152.848 65.8012 152.878 65.5697C152.929 65.1981 153.071 65.4278 152.808 65.188C153.799 66.0985 155.283 64.6187 154.287 63.7048C153.515 62.9953 152.363 62.9699 151.584 63.7149C150.831 64.4345 150.693 65.6103 150.543 66.5867C150.187 68.8875 150.192 71.19 150.526 73.4908C151.188 78.0367 153.242 82.3174 156.345 85.6926C156.405 85.7585 156.47 85.8142 156.535 85.8598C156.712 87.1826 156.898 88.5053 157.098 89.8263C158.067 96.2034 159.228 102.594 161.072 108.782C162.339 113.036 164.011 117.26 166.168 121.193C166.297 124.372 166.291 127.582 166.144 130.79C165.143 130.388 164.268 129.594 163.114 129.542C161.488 129.467 160.199 130.483 159.334 131.775C158.323 133.285 157.792 135.158 157.186 136.855C157.15 136.954 157.117 137.054 157.081 137.154C147.016 141.14 136.775 144.661 126.6 148.354C121.42 150.234 116.258 152.165 111.142 154.21C106.279 156.155 101.379 158.165 97.0106 161.101C92.6343 164.042 88.7719 167.926 86.6251 172.809C86.0875 174.034 87.8906 175.102 88.4315 173.869C92.5214 164.562 102.171 160.059 111.055 156.491C121.046 152.479 131.209 148.933 141.335 145.284C146.306 143.492 151.267 141.672 156.19 139.748C155.836 140.813 155.496 141.882 155.169 142.956C152.681 151.131 150.981 159.538 150.059 168.032C149.533 172.884 149.274 177.762 149.272 182.643C149.272 183.753 150.646 183.977 151.222 183.172C155.02 177.874 159.243 172.056 165.825 170.186C168.933 169.302 172.022 169.617 174.903 171.068C176.889 172.068 178.722 173.32 180.662 174.384C179.858 174.384 179.056 174.384 178.252 174.384C177.551 174.384 176.828 174.335 176.13 174.435C174.051 174.732 172.881 176.528 172.868 178.519C172.861 179.477 172.868 180.435 172.868 181.393C172.868 185.339 172.868 189.285 172.868 193.231C172.868 200.355 172.868 207.479 172.868 214.603C172.098 214.608 171.328 214.614 170.557 214.619C169.088 214.631 167.558 214.543 166.174 215.118C164.878 215.657 163.714 216.557 162.593 217.388C161.415 218.26 160.273 219.182 159.183 220.162C154.048 224.767 150.43 230.556 146.943 236.443C146.254 237.607 148.062 238.663 148.75 237.503C151.572 232.735 154.434 227.96 158.288 223.943C160.056 222.1 161.982 220.404 164.049 218.909C165.081 218.162 166.218 217.209 167.47 216.885C168.798 216.542 170.327 216.719 171.683 216.709C174.683 216.687 177.681 216.664 180.68 216.642C183.311 216.621 186.02 216.402 188.642 216.635C189.483 216.709 190.533 216.876 191.163 217.495C192.001 218.316 191.418 219.422 190.708 220.105C188.937 221.809 186.042 222.341 183.715 222.735C180.968 223.199 178.176 223.37 175.449 223.96C174.115 224.248 172.814 224.645 171.562 225.194C170.215 225.784 168.965 226.566 167.615 227.147C166.944 226.875 166.326 226.492 165.793 225.943C164.853 224.971 163.375 226.456 164.314 227.426C165.05 228.186 165.911 228.708 166.843 229.071C167.034 229.31 167.327 229.443 167.693 229.355C168.587 229.609 169.528 229.747 170.47 229.826C173.164 230.053 175.856 230.08 178.545 230.413C184.531 231.153 190.456 232.452 196.379 233.57C197.867 233.85 199.357 234.133 200.845 234.413C200.985 234.44 201.128 234.465 201.271 234.489C201.842 234.612 202.414 234.732 202.986 234.845C203.047 234.857 203.104 234.862 203.162 234.866C203.733 235.018 204.284 235.224 204.769 235.535C205.713 236.141 206.422 237.251 205.752 238.325C205.074 239.41 203.681 239.711 202.506 239.849C199.633 240.19 196.704 240.278 193.816 240.407C190.872 240.537 187.925 240.602 184.977 240.577C179.61 240.533 174.246 240.18 168.943 239.374C168.082 239.194 167.221 239.01 166.361 238.817C166.151 238.77 165.96 238.783 165.792 238.839C165.463 238.776 165.136 238.716 164.808 238.65C163.493 238.386 162.929 240.408 164.252 240.673C165.667 240.957 167.088 241.204 168.512 241.422C180.542 243.92 192.744 245.228 205.031 245.527C206.424 245.561 207.996 245.598 209.186 246.429C210.076 247.051 210.758 248.184 210.207 249.25C209.479 250.655 207.565 251.091 205.856 251.289C205.595 251.211 205.369 251.248 205.187 251.357C204.764 251.394 204.367 251.422 204.021 251.455C197.4 252.059 190.746 252.123 184.103 252.036C176.531 251.936 168.96 251.723 161.388 251.556C160.042 251.525 160.042 253.624 161.388 253.654C168.586 253.814 175.785 254.007 182.984 254.119C187.808 254.193 192.64 254.198 197.459 253.988C198.437 256.017 195.268 257.212 193.801 257.543C191.182 258.136 188.518 258.568 185.86 258.941C180.427 259.705 174.937 260.056 169.452 260.05C168.106 260.048 168.104 262.146 169.452 262.148C175.872 262.155 182.284 261.648 188.624 260.632C190.216 260.377 191.802 260.092 193.383 259.771C194.701 259.504 196.06 259.22 197.233 258.529C198.838 257.583 199.972 255.688 199.613 253.879C201.269 253.782 202.924 253.661 204.576 253.502C204.891 253.472 205.216 253.439 205.545 253.402C208.485 254.554 211.945 254.57 215.04 254.267C216.731 254.103 218.428 253.522 220.116 253.488C222.179 253.448 224.029 254.59 225.741 255.612C226.911 256.301 227.964 254.488 226.808 253.798ZM162.951 95.977C163.181 95.9213 163.353 95.8115 163.475 95.6713C163.52 95.6662 163.567 95.6594 163.616 95.6493C168.717 94.5023 174.014 94.1931 179.207 94.8334C183.103 95.3148 188.826 97.4028 188.177 102.378C187.572 107.017 182.616 109.023 178.592 109.591C176.226 109.926 173.763 110.083 171.373 110.061C169.174 110.04 166.902 109.684 165.177 108.206C163.483 106.756 162.518 104.643 161.933 102.531C161.431 100.732 160.295 96.619 162.951 95.977ZM197.82 217.454C199.724 217.988 201.687 218.39 203.538 219.098C205.111 219.701 206.49 220.711 207.801 221.753C208.918 222.642 210.025 223.601 211.181 224.485C205.041 223.608 198.969 222.284 193.012 220.534C193.915 219.01 193.951 217.104 192.421 215.817C194.209 216.4 196.008 216.946 197.82 217.454ZM225.91 141.677C225.66 140.568 225.439 139.444 225.244 138.314C225.672 139.385 225.884 140.524 225.91 141.677ZM237.736 78.8881C238.1 79.1077 238.579 79.1263 238.971 78.7429C239.783 77.954 240.789 77.5975 241.913 77.6465C243.26 77.7056 243.257 75.6075 241.913 75.5484C240.511 75.4876 239.172 75.9285 238.073 76.7613C238.215 75.839 238.351 74.9166 238.479 73.9943C238.653 72.7459 238.813 71.4975 238.966 70.2474C239.246 70.8657 240.05 71.2373 240.613 70.5836C241.388 69.6849 242.399 68.7287 243.627 68.5699C244.847 68.4128 245.646 69.3757 245.922 70.4687C246.27 71.8404 245.909 73.3337 245.675 74.697C245.481 75.8271 245.267 76.9556 244.992 78.0705C244.461 80.2277 243.717 82.4221 242.325 84.1874C240.67 86.2855 238.216 87.1505 235.908 88.3076C236.617 85.1858 237.217 82.042 237.736 78.8881ZM213.894 109.804C209.643 109.453 204.618 108.331 202.754 103.959C201.923 102.008 202.233 99.8742 203.593 98.2474C205.024 96.5362 207.1 95.6578 209.23 95.1847C214.929 93.9178 221.221 94.379 226.872 95.651C226.919 95.6611 226.966 95.6679 227.012 95.673C227.133 95.8132 227.305 95.923 227.536 95.9787C229.94 96.5581 229.164 100.008 228.764 101.716C228.324 103.601 227.635 105.503 226.43 107.04C223.444 110.851 218.173 110.157 213.894 109.804ZM179.947 136.307C184.77 139.287 190.493 140.924 196.172 140.679C201.97 140.429 207.125 138.1 211.512 134.354C215.628 130.841 219.164 126.648 222.194 122.095C221.842 128.859 222.435 135.817 223.919 142.353C224.167 143.441 225.588 143.249 225.905 142.404C225.859 143.382 225.685 144.362 225.391 145.313C224.374 148.602 221.921 151.286 219.241 153.342C216.235 155.648 212.797 157.3 209.473 159.079C206.215 160.821 203.121 162.784 200.282 165.159C197.586 167.416 195.172 169.978 193.044 172.771C190.951 167.512 186.597 163.645 182.067 160.412C176.851 156.69 170.898 153.393 167.455 147.774C166.902 146.87 166.42 145.918 166.034 144.929C166.409 144.902 166.741 144.671 166.823 144.173C167.88 137.816 168.4 131.278 168.352 124.803C171.386 129.373 175.197 133.373 179.947 136.307ZM169.385 167.564C163.921 167.583 159.044 170.686 155.391 174.538C153.955 176.051 152.658 177.69 151.414 179.367C151.788 164.361 154.668 149.458 159.948 135.402C160.431 134.116 161.129 131.849 162.755 131.65C163.49 131.56 164.098 132.033 164.707 132.373C165.143 132.616 165.576 132.804 166.031 132.932C165.846 135.78 165.551 138.62 165.145 141.427C165.005 140.242 165.028 139.035 165.266 137.831C165.527 136.512 163.51 135.947 163.247 137.273C161.982 143.674 165.404 149.783 169.963 154.03C174.748 158.486 180.726 161.397 185.522 165.836C188.091 168.216 190.304 171.017 191.409 174.382C189.106 174.382 186.804 174.382 184.5 174.382C184.426 174.054 184.214 173.754 183.828 173.603C181.366 172.634 179.216 171.041 176.914 169.76C174.576 168.46 172.086 167.556 169.385 167.564ZM185.557 214.505C182.246 214.53 178.934 214.554 175.623 214.579C175.404 214.581 175.185 214.582 174.966 214.584C174.966 208.886 174.966 203.188 174.966 197.49C174.966 193.24 174.966 188.991 174.966 184.741C174.966 182.587 174.863 180.405 174.966 178.252C175.028 176.931 176.029 176.48 177.165 176.48C178.23 176.48 179.297 176.48 180.362 176.48C184.327 176.48 188.292 176.48 192.257 176.48C196.494 176.48 200.73 176.48 204.967 176.48C206.372 176.48 207.777 176.48 209.183 176.48C209.798 176.48 210.565 176.372 211.165 176.551C212.607 176.982 212.395 178.592 212.406 179.779C212.42 181.041 212.428 182.303 212.437 183.565C212.455 186.535 212.465 189.505 212.477 192.476C212.497 197.919 212.496 203.362 212.577 208.805C212.582 209.146 212.587 209.489 212.594 209.83C209.496 208.815 206.187 208.423 203.02 207.707C199.48 206.904 195.971 205.957 192.51 204.864C189.509 203.916 185.923 202.154 182.753 203.36C180.309 204.291 178.343 207.107 179.659 209.69C180.266 210.881 181.449 211.65 182.628 212.185C184.173 212.888 185.783 213.471 187.374 214.06C187.797 214.217 188.219 214.371 188.644 214.523C187.599 214.451 186.534 214.498 185.557 214.505ZM173.734 227.882C172.869 227.838 171.939 227.838 171.007 227.784C171.285 227.642 171.563 227.5 171.845 227.364C172.903 226.847 174.015 226.472 175.153 226.183C175.259 226.289 175.395 226.379 175.564 226.438C177.841 227.244 180.122 228.061 182.414 228.864C179.538 228.401 176.642 228.027 173.734 227.882Z" fill="#333333"/>
<path d="M232.707 247.502C232.065 248.689 233.87 249.748 234.514 248.561C236.79 244.358 238.176 239.788 238.659 235.033C238.796 233.692 236.701 233.7 236.566 235.033C236.123 239.405 234.799 243.641 232.707 247.502Z" fill="#333333"/>
<path d="M313.88 249.777C314.053 249.37 314.055 248.905 313.784 248.574C314.449 243.388 311.809 238.048 310.31 233.207C308.376 226.953 307.011 220.542 305.786 214.116C303.467 201.948 301.618 189.605 297.357 177.921C295.067 171.644 292.102 165.608 288.146 160.212C287.357 159.136 285.539 160.182 286.339 161.272C293.279 170.737 297.03 181.999 299.618 193.345C302.432 205.675 303.944 218.285 307.331 230.485C308.268 233.862 309.47 237.138 310.535 240.473C311.263 242.75 311.861 245.118 311.755 247.47C305.607 244.806 298.644 245.853 292.274 247.414C285.486 249.076 278.786 251.081 272.02 252.825C270.854 252.274 269.729 251.652 268.635 250.977C268.827 236.472 269.868 221.987 271.764 207.606C272.314 203.438 272.941 199.279 273.626 195.132C273.845 193.811 271.828 193.243 271.608 194.574C269.206 209.096 267.6 223.743 266.911 238.447C266.737 242.165 266.625 245.887 266.564 249.608C261.893 246.338 257.724 242.223 253.238 238.761C248.769 235.313 243.939 232.369 238.835 229.965C237.623 229.394 236.56 231.202 237.778 231.776C242.254 233.884 246.529 236.405 250.526 239.327C254.259 242.055 257.649 245.206 261.222 248.133C264.382 250.721 267.7 253.144 271.415 254.855C271.466 254.886 271.522 254.911 271.579 254.931C271.854 255.056 272.13 255.178 272.41 255.294C277.008 257.215 281.98 257.74 286.798 258.854C291.46 259.931 296.17 261.731 299.195 265.635C300.021 266.699 301.492 265.205 300.675 264.151C294.674 256.406 283.99 256.891 275.497 254.2C275.431 254.179 275.365 254.156 275.3 254.134C280.788 252.669 286.248 251.09 291.759 249.705C297.379 248.291 303.583 247.017 309.195 248.75C309.195 248.757 309.195 248.765 309.197 248.772C310.462 259.577 311.14 270.461 311.145 281.342C311.146 286.572 310.934 291.849 309.694 296.951C308.735 300.892 307.12 304.909 304.02 307.656C302.587 308.924 300.798 309.804 298.885 310.006C296.346 310.272 293.83 309.495 291.496 308.566C286.686 306.654 282.039 304.238 277.472 301.811C272.983 299.425 268.497 296.979 264.163 294.319C262.068 293.033 260.019 291.656 258.143 290.062C256.231 288.435 254.515 286.597 252.869 284.705C248.952 280.206 245.156 275.601 241.307 271.045C237.574 266.63 233.685 262.276 230.832 257.213C230.17 256.038 228.362 257.093 229.025 258.273C231.594 262.83 235.001 266.817 238.363 270.795C242.058 275.171 245.754 279.544 249.451 283.919C252.832 287.918 256.315 291.624 260.674 294.569C262.619 295.883 264.633 297.104 266.675 298.28C267.294 307.054 267.583 315.854 267.833 324.645C268.124 334.953 268.306 345.266 268.315 355.578C268.318 360.189 268.161 366.139 268.023 370.749C267.983 372.099 270.076 372.099 270.116 370.749C270.386 361.777 270.431 351.452 270.305 342.479C270.16 332.167 269.902 321.856 269.476 311.553C269.309 307.537 269.115 303.52 268.851 299.51C270.677 300.527 272.516 301.517 274.343 302.508C279.115 305.096 283.961 307.561 288.934 309.744C293.37 311.69 298.307 313.281 302.918 310.936C306.573 309.076 308.945 305.368 310.423 301.66C312.316 296.912 312.914 291.643 313.14 286.57C313.413 280.392 313.202 274.174 312.897 268.001C312.671 263.442 312.333 258.888 311.889 254.345C311.945 254.276 311.994 254.195 312.036 254.098C312.646 252.656 313.263 251.216 313.88 249.777ZM311.438 249.627C311.426 249.676 311.414 249.725 311.401 249.772C311.394 249.715 311.387 249.656 311.381 249.598C311.399 249.608 311.419 249.618 311.438 249.627Z" fill="#333333"/>
<path d="M280.702 162.674C277.115 169.578 274.444 176.93 272.787 184.537C272.501 185.853 274.518 186.415 274.806 185.094C276.424 177.661 279.004 170.48 282.51 163.733C283.131 162.535 281.324 161.474 280.702 162.674Z" fill="#333333"/>
<path d="M168.847 57.3242C171.142 54.5048 175.114 52.035 178.565 54.4963C179.665 55.2802 180.71 53.4625 179.622 52.6854C176.271 50.2968 171.942 51.5384 169.069 54.0554C167.59 55.3511 166.584 57.0286 165.271 58.4712C163.82 60.0659 161.976 60.8278 159.823 60.5541C158.49 60.3852 158.502 62.485 159.823 62.6522C161.639 62.882 163.552 62.463 165.074 61.4258C166.646 60.3514 167.664 58.7787 168.847 57.3242Z" fill="#333333"/>
<path d="M184.96 51.1904C183.418 47.0027 180.289 43.8521 177.131 40.8283C176.157 39.8958 174.676 41.3773 175.651 42.3115C178.518 45.0566 181.538 47.9351 182.943 51.7479C183.405 53.0047 185.429 52.4608 184.96 51.1904Z" fill="#333333"/>
<path d="M233.365 55.6282C234.475 54.8765 233.429 53.0588 232.308 53.8173C229.396 55.7887 226.064 57.8733 222.435 57.9291C219.029 57.9797 216.513 55.8394 214.194 53.5977C211.785 51.2682 209.366 49.0738 206.267 47.6953C203.158 46.3118 199.732 45.6563 196.338 46.0803C192.614 46.5466 189.112 48.1632 186.452 50.8374C185.5 51.7952 186.979 53.2784 187.931 52.3206C192.901 47.3254 200.637 46.9385 206.646 50.2174C212.11 53.199 215.537 60.1302 222.433 60.0272C226.452 59.9647 230.129 57.8176 233.365 55.6282Z" fill="#333333"/>
<path d="M234.964 73.8913C236.302 73.8102 236.312 71.7121 234.964 71.7932C230.196 72.0821 226.507 68.1122 227.032 63.3771C227.18 62.0375 225.087 62.0477 224.939 63.3771C224.293 69.2001 229.153 74.2444 234.964 73.8913Z" fill="#333333"/>
<path d="M174.511 11.6609C182.389 5.83112 192.053 -0.834833 202.174 3.55902C206.293 5.34629 209.821 8.22654 213.874 10.1456C218.175 12.1829 223.06 12.2927 227.259 14.5732C231.469 16.8605 234.787 20.5094 236.698 24.9049C237.235 26.1398 239.038 25.0722 238.504 23.8457C236.723 19.7509 233.725 16.2574 230.018 13.7894C228.132 12.5342 226.043 11.5595 223.87 10.9226C221.373 10.1912 218.771 9.88204 216.333 8.94111C211.896 7.22816 208.19 4.0827 203.908 2.05555C199.217 -0.164184 194.207 -0.496975 189.217 0.916964C183.322 2.58599 178.314 6.25175 173.454 9.84995C172.382 10.6422 173.425 12.4633 174.511 11.6609Z" fill="#333333"/>
<path d="M151.057 60.7247C151.672 61.9258 153.478 60.8666 152.863 59.6655C151.335 56.6839 149.805 53.6618 148.992 50.3913C148.116 46.859 148.6 43.6054 149.545 40.1474C150.391 37.0526 151.352 33.9528 153.232 31.3124C154.961 28.8849 157.369 27.0317 160.077 25.829C161.306 25.2833 160.243 23.4741 159.021 24.018C154.245 26.1398 150.86 30.113 148.994 34.9461C147.953 37.6456 147.102 40.5596 146.633 43.4179C146.172 46.2322 146.409 49.0348 147.196 51.7714C148.096 54.9034 149.576 57.8377 151.057 60.7247Z" fill="#333333"/>
<path d="M163.095 21.0721C163.857 16.5465 166.481 12.5277 170.38 10.1001C171.523 9.38896 170.473 7.57297 169.324 8.28923C164.996 10.9836 161.926 15.4687 161.076 20.5146C160.854 21.8357 162.871 22.4033 163.095 21.0721Z" fill="#333333"/>
<path d="M194.867 37.2505C199.729 34.9699 205.278 35.0375 210.527 35.0679C211.874 35.0764 211.875 32.9783 210.527 32.9698C204.67 32.936 198.578 32.985 193.238 35.7217C188.603 38.0951 184.979 42.7694 185.225 48.1718C185.285 49.5165 187.38 49.5232 187.318 48.1718C187.092 43.2137 190.6 39.2506 194.867 37.2505Z" fill="#333333"/>
<path d="M170.923 24.9556C174.708 27.0994 177.783 30.2279 179.873 34.0491C180.52 35.2333 182.328 34.1758 181.679 32.9899C179.428 28.8697 176.059 25.454 171.98 23.1447C170.805 22.4791 169.748 24.2918 170.923 24.9556Z" fill="#333333"/>
<path d="M165.123 78.2443C170.187 73.6157 178.336 74.2677 182.5 79.7765C183.304 80.8391 185.12 79.7951 184.306 78.7173C181.974 75.631 178.57 73.5701 174.718 73.0987C170.69 72.6055 166.621 74.0397 163.643 76.7611C162.646 77.6717 164.128 79.1515 165.123 78.2443Z" fill="#333333"/>
<path d="M214.629 76.9926C211.021 76.5804 207.57 78.3322 204.506 80.0215C203.325 80.6719 204.38 82.4845 205.563 81.8324C208.099 80.4354 210.869 78.9488 213.85 79.0316C216.016 79.0924 218.473 80.1482 219.337 82.2767C219.839 83.5099 221.865 82.971 221.356 81.7192C220.215 78.9133 217.568 77.3288 214.629 76.9926Z" fill="#333333"/>
<path d="M192.791 113.988C191.589 114.598 192.648 116.409 193.847 115.799C196.52 114.444 198.562 111.733 198.176 108.613C198.104 108.028 197.991 107.375 197.582 106.922C197.046 106.329 196.21 106.625 195.706 106.077C195.207 105.535 195.254 104.597 195.246 103.923C195.236 103.003 195.259 102.08 195.297 101.161C195.35 99.8116 193.258 99.8133 193.204 101.161C193.113 103.464 192.594 107.474 195.479 108.366C195.682 108.429 196.045 108.603 196.073 108.493C196.136 108.724 196.131 109.033 196.136 109.214C196.158 109.885 196.013 110.552 195.738 111.162C195.148 112.464 194.036 113.356 192.791 113.988Z" fill="#333333"/>
<path d="M204.84 115.341C204.838 115.325 204.837 115.309 204.835 115.292C204.694 114.275 203.485 114.367 203.003 115.056C200.455 117.005 196.489 117.23 193.423 117.173C189.957 117.108 186.511 116.343 183.344 114.928C182.697 114.637 182.092 115.012 181.853 115.507C181.7 115.673 181.597 115.897 181.588 116.184C181.496 119.404 182.594 122.44 184.067 125.256C184.836 126.724 185.693 128.148 186.573 129.552C187.311 130.731 188.122 131.903 189.221 132.775C191.499 134.582 194.549 134.488 197.041 133.165C199.773 131.716 201.51 128.905 202.862 126.222C204.498 122.977 205.272 119.609 204.921 116.015C204.995 115.787 204.956 115.549 204.84 115.341ZM200.444 126.322C198.951 129.031 196.709 132.018 193.305 132.07C189.942 132.123 188.305 128.459 186.86 125.972C185.303 123.291 183.917 120.436 183.707 117.328C186.914 118.571 190.306 119.252 193.76 119.272C196.794 119.291 200.184 118.97 202.941 117.527C202.985 120.642 201.964 123.562 200.444 126.322Z" fill="#333333"/>
<path d="M25.0274 89.2857C25.0661 83.9813 26.8372 78.7884 30.071 74.5888C33.2357 70.4771 37.6845 67.4313 42.6743 66.0157C45.3604 65.2538 48.092 65.1001 50.8607 65.1001C57.3722 65.1001 63.8819 65.1001 70.3933 65.1001C74.8034 65.1001 79.2134 65.0849 83.6234 65.095C83.5122 64.7436 83.3926 64.3956 83.2645 64.0527C82.8163 64.3027 82.25 64.2503 81.9905 63.6439C81.3569 62.1674 80.5902 60.7552 79.6751 59.4342C75.9611 54.0723 69.8372 50.5316 63.3426 50.0214C61.1182 49.8474 58.85 49.9488 56.6223 49.9488C48.2336 49.9488 39.8449 49.9488 31.4562 49.9488C29.3649 49.9488 27.2737 49.9403 25.1807 49.9488C19.2658 49.9741 13.565 52.3239 9.39758 56.5455C5.2757 60.7248 3.01423 66.3789 2.99232 72.239C2.97884 75.8254 2.99232 79.4134 2.99232 82.9998C2.99232 88.2637 4.39437 93.2944 7.66356 97.4889C11.5158 102.432 17.3599 105.549 23.5967 106C24.2539 106.047 24.5892 106.577 24.601 107.094C24.7864 107.099 24.9734 107.101 25.1605 107.101H25.7941C25.0762 104.116 25.0274 101.089 25.0274 97.999C25.0274 95.0935 25.0055 92.1896 25.0274 89.2857Z" fill="#DCF4FF"/>
<path d="M107.799 98.3299C107.799 95.372 107.811 92.414 107.799 89.4561C107.779 84.547 106.195 79.7393 103.193 75.8437C100.118 71.8519 95.7063 68.9903 90.8194 67.8078C88.4669 67.2385 86.1077 67.1962 83.7097 67.1962C77.2842 67.1962 70.8587 67.1962 64.4316 67.1962C59.4081 67.1962 54.383 67.1777 49.3596 67.1962C39.6733 67.2334 30.8718 73.6274 28.0643 82.9759C27.0532 86.3427 27.119 89.7297 27.119 93.1945C27.119 96.0849 27.0347 98.9887 27.1324 101.877C27.4846 112.27 35.3071 121.167 45.4922 122.973C48.2895 123.47 51.2183 123.293 54.0494 123.293C57.3893 123.293 60.7293 123.293 64.0693 123.293C64.3895 123.293 64.7248 123.266 65.0433 123.293C65.8791 123.364 66.661 124.156 67.3351 124.624C69.455 126.095 71.585 127.55 73.7235 128.994C78.2498 132.053 82.8048 135.072 87.3732 138.069C91.1918 140.574 95.0188 143.067 98.8575 145.542C94.1475 138.652 89.4392 131.761 84.7292 124.87C84.2692 124.196 84.8843 123.296 85.6325 123.293C88.2866 123.277 90.8952 122.82 93.3875 121.899C102.01 118.711 107.748 110.228 107.799 101.072C107.799 100.159 107.799 99.2455 107.799 98.3299ZM40.9018 82.3289C45.0473 82.3289 49.1928 82.3289 53.3365 82.3289C54.6847 82.3289 54.683 84.427 53.3365 84.427C49.1911 84.427 45.0456 84.427 40.9018 84.427C39.5537 84.427 39.5554 82.3289 40.9018 82.3289ZM40.9018 93.431C42.4859 93.431 44.0682 93.431 45.6523 93.431C52.5058 93.431 59.361 93.431 66.2145 93.431C70.5352 93.431 74.8576 93.431 79.1783 93.431C80.5265 93.431 80.5248 95.5291 79.1783 95.5291C77.5943 95.5291 76.0119 95.5291 74.4279 95.5291C67.5744 95.5291 60.7192 95.5291 53.8657 95.5291C49.545 95.5291 45.2225 95.5291 40.9018 95.5291C39.5537 95.5291 39.5554 93.431 40.9018 93.431ZM96.0838 106.633C93.8021 106.633 91.5187 106.633 89.2353 106.633C79.3317 106.633 69.4297 106.633 59.5261 106.633C53.318 106.633 47.1099 106.633 40.9001 106.633C39.552 106.633 39.5537 104.535 40.9001 104.535C43.1818 104.535 45.4652 104.535 47.7486 104.535C57.6505 104.535 67.5542 104.535 77.4561 104.535C83.6642 104.535 89.8723 104.535 96.0821 104.535C97.4319 104.535 97.4302 106.633 96.0838 106.633ZM96.0838 95.5291C92.2956 95.5291 88.5073 95.5291 84.7191 95.5291C83.371 95.5291 83.3727 93.431 84.7191 93.431C88.5073 93.431 92.2956 93.431 96.0838 93.431C97.4319 93.431 97.4302 95.5291 96.0838 95.5291ZM96.0838 84.427C94.6767 84.427 93.2679 84.427 91.8608 84.427C85.7959 84.427 79.7328 84.427 73.6679 84.427C69.8712 84.427 66.0729 84.427 62.2763 84.427C60.9281 84.427 60.9298 82.3289 62.2763 82.3289C63.6834 82.3289 65.0922 82.3289 66.4993 82.3289C72.5641 82.3289 78.6273 82.3289 84.6921 82.3289C88.4888 82.3289 92.2871 82.3289 96.0838 82.3289C97.4319 82.3289 97.4302 84.427 96.0838 84.427Z" fill="#FFE7C5"/>
<path d="M23.5967 105.998C17.36 105.547 11.5176 102.43 7.66362 97.4869C4.39442 93.2924 2.99238 88.2617 2.99238 82.9979C2.99238 79.4115 2.9789 75.8234 2.99238 72.2371C3.01428 66.3769 5.27576 60.7228 9.39764 56.5486C13.565 52.3254 19.2659 49.9772 25.1808 49.9519C27.272 49.9434 29.365 49.9519 31.4563 49.9519C39.845 49.9519 48.2336 49.9519 56.6223 49.9519C58.8518 49.9519 61.1183 49.8489 63.3427 50.0245C69.8373 50.5347 75.9611 54.0738 79.6752 59.4373C80.5902 60.7583 81.357 62.1689 81.9906 63.647C82.2501 64.2535 82.818 64.3058 83.2646 64.0558C83.7297 63.7973 84.065 63.2145 83.7971 62.5878C81.1109 56.3239 75.8196 51.403 69.3924 49.1714C65.98 47.9872 62.5035 47.8538 58.9495 47.8538C50.458 47.8538 41.9666 47.8538 33.4768 47.8538C30.7873 47.8538 28.0994 47.8504 25.4099 47.8538C19.9669 47.8606 14.684 49.5684 10.3632 52.9099C5.26396 56.8544 1.91556 62.7213 1.09658 69.1254C0.870771 70.8941 0.899419 72.6628 0.899419 74.4416C0.899419 76.7103 0.899419 78.979 0.899419 81.2478C0.899419 83.0012 0.852234 84.7632 1.05108 86.5082C1.42519 89.7821 2.42617 92.9545 4.05065 95.8247C7.19177 101.376 12.5286 105.563 18.666 107.268C20.2753 107.716 21.9318 107.976 23.5967 108.097C24.2809 108.146 24.6146 107.628 24.6011 107.094C24.5893 106.575 24.2539 106.045 23.5967 105.998Z" fill="#333333"/>
<path d="M108.555 81.4489C105.155 71.7253 95.8612 65.1455 85.5986 65.1016C84.9397 65.0982 84.2809 65.0982 83.6236 65.0965C79.2136 65.0864 74.8036 65.1016 70.3935 65.1016C63.8821 65.1016 57.3724 65.1016 50.8609 65.1016C48.0922 65.1016 45.3606 65.2536 42.6745 66.0172C37.6847 67.4328 33.2359 70.4786 30.0712 74.5903C26.8374 78.7916 25.068 83.9828 25.0276 89.2872C25.0057 92.1911 25.0276 95.095 25.0276 97.9972C25.0276 101.087 25.0764 104.114 25.7943 107.099C25.9409 107.711 26.1145 108.319 26.3218 108.927C28.0086 113.844 31.2441 118.11 35.4974 121.083C39.5485 123.914 44.422 125.377 49.3494 125.396C52.1871 125.406 55.0233 125.396 57.861 125.396C59.6001 125.396 61.3409 125.396 63.08 125.396C63.5956 125.396 64.1113 125.396 64.6269 125.396C64.696 125.396 64.7668 125.398 64.8359 125.398C64.846 125.465 65.1173 125.631 65.2673 125.737C69.7565 128.872 74.298 131.928 78.8564 134.961C86.1497 139.812 93.4885 144.595 100.859 149.326C101.272 149.592 101.685 149.857 102.1 150.12C102.959 150.669 104.127 149.556 103.532 148.684C98.5591 141.409 93.5879 134.135 88.6151 126.859C88.2612 126.342 87.9073 125.823 87.5534 125.306C96.8555 124.511 105.062 118.387 108.382 109.527C109.391 106.831 109.875 103.95 109.892 101.075C109.892 98.1881 109.892 95.3011 109.892 92.4158C109.892 88.6773 109.809 85.0302 108.555 81.4489ZM107.799 98.33C107.799 99.2439 107.799 100.159 107.799 101.073C107.747 110.231 102.009 118.713 93.3874 121.901C90.8951 122.823 88.2865 123.279 85.6323 123.294C84.8841 123.299 84.2691 124.2 84.7291 124.872C89.4391 131.763 94.1474 138.653 98.8574 145.544C95.0186 143.069 91.1917 140.576 87.3731 138.071C82.8047 135.074 78.2497 132.057 73.7234 128.996C71.5866 127.551 69.4549 126.097 67.335 124.626C66.6609 124.158 65.879 123.365 65.0432 123.294C64.723 123.267 64.3893 123.294 64.0692 123.294C60.7292 123.294 57.3892 123.294 54.0492 123.294C51.2199 123.294 48.2894 123.47 45.492 122.975C35.307 121.168 27.4862 112.272 27.1323 101.879C27.0346 98.9905 27.1188 96.0866 27.1188 93.1962C27.1188 89.7315 27.0531 86.3427 28.0642 82.9777C30.8733 73.6291 39.6732 67.2351 49.3595 67.198C54.3829 67.1794 59.408 67.198 64.4315 67.198C70.8569 67.198 77.2824 67.198 83.7096 67.198C86.1076 67.198 88.4651 67.2402 90.8192 67.8095C95.7062 68.992 100.12 71.8537 103.193 75.8455C106.195 79.741 107.779 84.5487 107.799 89.4578C107.811 92.4158 107.799 95.3737 107.799 98.33Z" fill="#333333"/>
<path d="M96.0838 82.3289C92.2872 82.3289 88.4889 82.3289 84.6922 82.3289C78.6273 82.3289 72.5642 82.3289 66.4993 82.3289C65.0922 82.3289 63.6834 82.3289 62.2763 82.3289C60.9299 82.3289 60.9282 84.427 62.2763 84.427C66.073 84.427 69.8713 84.427 73.668 84.427C79.7328 84.427 85.796 84.427 91.8608 84.427C93.2679 84.427 94.6767 84.427 96.0838 84.427C97.4303 84.427 97.432 82.3289 96.0838 82.3289Z" fill="#333333"/>
<path d="M40.9016 84.427C45.047 84.427 49.1925 84.427 53.3363 84.427C54.6827 84.427 54.6844 82.3289 53.3363 82.3289C49.1908 82.3289 45.0454 82.3289 40.9016 82.3289C39.5551 82.3289 39.5535 84.427 40.9016 84.427Z" fill="#333333"/>
<path d="M96.0836 93.4309C92.2954 93.4309 88.5072 93.4309 84.719 93.4309C83.3725 93.4309 83.3708 95.529 84.719 95.529C88.5072 95.529 92.2954 95.529 96.0836 95.529C97.4301 95.529 97.4317 93.4309 96.0836 93.4309Z" fill="#333333"/>
<path d="M40.9016 95.529C45.2223 95.529 49.5447 95.529 53.8654 95.529C60.719 95.529 67.5741 95.529 74.4277 95.529C76.0117 95.529 77.5941 95.529 79.1781 95.529C80.5245 95.529 80.5262 93.4309 79.1781 93.4309C74.8574 93.4309 70.535 93.4309 66.2142 93.4309C59.3607 93.4309 52.5055 93.4309 45.652 93.4309C44.068 93.4309 42.4856 93.4309 40.9016 93.4309C39.5551 93.4309 39.5535 95.529 40.9016 95.529Z" fill="#333333"/>
<path d="M96.0835 104.535C89.8754 104.535 83.6673 104.535 77.4576 104.535C67.5556 104.535 57.652 104.535 47.75 104.535C45.4666 104.535 43.185 104.535 40.9016 104.535C39.5551 104.535 39.5535 106.633 40.9016 106.633C47.1097 106.633 53.3178 106.633 59.5276 106.633C69.4312 106.633 79.3331 106.633 89.2368 106.633C91.5185 106.633 93.8019 106.633 96.0852 106.633C97.43 106.633 97.4317 104.535 96.0835 104.535Z" fill="#333333"/>
</svg>
