<svg width="11" height="13" viewBox="0 0 11 13" fill="none" xmlns="http://www.w3.org/2000/svg">
<path d="M8.81643 4.04756L8.50124 4.36275L8.77832 4.71192C9.41526 5.51458 9.79623 6.52106 9.79623 7.60835C9.79623 10.1739 7.72149 12.2537 5.15092 12.2537C2.58036 12.2537 0.505615 10.1739 0.505615 7.60835C0.505615 5.04314 2.58571 2.96305 5.15092 2.96305C6.2441 2.96305 7.24983 3.34409 8.05153 3.98545L8.40099 4.26501L8.71743 3.94857L9.19377 3.47223C9.22697 3.50483 9.25986 3.53794 9.29246 3.57153L8.81643 4.04756ZM3.93582 1.39706V1.25366H6.36602V1.39706H3.93582ZM5.22262 5.25557V7.68577H5.07922V5.25557H5.22262ZM0.649017 7.61407C0.649017 10.1027 2.6623 12.116 5.15092 12.116C7.63955 12.116 9.65283 10.1027 9.65283 7.61407C9.65283 5.12545 7.63955 3.11217 5.15092 3.11217C2.6623 3.11217 0.649017 5.12545 0.649017 7.61407Z" stroke="url(#paint0_linear_113_1794)"/>
<defs>
<linearGradient id="paint0_linear_113_1794" x1="5.15092" y1="0.753662" x2="6.74662" y2="17.8374" gradientUnits="userSpaceOnUse">
<stop stop-color="#F18720"/>
<stop offset="0.979167" stop-color="#E33C34"/>
</linearGradient>
</defs>
</svg>
