<svg width="8" height="8" viewBox="0 0 8 8" fill="none" xmlns="http://www.w3.org/2000/svg">
<path d="M3.72285 7.2936C1.83128 7.2936 0.297852 5.76018 0.297852 3.8686C0.297852 1.97703 1.83128 0.443604 3.72285 0.443604C5.61443 0.443604 7.14785 1.97703 7.14785 3.8686C7.14578 5.75932 5.61357 7.29153 3.72285 7.2936ZM3.72285 1.1286C2.20959 1.1286 0.982852 2.35534 0.982852 3.8686C0.982852 5.38186 2.20959 6.6086 3.72285 6.6086C5.23611 6.6086 6.46285 5.38186 6.46285 3.8686C6.46115 2.35605 5.23541 1.1303 3.72285 1.1286ZM5.43535 4.2111H3.38035V2.1561H4.06535V3.5261H5.43535V4.2111Z" fill="url(#paint0_linear_11_1256)"/>
<defs>
<linearGradient id="paint0_linear_11_1256" x1="3.72285" y1="0.443604" x2="3.72285" y2="7.2936" gradientUnits="userSpaceOnUse">
<stop stop-color="#F18720"/>
<stop offset="1" stop-color="#E33C34"/>
</linearGradient>
</defs>
</svg>
