<svg width="14" height="13" viewBox="0 0 14 13" fill="none" xmlns="http://www.w3.org/2000/svg">
<path d="M5.02116 0.609375C3.18021 0.609375 1.68783 2.10176 1.68783 3.94271C1.68783 5.78366 3.18021 7.27604 5.02116 7.27604C6.86211 7.27604 8.35449 5.78366 8.35449 3.94271C8.35449 2.10176 6.86211 0.609375 5.02116 0.609375ZM3.02116 3.94271C3.02116 2.83814 3.91659 1.94271 5.02116 1.94271C6.12573 1.94271 7.02116 2.83814 7.02116 3.94271C7.02116 5.04728 6.12573 5.94271 5.02116 5.94271C3.91659 5.94271 3.02116 5.04728 3.02116 3.94271Z" fill="url(#paint0_linear_602_748)"/>
<path d="M10.2934 4.08823C10.1059 3.9926 9.89835 3.94275 9.68783 3.94275V2.60942C10.1089 2.60942 10.524 2.70908 10.8991 2.90034C10.9404 2.92141 10.9811 2.94352 11.0212 2.96664C11.3448 3.15347 11.6259 3.4065 11.846 3.70974C12.0933 4.05052 12.2564 4.44502 12.322 4.86095C12.3875 5.27689 12.3536 5.70243 12.2231 6.10274C12.0926 6.50306 11.8691 6.86678 11.571 7.16413C11.2728 7.46148 10.9085 7.684 10.5079 7.81348C10.1514 7.92871 9.77505 7.96735 9.40352 7.92751C9.35754 7.92258 9.31163 7.91645 9.26584 7.90911C8.85036 7.84252 8.45654 7.67856 8.11657 7.43064L8.11588 7.43013L8.90185 6.35309C9.07191 6.47719 9.26896 6.55922 9.47684 6.59254C9.68471 6.62585 9.89752 6.60947 10.0978 6.54472C10.2982 6.47998 10.4803 6.36873 10.6294 6.22006C10.7784 6.07139 10.8902 5.88953 10.9554 5.68938C11.0207 5.48923 11.0376 5.27646 11.0049 5.0685C10.9721 4.86054 10.8905 4.6633 10.7669 4.49292C10.6432 4.32253 10.481 4.18385 10.2934 4.08823Z" fill="url(#paint1_linear_602_748)"/>
<path d="M12.3532 12.6094C12.3532 12.2593 12.2843 11.9128 12.1503 11.5894C12.0164 11.266 11.8201 10.9722 11.5725 10.7247C11.325 10.4771 11.0312 10.2808 10.7078 10.1469C10.3844 10.0129 10.0379 9.94397 9.68783 9.94397V8.60938C10.1425 8.60938 10.5934 8.68691 11.0212 8.83814C11.0875 8.86161 11.1534 8.88685 11.2186 8.91386C11.7039 9.11488 12.1448 9.40951 12.5163 9.78095C12.8877 10.1524 13.1823 10.5933 13.3833 11.0786C13.4103 11.1438 13.4356 11.2097 13.4591 11.276C13.6103 11.7038 13.6878 12.1547 13.6878 12.6094H12.3532Z" fill="url(#paint2_linear_602_748)"/>
<path d="M9.68783 12.6094H8.35449C8.35449 10.7684 6.86211 9.27604 5.02116 9.27604C3.18021 9.27604 1.68783 10.7684 1.68783 12.6094H0.354492C0.354492 10.032 2.44383 7.94271 5.02116 7.94271C7.59849 7.94271 9.68783 10.032 9.68783 12.6094Z" fill="url(#paint3_linear_602_748)"/>
<defs>
<linearGradient id="paint0_linear_602_748" x1="0.354493" y1="-6.61433" x2="13.6877" y2="12.6094" gradientUnits="userSpaceOnUse">
<stop stop-color="#E74E30"/>
<stop offset="1" stop-color="#F18720"/>
</linearGradient>
<linearGradient id="paint1_linear_602_748" x1="0.354493" y1="-6.61433" x2="13.6877" y2="12.6094" gradientUnits="userSpaceOnUse">
<stop stop-color="#E74E30"/>
<stop offset="1" stop-color="#F18720"/>
</linearGradient>
<linearGradient id="paint2_linear_602_748" x1="0.354493" y1="-6.61433" x2="13.6877" y2="12.6094" gradientUnits="userSpaceOnUse">
<stop stop-color="#E74E30"/>
<stop offset="1" stop-color="#F18720"/>
</linearGradient>
<linearGradient id="paint3_linear_602_748" x1="0.354493" y1="-6.61433" x2="13.6877" y2="12.6094" gradientUnits="userSpaceOnUse">
<stop stop-color="#E74E30"/>
<stop offset="1" stop-color="#F18720"/>
</linearGradient>
</defs>
</svg>
