<svg width="352" height="192" viewBox="0 0 352 192" fill="none" xmlns="http://www.w3.org/2000/svg">
<path d="M125.339 151.285L125.308 151.25C124.508 150.978 123.698 150.583 122.951 150.141L121.657 150.1C119.226 150.212 116.785 150.096 114.375 149.756C113.833 149.68 113.282 149.587 112.799 149.331C112.366 149.101 112.012 148.753 111.645 148.429C110.472 147.395 108.666 145.718 107.196 145.184H107.195C98.8353 144.252 90.6332 143.049 82.1499 143.769L82.0487 143.777C81.8724 144.246 81.4828 144.642 81.0361 144.89C80.4309 145.224 79.7304 145.334 79.0466 145.434C80.1307 145.31 80.8502 146.007 80.7037 146.75C80.5584 147.492 79.8424 147.961 79.1836 148.335C78.3104 148.83 77.4252 149.305 76.5282 149.759L76.6402 149.786C76.9177 149.871 77.2954 150.603 77.2191 150.883C77.1429 151.162 76.9285 151.381 76.72 151.584C74.3791 153.846 71.6486 155.658 68.936 157.459C68.3535 157.846 67.7674 158.232 67.1455 158.551H136.15C134.684 157.97 133.358 157.06 132.055 156.162C129.815 154.616 127.578 152.828 125.339 151.285Z" fill="#7CB4EA"/>
<path d="M54.0769 105.973C53.8457 106.57 52.9987 108.461 52.7474 109.053C51.7395 111.422 50.0014 115.098 51.294 115.623L51.5013 115.808C51.6811 115.375 51.867 114.946 52.0612 114.519L56.4106 114.644C55.6422 111.641 54.8893 108.634 54.1722 105.618L54.0769 105.973Z" fill="#8EC3EF"/>
<path d="M162.359 83.1972L160.883 81.5121C157.414 77.4756 151.358 76.5354 146.522 74.3077C142.953 72.6631 139.691 70.3521 136.957 67.5306L136.603 67.3818C135.844 67.8281 135.066 68.2434 134.275 68.6302C134.416 68.8253 134.519 68.9527 134.519 68.9527C134.898 70.8912 133.862 72.8892 132.375 74.1911C130.887 75.493 129.004 76.2344 127.161 76.9519C123.534 78.3621 119.883 79.7806 116.058 80.4982C113.476 80.9825 110.689 81.1134 108.336 79.9472C105.537 78.5597 103.846 75.5323 103.282 72.462C102.719 69.3918 102.598 66.8487 102.999 63.7523C103.681 62.8848 104.348 61.9911 104.985 61.0759L104.323 60.9557C103.934 60.3964 103.118 60.2929 102.467 60.4988C101.817 60.7047 101.274 61.1473 100.697 61.5127C99.3795 62.3493 97.8582 62.7967 96.3632 63.2453C86.716 66.1395 77.2094 69.5013 67.8875 73.3129L66.4889 73.7972C65.1809 73.3414 63.6882 74.6445 62.7709 75.6822C61.8536 76.7187 61.3925 78.0729 60.9875 79.3962C59.6187 83.8671 58.6204 88.4546 57.5613 93.0184L57.4041 93.605C76.2778 96.8431 95.7711 98.6019 114.825 100.007C123.069 100.615 131.312 101.224 139.556 101.832C138.935 109.508 138.324 117.223 138.897 124.904C139.111 127.768 139.497 130.635 140.099 133.449L141.992 128.036C144.165 126.238 147.007 125.461 149.798 125.05C152.73 124.619 155.744 124.541 158.64 125.17C161.094 125.705 163.464 126.773 165.361 128.403C165.361 128.402 165.361 128.402 165.361 128.401L165.544 128.562C165.484 128.508 165.422 128.456 165.361 128.403C165.156 129.83 164.905 131.286 164.612 132.757L164.837 132.742C165.537 132.987 166.172 132.956 166.508 132.551C166.844 132.145 166.888 131.58 166.918 131.054C167.011 129.4 167.103 127.747 167.196 126.092C167.495 120.739 167.794 115.382 167.848 110.02C167.942 100.771 167.181 91.0929 162.359 83.1972Z" fill="#7CB4EA"/>
<path d="M131.397 55.5243C130.249 54.5461 129.33 53.2692 128.876 51.8364L128.956 52.1363C128.538 55.2661 128.52 58.4482 128.906 61.5815C128.975 62.1455 129.067 62.731 129.39 63.1975C129.852 63.8675 130.708 64.1626 131.522 64.2007C133.595 64.2983 135.475 63.0226 137.004 61.6219C138.037 60.6759 138.995 59.6453 139.862 58.5457L140.241 58.4886C138.795 58.4696 137.352 58.2566 135.961 57.8603C134.304 57.3879 132.707 56.6405 131.397 55.5243Z" fill="#EBA9AC"/>
<path d="M160.527 25.1244C160.485 23.5393 159.726 22.0862 159.34 20.5487C159.283 20.3203 158.245 17.9355 158.245 17.9355L155.926 15.5804C156.126 13.8359 155.372 12.0865 154.244 10.7406C153.116 9.39473 151.638 8.39154 150.158 7.44548C148.771 6.55892 147.354 5.70329 145.833 5.07616C142.882 3.86115 139.511 3.49343 136.994 1.53467L133.97 2.29033C129.605 1.04795 124.732 1.71079 120.858 4.07535C118.88 5.28203 117.175 6.89331 115.219 8.1345C113.892 8.97584 112.443 9.65177 111.285 10.7121C110.129 11.7736 109.286 13.3634 109.644 14.8914L109.402 17.0037C108.327 20.3869 108.536 24.0248 108.756 27.5675C108.762 27.6627 108.786 27.7817 108.879 27.8043C108.892 27.8078 108.903 27.8067 108.914 27.8019L108.924 28.3505C109.216 28.4433 109.497 28.5825 109.757 28.7551C109.999 28.9158 110.222 29.1062 110.416 29.3156C111.107 30.0653 111.505 31.0292 111.835 31.9955C113.015 32.6679 114.821 32.9083 117.584 32.2621C120.996 31.4648 122.753 28.6087 123.612 25.316C123.811 25.2672 124.007 25.2124 124.199 25.1505C126.334 24.4615 128.165 23.0859 130.027 21.834C131.889 20.5821 133.908 19.4051 136.143 19.2064C136.143 19.2064 143.594 18.8673 145.66 20.5464C147.727 22.2255 149.733 22.404 149.733 22.404C149.733 22.404 153.036 22.1791 154.031 23.6571C155.025 25.1351 154.992 26.8546 154.992 26.8546C156.342 30.4604 156.294 34.5398 154.988 38.1562C155.567 37.7909 155.951 37.5327 155.958 37.4874C155.989 37.297 156.861 35.5156 156.861 35.5156C157.896 33.7306 158.783 31.8599 159.509 29.9285C160.087 28.3862 160.57 26.7713 160.527 25.1244Z" fill="#B2B0A1"/>
<path d="M78.5569 141.176C79.33 141.187 80.1258 141.202 80.8358 141.508C81.5458 141.813 82.157 142.483 82.1486 143.255C82.1463 143.436 82.1105 143.611 82.0474 143.778L82.1486 143.769C90.6319 143.048 98.834 144.251 107.193 145.184C110.374 145.539 113.579 145.854 116.83 146.01C117.447 146.04 118.064 146.062 118.68 146.084C119.951 146.128 121.222 146.161 122.492 146.208C128.952 146.447 135.446 146.619 142.346 148.599L143.144 148.847L143.119 148.829C143.259 148.872 143.397 148.914 143.536 148.958L142.948 148.702L142.526 148.388L143.535 148.958C142.9 148.072 142.297 147.17 141.723 146.254C142.59 146.572 144.331 146.605 145.197 146.923C142.737 142.764 141.11 138.182 140.096 133.449C139.493 130.635 139.107 127.767 138.894 124.904C138.322 117.223 138.932 109.509 139.553 101.832C131.309 101.224 123.065 100.616 114.821 100.008C95.7676 98.6021 76.2743 96.8433 57.4006 93.6052C56.2891 93.4148 55.18 93.2197 54.0733 93.0186C54.4938 94.4156 55.1526 96.6041 55.5731 98.0012L55.6351 98.1559C54.5212 97.9333 53.4169 97.6918 52.3232 97.4252C52.901 100.165 53.5205 102.895 54.1686 105.617C54.8857 108.633 55.6386 111.64 56.407 114.644C57.1206 117.432 57.8485 120.216 58.5764 123C59.5199 126.607 60.4622 130.213 61.4057 133.819L61.5892 134.29C62.1026 134.3 62.6161 134.355 63.1271 134.41C65.4919 134.667 67.8554 134.924 70.2201 135.18C71.303 135.297 72.5468 135.514 73.09 136.458C73.6809 137.482 73.0471 138.859 72.0512 139.499C71.0552 140.14 69.8199 140.242 68.6405 140.35C67.1442 140.488 65.6527 140.669 64.1671 140.887L64.3661 141.395C69.1396 141.139 74.3313 141.117 78.5569 141.176Z" fill="white"/>
<path d="M177.808 178.387C173.374 173.053 167.304 169.115 163.587 163.261L162.448 162.129C152.801 163.133 143.133 164.139 133.433 164.119C132.071 164.116 130.708 164.092 129.347 164.059C128.584 162.946 127.862 160.947 127.581 159.627L127.217 159.84C109.343 161.692 91.4682 163.532 73.5916 165.363H73.1079C74.9449 173.653 77.1524 183.104 78.9894 191.394C96.7493 190.15 114.073 185.11 131.828 183.804L133.358 183.612C133.358 183.612 133.058 182.328 132.634 180.511C136.32 180.63 140.001 180.985 143.69 181.016C146.386 181.038 149.08 180.886 151.771 180.735C160.596 180.239 169.422 179.742 178.247 179.246L177.808 178.387Z" fill="white"/>
<path d="M263.791 68.7002C263.031 63.8437 262.27 58.9884 261.51 54.132C261.205 52.1851 260.893 50.2109 260.088 48.4116C258.697 45.2949 255.981 42.9994 253.34 40.8335C250.486 38.4928 247.285 36.0497 243.594 36.0985L242.007 35.9497C240.506 36.1663 239.125 35.2095 237.707 34.6716C236.09 34.0576 234.323 33.9802 232.592 33.9707C228.954 33.9505 225.196 34.2289 221.955 35.8783L219.695 36.6149C215.357 38.6427 211.562 41.8141 208.797 45.7186C207.626 47.3715 206.612 49.2398 206.528 51.2628C206.444 53.268 207.278 55.1839 208.095 57.0166L210.317 60.4462C211.122 59.8012 211.751 58.8147 211.61 57.7948L211.951 56.7286C211.649 53.7214 212.005 50.6012 213.332 47.8856C214.645 45.1985 216.969 42.947 219.819 42.0426C220.876 42.9613 221.954 44.0716 221.991 44.8808C222.062 46.454 221.346 47.1704 222.778 50.174C224.21 53.1788 224.825 52.4398 224.696 53.1669C224.567 53.894 224.533 55.0602 224.533 55.0602C224.209 56.6346 224.841 58.2911 225.875 59.5239C226.908 60.7556 228.304 61.6267 229.715 62.399C231.148 63.1832 232.625 63.8889 234.099 64.5994C235.888 66.8175 237.975 69.4332 237.975 69.4332C241.342 72.7462 242.663 77.9823 241.269 82.4924C240.981 83.4254 240.578 84.3167 240.082 85.1533C239.492 86.1482 238.768 87.0633 237.94 87.8737C236.092 89.6813 233.728 90.9666 231.181 91.4283C231.181 91.4283 234.234 94.3831 238.388 93.0955L239.37 93.9737C240.45 95.4351 242.445 95.9968 244.25 95.7778C244.849 95.7052 245.432 95.5588 246 95.3613C246.036 95.3494 246.072 95.3363 246.107 95.3232C247.824 96.0158 250.173 96.6762 252.352 96.3264C256.433 95.6707 257.873 94.658 257.873 94.658C257.444 93.6786 257.232 92.6171 257.219 91.552C257.19 89.191 258.139 86.8039 259.894 85.2104C260.633 84.5393 261.523 83.9657 261.944 83.0625C261.944 83.0625 262.778 82.1949 262.926 81.832C263.886 79.5472 264.389 77.0707 264.395 74.5919C264.403 72.6165 264.097 70.6542 263.791 68.7002Z" fill="#BD938E"/>
<path d="M116.059 80.4968C119.883 79.7805 123.536 78.362 127.162 76.9506C129.005 76.233 130.89 75.4916 132.376 74.1898C133.864 72.8879 134.901 70.8898 134.521 68.9513C134.521 68.9513 134.417 68.824 134.276 68.6288C135.067 68.2421 135.845 67.8267 136.604 67.3805C138.993 65.9739 141.192 64.265 143.031 62.2003C145.938 58.9385 147.903 54.7413 148.034 50.3751C148.034 50.3751 149.4 46.9681 150.546 45.4235C151.692 43.8777 152.739 42.3294 152.739 42.3294C153.698 41.0609 154.45 39.6472 154.988 38.1549C156.294 34.5396 156.343 30.459 154.992 26.8533C154.992 26.8533 155.025 25.1337 154.031 23.6557C153.036 22.1777 149.734 22.4026 149.734 22.4026C149.734 22.4026 147.729 22.2253 145.661 20.545C143.592 18.8647 136.143 19.205 136.143 19.205C133.908 19.4038 131.888 20.5819 130.027 21.8326C128.166 23.0833 126.335 24.4602 124.199 25.1492C124.006 25.2111 123.81 25.267 123.612 25.3146C122.753 28.6086 120.996 31.4646 117.584 32.2607C114.82 32.9057 113.015 32.6665 111.835 31.9942C111.504 31.0279 111.106 30.0628 110.416 29.3142C110.222 29.1036 109.999 28.9144 109.757 28.7537C109.497 28.5812 109.216 28.442 108.924 28.3491C108.454 28.1992 107.956 28.1659 107.479 28.3015C106.492 28.5836 105.803 29.513 105.499 30.4935C105.196 31.4729 105.204 32.5178 105.155 33.5424C105.036 36.0581 104.561 38.5976 105.022 41.0728C105.483 43.548 107.218 46.034 109.72 46.341L110.31 46.4778L110.349 47.1954C110.157 52.2268 107.889 56.8941 104.985 61.0722C104.349 61.9885 103.681 62.881 102.999 63.7486C102.599 66.8438 102.719 69.388 103.282 72.4583C103.846 75.5285 105.538 78.5559 108.336 79.9435C110.69 81.1133 113.476 80.9812 116.059 80.4968ZM128.876 51.8365C128.812 51.6342 128.757 51.4295 128.713 51.2224L128.876 51.8365C129.33 53.2693 130.249 54.5462 131.397 55.5243C132.707 56.6406 134.304 57.3867 135.96 57.8604C137.35 58.2578 138.794 58.4696 140.24 58.4887L139.861 58.5458C138.994 59.6454 138.037 60.6759 137.003 61.622C135.474 63.0226 133.594 64.2983 131.521 64.2008C130.707 64.1627 129.851 63.8676 129.389 63.1976C129.066 62.7299 128.974 62.1444 128.905 61.5815C128.519 58.4482 128.536 55.2649 128.955 52.1364L128.876 51.8365Z" fill="#FCE9E6"/>
<path d="M142.95 148.7L143.538 148.956L142.529 148.385L142.95 148.7Z" fill="#FCE9E6"/>
<path d="M149.797 125.05C147.005 125.461 144.164 126.236 141.991 128.036L140.098 133.449C141.112 138.182 142.741 142.765 145.199 146.923C144.333 146.605 142.592 146.571 141.726 146.254C142.3 147.17 142.903 148.072 143.538 148.957C143.398 148.913 143.26 148.872 143.121 148.829L143.146 148.847L142.347 148.599C135.447 146.619 128.954 146.445 122.493 146.207C121.222 146.161 119.951 146.128 118.681 146.084C118.064 146.062 117.447 146.04 116.831 146.01C113.58 145.854 110.377 145.539 107.195 145.184H107.196C108.667 145.718 110.472 147.395 111.645 148.429C112.012 148.753 112.366 149.101 112.798 149.331C113.281 149.588 113.833 149.68 114.375 149.756C116.785 150.098 119.226 150.213 121.657 150.1L122.951 150.142C123.698 150.583 124.509 150.978 125.308 151.251L125.339 151.285C127.578 152.829 129.815 154.616 132.053 156.161C133.357 157.06 134.683 157.969 136.149 158.55C136.378 158.641 136.61 158.724 136.847 158.798C138.482 159.306 140.223 159.34 141.935 159.318C145.328 159.273 148.717 159.015 152.078 158.55C153.026 158.419 153.973 158.272 154.917 158.106L155.808 157.717C159.804 150.37 162.916 141.29 164.612 132.757C164.904 131.286 165.155 129.83 165.361 128.404C163.463 126.773 161.094 125.703 158.64 125.17C155.742 124.541 152.728 124.618 149.797 125.05Z" fill="#FCE9E6"/>
<path d="M165.36 128.403C165.422 128.456 165.483 128.508 165.543 128.562L165.36 128.401C165.36 128.402 165.36 128.403 165.36 128.403Z" fill="#FCE9E6"/>
<path d="M208.561 66.9139L208.504 70.6363C209.674 71.7489 211.205 72.4772 212.807 72.6819C213.524 72.7735 214.381 72.8378 214.737 73.4661C215.08 74.0718 214.725 74.8358 214.279 75.3713C213 76.9088 211.034 77.6907 209.107 78.225L209.072 80.5443C208.882 81.3678 208.703 82.252 208.678 83.1064C208.648 84.1025 208.826 85.0593 209.437 85.834C210.06 86.6241 211.043 87.0668 212.035 87.2346C213.027 87.4024 214.043 87.325 215.048 87.2477C216.059 87.1692 217.08 86.9776 218.101 86.7907L218.444 87.3643C219.178 88.3485 219.851 89.3778 220.46 90.4429C220.409 90.9796 220.4 91.4461 220.4 91.4461C219.416 97.5175 220.164 103.858 222.534 109.534C222.815 110.207 223.153 110.912 223.781 111.284C224.685 111.819 225.853 111.476 226.776 110.974C230.013 109.213 231.983 105.848 234.575 103.231C237.578 100.201 242.224 97.3426 246.004 95.3648L246.005 95.3636C245.437 95.5611 244.854 95.7075 244.255 95.7801C242.45 95.9991 240.455 95.4374 239.375 93.976L238.392 93.0978C234.238 94.3854 231.186 91.4306 231.186 91.4306C233.733 90.9689 236.097 89.6837 237.944 87.876C238.772 87.0656 239.497 86.1505 240.086 85.1556C240.583 84.3191 240.986 83.4266 241.274 82.4948C242.667 77.9846 241.346 72.7473 237.98 69.4355C237.98 69.4355 235.893 66.8199 234.104 64.6017C232.63 63.8924 231.153 63.1856 229.72 62.4013C228.308 61.629 226.913 60.7591 225.88 59.5263C224.847 58.2946 224.214 56.6381 224.538 55.0625C224.538 55.0625 224.573 53.8963 224.701 53.1692C224.829 52.4421 224.215 53.1811 222.783 50.1763C221.351 47.1715 222.067 46.4563 221.995 44.8831C221.958 44.0739 220.882 42.9624 219.824 42.0449C216.973 42.9505 214.65 45.202 213.337 47.8879C212.01 50.6035 211.654 53.7237 211.956 56.7309L211.614 57.7972C211.755 58.817 211.127 59.8035 210.322 60.4485C210.312 60.4569 210.302 60.4652 210.292 60.4735C209.472 61.1173 208.481 61.4993 207.57 62.0063C207.364 62.1205 207.154 62.249 207.022 62.4442C206.921 62.5941 206.872 62.7738 206.83 62.9499C206.641 63.7532 206.586 64.6897 207.127 65.3133L208.561 66.9139Z" fill="#FCE9E6"/>
<path d="M80.837 141.508C80.127 141.203 79.3312 141.188 78.5581 141.176C74.3325 141.116 69.1397 141.139 64.3721 141.395L64.1731 140.886C65.6599 140.669 67.1514 140.489 68.6465 140.35C69.8259 140.24 71.0612 140.138 72.0571 139.499C73.0531 138.86 73.6869 137.483 73.096 136.457C72.5527 135.514 71.309 135.297 70.2261 135.179C67.8614 134.922 65.4979 134.665 63.1331 134.409C62.6221 134.353 62.1086 134.3 61.5952 134.289L61.4117 133.819C60.4682 130.212 59.5259 126.606 58.5824 122.999C57.8545 120.216 57.1266 117.431 56.413 114.643L52.0636 114.518C51.8694 114.944 51.6835 115.375 51.5036 115.807C48.8149 122.275 47.5402 129.361 43.7709 135.266L43.1074 136.456C41.6373 138.909 40.1208 141.522 40.1267 144.38C40.1303 145.899 40.5711 147.389 41.1858 148.777C43.2372 153.41 47.4163 156.99 52.2208 158.549C54.1686 159.181 56.22 159.48 58.2738 159.383L58.5645 159.271C58.817 159.508 59.103 159.676 59.3924 159.71H60.7946C62.8186 159.647 64.9034 159.571 66.7499 158.741C66.8845 158.681 67.0168 158.615 67.1466 158.549C67.7685 158.23 68.3546 157.843 68.9371 157.456C71.6509 155.657 74.3802 153.843 76.7211 151.581C76.9296 151.379 77.144 151.16 77.2202 150.88C77.2965 150.601 76.92 149.869 76.6413 149.783L76.5293 149.757C77.4263 149.303 78.3115 148.827 79.1847 148.332C79.8435 147.959 80.5595 147.49 80.7048 146.747C80.8501 146.005 80.1306 145.307 79.0477 145.431C79.7315 145.331 80.432 145.222 81.0372 144.887C81.4839 144.641 81.8735 144.243 82.0498 143.775C82.1129 143.608 82.1487 143.433 82.151 143.252C82.1582 142.482 81.5471 141.812 80.837 141.508Z" fill="#FCE9E6"/>
<path d="M258.788 159.209C258.642 158.806 258.323 158.493 258.013 158.195C255.131 155.43 252.251 152.664 249.369 149.899C248.458 149.024 247.174 148.086 246.056 148.674C246.056 148.674 245.234 148.83 244.93 148.784C243.253 148.523 241.526 147.987 240.042 148.624C239.873 148.697 239.707 148.785 239.543 148.889C239.212 149.105 238.907 149.357 238.569 149.558C237.883 149.966 237.088 150.148 236.309 150.323C235.524 150.501 234.739 150.678 233.954 150.854C233.954 150.854 230.402 151.435 227.029 151.5C225.011 151.54 221.434 151.328 218.884 151.15C217.17 151.031 215.919 150.928 215.919 150.928C214.701 150.642 213.337 151.67 212.283 152.343C210.2 153.669 208.163 155.127 206.594 157.033C206.026 157.723 205.522 158.468 205.094 159.253C204.79 159.814 204.301 161.41 204.747 161.867C204.747 161.867 204.747 161.867 205.612 161.867C206.781 161.867 207.948 161.949 209.112 162.068C210.384 162.197 211.654 162.372 212.921 162.533C215.99 162.921 220.187 163.31 223.256 163.698C223.256 163.698 223.369 163.667 223.567 163.615C224.936 164.142 226.443 164.38 227.907 164.596C228.711 164.715 229.524 164.833 230.333 164.758C231.488 164.651 232.54 164.168 233.527 163.542C233.761 163.746 233.923 163.897 233.948 163.944C234.202 164.419 234.734 164.68 235.127 165.047L235.374 165.425L256.946 163.832L256.979 163.707C257.403 162.964 257.826 162.221 258.25 161.477C258.649 160.78 259.059 159.965 258.788 159.209Z" fill="#FCE9E6"/>
<path d="M208.836 108.84C206.258 106.758 204.245 104.076 202.259 101.423C201.426 100.312 200.589 99.1906 199.986 97.9387C199.356 96.6297 198.997 95.2088 198.431 93.87C197.43 91.4983 195.808 89.4479 194.207 87.4308L193.667 85.5339C192.9 84.5331 192.564 83.2717 192.498 82.002C192.482 81.708 192.481 81.4141 192.493 81.1225C192.52 80.4407 192.605 79.7267 192.337 79.0983C192.069 78.47 191.282 77.9988 190.69 78.3391C190.53 78.4319 190.403 78.5712 190.283 78.7128C189.211 79.9861 188.565 81.6105 188.469 83.2717C188.427 84.0048 188.488 84.7331 188.588 85.4602C188.712 86.3598 188.893 87.2571 189.009 88.1579C189.22 89.7871 189.185 91.5519 188.283 92.9239L188.04 93.2203C186.415 93.0215 184.792 92.7823 183.167 92.5574C181.507 92.3277 179.845 92.1147 178.178 91.9755C177.873 91.9505 177.556 91.9291 177.269 92.0374C176.982 92.1457 176.758 92.373 176.56 92.6074C175.829 93.4725 175.329 94.5305 175.122 95.6431C175.259 95.7098 175.396 95.7788 175.532 95.8478L175.299 96.106C174.919 96.6903 174.534 97.2865 174.342 97.9565C174.15 98.6265 174.177 99.3941 174.578 99.9653C174.823 100.314 175.186 100.561 175.539 100.801C175.541 100.802 175.542 100.802 175.543 100.803C175.362 101.015 175.256 101.14 175.256 101.14C174.536 101.684 174.471 102.792 174.863 103.604C175.255 104.416 175.99 105 176.7 105.556C176.942 105.745 177.183 105.934 177.425 106.124L176.99 106.652C176.341 107.49 176.236 108.625 176.51 109.663C176.601 110.005 176.733 110.339 176.901 110.646C177.577 111.883 178.724 112.79 179.894 113.578C180.767 114.167 181.704 114.819 182.758 114.836C183.201 114.843 185.171 114.755 185.171 114.755C187.355 114.756 189.538 114.756 191.722 114.757C192.275 114.757 192.835 114.758 193.372 114.889C193.937 115.026 194.456 115.301 194.966 115.579C195.528 115.887 196.086 116.202 196.641 116.523C198.11 117.375 199.55 118.277 200.957 119.228C200.957 119.228 201.313 119.708 201.785 120.278C204.184 116.543 206.584 112.81 208.984 109.076L208.836 108.84Z" fill="#FCE9E6"/>
<path d="M188.284 92.9267C189.186 91.5546 189.222 89.7898 189.011 88.1607C188.894 87.2598 188.713 86.3625 188.589 85.4629L187.785 86.2364C186.022 87.925 184.549 89.9147 183.447 92.0925C183.447 92.0925 183.332 92.2841 183.167 92.5601C184.792 92.7851 186.416 93.0243 188.04 93.223L188.284 92.9267Z" fill="#FEBE7F"/>
<path d="M272.286 98.5543C271.419 96.9597 270.364 95.421 268.896 94.3512C267.401 93.2611 265.517 92.797 263.674 92.9255C263.667 92.9255 263.66 92.9255 263.654 92.9255C263.649 92.9255 263.645 92.9267 263.641 92.9267C263.571 92.9315 263.502 92.9386 263.431 92.9457C261.915 93.0505 259.462 92.5173 257.706 91.9568C257.706 91.9568 257.526 91.8069 257.222 91.5534C257.235 92.6197 257.447 93.68 257.876 94.6594C257.876 94.6594 256.437 95.6709 252.356 96.3278C250.177 96.6776 247.828 96.0172 246.111 95.3246C246.075 95.3377 246.04 95.3496 246.004 95.3627L246.003 95.3639C242.223 97.3417 237.577 100.2 234.574 103.23C231.982 105.847 230.012 109.212 226.775 110.973C225.852 111.475 224.684 111.819 223.78 111.283C223.152 110.91 222.814 110.206 222.533 109.533C220.162 103.857 219.415 97.5154 220.399 91.4451C220.399 91.4451 220.408 90.9798 220.459 90.442C219.85 89.3757 219.177 88.3475 218.443 87.3634L218.1 86.7898C217.079 86.9778 216.058 87.1682 215.047 87.2468C214.042 87.3253 213.026 87.4027 212.034 87.2337C211.042 87.0659 210.058 86.6232 209.436 85.833C208.826 85.0583 208.647 84.1015 208.677 83.1055C208.603 83.1043 208.561 83.1031 208.561 83.1031C205.193 83.7576 201.93 83.1733 198.945 81.4859C198.554 81.2657 198.171 81.0253 197.745 80.8849C196.908 80.6088 195.993 80.7445 195.14 80.967C194.419 81.1551 193.714 81.4026 193.035 81.7072L192.5 82.0024C192.566 83.2721 192.902 84.5335 193.67 85.5343L194.21 87.4312C195.812 89.4483 197.433 91.4975 198.434 93.8704C198.999 95.208 199.358 96.63 199.989 97.9391C200.591 99.1898 201.429 100.311 202.262 101.423C204.248 104.076 206.261 106.757 208.839 108.841L208.987 109.075C206.587 112.809 204.188 116.543 201.788 120.277C201.317 119.707 200.96 119.227 200.96 119.227C199.553 118.276 198.112 117.374 196.643 116.522C196.09 116.201 195.531 115.886 194.968 115.579C194.459 115.3 193.939 115.025 193.375 114.888C192.837 114.758 192.277 114.758 191.725 114.756C189.541 114.755 187.357 114.755 185.174 114.754C185.174 114.754 183.202 114.842 182.76 114.835C181.707 114.818 180.769 114.166 179.896 113.577C178.726 112.789 177.579 111.882 176.904 110.645C176.736 110.337 176.603 110.005 176.513 109.662C176.347 111.063 175.663 113.026 175.244 114.372C174.551 116.594 173.857 118.816 173.164 121.036L172.822 122.511L172.765 122.48C171.299 132.574 162.612 143.686 164.203 151.005L165.047 152.901C165.967 155.315 167.819 157.342 170.098 158.55C170.899 158.975 171.754 159.3 172.64 159.503C173.9 159.793 175.201 159.851 176.493 159.917C181.74 160.19 186.98 160.623 192.201 161.218C194.422 161.472 196.647 161.755 198.808 162.321C200.576 162.784 202.309 163.439 204.128 163.604C205.921 163.767 207.881 163.372 209.116 162.07C207.952 161.951 206.786 161.869 205.616 161.869C204.751 161.869 204.751 161.869 204.751 161.869C204.306 161.412 204.793 159.815 205.099 159.256C205.527 158.47 206.031 157.725 206.599 157.035C208.168 155.131 210.205 153.671 212.288 152.345C213.343 151.674 214.706 150.646 215.923 150.93C215.923 150.93 217.174 151.034 218.889 151.153C221.439 151.33 225.017 151.542 227.034 151.503C230.407 151.437 233.959 150.857 233.959 150.857C234.744 150.679 235.529 150.502 236.314 150.326C237.093 150.15 237.887 149.969 238.574 149.561C238.912 149.36 239.218 149.106 239.548 148.892C239.711 148.786 239.877 148.699 240.047 148.627C241.53 147.99 243.257 148.525 244.935 148.786C245.238 148.834 246.061 148.677 246.061 148.677C247.178 148.088 248.464 149.026 249.374 149.901C252.256 152.667 255.136 155.432 258.018 158.198C258.328 158.495 258.647 158.807 258.792 159.212C259.064 159.967 258.654 160.783 258.256 161.481C257.832 162.225 257.409 162.967 256.985 163.711L256.952 163.836L258.466 163.724L258.459 163.752L258.617 163.666L270.54 120.1C270.739 119.372 271.392 118.862 272.146 118.843C274.944 113.155 275.316 104.124 272.286 98.5543ZM186.721 141.107L187.057 140.825C188.328 139.686 188.976 138.026 189.574 136.428C190.212 134.727 191.239 133.021 192.269 131.312C192.252 133.474 192.35 135.987 192.344 137.638C192.342 138.184 192.338 138.739 192.18 139.26C192.043 139.707 191.797 140.112 191.553 140.512C191.13 141.206 190.707 141.899 190.284 142.592C190.284 142.592 190.275 142.63 190.258 142.698C189.074 142.176 187.896 141.641 186.721 141.107Z" fill="#FEBE7F"/>
<path d="M270.534 120.096L258.611 163.663L255.223 176.042L258.453 163.748L258.46 163.721L256.946 163.833L235.374 165.425L219.889 166.569V168.43L254.716 178.412L328.743 174.454C329.903 174.392 330.916 173.648 331.323 172.56L336.562 158.549L351.279 119.181C351.703 118.048 350.845 116.846 349.635 116.877L272.14 118.839C271.386 118.858 270.733 119.37 270.534 120.096Z" fill="#939597"/>
<path d="M68.0352 73.8452C77.5918 69.9407 87.3319 66.5873 97.2018 63.5694C98.4479 63.1886 99.7036 62.7626 100.823 62.0843C101.618 61.6035 103.082 60.2659 103.933 61.3464C103.968 61.3917 104.005 61.4262 104.045 61.4547C103.576 62.1045 103.095 62.7399 102.608 63.3623C102.559 63.4242 102.527 63.4897 102.507 63.5551C102.477 63.6134 102.455 63.6789 102.447 63.7527C102.22 65.5531 102.147 67.3632 102.289 69.1732C102.417 70.8309 102.631 72.5409 103.127 74.132C103.998 76.9249 105.826 79.5073 108.591 80.6628C111.821 82.0123 115.555 81.303 118.814 80.4343C122.341 79.493 125.828 78.1721 129.178 76.7286C130.862 76.0027 132.53 75.0709 133.687 73.6119C134.765 72.2529 135.35 70.5869 135.061 68.8566C135.596 68.5841 136.124 68.2985 136.645 67.9986C139.402 70.8106 142.663 73.1371 146.244 74.7853C149.399 76.2359 152.803 77.0654 155.929 78.5803C157.644 79.4109 159.235 80.4593 160.493 81.9028C160.961 82.4395 161.739 81.6565 161.275 81.1221C159.01 78.5243 155.754 77.176 152.585 76.0289C150.949 75.4362 149.291 74.89 147.684 74.2188C145.895 73.4727 144.181 72.5397 142.564 71.4723C140.778 70.293 139.128 68.9268 137.619 67.412C140.315 65.7233 142.755 63.6182 144.666 61.0656C146.978 57.9763 148.449 54.2492 148.586 50.3769C148.611 49.6664 147.507 49.6676 147.481 50.3769C147.25 56.9184 143.032 62.5103 137.733 66.0256C136.377 66.9252 134.947 67.7142 133.473 68.4056C131.959 69.1161 130.234 69.9824 128.515 69.842C126.859 69.7075 125.365 68.5817 123.989 67.7452C122.501 66.8407 121.021 65.909 119.654 64.8272C116.883 62.6364 114.407 59.6649 113.959 56.0449C113.873 55.3488 112.766 55.3404 112.853 56.0449C113.274 59.4377 115.212 62.3722 117.714 64.6297C119.076 65.859 120.587 66.9145 122.136 67.8951C123.642 68.8483 125.188 69.93 126.859 70.5691C127.925 70.9772 128.992 71.0058 130.042 70.8154C128.771 72.0316 127.661 73.4061 126.732 74.9055C126.357 75.5112 127.312 76.0658 127.686 75.4624C128.855 73.5786 130.322 71.9209 132.039 70.5203C132.176 70.4084 132.23 70.2775 132.226 70.149C132.239 70.143 132.252 70.1383 132.265 70.1335C132.857 69.8896 133.445 69.6325 134.025 69.36C134.372 72.3541 131.502 74.4652 129.085 75.5659C127.566 76.2585 125.982 76.8262 124.421 77.414C122.809 78.0209 121.184 78.5981 119.53 79.0824C116.524 79.9631 113.102 80.8092 109.99 79.9761C107.222 79.2348 105.298 76.963 104.357 74.3343C103.787 72.742 103.548 71.0237 103.406 69.3469C103.254 67.55 103.313 65.7519 103.526 63.9633C107.32 59.0985 110.631 53.5078 110.902 47.196C110.933 46.4855 109.827 46.4867 109.796 47.196C109.587 52.0786 107.429 56.5471 104.69 60.5348C104.04 59.7423 102.89 59.7137 102.004 60.085C101.482 60.3028 101.033 60.6336 100.562 60.9406C100.028 61.2893 99.4605 61.5844 98.8697 61.826C97.7069 62.302 96.4847 62.6269 95.2838 62.991C93.9782 63.3873 92.6749 63.7919 91.374 64.2049C86.2967 65.8185 81.2599 67.5631 76.2707 69.4338C73.4116 70.506 70.5679 71.6222 67.741 72.7766C67.0917 73.0455 67.3764 74.1141 68.0352 73.8452Z" fill="#333333"/>
<path d="M59.5367 159.18C58.86 159.06 58.4061 158.319 58.2751 157.691C58.1166 156.932 58.0869 156.157 57.5853 155.523C56.7228 154.432 54.5737 154.47 54.2044 152.93C53.9959 152.061 54.4796 151.19 54.1413 150.317C53.8601 149.591 53.1501 149.205 52.7355 148.573C51.9004 147.305 51.985 145.617 52.8868 144.414C53.3133 143.845 52.3543 143.294 51.9326 143.857C51.1487 144.902 50.9069 146.247 51.1416 147.519C51.2547 148.129 51.5002 148.737 51.8587 149.247C52.2268 149.768 52.9964 150.215 53.1513 150.845C53.3288 151.568 52.9714 152.346 53.1096 153.091C53.2264 153.72 53.6195 154.266 54.1055 154.668C54.6059 155.081 55.1777 155.375 55.7686 155.634C56.4619 155.937 56.8586 156.208 57.0337 156.975C57.1827 157.629 57.216 158.258 57.54 158.85C53.7243 158.842 49.9884 157.49 46.9589 155.173C45.3638 153.952 43.9652 152.455 42.8787 150.765C41.6541 148.86 40.6558 146.598 40.6748 144.297C40.6986 141.53 42.2009 139.041 43.5792 136.739C43.9449 136.127 42.9907 135.572 42.625 136.182C41.3086 138.38 39.9708 140.676 39.6431 143.26C39.3215 145.796 40.1935 148.321 41.4301 150.506C43.2635 153.743 46.1119 156.343 49.4309 158.002C48.6208 158.002 47.8095 158.002 46.9994 158.002C42.9693 158.002 38.9403 158.002 34.9101 158.002C30.0532 158.002 25.1962 158.002 20.3393 158.002C16.1257 158.002 11.9132 158.002 7.69962 158.002C5.66011 158.002 3.60035 157.92 1.56204 158.002C1.53345 158.003 1.50485 158.002 1.47746 158.002C0.766249 158.002 0.765057 159.106 1.47746 159.106C3.156 159.106 4.83454 159.106 6.51189 159.106C10.5421 159.106 14.571 159.106 18.6012 159.106C23.4581 159.106 28.3151 159.106 33.172 159.106C37.3856 159.106 41.5981 159.106 45.8117 159.106C47.8512 159.106 49.911 159.188 51.9493 159.106C51.9779 159.105 52.0065 159.106 52.0339 159.106C52.0625 159.106 52.0887 159.104 52.1149 159.1C54.096 159.736 56.1879 160.03 58.2679 159.94C58.3358 159.938 58.3978 159.925 58.4526 159.903C58.6885 160.072 58.9517 160.196 59.2388 160.247C59.9381 160.367 60.2372 159.304 59.5367 159.18Z" fill="#333333"/>
<path d="M157.907 140.873C156.015 139.488 153.932 138.187 151.572 137.827C150.259 137.628 148.948 137.748 147.639 137.914C146.278 138.087 144.917 138.264 143.555 138.439C142.86 138.528 142.851 139.634 143.555 139.543C144.818 139.38 146.081 139.217 147.345 139.056C148.641 138.889 149.973 138.708 151.277 138.891C153.546 139.211 155.538 140.5 157.348 141.826C157.923 142.246 158.475 141.289 157.907 140.873Z" fill="#333333"/>
<path d="M200.678 119.703C201.269 120.102 201.823 119.147 201.236 118.75C200.03 117.937 198.803 117.158 197.552 116.415C196.395 115.729 195.205 114.942 193.934 114.483C192.632 114.013 191.095 114.204 189.737 114.203C188.215 114.203 186.694 114.202 185.171 114.202C184.46 114.202 184.459 115.305 185.171 115.306C186.627 115.306 188.083 115.308 189.538 115.308C190.233 115.308 190.927 115.308 191.623 115.309C192.311 115.309 192.986 115.309 193.641 115.548C194.871 115.998 196.038 116.797 197.158 117.466C198.353 118.179 199.525 118.926 200.678 119.703Z" fill="#333333"/>
<path d="M255.837 148.128C256.088 148.785 257.158 148.499 256.902 147.834C256.072 145.673 255.241 143.506 254.206 141.433C253.277 139.573 252.176 137.744 250.668 136.292C249.226 134.905 247.426 133.921 245.702 132.913C245.722 132.87 245.739 132.822 245.749 132.769C247.22 124.769 249.351 116.895 252.126 109.249C252.914 107.077 253.754 104.926 254.644 102.793C254.917 102.139 253.848 101.852 253.579 102.499C250.87 108.997 248.627 115.686 246.877 122.502C247.428 118.753 247.972 115.002 248.534 111.254C248.833 109.263 249.137 107.274 249.452 105.285C249.562 104.59 248.498 104.291 248.387 104.991C247.252 112.153 246.25 119.334 245.174 126.506C244.895 128.368 244.61 130.23 244.317 132.09C242.742 131.156 241.166 130.224 239.599 129.277C235.893 127.034 232.224 124.7 228.81 122.028C227.089 120.68 225.437 119.249 223.875 117.721C222.36 116.239 220.877 114.691 219.072 113.552C217.134 112.329 214.874 111.622 213.119 110.112C211.635 108.835 210.262 107.153 208.15 107.076C208.006 107.071 207.892 107.113 207.806 107.182C205.826 105.274 204.166 103.056 202.525 100.855C202.284 100.532 202.051 100.21 201.824 99.8825C202.502 96.8908 202.906 93.8408 203.03 90.7753C203.058 90.0649 201.953 90.066 201.924 90.7753C201.819 93.3969 201.503 95.9983 200.98 98.5651C200.588 97.8952 200.242 97.1978 199.967 96.4541C199.373 94.8463 198.854 93.2458 197.989 91.7535C197.017 90.0768 195.805 88.5559 194.603 87.0422C194.161 86.4865 193.384 87.2719 193.821 87.8229C194.891 89.1712 195.961 90.5266 196.853 92.0022C197.761 93.5064 198.296 95.1105 198.901 96.748C199.355 97.9749 199.961 99.0864 200.675 100.156C200.702 100.307 200.794 100.428 200.913 100.506C201.056 100.712 201.204 100.918 201.354 101.121C202.353 102.473 203.362 103.823 204.428 105.122C205.608 106.56 206.877 107.922 208.31 109.112C208.224 109.247 208.137 109.381 208.051 109.516C207.762 109.965 207.473 110.415 207.184 110.865C206.606 111.765 206.028 112.664 205.449 113.563C204.294 115.362 203.137 117.16 201.981 118.96C200.826 120.759 199.669 122.557 198.514 124.356C197.936 125.256 197.357 126.154 196.779 127.054C196.287 127.82 195.795 128.619 195.861 129.565C195.909 130.27 197.015 130.276 196.966 129.565C196.905 128.698 197.505 127.967 197.95 127.273C198.437 126.514 198.926 125.756 199.413 124.997C200.424 123.422 201.436 121.849 202.447 120.275C204.434 117.183 206.421 114.091 208.407 111C208.697 110.55 208.985 110.1 209.275 109.65C209.464 109.355 209.717 109.054 209.776 108.701C210.751 109.285 211.57 110.24 212.392 110.94C213.912 112.234 215.749 112.977 217.49 113.913C219.342 114.909 220.853 116.294 222.341 117.76C223.855 119.252 225.408 120.692 227.06 122.036C230.311 124.681 233.805 127.009 237.369 129.209C239.189 130.333 241.029 131.425 242.869 132.516C244.693 133.598 246.569 134.626 248.324 135.819C252.413 138.601 254.143 143.712 255.837 148.128Z" fill="#333333"/>
<path d="M239.743 148.142C239.298 148.364 238.915 148.673 238.503 148.947C238.062 149.24 237.588 149.428 237.08 149.569C236.004 149.869 234.896 150.079 233.806 150.324C233.113 150.48 233.406 151.545 234.1 151.388C235.081 151.166 236.066 150.962 237.041 150.72C238.017 150.478 238.795 150.08 239.613 149.509C241.107 148.466 243.062 148.35 244.651 149.259C245.27 149.612 245.827 148.659 245.209 148.305C243.54 147.352 241.468 147.286 239.743 148.142Z" fill="#333333"/>
<path d="M163.881 145.985C163.473 147.771 163.287 149.625 163.667 151.432C163.813 152.127 164.878 151.833 164.732 151.138C164.031 147.806 165.399 144.238 166.614 141.19C168.166 137.298 170.043 133.541 171.487 129.603C172.284 127.429 172.953 125.2 173.294 122.906C173.397 122.211 172.332 121.911 172.229 122.612C171.601 126.838 169.907 130.829 168.205 134.717C166.599 138.382 164.778 142.065 163.881 145.985Z" fill="#333333"/>
<path d="M173.693 121.184C174.367 119.026 175.04 116.868 175.715 114.71C176.059 113.61 176.441 112.511 176.725 111.391C176.856 111.594 176.999 111.786 177.15 111.968C177.824 112.777 178.681 113.422 179.547 114.009C180.537 114.682 181.557 115.232 182.757 115.387C183.46 115.479 183.453 114.375 182.757 114.283C181.802 114.158 180.955 113.629 180.172 113.101C179.444 112.611 178.739 112.08 178.144 111.431C177.658 110.9 177.266 110.245 177.067 109.556C177.063 109.486 177.046 109.424 177.019 109.372C176.825 108.546 176.917 107.681 177.467 106.93C177.48 106.912 177.491 106.895 177.501 106.879C178.073 107.326 178.646 107.774 179.218 108.221C179.772 108.654 180.56 107.878 180 107.44C178.782 106.488 177.501 105.583 176.345 104.558C175.555 103.86 174.565 102.471 175.618 101.556C176.012 101.814 176.417 102.059 176.795 102.314C177.518 102.803 178.242 103.291 178.966 103.78C179.022 103.913 179.131 104.025 179.307 104.081C179.403 104.111 179.497 104.141 179.592 104.17C180.215 104.365 180.517 103.499 180.017 103.161C178.596 102.201 177.168 101.249 175.753 100.28C175.102 99.8351 174.701 99.3377 174.794 98.5082C174.875 97.7835 175.284 97.1421 175.676 96.5399C177.319 97.3765 178.927 98.2786 180.498 99.2472C181.104 99.6209 181.66 98.6665 181.055 98.294C179.335 97.2325 177.568 96.2508 175.76 95.3487C175.942 94.6645 176.223 94.0207 176.626 93.4292C176.825 93.1377 177.077 92.7402 177.41 92.5808C177.786 92.3987 178.362 92.5451 178.757 92.5819C180.641 92.7581 182.514 93.0211 184.388 93.284C188.141 93.8112 191.913 94.3384 195.713 94.198C196.422 94.1718 196.425 93.0675 195.713 93.0936C193.465 93.1769 191.231 93.0234 189.003 92.7771C190.416 90.0305 189.099 86.9365 189.013 84.0293C188.968 82.4716 189.393 80.9555 190.261 79.6584C190.583 79.1788 191.022 78.4493 191.614 79.0134C192.15 79.5239 191.966 80.4652 191.942 81.1245C191.883 82.7655 192.197 84.472 193.192 85.8143C193.61 86.3796 194.569 85.8298 194.146 85.2574C193.464 84.3351 193.185 83.3093 193.096 82.2371C193.166 82.2348 193.24 82.2193 193.315 82.186C194.513 81.6588 196.107 81.0281 197.432 81.3696C198.047 81.5279 198.585 81.9325 199.143 82.2217C199.732 82.5287 200.343 82.7988 200.967 83.0309C203.265 83.8865 205.72 84.0936 208.131 83.7342C208.162 84.1923 208.243 84.6433 208.403 85.0777C208.955 86.589 210.342 87.5006 211.89 87.7683C213.771 88.0932 215.762 87.7457 217.648 87.5993C217.741 87.5922 217.833 87.5851 217.926 87.5779C217.938 87.5993 217.952 87.622 217.969 87.6446C218.754 88.7025 219.465 89.8068 220.104 90.9504C219.988 91.0099 219.897 91.123 219.869 91.3003C219.316 94.7739 219.293 98.2928 219.809 101.772C220.065 103.502 220.456 105.212 220.98 106.88C221.242 107.714 221.538 108.538 221.865 109.348C222.138 110.023 222.411 110.708 222.901 111.26C224.006 112.509 225.754 112.155 227.058 111.452C228.384 110.738 229.537 109.721 230.567 108.633C231.623 107.517 232.574 106.306 233.577 105.143C234.589 103.969 235.677 102.884 236.87 101.894C239.727 99.5245 242.955 97.5919 246.235 95.8688C247.397 95.457 248.501 94.843 249.539 94.2004C250.143 93.8279 249.588 92.8723 248.982 93.2472C248.013 93.8457 246.984 94.4407 245.893 94.8299C245.844 94.8394 245.793 94.8561 245.742 94.8811C245.165 95.075 244.573 95.2107 243.963 95.2559C242.469 95.3654 240.802 94.931 239.854 93.6958C239.759 93.572 239.637 93.503 239.511 93.4768C239.766 93.4054 240.019 93.3245 240.269 93.2341C242.34 92.4867 244.168 91.2467 245.969 90.0056C246.55 89.6045 245.999 88.6477 245.412 89.0523C243.745 90.2007 242.047 91.3895 240.14 92.1083C238.121 92.8687 235.953 93.0139 233.855 92.5034C233.164 92.3356 232.87 93.3995 233.56 93.5673C235.339 94.0004 237.193 94.0231 238.967 93.6149C238.788 93.7648 238.713 94.0064 238.901 94.2515C239.904 95.5582 241.433 96.252 243.047 96.3591C241.238 97.4027 239.478 98.5296 237.802 99.7708C236.615 100.65 235.462 101.583 234.406 102.62C233.367 103.64 232.444 104.769 231.51 105.883C230.582 106.989 229.636 108.093 228.549 109.048C227.561 109.916 226.128 111.074 224.731 110.997C223.984 110.956 223.563 110.414 223.253 109.792C222.894 109.068 222.622 108.29 222.358 107.527C221.823 105.99 221.403 104.412 221.099 102.814C220.444 99.3662 220.354 95.8033 220.825 92.3249C222.165 95.0417 223.094 97.9525 223.576 100.963C223.688 101.663 224.753 101.365 224.641 100.669C223.881 95.9235 222.007 91.3812 219.205 87.4756C220.752 87.3554 222.298 87.2352 223.844 87.115C224.548 87.0603 224.554 85.9559 223.844 86.0107C222.045 86.1499 220.245 86.2903 218.446 86.4296C216.698 86.5652 214.915 86.8139 213.159 86.7794C211.695 86.7509 210.044 86.2772 209.465 84.7814C208.965 83.4878 209.306 81.9896 209.605 80.6901C209.763 79.9987 208.698 79.7036 208.54 80.3962C208.376 81.1078 208.216 81.8599 208.148 82.6156C205.532 83.0535 202.838 82.7215 200.417 81.6171C199.222 81.0721 198.165 80.2093 196.801 80.1808C195.525 80.1534 194.232 80.6009 193.06 81.0995C193.062 80.9353 193.066 80.7722 193.073 80.6068C193.105 79.8059 193.044 78.9515 192.486 78.3267C192.054 77.8436 191.36 77.5437 190.717 77.7353C190.015 77.9435 189.538 78.7254 189.173 79.3097C188.738 80.0058 188.404 80.777 188.191 81.5695C187.812 82.9773 187.893 84.3863 188.09 85.7965C187.893 85.656 187.618 85.6287 187.395 85.8441C185.602 87.5755 184.105 89.5926 182.972 91.812C182.945 91.8655 182.927 91.9191 182.917 91.9715C182.046 91.8525 181.175 91.7382 180.302 91.6371C179.392 91.5323 178.332 91.2824 177.419 91.436C176.571 91.5788 176.017 92.332 175.58 93.0115C175.095 93.7672 174.765 94.6181 174.591 95.4963C174.557 95.6677 174.59 95.8723 174.707 96.0104C173.831 97.4134 173.052 99.296 174.451 100.654C174.534 100.735 174.622 100.814 174.711 100.891C173.674 101.928 174.041 103.61 174.897 104.655C175.399 105.266 176.044 105.741 176.666 106.224C176.61 106.261 176.559 106.309 176.514 106.371C175.788 107.361 175.682 108.54 175.96 109.655C175.96 109.656 175.959 109.659 175.959 109.66C175.743 111.349 175.095 112.987 174.59 114.604C173.936 116.699 173.282 118.793 172.628 120.888C172.416 121.571 173.482 121.861 173.693 121.184ZM188.176 86.6259C188.187 86.614 188.198 86.6021 188.209 86.5902C188.23 86.7247 188.253 86.8592 188.276 86.9936C188.589 88.8679 188.877 90.9397 187.813 92.6379C186.558 92.482 185.304 92.3047 184.051 92.1297C185.127 90.0841 186.51 88.2348 188.176 86.6259Z" fill="#333333"/>
<path d="M349.541 116.327C348.588 116.336 347.635 116.376 346.683 116.4C341.709 116.526 336.734 116.652 331.761 116.778C324.563 116.96 317.365 117.142 310.167 117.326C303.042 117.507 295.917 117.686 288.792 117.867C284.036 117.987 279.279 118.108 274.523 118.229C274.022 118.242 273.518 118.244 273.015 118.256C274.921 113.857 275.38 108.735 274.634 104.039C273.873 99.2506 271.141 93.4017 265.842 92.4925C265.162 92.3759 264.472 92.3366 263.789 92.3735C263.748 92.3699 263.704 92.3699 263.656 92.3759C261.741 92.6174 259.662 91.9986 257.854 91.4262C257.826 91.4179 257.8 91.4119 257.774 91.4072C257.78 90.3493 257.994 89.2901 258.394 88.3155C258.779 87.379 259.355 86.5126 260.078 85.8034C260.895 85.0025 261.896 84.3968 262.426 83.3436C262.744 82.7105 261.792 82.1512 261.472 82.7867C260.919 83.8863 259.748 84.492 258.947 85.3905C258.189 86.2401 257.616 87.2267 257.225 88.2929C256.434 90.4468 256.503 92.834 257.4 94.9403C257.528 95.2414 257.801 95.2831 258.03 95.1772C258.06 95.5841 258.595 95.9292 258.975 95.5556C260.18 94.3703 261.771 93.6801 263.431 93.504C263.461 93.5016 263.491 93.4992 263.521 93.4957C264.057 93.4445 264.6 93.4457 265.14 93.5028C267.671 93.7694 269.601 95.3426 270.964 97.4132C273.597 101.413 274.19 106.35 273.706 111.033C273.448 113.536 272.847 116.055 271.772 118.338C270.256 118.629 269.974 120.062 269.615 121.372C268.276 126.266 266.936 131.161 265.597 136.057C263.658 143.143 261.718 150.231 259.779 157.317C259.62 157.895 259.463 158.472 259.305 159.048C259.177 158.697 258.96 158.379 258.692 158.093C258.145 157.511 257.54 156.977 256.965 156.425C254.545 154.102 252.148 151.753 249.704 149.456C248.646 148.463 247.25 147.513 245.779 148.201C245.135 148.502 245.695 149.454 246.336 149.154C247.04 148.824 247.823 149.325 248.367 149.751C248.999 150.245 249.556 150.844 250.133 151.398C251.454 152.666 252.774 153.933 254.095 155.202C255.364 156.42 256.708 157.594 257.912 158.875C258.565 159.57 258.272 160.304 257.862 161.052C257.445 161.812 257.005 162.559 256.575 163.312C256.031 163.352 255.486 163.392 254.943 163.432C255.173 162.932 255.326 162.4 255.245 161.839C255.154 161.209 254.782 160.691 254.369 160.223C253.361 159.082 252.344 157.96 251.39 156.771C250.906 156.169 250.431 155.56 249.959 154.948C249.728 154.648 249.498 154.348 249.268 154.048C249.095 153.824 248.928 153.524 248.633 153.444C248.079 153.293 247.555 153.885 247.814 154.405C247.947 154.671 248.193 154.784 248.44 154.771C248.474 154.816 248.509 154.86 248.544 154.905C248.697 155.105 248.851 155.305 249.005 155.505C249.264 155.842 249.525 156.179 249.787 156.513C250.389 157.282 251 158.045 251.628 158.793C252.227 159.506 252.852 160.195 253.479 160.883C253.747 161.177 254.046 161.504 254.138 161.903C254.25 162.389 254.008 162.865 253.782 163.281C253.738 163.363 253.715 163.442 253.711 163.52C252.256 163.627 250.8 163.735 249.344 163.842C249.563 162.364 249.327 160.858 248.595 159.54C247.861 158.223 246.608 157.222 246.054 155.801C245.799 155.147 244.73 155.431 244.989 156.095C245.507 157.428 246.51 158.396 247.303 159.556C248.16 160.809 248.514 162.318 248.235 163.817C248.228 163.854 248.225 163.89 248.225 163.924C247.271 163.995 246.317 164.065 245.363 164.136C244.936 164.167 244.509 164.199 244.082 164.231C244.662 161.76 242.653 159.342 241.019 157.643C240.526 157.131 239.745 157.911 240.238 158.424C241.593 159.834 243.758 162.175 242.915 164.318C241.652 164.411 240.388 164.505 239.125 164.598C239.139 164.316 239.024 164.016 238.958 163.751C238.893 163.488 238.825 163.227 238.753 162.966C238.79 162.981 238.828 162.995 238.865 163.008C239.535 163.252 239.823 162.186 239.16 161.944C237.338 161.279 235.635 160.344 234.081 159.185C233.51 158.76 232.96 159.718 233.524 160.138C234.744 161.047 236.054 161.81 237.437 162.429C237.604 162.922 237.741 163.422 237.865 163.929C237.893 164.047 237.924 164.165 237.954 164.281C237.956 164.291 237.959 164.3 237.96 164.31C237.942 164.396 237.948 164.492 237.991 164.6C238.002 164.628 238.012 164.653 238.023 164.678C237.236 164.736 236.447 164.794 235.66 164.853C235.632 164.785 235.587 164.719 235.523 164.659C235.152 164.312 234.782 163.966 234.411 163.62C234.904 163.272 235.382 162.901 235.856 162.532C236.417 162.097 235.63 161.321 235.075 161.751C234.143 162.476 233.186 163.202 232.11 163.699C230.958 164.233 229.786 164.299 228.542 164.134C226.252 163.83 223.816 163.483 221.906 162.086C221.388 161.706 220.887 162.45 221.214 162.903C219.127 162.667 217.037 162.458 214.95 162.223C211.843 161.872 208.747 161.391 205.615 161.316C205.41 161.311 205.265 161.399 205.178 161.528C205.167 161.511 205.154 161.494 205.141 161.478C205.209 161.561 205.134 161.413 205.128 161.372C205.11 161.247 205.124 161.109 205.137 160.984C205.164 160.735 205.229 160.486 205.301 160.246C205.461 159.705 205.727 159.238 206.028 158.761C206.798 157.541 207.767 156.473 208.848 155.523C209.916 154.586 211.083 153.775 212.276 153.006C213.232 152.39 214.549 151.225 215.776 151.461C215.804 151.467 215.832 151.47 215.858 151.471C215.878 151.476 215.9 151.478 215.922 151.48C221.279 152.031 226.672 152.183 232.052 151.933C232.76 151.899 232.765 150.796 232.052 150.828C230.153 150.916 228.254 150.953 226.354 150.943C226.313 150.869 226.252 150.8 226.165 150.744C224.392 149.598 222.836 148.203 221.241 146.83C219.495 145.326 217.689 143.894 215.841 142.516C212.118 139.739 208.226 137.198 204.283 134.745C202.072 133.371 199.846 132.024 197.618 130.678C197.008 130.309 196.452 131.263 197.06 131.631C205.011 136.436 213.018 141.268 220.107 147.308C221.549 148.536 222.948 149.8 224.473 150.914C222.745 150.873 221.017 150.791 219.294 150.669C219.303 150.533 219.258 150.392 219.132 150.267C218.102 149.243 216.652 149.067 215.266 149.033C213.586 148.991 211.919 148.93 210.249 148.723C206.85 148.299 203.514 147.436 200.268 146.355C197.079 145.294 193.97 144.011 190.895 142.656C191.242 142.088 191.589 141.519 191.935 140.95C192.282 140.38 192.641 139.803 192.781 139.142C193.018 138.03 192.903 136.806 192.906 135.672C192.913 133.423 192.918 131.174 192.926 128.925C193.903 126.223 194.865 123.515 195.811 120.802C196.045 120.129 194.978 119.84 194.746 120.508C193.806 123.206 192.85 125.897 191.879 128.583C191.863 128.617 191.85 128.654 191.84 128.693C191.539 129.526 191.236 130.359 190.931 131.192C190.291 132.94 189.647 134.687 188.99 136.43C188.442 137.886 187.837 139.358 186.671 140.433C186.591 140.507 186.542 140.587 186.517 140.668C184.704 139.834 182.887 139.007 181.04 138.255C177.46 136.799 173.568 135.75 169.712 136.65C169.019 136.812 169.313 137.876 170.006 137.714C173.346 136.934 176.745 137.777 179.878 138.976C183.074 140.197 186.15 141.744 189.274 143.137C195.361 145.854 201.618 148.411 208.226 149.53C210.061 149.841 211.915 150.044 213.774 150.106C214.985 150.146 216.486 149.982 217.627 150.537C217.082 150.489 216.537 150.439 215.992 150.383C214.439 150.126 213.1 151.164 211.862 151.959C210.446 152.868 209.058 153.837 207.811 154.971C206.559 156.11 205.398 157.461 204.621 158.975C204.159 159.875 203.641 161.374 204.361 162.257C204.621 162.577 204.993 162.446 205.171 162.174C205.256 162.313 205.404 162.414 205.616 162.419C206.417 162.438 207.216 162.484 208.013 162.548C205.926 163.936 203.05 163.251 200.777 162.587C199.217 162.131 197.658 161.725 196.052 161.459C194.447 161.192 192.828 161.01 191.21 160.833C187.837 160.461 184.459 160.158 181.074 159.921C179.354 159.801 177.633 159.706 175.911 159.612C174.391 159.53 172.882 159.386 171.449 158.841C170.934 158.645 170.436 158.405 169.961 158.125C169.914 158.084 169.859 158.049 169.795 158.027C167.904 156.869 166.382 155.089 165.579 153.03C165.324 152.375 164.254 152.66 164.514 153.324C165.224 155.143 166.387 156.752 167.876 157.995C166.461 157.995 165.045 157.995 163.631 157.995C161.183 157.995 158.736 157.995 156.288 157.995L156.289 157.993C160.151 150.871 162.879 143.094 164.66 135.203C164.799 134.594 164.929 133.982 165.054 133.37C165.605 133.492 166.195 133.484 166.67 133.142C167.308 132.685 167.422 131.855 167.468 131.13C167.591 129.22 167.683 127.306 167.789 125.395C168.004 121.529 168.215 117.661 168.327 113.789C168.526 106.94 168.5 99.9789 166.945 93.2684C166.103 89.6353 164.777 86.108 162.84 82.914C162.472 82.3071 161.517 82.8617 161.886 83.471C165.167 88.8796 166.552 95.1498 167.048 101.395C167.59 108.217 167.234 115.102 166.874 121.924C166.768 123.941 166.652 125.957 166.54 127.974C166.527 128.218 166.514 128.461 166.501 128.705C164.183 126.379 161.063 124.983 157.841 124.454C154.196 123.854 150.272 124.137 146.711 125.114C145.265 125.511 143.883 126.084 142.635 126.893C143.347 124.434 144.061 121.975 144.773 119.515C145.882 115.688 146.992 111.86 148.101 108.033C148.199 107.997 148.292 107.933 148.367 107.834C151.096 104.228 154.766 101.399 158.918 99.6123C159.57 99.3327 159.008 98.3807 158.361 98.6591C154.704 100.232 151.451 102.609 148.816 105.568C149.102 104.583 149.388 103.598 149.673 102.612C150.134 101.021 150.594 99.4315 151.056 97.8404C151.468 96.4219 151.904 95.0141 152.688 93.7503C153.063 93.1446 152.108 92.5901 151.734 93.1934C151.027 94.3322 150.575 95.596 150.19 96.8729C149.779 98.2367 149.394 99.6088 148.997 100.977C148.172 103.825 147.346 106.673 146.521 109.52C144.859 115.253 143.197 120.984 141.536 126.716C141.1 128.22 140.619 129.735 140.252 131.269C139.182 125.124 139.083 118.76 139.37 112.566C139.537 108.981 139.823 105.404 140.113 101.827C140.138 101.514 139.839 101.295 139.56 101.275C128.287 100.443 117.007 99.6599 105.74 98.752C95.4531 97.9225 85.1757 96.9479 74.9377 95.646C74.7256 93.0946 73.9084 90.5742 73.2901 88.1025C72.6254 85.4476 71.9547 82.7927 71.2792 80.1401C71.1041 79.4523 70.0379 79.7438 70.2142 80.434C70.8742 83.0223 71.5282 85.613 72.1774 88.2037C72.4979 89.4829 72.8172 90.7634 73.1341 92.0438C73.4176 93.1863 73.6999 94.3299 73.8191 95.502C73.4486 95.4544 73.0793 95.4068 72.7088 95.358C67.8256 94.7131 62.9544 93.9859 58.0987 93.1613C58.9886 89.3282 59.8332 85.4821 60.8958 81.6907C61.3652 80.0163 61.7655 78.1706 62.7102 76.6843C63.3702 75.6454 64.9498 73.9032 66.3472 74.3269C67.0298 74.5327 67.3205 73.4689 66.6415 73.263C65.3668 72.8774 64.1517 73.626 63.2284 74.4411C62.1681 75.3777 61.4414 76.507 60.9387 77.822C60.3776 79.2869 59.9821 80.8256 59.5723 82.3369C59.1303 83.9696 58.7253 85.6118 58.3345 87.2564C57.8914 89.1247 57.4673 90.9978 57.0336 92.8685C57.0253 92.9054 57.0205 92.9411 57.0193 92.9756C56.0889 92.815 55.1585 92.6507 54.2293 92.483C54.1197 92.4627 54.0196 92.4734 53.9327 92.5032C53.6777 92.571 53.4681 92.7947 53.5372 93.1125C53.5407 93.1898 53.5622 93.2636 53.6003 93.3291C54.0113 94.694 54.4223 96.059 54.8333 97.4239C54.078 97.2633 53.3263 97.0931 52.5758 96.9122C52.5293 96.8944 52.4817 96.8836 52.4316 96.8801C52.191 96.8408 52.0028 96.9527 51.8956 97.1193C51.8074 97.2347 51.7633 97.3882 51.8014 97.5691C52.3745 100.282 52.9892 102.985 53.6301 105.683C53.5991 105.724 53.5729 105.771 53.5515 105.824C52.8462 107.625 51.9897 109.368 51.263 111.16C50.8698 112.129 50.4731 113.13 50.3326 114.172C50.2468 114.808 50.2825 115.6 50.846 115.994C48.9161 120.792 47.7069 125.857 45.6198 130.596C44.9515 132.113 44.1878 133.586 43.3003 134.988C42.9191 135.59 43.8745 136.145 44.2546 135.545C47.3746 130.623 48.8149 124.931 50.7102 119.483C51.2237 118.009 51.774 116.547 52.4042 115.118C53.5955 115.252 54.7928 115.305 55.9948 115.268C55.9996 115.268 56.0032 115.267 56.0079 115.267C56.9133 118.799 57.8413 122.325 58.7646 125.851C59.4544 128.488 60.1441 131.126 60.8339 133.763C60.6826 133.777 60.5313 133.792 60.3812 133.815C58.786 134.05 57.3338 134.845 55.9043 135.545C55.0203 135.977 54.1328 136.402 53.2536 136.841C52.5853 137.174 51.9325 137.581 51.5548 138.249C50.7841 139.614 51.3499 141.297 52.0909 142.543C52.4543 143.154 53.4097 142.599 53.0452 141.986C52.5127 141.093 51.923 139.739 52.5436 138.744C52.8605 138.236 53.4359 137.98 53.9541 137.724C54.6689 137.372 55.3873 137.023 56.1032 136.673C57.3827 136.047 58.6621 135.328 60.0572 134.996C61.5153 134.649 63.0521 134.952 64.5186 135.111C66.0291 135.275 67.5397 135.439 69.0503 135.603C70.0819 135.715 71.5735 135.667 72.3859 136.434C73.1758 137.179 72.6349 138.387 71.8987 138.946C70.8444 139.744 69.3231 139.73 68.0687 139.855C64.7056 140.19 61.3628 140.723 58.0617 141.445C57.3672 141.597 57.6615 142.661 58.356 142.509C58.5847 142.459 58.8134 142.412 59.0422 142.364C64.7104 141.75 70.4417 141.675 76.1385 141.704C76.8211 141.708 77.5037 141.714 78.1852 141.723C78.9083 141.733 79.6648 141.702 80.3641 141.919C80.943 142.099 81.6161 142.577 81.6042 143.255C81.5911 143.969 80.8656 144.428 80.264 144.625C79.8983 144.744 79.5182 144.819 79.1335 144.877C79.1072 144.878 79.0798 144.879 79.0536 144.882C79.0024 144.885 78.9559 144.896 78.9119 144.91C78.614 144.952 78.3162 144.988 78.0232 145.029C77.1559 145.152 76.2862 145.267 75.4166 145.376C73.7428 145.584 72.0667 145.768 70.3881 145.928C66.57 146.291 62.74 146.524 58.9064 146.633C58.1963 146.654 58.194 147.758 58.9064 147.738C62.6077 147.632 66.3055 147.411 69.9938 147.069C71.8379 146.898 73.6785 146.698 75.5155 146.468C76.4173 146.355 77.3191 146.235 78.2185 146.109C78.5342 146.065 78.8559 146.028 79.1775 145.983C79.5945 145.975 80.214 146.087 80.1782 146.605C80.1365 147.205 79.3598 147.603 78.9119 147.86C77.5514 148.64 76.1552 149.36 74.7364 150.027C71.9189 151.353 68.9848 152.443 65.9624 153.202C64.2315 153.637 62.4743 153.962 60.6993 154.154C60 154.231 59.9916 155.335 60.6993 155.259C64.3435 154.862 67.9054 153.963 71.3316 152.664C73.0685 152.006 74.7721 151.255 76.4352 150.428C76.4614 150.415 76.4864 150.402 76.5126 150.389C76.6007 150.499 76.6734 150.649 76.6794 150.759C76.6687 150.782 76.6532 150.818 76.6329 150.868C76.5769 150.95 76.5126 151.025 76.4411 151.092C76.3244 151.217 76.1945 151.333 76.0706 151.449C75.4452 152.037 74.7924 152.597 74.1216 153.133C72.8148 154.179 71.4353 155.131 70.0462 156.064C68.6953 156.971 67.3408 158.022 65.779 158.534C64.1755 159.06 62.4719 159.111 60.7993 159.163C60.0905 159.186 60.0869 160.289 60.7993 160.267C62.3063 160.22 63.8312 160.165 65.3036 159.814C66.0256 159.642 66.6939 159.377 67.336 159.055C67.4039 159.087 67.4849 159.106 67.5778 159.106C69.8532 159.106 72.1286 159.106 74.404 159.106C79.8661 159.106 85.3282 159.106 90.7891 159.106C97.3592 159.106 103.929 159.106 110.499 159.106C116.166 159.106 121.833 159.106 127.499 159.106C127.375 159.135 127.257 159.201 127.171 159.299C120.212 160.02 113.252 160.739 106.293 161.456C99.3153 162.176 92.3378 162.894 85.3604 163.61C81.4398 164.012 77.5192 164.415 73.5987 164.816C73.5212 164.824 73.4521 164.844 73.3914 164.875C73.034 164.701 72.4669 164.997 72.5825 165.514C74.0883 172.303 75.656 179.078 77.1904 185.861C77.6181 187.754 78.0434 189.649 78.4639 191.543C78.5128 191.765 78.7653 191.965 78.9964 191.949C85.8988 191.46 92.7453 190.412 99.5571 189.227C106.393 188.038 113.207 186.716 120.072 185.699C123.978 185.122 127.898 184.652 131.835 184.359C132.541 184.307 132.545 183.203 131.835 183.255C124.934 183.768 118.09 184.832 111.277 186.022C104.443 187.215 97.6284 188.535 90.7617 189.537C86.9996 190.086 83.2232 190.531 79.4313 190.812C77.9553 184.169 76.4221 177.539 74.921 170.903C74.5446 169.235 74.1693 167.567 73.7988 165.897C80.7095 165.189 87.6203 164.48 94.531 163.77C101.508 163.052 108.486 162.333 115.462 161.612C119.376 161.208 123.29 160.803 127.204 160.397C127.475 161.453 127.854 162.518 128.369 163.484C125.778 163.413 123.188 163.314 120.595 163.258C116.652 163.171 112.702 163.188 108.771 163.536C108.068 163.598 108.062 164.703 108.771 164.641C115.755 164.021 122.764 164.465 129.757 164.624C136.735 164.782 143.697 164.443 150.65 163.842C154.589 163.502 158.523 163.093 162.455 162.683C163.156 162.611 163.163 161.506 162.455 161.579C155.484 162.305 148.508 163.031 141.505 163.371C138.023 163.54 134.537 163.604 131.052 163.546C130.588 163.538 130.125 163.528 129.661 163.517C128.91 162.299 128.426 160.868 128.121 159.483C128.073 159.267 127.937 159.146 127.777 159.105C130.484 159.108 133.209 159.191 135.916 159.105C135.953 159.104 135.989 159.105 136.026 159.105C136.042 159.105 136.057 159.104 136.073 159.102C137.717 159.708 139.445 159.875 141.206 159.878C143.361 159.883 145.521 159.776 147.668 159.596C149.145 159.473 150.62 159.307 152.089 159.105C154.027 159.105 155.966 159.105 157.905 159.105C161.076 159.105 164.248 159.105 167.42 159.105C168.099 159.105 168.778 159.105 169.457 159.105C169.513 159.137 169.567 159.171 169.623 159.202C172.498 160.804 175.794 160.696 178.985 160.893C182.569 161.115 186.15 161.411 189.723 161.782C193.24 162.149 196.718 162.551 200.121 163.55C203.182 164.448 207.052 165.325 209.556 162.694C211.357 162.881 213.152 163.127 214.952 163.331C217.722 163.644 220.497 163.908 223.263 164.255C223.382 164.271 223.481 164.25 223.56 164.208C225.212 164.824 227.036 165.068 228.751 165.268C228.974 165.294 229.193 165.31 229.411 165.318C227.826 165.435 226.24 165.552 224.654 165.669C223.074 165.786 221.494 165.902 219.913 166.019C219.766 166.012 219.644 166.064 219.552 166.149C219.427 166.246 219.345 166.391 219.345 166.572C219.345 167.192 219.345 167.813 219.345 168.433C219.345 168.677 219.516 168.899 219.75 168.965C224.137 170.223 228.524 171.48 232.911 172.738C239.273 174.561 245.634 176.384 251.996 178.208C252.724 178.416 253.453 178.626 254.181 178.834C254.392 178.895 254.582 178.958 254.8 178.963C255.763 178.985 256.752 178.858 257.712 178.807C262.83 178.533 267.947 178.259 273.065 177.986C280.314 177.598 287.565 177.211 294.814 176.823C301.759 176.452 308.703 176.08 315.648 175.709C319.717 175.491 323.785 175.274 327.854 175.057C328.138 175.042 328.423 175.032 328.706 175.012C330.169 174.905 331.334 174.06 331.87 172.694C332.25 171.724 332.6 170.74 332.965 169.764C335.015 164.278 337.067 158.793 339.117 153.307C341.671 146.474 344.225 139.642 346.779 132.809C348.382 128.524 349.983 124.239 351.585 119.953C351.692 119.667 351.822 119.376 351.889 119.076C352.219 117.576 351.005 116.315 349.541 116.327ZM258.4 94.575C258.396 94.5119 258.381 94.4465 258.353 94.381C258.107 93.8039 257.943 93.1982 257.854 92.5805C258.695 92.8376 259.548 93.0565 260.41 93.2243C259.683 93.5718 259.004 94.0228 258.4 94.575ZM238.017 164.568C238.021 164.632 238.004 164.661 238.017 164.568V164.568ZM187.529 141.137C188.664 140.051 189.32 138.621 189.879 137.175C190.545 135.454 191.174 133.718 191.808 131.986C191.804 133.117 191.801 134.249 191.798 135.381C191.795 136.424 191.871 137.511 191.76 138.548C191.685 139.245 191.334 139.81 190.978 140.394C190.609 140.998 190.241 141.602 189.873 142.205C189.09 141.853 188.309 141.496 187.529 141.137ZM165.746 129.521C165.814 129.589 165.88 129.658 165.946 129.727C166.096 129.885 166.272 129.921 166.432 129.882C166.411 130.273 166.389 130.663 166.365 131.055C166.344 131.406 166.349 132.002 166.034 132.249C165.83 132.408 165.527 132.366 165.262 132.296C165.438 131.373 165.6 130.448 165.746 129.521ZM86.9746 98.1427C98.1001 99.3065 109.254 100.148 120.408 100.97C126.592 101.426 132.778 101.883 138.962 102.339C137.996 114.326 137.132 126.686 140.809 138.327C141.66 141.02 142.752 143.639 144.108 146.118C143.433 146.025 142.747 145.977 142.092 145.79C138.706 140.32 136.319 134.289 134.617 128.085C132.582 120.672 131.471 113.042 130.61 105.416C130.514 104.57 130.424 103.666 129.52 103.307C129.111 103.146 128.649 103.141 128.215 103.106C127.649 103.061 127.083 103.015 126.517 102.969C124.287 102.79 122.056 102.611 119.826 102.436C115.331 102.083 110.835 101.742 106.338 101.435C97.6784 100.844 89.0129 100.489 80.3426 100.11C72.2168 99.754 64.0492 99.2541 56.0556 97.6798C55.6577 96.3588 55.261 95.0391 54.8631 93.7182C65.5038 95.6163 76.2279 97.0193 86.9746 98.1427ZM52.1827 113.989C52.1028 113.959 52.0183 113.947 51.9373 113.957C51.7883 113.937 51.6394 113.915 51.4905 113.891C51.5179 113.782 51.5453 113.684 51.5656 113.606C51.8241 112.637 52.2113 111.702 52.602 110.779C53.0714 109.673 53.5777 108.578 54.0518 107.472C54.5927 109.708 55.1514 111.94 55.7196 114.17C54.5367 114.194 53.3549 114.136 52.1827 113.989ZM78.7356 140.626C76.0492 140.575 73.3592 140.58 70.6728 140.629C71.4424 140.458 72.1739 140.174 72.7755 139.64C73.669 138.846 74.18 137.495 73.6606 136.36C73.1257 135.191 71.8046 134.832 70.6359 134.677C68.9609 134.456 67.2729 134.307 65.5931 134.124C64.4066 133.995 63.1724 133.773 61.9549 133.735C61.9513 133.713 61.9478 133.692 61.9418 133.671C59.4794 124.255 56.9348 114.856 54.6844 105.387C54.1138 102.985 53.567 100.575 53.0487 98.1605C60.8029 99.9491 68.7739 100.623 76.7056 101.037C85.1829 101.479 93.6661 101.723 102.139 102.259C106.571 102.539 111.002 102.858 115.43 103.195C117.695 103.368 119.958 103.545 122.223 103.726C123.321 103.813 124.42 103.901 125.519 103.989C126.596 104.076 127.7 104.1 128.77 104.252C129.293 104.326 129.402 104.584 129.467 105.077C129.535 105.581 129.581 106.088 129.64 106.594C129.748 107.524 129.86 108.453 129.978 109.382C130.218 111.267 130.477 113.149 130.769 115.027C131.354 118.793 132.068 122.542 132.991 126.241C134.802 133.492 137.455 140.605 141.494 146.925C141.722 147.281 141.954 147.634 142.191 147.984C135.116 146.032 127.748 145.809 120.439 145.585C116.288 145.459 112.161 145.171 108.032 144.721C107.795 144.695 107.557 144.669 107.32 144.641C107.231 144.612 107.15 144.603 107.078 144.614C103.367 144.199 99.6608 143.73 95.9403 143.403C91.5349 143.016 87.1056 142.846 82.6919 143.172C82.6847 142.928 82.6311 142.674 82.5215 142.417C81.8854 140.923 80.183 140.655 78.7356 140.626ZM129.194 157.998C123.732 157.998 118.27 157.998 112.809 157.998C106.239 157.998 99.6691 157.998 93.0991 157.998C87.3927 157.998 81.6852 157.998 75.9789 157.998C73.7118 157.998 71.4341 157.94 69.1635 157.967C69.2063 157.939 69.2492 157.911 69.2921 157.883C71.8618 156.179 74.4445 154.455 76.7103 152.353C77.1916 151.905 77.8468 151.38 77.7682 150.651C77.742 150.408 77.6455 150.127 77.499 149.88C77.9457 149.647 78.3913 149.409 78.8332 149.163C79.4908 148.799 80.2223 148.445 80.725 147.869C81.2278 147.292 81.4648 146.488 81.0669 145.789C81.0193 145.705 80.9657 145.628 80.9061 145.556C81.5149 145.292 82.0664 144.85 82.3917 144.302C90.4294 143.667 98.4361 144.743 106.411 145.647C106.626 145.672 106.842 145.695 107.058 145.718C108.162 146.141 109.121 146.962 110.007 147.721C110.879 148.468 111.73 149.481 112.8 149.935C113.394 150.187 114.033 150.263 114.669 150.348C115.419 150.446 116.171 150.526 116.925 150.583C118.5 150.701 120.08 150.72 121.658 150.651C122.367 150.62 122.371 149.516 121.658 149.547C120.146 149.613 118.632 149.598 117.122 149.493C116.368 149.441 115.613 149.366 114.864 149.269C114.212 149.185 113.511 149.118 112.937 148.773C112.458 148.485 112.051 148.052 111.635 147.682C111.175 147.275 110.714 146.868 110.237 146.48C110.035 146.315 109.828 146.15 109.62 145.991C112.602 146.291 115.59 146.528 118.587 146.631C122.463 146.766 126.346 146.843 130.216 147.126C131.265 147.203 132.31 147.301 133.352 147.421C133.366 148.943 131.241 150.045 129.976 150.277C129.464 150.371 129.058 150.491 128.595 150.74C128.059 151.027 127.582 151.116 126.976 151.066C126.486 151.026 126.004 150.915 125.533 150.758C125.495 150.74 125.458 150.727 125.421 150.719C124.652 150.45 123.914 150.062 123.229 149.662C122.615 149.303 122.057 150.257 122.672 150.615C123.419 151.051 124.215 151.458 125.046 151.748C125.051 151.752 125.056 151.755 125.06 151.76C126.837 152.989 128.545 154.311 130.291 155.581C131.432 156.411 132.591 157.271 133.818 157.996C132.276 157.998 130.735 157.998 129.194 157.998ZM155.259 157.716C155.138 157.604 154.97 157.539 154.769 157.574C153.865 157.732 152.958 157.872 152.049 157.998C152.009 157.998 151.968 157.998 151.929 157.998C151.839 157.998 151.759 158.016 151.692 158.048C148.491 158.478 145.266 158.719 142.035 158.766C140.076 158.794 138.089 158.748 136.247 157.999C134.467 157.276 132.869 156.083 131.32 154.97C130.046 154.056 128.799 153.108 127.536 152.181C128.055 152.153 128.541 152.019 129.023 151.768C129.305 151.621 129.564 151.461 129.88 151.401C130.101 151.358 130.321 151.341 130.54 151.284C132.285 150.833 134.301 149.459 134.432 147.557C137.465 147.958 140.464 148.571 143.395 149.489C143.646 149.568 143.845 149.472 143.96 149.309C144.125 149.156 144.19 148.921 144.019 148.679C143.64 148.15 143.273 147.613 142.916 147.07C143.636 147.165 144.368 147.219 145.058 147.456C145.523 147.615 145.915 147.043 145.682 146.645C143.312 142.617 141.748 138.288 140.753 133.81C140.84 133.746 140.906 133.643 140.93 133.496C141.193 131.821 141.678 130.174 142.157 128.544C142.235 128.525 142.313 128.487 142.387 128.427C144.899 126.383 148.287 125.711 151.433 125.404C154.872 125.068 158.463 125.294 161.652 126.723C162.777 127.228 163.829 127.863 164.776 128.638C163.605 136.483 161.375 144.236 158.216 151.509C157.34 153.526 156.383 155.507 155.335 157.441C155.278 157.535 155.258 157.628 155.259 157.716ZM258.405 162.323C258.326 162.612 258.247 162.901 258.168 163.19C258.079 163.197 257.989 163.203 257.9 163.21C258.068 162.915 258.237 162.619 258.405 162.323ZM232.588 164.687C232.89 164.55 233.183 164.396 233.468 164.229C233.491 164.266 233.521 164.302 233.558 164.336C233.78 164.543 234.003 164.751 234.224 164.959C233.147 165.038 232.07 165.118 230.993 165.197C231.532 165.094 232.062 164.926 232.588 164.687ZM350.734 119.068C350.632 119.382 350.502 119.689 350.387 119.999C349.744 121.717 349.101 123.436 348.459 125.155C346.171 131.275 343.883 137.395 341.595 143.516C339.15 150.055 336.706 156.594 334.261 163.133C333.436 165.342 332.61 167.55 331.784 169.758C331.456 170.638 331.163 171.544 330.793 172.409C330.136 173.949 328.718 173.901 327.35 173.975C325.665 174.066 323.979 174.156 322.292 174.245C316.352 174.563 310.413 174.881 304.473 175.199C297.131 175.591 289.788 175.984 282.446 176.377C276.102 176.716 269.757 177.055 263.413 177.394C260.536 177.548 257.659 177.721 254.781 177.856C254.78 177.856 254.779 177.855 254.776 177.855C254.599 177.794 254.414 177.751 254.234 177.699C253.414 177.463 252.594 177.229 251.773 176.993C248.902 176.17 246.03 175.347 243.159 174.524C236.638 172.654 230.115 170.786 223.594 168.917C222.543 168.615 221.493 168.314 220.442 168.013C220.442 167.773 220.442 167.531 220.442 167.291C221.344 167.536 222.246 167.781 223.149 168.026C225.874 168.768 228.6 169.509 231.326 170.249C234.623 171.145 237.92 172.043 241.217 172.939C244.055 173.71 246.892 174.482 249.73 175.253C251.116 175.631 252.501 176.074 253.903 176.387C253.923 176.392 253.944 176.398 253.964 176.404C254.651 176.591 254.944 175.526 254.258 175.34C253.123 175.032 251.988 174.723 250.852 174.414C248.127 173.673 245.401 172.932 242.675 172.191C239.378 171.295 236.081 170.398 232.784 169.502C229.946 168.731 227.108 167.959 224.271 167.187C223.905 167.087 223.538 166.984 223.171 166.878C226.445 166.636 229.717 166.395 232.991 166.153C239.895 165.644 246.799 165.133 253.703 164.624C255.089 164.522 256.474 164.419 257.86 164.317C257.023 167.373 256.187 170.429 255.351 173.485C255.13 174.288 254.911 175.093 254.691 175.896C254.502 176.583 255.569 176.875 255.756 176.19C256.599 173.108 257.443 170.027 258.286 166.945C260.116 160.259 261.946 153.574 263.774 146.888C265.531 140.468 267.289 134.048 269.046 127.628C269.58 125.676 270.113 123.726 270.648 121.774C270.892 120.883 271.01 119.518 272.135 119.396C272.198 119.404 272.262 119.4 272.323 119.382C275.099 119.198 277.913 119.245 280.692 119.175C286.918 119.017 293.142 118.86 299.368 118.703C306.753 118.516 314.138 118.329 321.523 118.141C327.809 117.981 334.097 117.822 340.383 117.664C343.427 117.586 346.473 117.465 349.518 117.433C350.45 117.422 351.032 118.161 350.734 119.068Z" fill="#333333"/>
<path d="M178.247 178.694C178.241 178.694 178.235 178.695 178.229 178.695C178.361 178.498 178.39 178.226 178.198 177.997C173.787 172.715 167.807 168.833 164.065 162.981C163.684 162.383 162.727 162.937 163.111 163.538C166.901 169.465 172.915 173.401 177.388 178.741C168.883 179.22 160.378 179.698 151.872 180.177C147.553 180.419 143.272 180.53 138.95 180.288C134.604 180.046 130.3 179.823 125.947 180.059C121.292 180.31 116.621 180.766 111.967 180.292C111.328 175.088 110.22 169.953 108.632 164.954C108.418 164.279 107.351 164.567 107.567 165.248C109.175 170.309 110.307 175.517 110.923 180.791C110.961 181.114 111.149 181.305 111.476 181.343C115.767 181.841 120.083 181.517 124.379 181.254C126.534 181.122 128.693 181.01 130.853 181.025C131.189 181.027 131.526 181.033 131.862 181.042C131.827 181.521 131.927 181.991 132.206 182.402C132.373 182.648 132.692 182.758 132.962 182.599C133.207 182.457 133.329 182.093 133.16 181.844C133.008 181.619 132.911 181.357 132.958 181.08C132.958 181.077 132.958 181.075 132.959 181.073C134.398 181.124 135.836 181.208 137.273 181.294C139.443 181.423 141.616 181.552 143.791 181.567C145.929 181.581 148.065 181.487 150.197 181.373C154.601 181.136 159.003 180.879 163.406 180.631C168.354 180.353 173.301 180.074 178.25 179.796C178.955 179.758 178.959 178.653 178.247 178.694Z" fill="#333333"/>
<path d="M219.765 41.4799C216.962 42.3629 214.65 44.4002 213.208 46.9374C211.533 49.8886 211.077 53.3884 211.399 56.7276C211.467 57.4285 212.572 57.4357 212.504 56.7276C212.206 53.6288 212.565 50.3872 214.089 47.6264C215.385 45.2797 217.475 43.3566 220.058 42.5438C220.735 42.332 220.447 41.2657 219.765 41.4799Z" fill="#333333"/>
<path d="M208.461 62.1565C208.849 61.9601 209.242 61.7721 209.622 61.5603C210.995 60.7975 212.335 59.5015 212.162 57.7951C212.092 57.0953 210.986 57.0882 211.057 57.7951C211.266 59.8752 208.817 60.6856 207.363 61.4853C206.57 61.9208 206.306 62.5087 206.188 63.3846C206.074 64.2319 206.194 65.0208 206.732 65.7015C207.173 66.2585 207.95 65.473 207.514 64.9209C207.123 64.427 207.147 63.3774 207.432 62.8312C207.609 62.4909 208.136 62.3207 208.461 62.1565Z" fill="#333333"/>
<path d="M212.341 76.3117C211.297 76.9603 210.135 77.3625 208.958 77.6934C208.274 77.8849 208.565 78.95 209.252 78.7572C210.612 78.3752 211.985 77.8921 213.162 77.0936C214.157 76.4188 215.426 75.3324 215.425 74.015C215.423 72.5275 213.941 72.2954 212.793 72.1265C211.33 71.9111 209.974 71.2506 208.893 70.245C208.374 69.7607 207.59 70.5402 208.112 71.0257C208.995 71.848 210.024 72.4751 211.168 72.8655C211.747 73.063 212.336 73.1701 212.941 73.2498C213.349 73.3034 214.037 73.3284 214.258 73.7437C214.521 74.2387 213.992 74.8778 213.679 75.2157C213.286 75.6441 212.834 76.0059 212.341 76.3117Z" fill="#333333"/>
<path d="M219.644 51.9725C219.637 53.0054 219.691 54.0383 219.797 55.0594C220.232 59.2447 221.496 63.186 224.105 66.5323C225.454 68.2614 227.086 69.7466 228.923 70.9425C229.521 71.3317 230.075 70.3761 229.48 69.9893C226.403 67.9853 223.954 65.0722 222.503 61.6997C221.68 59.7849 221.223 57.7203 220.968 55.6591C220.83 54.5417 220.75 53.416 220.744 52.289C220.964 52.4021 221.166 52.5449 221.333 52.7281C221.874 53.322 221.871 54.1811 221.811 54.9332C221.753 55.6413 222.859 55.6377 222.916 54.9332C222.998 53.9205 222.888 52.8543 222.205 52.0498C221.824 51.6012 221.317 51.2965 220.767 51.1073C220.786 50.642 220.82 50.1767 220.867 49.7126C221.101 47.4552 221.73 45.2382 222.842 43.2532C223.19 42.6332 222.236 42.0751 221.888 42.6963C220.479 45.2108 219.822 48.0252 219.676 50.8777C218 50.7265 216.139 51.4179 215.524 53.0911C215.279 53.7587 216.346 54.0467 216.589 53.385C217.015 52.226 218.522 51.8511 219.644 51.9725Z" fill="#333333"/>
<path d="M221.9 47.1874C221.641 49.3413 222.379 51.5726 223.88 53.1446C225.379 54.7154 227.597 55.5341 229.754 55.3747C230.459 55.3223 230.464 54.218 229.754 54.2703C227.867 54.4096 225.977 53.7396 224.66 52.3639C223.345 50.9883 222.779 49.0593 223.004 47.1874C223.089 46.4841 221.983 46.49 221.9 47.1874Z" fill="#333333"/>
<path d="M244.012 71.7817C245.594 73.5453 246.749 75.6576 247.119 78.0115C247.228 78.7112 248.293 78.4137 248.184 77.7175C247.537 73.5953 244.607 70.268 241.291 67.9368C237.4 65.2021 232.823 63.7206 228.795 61.2299C226.75 59.9649 224.573 57.855 225.064 55.2072C225.193 54.5134 224.128 54.2147 223.999 54.9133C223.065 59.947 228.67 62.5722 232.348 64.3632C236.497 66.385 240.872 68.2795 244.012 71.7817Z" fill="#333333"/>
<path d="M236.383 88.5059C234.813 89.7114 232.984 90.5314 231.039 90.8967C230.341 91.0276 230.636 92.0915 231.333 91.9606C235.072 91.2596 238.413 88.8927 240.417 85.6749C242.462 82.3916 242.884 78.3182 241.739 74.6411C241.082 72.5347 239.933 70.5998 238.369 69.0408C237.865 68.5387 237.083 69.3193 237.587 69.8215C238.457 70.6878 239.182 71.6791 239.754 72.7513C239.739 72.7763 239.726 72.8037 239.712 72.8334C239.306 73.8259 238.84 74.9005 237.983 75.5895C237.276 76.1571 236.105 76.438 235.35 75.8037C234.809 75.3491 234.024 76.1262 234.568 76.5844C235.636 77.4804 237.146 77.4352 238.303 76.7117C239.285 76.0976 239.89 75.1123 240.368 74.0818C241.055 75.8287 241.361 77.7256 241.243 79.6141C241.021 83.1271 239.162 86.3722 236.383 88.5059Z" fill="#333333"/>
<path d="M208.572 56.7383C207.854 55.1247 207.096 53.4241 207.074 51.626C207.053 49.8708 207.807 48.2416 208.736 46.791C210.462 44.0968 212.769 41.7203 215.348 39.8318C216.798 38.7703 218.348 37.8552 219.973 37.09C220.615 36.7865 220.055 35.8357 219.415 36.1368C216.321 37.5945 213.493 39.6128 211.114 42.069C209.918 43.3031 208.818 44.649 207.877 46.0877C206.895 47.5895 206.105 49.2757 205.984 51.0893C205.839 53.2766 206.749 55.3424 207.618 57.2953C207.907 57.9426 208.859 57.3821 208.572 56.7383Z" fill="#333333"/>
<path d="M222.234 36.3546C225.296 34.8207 228.775 34.5268 232.151 34.5208C233.91 34.5185 235.711 34.5458 237.386 35.1396C238.908 35.6787 240.313 36.6986 242.006 36.5022C242.704 36.4213 242.712 35.317 242.006 35.3979C240.269 35.6002 238.759 34.3649 237.151 33.9068C235.421 33.4141 233.582 33.4046 231.797 33.4189C228.332 33.4463 224.812 33.8306 221.675 35.4014C221.04 35.7204 221.599 36.6724 222.234 36.3546Z" fill="#333333"/>
<path d="M243.594 36.6513C246.883 36.6405 249.71 38.6207 252.173 40.5962C254.643 42.5752 257.269 44.6398 258.926 47.384C259.85 48.9156 260.331 50.6161 260.657 52.3618C261.001 54.2064 261.257 56.0687 261.547 57.9216C262.142 61.7261 262.743 65.5306 263.335 69.3362C263.662 71.4449 263.943 73.5691 263.81 75.7076C263.681 77.7651 263.186 79.7834 262.397 81.6862C262.126 82.3419 263.194 82.6275 263.462 81.9802C264.184 80.2404 264.644 78.4149 264.844 76.5418C265.053 74.5914 264.908 72.6445 264.645 70.7071C264.101 66.6992 263.407 62.7067 262.782 58.7106C262.478 56.7697 262.19 54.8264 261.866 52.889C261.563 51.0719 261.156 49.2666 260.316 47.6137C258.786 44.6018 256.107 42.3848 253.537 40.2868C250.68 37.9531 247.458 35.535 243.594 35.5469C242.882 35.5493 242.881 36.6536 243.594 36.6513Z" fill="#333333"/>
<path d="M237.14 73.5795C237.211 73.2511 237.463 73.0666 237.778 73.0809C238.076 73.094 238.331 72.8179 238.331 72.5287C238.331 72.2193 238.077 71.9897 237.778 71.9766C236.992 71.9421 236.24 72.5145 236.075 73.2856C236.013 73.5772 236.161 73.8818 236.461 73.9639C236.735 74.0413 237.079 73.8735 237.14 73.5795Z" fill="#333333"/>
<path d="M217.941 57.8669C217.888 57.8609 217.838 57.8609 217.789 57.8633C217.661 57.8538 217.534 57.8919 217.424 57.9668C217.173 58.0882 217.019 58.3631 216.922 58.6678C216.901 58.7213 216.882 58.7749 216.867 58.8296C216.515 59.6459 216.361 60.7063 216.972 61.2905C217.297 61.6725 217.872 61.7975 218.306 61.5143C218.402 61.4512 218.468 61.3739 218.509 61.2882C218.906 60.7622 219.015 59.8054 218.915 59.2425C218.818 58.7118 218.564 57.9395 217.941 57.8669Z" fill="#333333"/>
<path d="M256.687 94.9999C255.441 95.5295 254.088 95.7889 252.735 95.7746C251.374 95.7603 250.116 95.4117 248.843 94.9618C248.171 94.725 247.881 95.7913 248.548 96.0257C249.97 96.5267 251.393 96.8873 252.912 96.8777C254.412 96.8682 255.868 96.5374 257.245 95.9519C257.898 95.6758 257.335 94.725 256.687 94.9999Z" fill="#333333"/>
<path d="M109.574 46.8768C110.269 46.9744 110.57 45.9105 109.868 45.8129C108.428 45.6106 107.295 44.7014 106.539 43.4876C105.635 42.0346 105.374 40.3674 105.378 38.6799C105.383 36.7533 105.657 34.8362 105.734 32.9119C105.792 31.4768 105.981 29.1443 107.777 28.8004C109.813 28.4101 110.86 30.8318 111.37 32.3467C111.595 33.0167 112.664 32.7287 112.435 32.0527C111.89 30.4343 111.094 28.6719 109.465 27.9638C109.503 27.8746 109.52 27.7758 109.508 27.6747C109.487 27.4926 109.407 27.3093 109.256 27.2094C109.235 26.9523 109.254 26.6739 109.241 26.4466C109.216 26.0087 109.194 25.5719 109.176 25.134C109.138 24.2284 109.12 23.3204 109.142 22.4136C109.186 20.6274 109.404 18.8614 109.936 17.1514C110.147 16.4719 109.08 16.1803 108.871 16.8574C108.171 19.1077 107.996 21.4735 108.033 23.819C108.051 24.9769 108.118 26.1324 108.188 27.2879C108.195 27.4129 108.205 27.5473 108.226 27.6759C106.606 27.6318 105.346 28.9551 104.917 30.5236C104.631 31.5684 104.651 32.6668 104.594 33.739C104.53 34.9362 104.391 36.1286 104.32 37.3257C104.195 39.3999 104.295 41.5158 105.233 43.4091C106.082 45.1263 107.616 46.6031 109.574 46.8768Z" fill="#333333"/>
<path d="M110.659 40.3269C110.681 39.52 110.533 38.7275 110.2 37.9909C109.967 37.4744 109.202 36.6878 109.255 36.044C109.909 35.95 109.896 34.9028 109.203 34.9456C109.084 34.9528 108.964 34.9599 108.844 34.9682C108.659 34.9801 108.455 35.0622 108.368 35.2419C107.956 36.0845 108.244 36.877 108.718 37.6255C109.259 38.4788 109.584 39.3023 109.554 40.3281C109.533 41.0373 110.639 41.0373 110.659 40.3269Z" fill="#333333"/>
<path d="M120.349 30.0535C119.209 30.8877 117.923 31.8266 116.464 31.9396C115.328 32.0277 114.128 31.5886 113.617 30.5176C113.311 29.8761 112.358 30.4366 112.663 31.0745C113.294 32.3966 114.775 33.0582 116.19 33.0535C117.968 33.0475 119.526 32.0146 120.905 31.0055C121.474 30.5913 120.923 29.6334 120.349 30.0535Z" fill="#333333"/>
<path d="M118.249 23.7872C117.722 23.3124 116.938 24.0906 117.467 24.5678C120.019 26.8717 123.713 26.2434 126.498 24.7559C129.654 23.0708 132.42 20.135 136.143 19.7614C136.844 19.6911 136.851 18.5868 136.143 18.657C132.597 19.0128 129.924 21.3857 127.012 23.1827C124.495 24.7368 120.786 26.078 118.249 23.7872Z" fill="#333333"/>
<path d="M144.155 19.3743C142.326 17.1942 139.907 15.5805 137.203 14.6939C136.527 14.4714 136.236 15.5377 136.909 15.7578C139.438 16.5884 141.665 18.1176 143.373 20.1549C143.831 20.7 144.609 19.9157 144.155 19.3743Z" fill="#333333"/>
<path d="M144.675 15.3557C145.301 16.5731 145.615 17.8964 145.619 19.2637C145.62 19.9742 146.725 19.9753 146.724 19.2637C146.721 17.6988 146.345 16.1887 145.631 14.7976C145.304 14.1669 144.35 14.725 144.675 15.3557Z" fill="#333333"/>
<path d="M149.368 21.5961C150.614 21.4057 151.92 21.7723 152.892 22.5719C153.436 23.0206 154.222 22.2435 153.673 21.7913C152.364 20.7131 150.751 20.2752 149.075 20.5311C148.373 20.6394 148.671 21.7032 149.368 21.5961Z" fill="#333333"/>
<path d="M154.459 27.0022C155.633 30.1878 155.717 33.6746 154.804 36.8912C154.632 36.3331 154.344 35.8119 153.93 35.3763C152.886 34.2755 151.217 33.9566 149.853 34.6076C149.212 34.9134 149.772 35.8654 150.41 35.5608C151.369 35.1026 152.577 35.4667 153.243 36.2617C154 37.1649 154.034 38.4406 153.655 39.5069C153.611 39.6306 153.612 39.7413 153.643 39.8365C153.247 40.6088 152.786 41.3514 152.261 42.0535C151.836 42.6223 152.794 43.1733 153.216 42.6104C156.57 38.1241 157.46 31.9645 155.524 26.7094C155.281 26.0478 154.213 26.3334 154.459 27.0022Z" fill="#333333"/>
<path d="M136.714 2.01204C139.156 3.8756 142.264 4.33138 145.08 5.37383C146.672 5.96289 148.141 6.82327 149.57 7.72769C150.968 8.61068 152.37 9.52342 153.505 10.7384C154.731 12.051 155.552 13.7575 155.373 15.5818C155.304 16.2887 156.409 16.2839 156.479 15.5818C156.82 12.0903 154.122 9.4425 151.469 7.64557C149.974 6.63287 148.424 5.65349 146.783 4.89426C145.301 4.20881 143.736 3.76731 142.178 3.29606C140.442 2.77008 138.729 2.1715 137.272 1.06002C136.707 0.626858 136.155 1.58601 136.714 2.01204Z" fill="#333333"/>
<path d="M157.987 17.2763C158.581 15.9363 158.864 14.5142 158.775 13.0481C158.734 12.3425 157.628 12.3377 157.67 13.0481C157.745 14.3096 157.546 15.5603 157.031 16.7193C156.748 17.3631 157.7 17.9248 157.987 17.2763Z" fill="#333333"/>
<path d="M158.774 20.3884C158.752 20.4777 158.757 20.58 158.806 20.6955C159.305 21.8795 159.768 23.1136 159.921 24.3964C160.073 25.6602 159.881 26.9133 159.531 28.1283C158.815 30.6143 157.671 33.0014 156.382 35.2375C156.027 35.8539 156.981 36.4108 157.336 35.7944C158.698 33.4322 159.92 30.8808 160.647 28.2449C161 26.9633 161.177 25.6305 161.015 24.306C160.848 22.9458 160.401 21.6594 159.871 20.4015C159.762 20.1421 159.522 20.0326 159.295 20.0386C160.18 19.3567 160.834 18.4606 161.235 17.4003C161.487 16.7351 160.419 16.4471 160.17 17.1064C159.814 18.0489 159.16 18.839 158.314 19.3841C157.751 19.747 158.215 20.6217 158.774 20.3884Z" fill="#333333"/>
<path d="M110.176 14.7453C109.792 12.8924 111.246 11.2954 112.659 10.3327C113.454 9.79123 114.304 9.33903 115.126 8.84041C115.962 8.33346 116.755 7.75987 117.531 7.16725C119.069 5.99389 120.573 4.77055 122.312 3.90065C123.972 3.07121 125.801 2.5357 127.647 2.32983C129.722 2.09897 131.813 2.26081 133.824 2.82131C134.51 3.0129 134.803 1.94783 134.118 1.75743C130.233 0.674516 126.038 1.01129 122.362 2.66065C120.43 3.52818 118.786 4.82648 117.117 6.10575C116.27 6.75431 115.41 7.38264 114.495 7.93243C113.598 8.47269 112.666 8.96298 111.818 9.57941C110.081 10.8408 108.644 12.7865 109.112 15.038C109.255 15.7342 110.32 15.439 110.176 14.7453Z" fill="#333333"/>
<path d="M141.498 34.3506C141.636 31.911 140.006 29.5393 137.689 28.7646C136.367 28.322 134.847 28.441 133.483 28.5945C132.252 28.7325 130.981 29.0514 130.157 30.0451C129.707 30.5877 130.484 31.3732 130.938 30.8258C131.607 30.0201 132.629 29.7833 133.631 29.6821C134.81 29.5643 136.11 29.4406 137.261 29.7857C139.199 30.3664 140.506 32.3609 140.392 34.3506C140.353 35.0598 141.458 35.0574 141.498 34.3506Z" fill="#333333"/>
<path d="M135.902 37.9491C135.851 37.9253 135.798 37.9039 135.739 37.8872C134.797 37.6112 134.056 38.6965 133.738 39.4259C133.38 40.2459 133.233 41.3704 133.64 42.2034C133.995 42.9293 134.703 42.9412 135.217 42.5462C135.24 42.5402 135.262 42.5343 135.284 42.5271C135.623 42.4212 135.855 42.2189 136.019 41.9619C136.191 41.7143 136.285 41.4073 136.352 41.111C136.443 40.7076 136.499 40.297 136.524 39.8853C136.624 39.5592 136.693 39.2284 136.652 38.8821C136.589 38.374 136.281 38.0503 135.902 37.9491Z" fill="#333333"/>
<path d="M148.416 47.4578C148.704 47.3995 148.915 47.2448 149.071 47.0365C149.52 46.5665 149.631 45.7097 149.648 44.9885C149.714 44.7612 149.762 44.5292 149.76 44.2935C149.754 43.7342 149.403 43.2844 148.944 43.1975C148.095 42.8738 147.362 43.8449 147.055 44.5196C146.71 45.2777 146.556 46.3213 146.934 47.1008C147.265 47.7898 147.926 47.8172 148.416 47.4578Z" fill="#333333"/>
<path d="M142.728 52.4926C143.379 51.8393 144.492 50.7004 143.891 49.7139C143.631 49.2843 143.123 49.0653 142.739 48.7654C142.327 48.4429 141.886 48.03 141.785 47.4921C141.666 46.8531 142.039 46.1367 142.305 45.575C142.569 45.0169 142.884 44.5052 143.334 44.078C143.851 43.5877 143.068 42.8082 142.552 43.2973C141.64 44.1625 140.908 45.5643 140.705 46.8055C140.483 48.1526 141.347 49.1284 142.375 49.8603C142.542 49.9793 142.96 50.1637 142.949 50.3862C142.937 50.629 142.574 51.0039 142.43 51.18C142.021 51.6786 141.546 52.132 141.019 52.5033C140.757 52.6877 140.484 52.8567 140.202 53.0079C139.938 53.1495 139.606 53.2387 139.359 53.4017C138.853 53.7338 138.9 54.3692 139.474 54.5846C139.662 54.6548 139.872 54.5656 140.011 54.443C140.023 54.4323 140.035 54.4216 140.047 54.4109C140.104 54.3609 140.146 54.3062 140.175 54.2514C140.211 54.2312 140.242 54.2133 140.256 54.2074C140.377 54.1526 140.497 54.0955 140.617 54.0348C140.879 53.9016 141.132 53.754 141.378 53.5921C141.861 53.272 142.319 52.9031 142.728 52.4926Z" fill="#333333"/>
<path d="M128.08 57.6479C128.096 58.6011 128.147 59.5543 128.236 60.5039C128.313 61.3143 128.346 62.1997 128.65 62.9637C129.198 64.3417 130.701 64.8451 132.088 64.7475C133.646 64.6369 135.051 63.8931 136.271 62.9578C137.732 61.8368 139.019 60.4766 140.168 59.0414C140.192 59.0414 140.215 59.0426 140.239 59.0438C140.95 59.0581 140.95 57.9537 140.239 57.9395C136.087 57.8597 131.024 56.1318 129.499 51.9465C129.492 51.9144 129.481 51.8858 129.468 51.8585C129.38 51.6074 129.304 51.3468 129.243 51.0778C129.085 50.3852 128.02 50.6792 128.178 51.3718C128.24 51.6419 128.314 51.9037 128.4 52.1572C128.163 53.9767 128.052 55.8117 128.08 57.6479ZM129.31 54.0207C131.303 57.0469 135.183 58.5833 138.819 58.9545C137.812 60.1481 136.698 61.2846 135.449 62.2033C134.15 63.1577 132.386 64.0431 130.742 63.5052C129.832 63.2077 129.577 62.4603 129.459 61.5821C129.319 60.5408 129.247 59.4853 129.207 58.4357C129.151 56.9636 129.189 55.4892 129.31 54.0207Z" fill="#333333"/>
</svg>
