<svg width="217" height="119" viewBox="0 0 217 119" fill="none" xmlns="http://www.w3.org/2000/svg">
<path d="M76.8025 93.2033L76.7835 93.1819C76.2905 93.0136 75.7916 92.7695 75.3316 92.4967L74.5349 92.471C73.0376 92.5401 71.5343 92.4688 70.0502 92.2585C69.7164 92.2115 69.3775 92.1541 69.0796 91.996C68.8133 91.8542 68.5954 91.6387 68.3695 91.4388C67.6468 90.7999 66.5347 89.764 65.6294 89.4339H65.6286C60.4807 88.8582 55.4297 88.1149 50.2055 88.5597L50.1431 88.5648C50.0346 88.8545 49.7947 89.0993 49.5196 89.2523C49.1469 89.4588 48.7155 89.5265 48.2944 89.5882C48.962 89.5118 49.4051 89.9426 49.3149 90.4014C49.2254 90.8602 48.7845 91.1498 48.3788 91.3807C47.841 91.6865 47.2959 91.9799 46.7435 92.2607L46.8125 92.2769C46.9834 92.3298 47.216 92.782 47.169 92.9548C47.1221 93.1275 46.99 93.2628 46.8616 93.3878C45.42 94.7854 43.7386 95.9051 42.0681 97.0175C41.7093 97.2565 41.3484 97.4954 40.9654 97.6924H83.4602C82.5571 97.3337 81.7406 96.7712 80.938 96.2161C79.5588 95.2611 78.181 94.1568 76.8025 93.2033Z" fill="#7CB4EA"/>
<path d="M32.9175 65.2086C32.7752 65.5777 32.2536 66.7459 32.0988 67.1113C31.4781 68.5751 30.4078 70.8462 31.2037 71.1704L31.3314 71.2851C31.4422 71.0175 31.5566 70.7521 31.6762 70.4888L34.3547 70.566C33.8815 68.7104 33.4178 66.8525 32.9762 64.9895L32.9175 65.2086Z" fill="#8EC3EF"/>
<path d="M99.6001 51.1375L98.6912 50.0965C96.5548 47.6027 92.8258 47.0218 89.8472 45.6455C87.6493 44.6295 85.6406 43.2017 83.9569 41.4585L83.739 41.3666C83.2717 41.6423 82.7926 41.8989 82.3055 42.1379C82.3921 42.2584 82.4559 42.3371 82.4559 42.3371C82.6892 43.5348 82.0509 44.7692 81.1354 45.5735C80.2191 46.3778 79.0592 46.8358 77.9243 47.2792C75.6911 48.1504 73.4425 49.0268 71.0868 49.4701C69.4971 49.7693 67.7804 49.8502 66.3314 49.1297C64.6081 48.2724 63.5664 46.4021 63.2194 44.5052C62.8724 42.6084 62.7983 41.0373 63.0448 39.1243C63.4651 38.5883 63.876 38.0361 64.2677 37.4708L63.8606 37.3965C63.6207 37.051 63.1181 36.987 62.7176 37.1142C62.317 37.2414 61.9825 37.5149 61.6274 37.7406C60.816 38.2574 59.8792 38.5339 58.9585 38.8111C53.0175 40.5991 47.1631 42.676 41.4225 45.0309L40.5612 45.3301C39.7557 45.0485 38.8364 45.8536 38.2715 46.4947C37.7066 47.1351 37.4227 47.9717 37.1733 48.7893C36.3304 51.5515 35.7156 54.3857 35.0634 57.2052L34.9665 57.5677C46.5894 59.5682 58.5938 60.6548 70.3275 61.5231C75.4042 61.8988 80.481 62.2745 85.5577 62.6501C85.1755 67.393 84.7991 72.1593 85.152 76.9043C85.2833 78.674 85.521 80.4451 85.8922 82.1839L87.058 78.8394C88.3961 77.7285 90.1458 77.2484 91.8647 76.9948C93.6702 76.7286 95.5263 76.6801 97.3097 77.069C98.821 77.3991 100.281 78.0593 101.449 79.0666C101.449 79.0658 101.449 79.0658 101.449 79.0651L101.562 79.1644C101.524 79.1313 101.486 79.0989 101.449 79.0666C101.323 79.9481 101.168 80.8472 100.987 81.756L101.126 81.7471C101.557 81.8986 101.948 81.8795 102.155 81.6288C102.362 81.3781 102.389 81.0289 102.408 80.7039C102.465 79.6819 102.521 78.6607 102.579 77.6388C102.763 74.3311 102.947 71.0219 102.981 67.7091C103.039 61.9951 102.57 56.0156 99.6001 51.1375Z" fill="#7CB4EA"/>
<path d="M80.5331 34.0409C79.8258 33.4365 79.2602 32.6476 78.9807 31.7625L79.0299 31.9477C78.7723 33.8813 78.7613 35.8473 78.999 37.7831C79.0416 38.1316 79.0981 38.4933 79.2969 38.7815C79.5815 39.1954 80.109 39.3777 80.6101 39.4013C81.8866 39.4615 83.0443 38.6734 83.9863 37.8081C84.6223 37.2236 85.2121 36.5869 85.7462 35.9075L85.9795 35.8723C85.0889 35.8605 84.2005 35.7289 83.3436 35.4841C82.3231 35.1922 81.3401 34.7305 80.5331 34.0409Z" fill="#EBA9AC"/>
<path d="M98.4718 15.2593C98.4461 14.28 97.9788 13.3823 97.7411 12.4324C97.7059 12.2913 97.0669 10.8179 97.0669 10.8179L95.6385 9.36295C95.7618 8.28514 95.2974 7.20438 94.6026 6.37286C93.9079 5.54135 92.9982 4.92157 92.0863 4.33708C91.2323 3.78935 90.36 3.26073 89.4232 2.87328C87.606 2.12263 85.5298 1.89545 83.9797 0.685303L82.1177 1.15216C79.4297 0.384603 76.4284 0.794113 74.0426 2.25497C72.8248 3.00047 71.775 3.99594 70.5704 4.76276C69.7531 5.28255 68.861 5.70015 68.1479 6.35522C67.4356 7.01102 66.9169 7.99326 67.137 8.93727L66.988 10.2423C66.3263 12.3325 66.4547 14.58 66.5904 16.7687C66.5941 16.8275 66.6088 16.901 66.666 16.915C66.674 16.9172 66.6806 16.9165 66.6873 16.9135L66.6939 17.2525C66.8736 17.3098 67.0467 17.3958 67.2067 17.5024C67.3556 17.6017 67.4928 17.7193 67.6124 17.8487C68.0379 18.3119 68.2829 18.9074 68.4861 19.5044C69.2131 19.9198 70.3253 20.0683 72.0266 19.6691C74.1277 19.1765 75.2098 17.412 75.7388 15.3777C75.8613 15.3475 75.9823 15.3137 76.1005 15.2755C77.4151 14.8498 78.5427 13.9999 79.6894 13.2265C80.8361 12.453 82.0796 11.7259 83.4558 11.6031C83.4558 11.6031 88.044 11.3936 89.3168 12.431C90.5897 13.4683 91.8251 13.5786 91.8251 13.5786C91.8251 13.5786 93.8587 13.4397 94.4713 14.3528C95.0839 15.2659 95.0633 16.3283 95.0633 16.3283C95.8945 18.556 95.8652 21.0763 95.0611 23.3106C95.4177 23.0849 95.6539 22.9253 95.6583 22.8974C95.6774 22.7797 96.2144 21.6791 96.2144 21.6791C96.8519 20.5763 97.3978 19.4206 97.8453 18.2273C98.2011 17.2745 98.4982 16.2768 98.4718 15.2593Z" fill="#B2B0A1"/>
<path d="M47.9929 86.9574C48.469 86.9641 48.9591 86.9736 49.3963 87.1626C49.8336 87.3508 50.2099 87.7647 50.2048 88.2418C50.2033 88.3536 50.1813 88.4617 50.1424 88.5646L50.2048 88.5595C55.429 88.1139 60.48 88.8572 65.6279 89.4336C67.5867 89.6527 69.5601 89.8475 71.5622 89.9439C71.9422 89.9622 72.3223 89.9762 72.7015 89.9894C73.4843 90.0166 74.2671 90.0372 75.0492 90.0659C79.0276 90.2137 83.0267 90.3203 87.2759 91.5437L87.7674 91.6966L87.752 91.6856C87.8378 91.712 87.9229 91.7378 88.0088 91.765L87.6463 91.6069L87.3866 91.4128L88.008 91.765C87.617 91.218 87.2458 90.6607 86.8922 90.0946C87.4262 90.2909 88.4981 90.3115 89.0314 90.5078C87.5165 87.9382 86.5143 85.1077 85.89 82.1837C85.5188 80.445 85.2811 78.6731 85.1498 76.9042C84.7976 72.1592 85.1733 67.3928 85.5555 62.65C80.4788 62.2743 75.402 61.8986 70.3253 61.5229C58.5916 60.6547 46.5872 59.568 34.9643 57.5675C34.2799 57.4499 33.5968 57.3293 32.9153 57.2051C33.1743 58.0682 33.58 59.4203 33.8389 60.2834L33.8771 60.379C33.1911 60.2415 32.5111 60.0922 31.8376 59.9276C32.1934 61.62 32.5749 63.3066 32.974 64.9887C33.4156 66.8517 33.8793 68.7096 34.3525 70.5653C34.7919 72.2879 35.2402 74.0082 35.6884 75.7279C36.2695 77.9563 36.8498 80.184 37.4308 82.4124L37.5438 82.7028C37.86 82.7094 38.1762 82.7432 38.4909 82.7771C39.9472 82.9359 41.4027 83.0947 42.8589 83.2527C43.5258 83.3255 44.2917 83.4593 44.6262 84.0423C44.9901 84.6754 44.5998 85.526 43.9865 85.9215C43.3732 86.3171 42.6124 86.3803 41.8861 86.4472C40.9647 86.5325 40.0462 86.6442 39.1314 86.7788L39.2539 87.0927C42.1935 86.9346 45.3907 86.9207 47.9929 86.9574Z" fill="white"/>
<path d="M109.114 109.947C106.383 106.652 102.645 104.219 100.356 100.602L99.6551 99.9023C93.7142 100.523 87.76 101.144 81.7868 101.132C80.9483 101.13 80.109 101.115 79.2705 101.095C78.801 100.407 78.3564 99.1723 78.1832 98.3569L77.9587 98.4885C66.9514 99.6325 55.944 100.769 44.9351 101.901H44.6372C45.7685 107.022 47.1279 112.861 48.2592 117.983C59.1961 117.214 69.8646 114.101 80.7986 113.293L81.7406 113.175C81.7406 113.175 81.5557 112.382 81.2946 111.259C83.5644 111.333 85.8313 111.552 88.1034 111.571C89.7636 111.585 91.4223 111.491 93.0796 111.397C98.5143 111.091 103.95 110.784 109.385 110.478L109.114 109.947Z" fill="white"/>
<path d="M162.064 42.181C161.596 39.1806 161.127 36.181 160.659 33.1806C160.472 31.9778 160.279 30.7581 159.784 29.6465C158.927 27.721 157.255 26.3027 155.628 24.9647C153.871 23.5185 151.9 22.0091 149.626 22.0393L148.649 21.9474C147.725 22.0812 146.875 21.4901 146.002 21.1578C145.005 20.7784 143.917 20.7306 142.851 20.7247C140.611 20.7122 138.297 20.8843 136.301 21.9033L134.909 22.3584C132.238 23.6112 129.901 25.5705 128.198 27.9827C127.477 29.0039 126.852 30.1582 126.8 31.408C126.749 32.6469 127.262 33.8305 127.766 34.9628L129.134 37.0816C129.63 36.6831 130.017 36.0737 129.93 35.4436L130.14 34.7848C129.954 32.927 130.173 30.9993 130.991 29.3215C131.799 27.6614 133.23 26.2704 134.985 25.7116C135.636 26.2792 136.3 26.9652 136.323 27.4651C136.367 28.4371 135.926 28.8797 136.808 30.7353C137.689 32.5917 138.068 32.1351 137.989 32.5844C137.91 33.0336 137.888 33.7541 137.888 33.7541C137.689 34.7268 138.078 35.7502 138.715 36.5118C139.351 37.2728 140.211 37.8109 141.08 38.2881C141.962 38.7726 142.872 39.2086 143.779 39.6475C144.881 41.0179 146.167 42.6339 146.167 42.6339C148.24 44.6807 149.053 47.9156 148.195 50.7021C148.018 51.2785 147.77 51.8291 147.464 52.346C147.1 52.9606 146.654 53.526 146.145 54.0267C145.007 55.1435 143.551 55.9375 141.983 56.2227C141.983 56.2227 143.862 58.0483 146.42 57.2528L147.026 57.7953C147.69 58.6982 148.919 59.0452 150.031 58.9099C150.4 58.8651 150.758 58.7746 151.108 58.6526C151.13 58.6452 151.152 58.6372 151.174 58.6291C152.231 59.057 153.678 59.465 155.02 59.2488C157.533 58.8438 158.42 58.2181 158.42 58.2181C158.156 57.613 158.025 56.9572 158.017 56.2992C157.999 54.8405 158.584 53.3657 159.665 52.3813C160.119 51.9666 160.668 51.6123 160.927 51.0542C160.927 51.0542 161.441 50.5183 161.532 50.294C162.123 48.8824 162.433 47.3525 162.436 45.821C162.441 44.6006 162.253 43.3882 162.064 42.181Z" fill="#BD938E"/>
<path d="M71.0876 49.4693C73.4425 49.0267 75.6918 48.1503 77.925 47.2784C79.0599 46.835 80.2205 46.377 81.1361 45.5727C82.0524 44.7684 82.6907 43.534 82.4566 42.3363C82.4566 42.3363 82.3928 42.2576 82.3062 42.1371C82.7934 41.8981 83.2724 41.6415 83.7397 41.3658C85.2107 40.4968 86.565 39.4411 87.6977 38.1655C89.4877 36.1503 90.6975 33.5572 90.7782 30.8597C90.7782 30.8597 91.6197 28.7548 92.3254 27.8005C93.0312 26.8455 93.676 25.889 93.676 25.889C94.2666 25.1053 94.7295 24.2318 95.0611 23.3099C95.8652 21.0763 95.8953 18.5553 95.0633 16.3276C95.0633 16.3276 95.0839 15.2652 94.4713 14.3521C93.8587 13.439 91.8251 13.5779 91.8251 13.5779C91.8251 13.5779 90.5904 13.4684 89.3168 12.4303C88.0432 11.3922 83.4558 11.6024 83.4558 11.6024C82.0795 11.7252 80.8353 12.4531 79.6894 13.2258C78.5434 13.9985 77.4159 14.8491 76.1005 15.2748C75.9816 15.313 75.8606 15.3476 75.7388 15.377C75.2098 17.412 74.1277 19.1765 72.0266 19.6684C70.3246 20.0669 69.2131 19.9191 68.4861 19.5037C68.2822 18.9067 68.0371 18.3105 67.6124 17.848C67.4928 17.7179 67.3556 17.601 67.2067 17.5017C67.0467 17.3951 66.8736 17.3091 66.6938 17.2518C66.4041 17.1591 66.0974 17.1385 65.804 17.2224C65.1958 17.3966 64.7717 17.9708 64.5847 18.5766C64.3976 19.1817 64.4027 19.8272 64.3726 20.4602C64.2993 22.0144 64.0066 23.5834 64.2905 25.1126C64.5744 26.6418 65.6433 28.1777 67.1839 28.3674L67.5471 28.4519L67.5713 28.8952C67.4532 32.0037 66.0563 34.8872 64.2677 37.4685C63.876 38.0346 63.4651 38.586 63.0448 39.122C62.7983 41.0342 62.8724 42.6061 63.2194 44.503C63.5664 46.3998 64.6081 48.2702 66.3314 49.1274C67.7811 49.8501 69.4971 49.7685 71.0876 49.4693ZM78.9807 31.7626C78.9411 31.6376 78.9073 31.5111 78.8802 31.3832L78.9807 31.7626C79.2602 32.6477 79.8258 33.4366 80.5331 34.041C81.34 34.7306 82.3231 35.1916 83.3429 35.4842C84.199 35.7297 85.0882 35.8606 85.9788 35.8724L85.7455 35.9077C85.2114 36.587 84.6223 37.2237 83.9855 37.8082C83.0435 38.6735 81.8859 39.4616 80.6094 39.4014C80.1083 39.3778 79.5808 39.1955 79.2962 38.7816C79.0973 38.4926 79.0408 38.1309 78.9983 37.7832C78.7606 35.8474 78.7709 33.8807 79.0291 31.9478L78.9807 31.7626Z" fill="#FCE9E6"/>
<path d="M87.6478 91.6062L88.0095 91.7643L87.3881 91.4114L87.6478 91.6062Z" fill="#FCE9E6"/>
<path d="M91.864 76.9948C90.1451 77.2484 88.3954 77.7278 87.0572 78.8394L85.8915 82.1839C86.5158 85.1078 87.5187 87.9391 89.0329 90.5079C88.4995 90.3116 87.427 90.291 86.8936 90.0947C87.2472 90.6608 87.6185 91.2181 88.0095 91.7651C87.9237 91.7379 87.8385 91.7122 87.7527 91.6857L87.7681 91.6967L87.2766 91.5438C83.0274 90.3204 79.0284 90.2131 75.0499 90.066C74.2671 90.0374 73.4843 90.0168 72.7023 89.9896C72.3223 89.9763 71.9422 89.9624 71.563 89.944C69.5609 89.8477 67.5881 89.6529 65.6286 89.4338H65.6294C66.5354 89.7639 67.6468 90.7998 68.3695 91.4387C68.5954 91.6386 68.8133 91.8541 69.0796 91.996C69.3767 92.1548 69.7164 92.2114 70.0502 92.2584C71.5343 92.4694 73.0376 92.5407 74.5349 92.4709L75.3316 92.4966C75.7916 92.7694 76.2912 93.0135 76.7835 93.1818L76.8025 93.2032C78.181 94.1567 79.5588 95.261 80.9373 96.2153C81.7399 96.7711 82.5564 97.3328 83.4595 97.6916C83.6004 97.7475 83.7434 97.7989 83.8894 97.8445C84.896 98.1585 85.9685 98.1798 87.0227 98.1658C89.1121 98.1379 91.1993 97.9791 93.2689 97.6916C93.8528 97.6107 94.4361 97.5196 95.0171 97.4174L95.5659 97.177C98.0265 92.6378 99.9434 87.0282 100.987 81.756C101.167 80.8473 101.322 79.9481 101.449 79.0666C100.28 78.0594 98.821 77.3984 97.3097 77.069C95.5255 76.6801 93.6694 76.7279 91.864 76.9948Z" fill="#FCE9E6"/>
<path d="M101.448 79.0664C101.486 79.0988 101.524 79.1311 101.561 79.1642L101.448 79.0649C101.448 79.0657 101.448 79.0664 101.448 79.0664Z" fill="#FCE9E6"/>
<path d="M128.052 41.0777L128.017 43.3775C128.738 44.0649 129.68 44.5148 130.667 44.6413C131.109 44.6979 131.636 44.7376 131.856 45.1258C132.067 45.5 131.848 45.972 131.574 46.3029C130.786 47.2527 129.576 47.7358 128.388 48.0659L128.367 49.4988C128.25 50.0076 128.14 50.5538 128.124 51.0817C128.106 51.6971 128.215 52.2882 128.592 52.7668C128.975 53.255 129.581 53.5285 130.192 53.6321C130.803 53.7358 131.429 53.688 132.047 53.6402C132.67 53.5917 133.299 53.4733 133.927 53.3579L134.139 53.7123C134.591 54.3203 135.005 54.9562 135.38 55.6142C135.348 55.9458 135.343 56.234 135.343 56.234C134.737 59.9851 135.198 63.9022 136.657 67.4092C136.83 67.8246 137.039 68.2605 137.425 68.4899C137.982 68.8208 138.701 68.609 139.27 68.2988C141.263 67.2107 142.476 65.1315 144.073 63.5148C145.922 61.643 148.783 59.877 151.111 58.6551L151.111 58.6543C150.761 58.7764 150.403 58.8668 150.034 58.9117C148.922 59.0469 147.693 58.6999 147.029 57.7971L146.423 57.2545C143.865 58.05 141.986 56.2245 141.986 56.2245C143.554 55.9392 145.01 55.1452 146.147 54.0284C146.657 53.5277 147.103 52.9624 147.467 52.3477C147.772 51.8309 148.02 51.2795 148.198 50.7038C149.056 47.9174 148.242 44.6817 146.17 42.6356C146.17 42.6356 144.884 41.0197 143.782 39.6492C142.875 39.211 141.965 38.7743 141.083 38.2898C140.213 37.8127 139.354 37.2752 138.718 36.5136C138.082 35.7526 137.692 34.7292 137.891 33.7558C137.891 33.7558 137.913 33.0353 137.992 32.5861C138.071 32.1369 137.692 32.5934 136.811 30.7371C135.929 28.8807 136.37 28.4388 136.326 27.4668C136.303 26.9669 135.64 26.2802 134.988 25.7134C133.233 26.2729 131.802 27.6639 130.994 29.3232C130.176 31.001 129.957 32.9287 130.143 34.7866L129.933 35.4453C130.019 36.0754 129.633 36.6849 129.137 37.0834C129.131 37.0885 129.124 37.0936 129.118 37.0988C128.614 37.4965 128.003 37.7325 127.442 38.0457C127.315 38.1163 127.186 38.1957 127.105 38.3163C127.042 38.4089 127.012 38.52 126.987 38.6288C126.87 39.125 126.836 39.7036 127.169 40.0889L128.052 41.0777Z" fill="#FCE9E6"/>
<path d="M49.397 87.1625C48.9598 86.9743 48.4697 86.9648 47.9936 86.9574C45.3914 86.9207 42.1935 86.9346 39.2575 87.0927L39.135 86.7788C40.0506 86.6442 40.9691 86.5332 41.8898 86.4472C42.6161 86.3795 43.3769 86.3163 43.9902 85.9215C44.6035 85.5267 44.9938 84.6761 44.6299 84.0423C44.2954 83.4593 43.5295 83.3255 42.8626 83.2527C41.4063 83.0939 39.9508 82.9351 38.4946 82.777C38.1798 82.7425 37.8636 82.7094 37.5474 82.7028L37.4345 82.4124C36.8534 80.184 36.2731 77.9563 35.6921 75.7279C35.2438 74.0082 34.7956 72.2878 34.3562 70.5652L31.6777 70.488C31.5581 70.7512 31.4436 71.0174 31.3329 71.2843C29.6771 75.2801 28.8921 79.6583 26.5709 83.3064L26.1622 84.0416C25.2569 85.5568 24.323 87.1714 24.3267 88.9373C24.3289 89.8755 24.6003 90.7959 24.9789 91.6539C26.2422 94.5161 28.8158 96.7276 31.7745 97.6907C32.974 98.0811 34.2373 98.2664 35.5021 98.2061L35.6811 98.137C35.8366 98.2833 36.0127 98.3869 36.191 98.4083H37.0544C38.3009 98.3693 39.5847 98.3222 40.7219 97.8098C40.8048 97.7723 40.8862 97.7319 40.9662 97.6907C41.3491 97.4937 41.7101 97.2547 42.0688 97.0158C43.74 95.9042 45.4208 94.7837 46.8624 93.3861C46.9907 93.2611 47.1228 93.1258 47.1697 92.953C47.2167 92.7803 46.9849 92.3281 46.8132 92.2752L46.7442 92.259C47.2967 91.9789 47.8417 91.6848 48.3795 91.379C48.7852 91.1481 49.2261 90.8584 49.3156 90.3997C49.4051 89.9409 48.962 89.5101 48.2951 89.5865C48.7162 89.5248 49.1476 89.4571 49.5203 89.2505C49.7954 89.0983 50.0353 88.8528 50.1439 88.5631C50.1828 88.4602 50.2048 88.3521 50.2062 88.2404C50.2106 87.7647 49.8343 87.3508 49.397 87.1625Z" fill="#FCE9E6"/>
<path d="M158.983 98.0989C158.894 97.8497 158.697 97.6563 158.506 97.4725C156.732 95.7639 154.958 94.0553 153.183 92.3467C152.622 91.8063 151.831 91.2269 151.143 91.5901C151.143 91.5901 150.637 91.6864 150.45 91.6578C149.417 91.4968 148.353 91.1659 147.439 91.5592C147.335 91.6041 147.233 91.6585 147.132 91.7232C146.928 91.8563 146.74 92.0121 146.532 92.1364C146.109 92.3886 145.62 92.5011 145.14 92.6091C144.657 92.7187 144.173 92.8282 143.69 92.937C143.69 92.937 141.503 93.2958 139.425 93.3362C138.182 93.3605 135.98 93.2296 134.409 93.1201C133.354 93.0466 132.583 92.9826 132.583 92.9826C131.834 92.8062 130.994 93.4414 130.344 93.8568C129.062 94.6758 127.807 95.5772 126.841 96.7542C126.491 97.1806 126.181 97.6409 125.918 98.1261C125.73 98.4724 125.429 99.4583 125.703 99.7406C125.703 99.7406 125.703 99.7406 126.236 99.7406C126.956 99.7406 127.675 99.7914 128.391 99.8649C129.175 99.945 129.957 100.053 130.738 100.152C132.627 100.392 135.212 100.632 137.102 100.872C137.102 100.872 137.172 100.853 137.293 100.821C138.136 101.146 139.064 101.293 139.966 101.427C140.461 101.501 140.962 101.574 141.46 101.527C142.171 101.461 142.819 101.163 143.427 100.776C143.571 100.902 143.671 100.995 143.686 101.024C143.842 101.318 144.17 101.479 144.412 101.706L144.564 101.939L157.849 100.955L157.869 100.878C158.131 100.418 158.391 99.9597 158.652 99.5002C158.898 99.0694 159.15 98.5658 158.983 98.0989Z" fill="#FCE9E6"/>
<path d="M128.222 66.9804C126.634 65.6938 125.395 64.0367 124.172 62.3979C123.659 61.7112 123.143 61.0187 122.772 60.2452C122.384 59.4365 122.163 58.5586 121.814 57.7315C121.197 56.2663 120.199 54.9995 119.213 53.7533L118.881 52.5814C118.408 51.9631 118.201 51.1838 118.16 50.3993C118.151 50.2177 118.15 50.0361 118.157 49.856C118.174 49.4347 118.226 48.9936 118.061 48.6054C117.896 48.2172 117.412 47.9261 117.047 48.1364C116.948 48.1937 116.87 48.2797 116.796 48.3672C116.136 49.1539 115.739 50.1574 115.679 51.1838C115.653 51.6367 115.691 52.0866 115.752 52.5358C115.829 53.0916 115.94 53.646 116.012 54.2025C116.142 55.209 116.12 56.2994 115.565 57.147L115.415 57.3301C114.414 57.2073 113.415 57.0596 112.414 56.9206C111.392 56.7787 110.368 56.6471 109.342 56.5611C109.154 56.5456 108.959 56.5324 108.782 56.5993C108.605 56.6662 108.468 56.8066 108.346 56.9515C107.895 57.486 107.587 58.1396 107.46 58.827C107.545 58.8682 107.629 58.9108 107.713 58.9535L107.569 59.113C107.335 59.474 107.098 59.8423 106.98 60.2562C106.862 60.6702 106.878 61.1444 107.125 61.4973C107.276 61.7127 107.499 61.8656 107.717 62.0134C107.718 62.0141 107.718 62.0141 107.719 62.0149C107.608 62.1457 107.542 62.2229 107.542 62.2229C107.099 62.5589 107.059 63.2434 107.3 63.7455C107.542 64.2469 107.994 64.6079 108.432 64.9513C108.58 65.0682 108.729 65.1851 108.878 65.302L108.611 65.6284C108.211 66.146 108.146 66.8474 108.315 67.4885C108.371 67.7002 108.452 67.9061 108.556 68.0958C108.972 68.8604 109.678 69.4206 110.398 69.9073C110.936 70.2712 111.514 70.6741 112.162 70.6844C112.435 70.6888 113.648 70.6344 113.648 70.6344C114.993 70.6352 116.338 70.6352 117.683 70.6359C118.023 70.6359 118.368 70.6366 118.699 70.7175C119.046 70.802 119.366 70.9719 119.68 71.1439C120.027 71.3336 120.37 71.5284 120.712 71.7269C121.616 72.2534 122.503 72.8106 123.37 73.3981C123.37 73.3981 123.589 73.6944 123.88 74.0465C125.357 71.7394 126.835 69.4331 128.313 67.126L128.222 66.9804Z" fill="#FCE9E6"/>
<path d="M115.565 57.1486C116.121 56.3009 116.143 55.2106 116.013 54.2041C115.941 53.6475 115.829 53.0932 115.753 52.5374L115.258 53.0152C114.172 54.0585 113.265 55.2878 112.587 56.6332C112.587 56.6332 112.516 56.7516 112.414 56.9221C113.415 57.0611 114.415 57.2089 115.415 57.3316L115.565 57.1486Z" fill="#FEBE7F"/>
<path d="M167.296 60.6253C166.762 59.6401 166.112 58.6895 165.208 58.0286C164.287 57.3551 163.127 57.0684 161.992 57.1478C161.988 57.1478 161.984 57.1478 161.98 57.1478C161.977 57.1478 161.974 57.1485 161.972 57.1485C161.929 57.1515 161.886 57.1559 161.843 57.1603C160.909 57.225 159.398 56.8956 158.317 56.5493C158.317 56.5493 158.206 56.4567 158.019 56.3001C158.027 56.9588 158.158 57.6139 158.422 58.219C158.422 58.219 157.536 58.8439 155.022 59.2497C153.68 59.4659 152.234 59.0578 151.177 58.63C151.155 58.638 151.133 58.6454 151.111 58.6535L151.11 58.6542C148.782 59.8761 145.921 61.6421 144.072 63.5139C142.476 65.1307 141.262 67.2098 139.269 68.2979C138.7 68.6082 137.981 68.8207 137.425 68.4891C137.038 68.259 136.83 67.8237 136.657 67.4083C135.197 63.9014 134.737 59.9835 135.343 56.2332C135.343 56.2332 135.348 55.9457 135.379 55.6134C135.004 54.9547 134.59 54.3194 134.138 53.7114L133.927 53.3571C133.298 53.4732 132.669 53.5908 132.046 53.6394C131.428 53.6879 130.802 53.7357 130.191 53.6313C129.58 53.5276 128.974 53.2541 128.591 52.7659C128.215 52.2873 128.105 51.6962 128.124 51.0809C128.078 51.0801 128.052 51.0794 128.052 51.0794C125.979 51.4837 123.969 51.1228 122.131 50.0802C121.89 49.9442 121.654 49.7957 121.392 49.709C120.876 49.5384 120.313 49.6222 119.787 49.7597C119.344 49.8758 118.909 50.0288 118.491 50.217L118.162 50.3993C118.202 51.1838 118.409 51.9631 118.882 52.5814L119.214 53.7533C120.201 54.9995 121.2 56.2655 121.816 57.7315C122.164 58.5579 122.385 59.4365 122.773 60.2452C123.145 61.0179 123.66 61.7105 124.173 62.3979C125.396 64.0367 126.636 65.6931 128.223 66.9804L128.314 67.1253C126.837 69.4324 125.359 71.7387 123.881 74.0458C123.591 73.6936 123.371 73.3973 123.371 73.3973C122.505 72.8099 121.618 72.2526 120.713 71.7262C120.372 71.5277 120.028 71.3329 119.682 71.1432C119.368 70.9711 119.048 70.8013 118.7 70.7168C118.369 70.6359 118.025 70.6359 117.684 70.6352C116.339 70.6344 114.995 70.6344 113.65 70.6337C113.65 70.6337 112.436 70.6881 112.164 70.6837C111.515 70.6734 110.938 70.2705 110.4 69.9066C109.679 69.4199 108.973 68.8596 108.557 68.095C108.454 67.9046 108.372 67.6995 108.316 67.4877C108.214 68.3531 107.793 69.5662 107.535 70.3977C107.108 71.7703 106.681 73.1429 106.254 74.5148L106.044 75.4258L106.008 75.4066C105.105 81.6434 99.7556 88.508 100.736 93.0303L101.255 94.2015C101.822 95.6925 102.962 96.9453 104.366 97.6915C104.86 97.954 105.386 98.1547 105.931 98.2804C106.708 98.4591 107.509 98.4951 108.304 98.5363C111.536 98.7046 114.762 98.9722 117.978 99.3398C119.345 99.4964 120.715 99.6714 122.046 100.021C123.135 100.307 124.202 100.712 125.323 100.814C126.427 100.915 127.634 100.671 128.394 99.8662C127.678 99.7927 126.959 99.742 126.239 99.742C125.706 99.742 125.706 99.742 125.706 99.742C125.432 99.4597 125.732 98.473 125.921 98.1275C126.184 97.6423 126.494 97.182 126.844 96.7556C127.81 95.5793 129.065 94.6772 130.347 93.8581C130.997 93.4435 131.837 92.8083 132.586 92.984C132.586 92.984 133.357 93.0479 134.412 93.1215C135.983 93.231 138.186 93.3619 139.428 93.3376C141.506 93.2972 143.693 92.9384 143.693 92.9384C144.176 92.8288 144.66 92.7193 145.143 92.6105C145.623 92.5017 146.112 92.3899 146.535 92.1377C146.743 92.0135 146.932 91.8569 147.135 91.7246C147.235 91.6591 147.337 91.6055 147.442 91.5606C148.356 91.1673 149.419 91.4981 150.452 91.6591C150.639 91.6885 151.146 91.5915 151.146 91.5915C151.834 91.2276 152.625 91.8077 153.186 92.348C154.961 94.0566 156.735 95.7653 158.509 97.4739C158.7 97.6577 158.897 97.8503 158.986 98.1003C159.153 98.5671 158.901 99.0708 158.656 99.5023C158.395 99.9618 158.134 100.421 157.873 100.88L157.853 100.957L158.785 100.888L158.781 100.905L158.878 100.852L166.22 73.9362C166.343 73.487 166.745 73.1716 167.209 73.1599C168.933 69.6456 169.161 64.0661 167.296 60.6253ZM114.603 86.9148L114.81 86.7406C115.593 86.037 115.992 85.0114 116.36 84.024C116.752 82.9734 117.385 81.9191 118.019 80.8634C118.009 82.1992 118.069 83.752 118.066 84.7717C118.064 85.1092 118.062 85.4518 117.964 85.7738C117.88 86.0502 117.729 86.3002 117.578 86.5472C117.318 86.9759 117.058 87.4045 116.797 87.8324C116.797 87.8324 116.791 87.8559 116.781 87.8978C116.052 87.5751 115.326 87.245 114.603 86.9148Z" fill="#FEBE7F"/>
<path d="M166.217 73.9339L158.875 100.85L156.788 108.498L158.777 100.903L158.781 100.886L157.849 100.955L144.564 101.939L135.029 102.645V103.795L156.476 109.962L202.063 107.517C202.778 107.478 203.401 107.019 203.652 106.347L206.878 97.6907L215.941 73.3685C216.203 72.6686 215.674 71.9261 214.929 71.9452L167.206 73.1575C166.741 73.1693 166.339 73.4854 166.217 73.9339Z" fill="#939597"/>
<path d="M41.5135 45.3595C47.3986 42.9473 53.3968 40.8755 59.4749 39.011C60.2423 38.7758 61.0156 38.5126 61.7052 38.0935C62.1945 37.7965 63.0961 36.9701 63.6199 37.6377C63.642 37.6656 63.6647 37.6869 63.6889 37.7046C63.4006 38.106 63.1042 38.4986 62.8041 38.8831C62.7741 38.9213 62.7543 38.9618 62.7418 39.0022C62.7234 39.0382 62.7102 39.0787 62.7051 39.1243C62.565 40.2366 62.5202 41.3549 62.6075 42.4731C62.6868 43.4973 62.8181 44.5538 63.124 45.5367C63.6603 47.2623 64.7857 48.8577 66.4884 49.5715C68.478 50.4053 70.7772 49.9671 72.7845 49.4304C74.956 48.8488 77.1033 48.0328 79.1663 47.141C80.2037 46.6925 81.2307 46.1168 81.9431 45.2154C82.607 44.3758 82.9672 43.3466 82.7897 42.2776C83.1191 42.1092 83.4441 41.9327 83.7647 41.7475C85.4631 43.4848 87.471 44.9221 89.6763 45.9404C91.6189 46.8366 93.7157 47.349 95.6407 48.2849C96.6964 48.7981 97.6765 49.4458 98.4512 50.3376C98.7396 50.6692 99.2186 50.1854 98.9325 49.8553C97.5379 48.2504 95.5329 47.4174 93.5814 46.7087C92.5734 46.3425 91.5529 46.0051 90.5633 45.5904C89.4613 45.1294 88.4056 44.553 87.4101 43.8935C86.3104 43.165 85.2943 42.3209 84.3648 41.385C86.025 40.3418 87.5275 39.0412 88.7042 37.4642C90.1282 35.5556 91.0342 33.2529 91.1186 30.8605C91.134 30.4216 90.4539 30.4223 90.4378 30.8605C90.2955 34.902 87.6984 38.3567 84.4352 40.5285C83.5996 41.0843 82.7193 41.5718 81.8118 41.9989C80.8793 42.4378 79.817 42.9731 78.7584 42.8863C77.7387 42.8032 76.8187 42.1077 75.9713 41.5909C75.055 41.0321 74.1431 40.4565 73.3017 39.7881C71.5952 38.4346 70.07 36.5988 69.7942 34.3623C69.7414 33.9322 69.0598 33.9271 69.1134 34.3623C69.3723 36.4584 70.566 38.2714 72.1066 39.6661C72.9459 40.4256 73.8761 41.0777 74.8298 41.6835C75.7571 42.2724 76.7094 42.9407 77.7387 43.3355C78.3953 43.5877 79.0519 43.6053 79.6989 43.4877C78.9161 44.2391 78.2324 45.0883 77.6602 46.0146C77.4291 46.3888 78.0174 46.7314 78.2478 46.3587C78.9675 45.1949 79.8713 44.1707 80.9285 43.3054C81.0129 43.2363 81.0459 43.1554 81.0437 43.076C81.0517 43.0723 81.0598 43.0694 81.0679 43.0664C81.4325 42.9157 81.7942 42.7569 82.1514 42.5886C82.3649 44.4383 80.5976 45.7426 79.1091 46.4227C78.1737 46.8505 77.1987 47.2012 76.2369 47.5644C75.2443 47.9394 74.2436 48.296 73.2254 48.5952C71.3737 49.1392 69.2667 49.662 67.3505 49.1473C65.6455 48.6893 64.4607 47.2858 63.8811 45.6617C63.5304 44.678 63.383 43.6164 63.2957 42.5805C63.2018 41.4703 63.2385 40.3594 63.3698 39.2544C65.7057 36.2489 67.7451 32.7949 67.9117 28.8953C67.9308 28.4564 67.2499 28.4571 67.2309 28.8953C67.1018 31.9119 65.7731 34.6726 64.0865 37.1363C63.686 36.6466 62.978 36.629 62.4322 36.8583C62.1109 36.9929 61.8343 37.1973 61.5445 37.387C61.2151 37.6024 60.8659 37.7847 60.502 37.934C59.786 38.228 59.0333 38.4287 58.2938 38.6537C57.4897 38.8985 56.6871 39.1485 55.886 39.4036C52.7593 40.4006 49.6575 41.4784 46.585 42.6341C44.8243 43.2966 43.0732 43.9862 41.3322 44.6993C40.9324 44.8655 41.1078 45.5257 41.5135 45.3595Z" fill="#333333"/>
<path d="M36.2797 98.0805C35.863 98.0063 35.5835 97.549 35.5028 97.1608C35.4052 96.6917 35.3869 96.2131 35.078 95.8212C34.5469 95.147 33.2234 95.1706 32.996 94.2192C32.8676 93.6825 33.1655 93.1443 32.9571 92.6047C32.784 92.1562 32.3467 91.918 32.0914 91.5276C31.5772 90.7439 31.6292 89.7014 32.1846 88.9581C32.4472 88.6066 31.8567 88.2662 31.597 88.614C31.1142 89.2595 30.9653 90.0903 31.1098 90.8762C31.1795 91.2534 31.3307 91.6291 31.5515 91.9438C31.7782 92.2658 32.2521 92.5422 32.3475 92.9311C32.4568 93.3781 32.2367 93.8582 32.3218 94.3185C32.3937 94.7074 32.6358 95.0448 32.9351 95.2933C33.2432 95.5485 33.5954 95.7301 33.9593 95.8896C34.3862 96.0771 34.6305 96.2447 34.7384 96.7182C34.8301 97.1225 34.8506 97.5107 35.0502 97.8769C32.7003 97.8717 30.3997 97.0365 28.5341 95.6051C27.5517 94.8508 26.6904 93.9259 26.0214 92.8819C25.2672 91.7048 24.6524 90.3072 24.6642 88.886C24.6788 87.1759 25.6039 85.6386 26.4527 84.216C26.678 83.8381 26.0903 83.4955 25.8651 83.8719C25.0545 85.2298 24.2306 86.6488 24.0288 88.2449C23.8308 89.8116 24.3678 91.3718 25.1293 92.7216C26.2583 94.7214 28.0124 96.3278 30.0563 97.3527C29.5575 97.3527 29.0579 97.3527 28.559 97.3527C26.0771 97.3527 23.596 97.3527 21.1141 97.3527C18.1231 97.3527 15.1321 97.3527 12.1411 97.3527C9.54624 97.3527 6.95212 97.3527 4.35727 97.3527C3.1013 97.3527 1.83285 97.3019 0.577608 97.3527C0.560001 97.3534 0.542394 97.3527 0.52552 97.3527C0.0875429 97.3527 0.0868093 98.0349 0.52552 98.0349C1.55921 98.0349 2.59289 98.0349 3.62584 98.0349C6.10771 98.0349 8.58885 98.0349 11.0707 98.0349C14.0617 98.0349 17.0527 98.0349 20.0438 98.0349C22.6386 98.0349 25.2327 98.0349 27.8276 98.0349C29.0835 98.0349 30.352 98.0857 31.6072 98.0349C31.6248 98.0342 31.6425 98.0349 31.6593 98.0349C31.6769 98.0349 31.6931 98.0335 31.7092 98.0313C32.9292 98.4239 34.2175 98.6055 35.4984 98.5503C35.5402 98.5488 35.5784 98.5408 35.6121 98.5275C35.7574 98.6319 35.9195 98.7084 36.0963 98.74C36.527 98.8143 36.7111 98.157 36.2797 98.0805Z" fill="#333333"/>
<path d="M96.8585 86.7701C95.6935 85.9143 94.4104 85.1107 92.9571 84.8887C92.1486 84.7651 91.3416 84.8394 90.5354 84.9423C89.6968 85.0489 88.859 85.1585 88.0205 85.2666C87.592 85.3217 87.5869 86.0047 88.0205 85.9488C88.7981 85.8481 89.5758 85.7474 90.3542 85.6474C91.1524 85.5445 91.9726 85.4327 92.7759 85.5459C94.1727 85.7437 95.3993 86.5399 96.5145 87.359C96.8681 87.6185 97.2085 87.0274 96.8585 86.7701Z" fill="#333333"/>
<path d="M123.198 73.6914C123.562 73.9377 123.903 73.3473 123.541 73.1025C122.799 72.6004 122.043 72.1188 121.273 71.66C120.561 71.2358 119.828 70.7498 119.045 70.4661C118.243 70.1756 117.297 70.294 116.46 70.2933C115.523 70.2933 114.586 70.2925 113.648 70.2925C113.21 70.2925 113.21 70.9741 113.648 70.9748C114.545 70.9748 115.441 70.9756 116.338 70.9756C116.766 70.9756 117.193 70.9756 117.622 70.9763C118.045 70.9763 118.461 70.9763 118.865 71.1241C119.622 71.402 120.341 71.896 121.03 72.3092C121.766 72.7496 122.488 73.2113 123.198 73.6914Z" fill="#333333"/>
<path d="M157.166 91.2526C157.321 91.6585 157.979 91.482 157.822 91.071C157.311 89.7359 156.799 88.3971 156.162 87.1164C155.589 85.9672 154.911 84.8372 153.983 83.9403C153.095 83.083 151.986 82.475 150.925 81.8523C150.937 81.8258 150.948 81.7964 150.953 81.7633C151.86 76.8213 153.172 71.9564 154.881 67.2327C155.366 65.8909 155.884 64.5617 156.432 63.2442C156.6 62.8398 155.941 62.6626 155.776 63.0626C154.107 67.0768 152.726 71.2094 151.648 75.4207C151.988 73.1041 152.322 70.7867 152.669 68.4715C152.853 67.2415 153.04 66.0122 153.234 64.7837C153.302 64.3544 152.647 64.1698 152.578 64.6021C151.879 69.0266 151.262 73.4636 150.6 77.8939C150.427 79.0445 150.252 80.1951 150.072 81.3443C149.102 80.7671 148.131 80.1915 147.167 79.6062C144.884 78.2204 142.625 76.7786 140.522 75.1273C139.463 74.2951 138.445 73.4106 137.483 72.4666C136.55 71.5513 135.637 70.5948 134.525 69.8912C133.332 69.1354 131.94 68.6987 130.859 67.7657C129.945 66.9768 129.1 65.938 127.799 65.8902C127.711 65.8873 127.64 65.913 127.587 65.9556C126.368 64.7771 125.346 63.4067 124.335 62.0465C124.187 61.8473 124.043 61.6481 123.904 61.4459C124.321 59.5976 124.57 57.7132 124.646 55.8193C124.664 55.3804 123.983 55.3812 123.965 55.8193C123.901 57.439 123.706 59.0462 123.384 60.632C123.142 60.2181 122.93 59.7873 122.76 59.3277C122.394 58.3345 122.075 57.3456 121.542 56.4237C120.944 55.3878 120.197 54.4482 119.457 53.513C119.184 53.1697 118.706 53.6549 118.975 53.9953C119.634 54.8283 120.293 55.6657 120.842 56.5773C121.401 57.5066 121.731 58.4977 122.103 59.5093C122.383 60.2673 122.756 60.954 123.196 61.615C123.213 61.7083 123.269 61.7826 123.343 61.8311C123.431 61.9583 123.522 62.0855 123.614 62.2112C124.23 63.0464 124.851 63.8801 125.508 64.683C126.234 65.5711 127.015 66.4129 127.898 67.1481C127.845 67.2312 127.791 67.3143 127.738 67.3974C127.56 67.6753 127.383 67.9532 127.204 68.2311C126.849 68.7869 126.493 69.3427 126.136 69.8978C125.425 71.0095 124.712 72.1203 124.001 73.232C123.289 74.3436 122.577 75.4545 121.865 76.5661C121.509 77.122 121.153 77.677 120.797 78.2329C120.494 78.7063 120.191 79.1997 120.231 79.7842C120.261 80.2194 120.942 80.2231 120.912 79.7842C120.875 79.2482 121.244 78.7968 121.518 78.3681C121.818 77.8991 122.119 77.4308 122.419 76.9617C123.042 75.989 123.665 75.0171 124.288 74.0444C125.511 72.1343 126.735 70.2243 127.958 68.3142C128.136 68.0363 128.314 67.7584 128.492 67.4805C128.609 67.2981 128.764 67.1121 128.801 66.8938C129.401 67.2548 129.906 67.8451 130.412 68.2774C131.348 69.0766 132.479 69.5361 133.551 70.114C134.692 70.7293 135.622 71.5851 136.538 72.4909C137.471 73.4128 138.427 74.3024 139.444 75.1325C141.446 76.7669 143.598 78.2049 145.793 79.5643C146.914 80.2584 148.047 80.9333 149.18 81.6075C150.304 82.2758 151.459 82.911 152.54 83.6477C155.057 85.3666 156.123 88.5243 157.166 91.2526Z" fill="#333333"/>
<path d="M147.255 91.2615C146.981 91.3983 146.745 91.5894 146.492 91.7585C146.22 91.9394 145.928 92.0556 145.615 92.1431C144.952 92.3283 144.27 92.4577 143.599 92.6092C143.172 92.7055 143.352 93.3635 143.78 93.2664C144.384 93.1297 144.991 93.0032 145.591 92.854C146.192 92.7048 146.671 92.4585 147.175 92.1056C148.095 91.4615 149.299 91.3895 150.278 91.9512C150.659 92.1695 151.002 91.5806 150.621 91.3623C149.593 90.7734 148.318 90.7322 147.255 91.2615Z" fill="#333333"/>
<path d="M100.538 89.9285C100.286 91.032 100.172 92.1775 100.406 93.2935C100.496 93.7229 101.152 93.5413 101.061 93.1119C100.63 91.0533 101.472 88.8492 102.221 86.9663C103.177 84.5615 104.332 82.2404 105.221 79.8076C105.712 78.4644 106.124 77.0873 106.334 75.6699C106.398 75.2405 105.742 75.0552 105.678 75.4883C105.292 78.099 104.248 80.5649 103.2 82.9668C102.211 85.2312 101.09 87.5067 100.538 89.9285Z" fill="#333333"/>
<path d="M106.58 74.6061C106.995 73.2732 107.41 71.9395 107.825 70.6066C108.037 69.9265 108.272 69.2479 108.447 68.5561C108.528 68.6811 108.616 68.8002 108.709 68.9127C109.124 69.4119 109.652 69.8104 110.185 70.1736C110.795 70.5889 111.423 70.9286 112.162 71.0249C112.595 71.0815 112.591 70.3993 112.162 70.3427C111.574 70.2655 111.052 69.9383 110.57 69.6126C110.122 69.3097 109.688 68.9818 109.321 68.5804C109.021 68.2525 108.78 67.8481 108.658 67.4224C108.655 67.379 108.645 67.3408 108.628 67.3085C108.509 66.7982 108.565 66.2637 108.904 65.7998C108.912 65.7888 108.919 65.7785 108.925 65.7682C109.277 66.0446 109.63 66.3211 109.982 66.5975C110.324 66.8651 110.809 66.3858 110.464 66.1152C109.714 65.527 108.925 64.9676 108.213 64.3345C107.727 63.903 107.117 63.045 107.765 62.4796C108.008 62.6392 108.258 62.7906 108.49 62.9479C108.936 63.2501 109.382 63.5515 109.827 63.8537C109.861 63.9361 109.929 64.0052 110.037 64.0397C110.096 64.0581 110.154 64.0765 110.213 64.0949C110.596 64.2154 110.782 63.6802 110.475 63.4714C109.599 62.8781 108.72 62.2899 107.848 61.6915C107.448 61.4165 107.201 61.1092 107.258 60.5967C107.308 60.149 107.56 59.7527 107.801 59.3807C108.813 59.8976 109.803 60.4549 110.77 61.0533C111.144 61.2842 111.486 60.6945 111.114 60.4644C110.054 59.8086 108.966 59.2021 107.853 58.6448C107.965 58.222 108.138 57.8243 108.386 57.4589C108.509 57.2788 108.664 57.0332 108.869 56.9347C109.101 56.8222 109.455 56.9126 109.699 56.9354C110.858 57.0442 112.012 57.2067 113.166 57.3692C115.477 57.6949 117.8 58.0206 120.14 57.9338C120.577 57.9177 120.579 57.2354 120.14 57.2516C118.756 57.303 117.38 57.2082 116.008 57.056C116.879 55.3591 116.067 53.4476 116.014 51.6515C115.986 50.6891 116.248 49.7524 116.783 48.9511C116.981 48.6548 117.251 48.2041 117.616 48.5526C117.946 48.868 117.833 49.4495 117.818 49.8568C117.782 50.8707 117.975 51.925 118.588 52.7543C118.845 53.1035 119.436 52.7639 119.176 52.4102C118.755 51.8404 118.584 51.2067 118.529 50.5443C118.572 50.5428 118.617 50.5332 118.664 50.5126C119.402 50.187 120.383 49.7973 121.199 50.0083C121.577 50.1061 121.909 50.356 122.252 50.5347C122.616 50.7244 122.992 50.8913 123.376 51.0346C124.791 51.5633 126.303 51.6912 127.788 51.4691C127.807 51.7522 127.857 52.0309 127.955 52.2992C128.295 53.2329 129.149 53.7961 130.102 53.9615C131.261 54.1622 132.487 53.9475 133.649 53.8571C133.706 53.8527 133.762 53.8483 133.82 53.8439C133.827 53.8571 133.836 53.8711 133.846 53.885C134.329 54.5386 134.767 55.2209 135.161 55.9274C135.089 55.9642 135.034 56.0341 135.016 56.1436C134.676 58.2897 134.662 60.4637 134.979 62.6134C135.137 63.6817 135.378 64.7382 135.701 65.7689C135.862 66.2843 136.044 66.7931 136.246 67.2938C136.414 67.7106 136.582 68.1341 136.883 68.4752C137.564 69.2465 138.64 69.0281 139.444 68.5936C140.26 68.1525 140.97 67.5239 141.604 66.8519C142.255 66.1623 142.84 65.4146 143.458 64.6955C144.081 63.9706 144.751 63.3001 145.486 62.6884C147.245 61.2246 149.233 60.0306 151.253 58.9661C151.969 58.7117 152.648 58.3323 153.288 57.9353C153.66 57.7052 153.318 57.1148 152.945 57.3464C152.348 57.7162 151.714 58.0838 151.042 58.3242C151.012 58.3301 150.981 58.3404 150.949 58.3558C150.594 58.4757 150.229 58.5595 149.854 58.5874C148.934 58.6551 147.907 58.3867 147.324 57.6236C147.265 57.5471 147.19 57.5045 147.112 57.4883C147.269 57.4442 147.425 57.3942 147.579 57.3383C148.855 56.8766 149.98 56.1105 151.089 55.3437C151.447 55.0959 151.108 54.5048 150.746 54.7548C149.72 55.4643 148.674 56.1987 147.5 56.6428C146.256 57.1126 144.921 57.2023 143.629 56.8869C143.203 56.7832 143.022 57.4405 143.448 57.5442C144.543 57.8118 145.685 57.8258 146.777 57.5736C146.667 57.6662 146.621 57.8155 146.737 57.9669C147.354 58.7742 148.296 59.2028 149.29 59.269C148.176 59.9137 147.092 60.61 146.059 61.3768C145.329 61.9201 144.619 62.4965 143.969 63.1369C143.329 63.767 142.76 64.4647 142.185 65.1528C141.614 65.8366 141.031 66.5181 140.361 67.1085C139.753 67.6444 138.871 68.3598 138.01 68.3127C137.55 68.287 137.291 67.9525 137.1 67.568C136.879 67.121 136.712 66.6401 136.549 66.1689C136.219 65.219 135.961 64.2441 135.774 63.2567C135.37 61.1268 135.315 58.9256 135.605 56.7766C136.43 58.4551 137.002 60.2534 137.299 62.1135C137.368 62.5458 138.024 62.362 137.955 61.9319C137.487 58.9999 136.333 56.1936 134.607 53.7806C135.56 53.7064 136.512 53.6321 137.464 53.5579C137.898 53.5241 137.901 52.8418 137.464 52.8756C136.356 52.9616 135.248 53.0484 134.14 53.1344C133.063 53.2182 131.966 53.3719 130.884 53.3505C129.983 53.3329 128.966 53.0403 128.609 52.1161C128.301 51.317 128.511 50.3913 128.695 49.5885C128.793 49.1613 128.137 48.979 128.039 49.4069C127.939 49.8465 127.84 50.3112 127.798 50.7781C126.187 51.0486 124.528 50.8435 123.037 50.1612C122.302 49.8245 121.65 49.2915 120.81 49.2738C120.024 49.2569 119.228 49.5334 118.507 49.8414C118.508 49.7399 118.51 49.6392 118.515 49.537C118.534 49.0422 118.497 48.5144 118.153 48.1284C117.887 47.8299 117.46 47.6446 117.063 47.763C116.631 47.8916 116.338 48.3747 116.113 48.7357C115.845 49.1657 115.639 49.6422 115.508 50.1318C115.275 51.0016 115.325 51.872 115.446 52.7433C115.325 52.6565 115.155 52.6396 115.018 52.7727C113.914 53.8424 112.992 55.0886 112.294 56.4597C112.277 56.4928 112.266 56.5259 112.26 56.5583C111.724 56.4847 111.188 56.4142 110.65 56.3517C110.09 56.287 109.437 56.1326 108.875 56.2274C108.352 56.3156 108.011 56.781 107.742 57.2008C107.443 57.6677 107.24 58.1934 107.133 58.7359C107.112 58.8418 107.132 58.9683 107.204 59.0535C106.665 59.9204 106.185 61.0835 107.046 61.9223C107.098 61.9723 107.152 62.0216 107.207 62.0686C106.568 62.7097 106.794 63.7486 107.322 64.3941C107.63 64.772 108.028 65.0653 108.411 65.3638C108.377 65.3866 108.345 65.416 108.317 65.4543C107.87 66.066 107.805 66.7945 107.976 67.4834C107.976 67.4842 107.975 67.4856 107.975 67.4864C107.842 68.5296 107.443 69.542 107.132 70.5412C106.73 71.8351 106.327 73.1291 105.924 74.4231C105.793 74.8451 106.45 75.0245 106.58 74.6061ZM115.499 53.2557C115.506 53.2484 115.513 53.241 115.519 53.2336C115.532 53.3167 115.546 53.3998 115.56 53.4829C115.753 54.6408 115.931 55.9208 115.276 56.97C114.502 56.8737 113.731 56.7641 112.959 56.656C113.621 55.3922 114.473 54.2497 115.499 53.2557Z" fill="#333333"/>
<path d="M214.871 71.6057C214.284 71.6108 213.697 71.6358 213.111 71.6505C210.048 71.7284 206.985 71.8064 203.922 71.8843C199.489 71.9968 195.056 72.1093 190.624 72.2225C186.236 72.3343 181.848 72.4453 177.46 72.557C174.532 72.6313 171.602 72.7055 168.674 72.7805C168.365 72.7886 168.054 72.7901 167.745 72.7974C168.919 70.0794 169.201 66.915 168.742 64.0139C168.273 61.0554 166.591 57.4419 163.328 56.8802C162.909 56.8082 162.484 56.7839 162.063 56.8067C162.038 56.8045 162.011 56.8045 161.981 56.8082C160.802 56.9574 159.522 56.5751 158.408 56.2215C158.391 56.2163 158.375 56.2126 158.359 56.2097C158.362 55.5561 158.495 54.9018 158.741 54.2996C158.978 53.721 159.332 53.1858 159.778 52.7476C160.281 52.2528 160.897 51.8786 161.224 51.2279C161.419 50.8368 160.833 50.4913 160.636 50.8839C160.296 51.5632 159.574 51.9374 159.081 52.4925C158.615 53.0174 158.262 53.6269 158.021 54.2857C157.533 55.6164 157.576 57.0912 158.128 58.3925C158.208 58.5785 158.376 58.6043 158.517 58.5388C158.535 58.7903 158.864 59.0035 159.098 58.7726C159.841 58.0404 160.82 57.6139 161.843 57.5051C161.861 57.5037 161.879 57.5022 161.898 57.5C162.228 57.4684 162.562 57.4691 162.895 57.5044C164.454 57.6691 165.642 58.641 166.482 59.9203C168.103 62.3913 168.468 65.4417 168.17 68.3347C168.011 69.8809 167.641 71.4373 166.979 72.8482C166.046 73.0276 165.872 73.9127 165.651 74.7222C164.826 77.7461 164.001 80.77 163.177 83.7947C161.982 88.1728 160.788 92.5517 159.593 96.9299C159.496 97.2864 159.399 97.643 159.301 97.9989C159.223 97.782 159.089 97.5857 158.924 97.4092C158.588 97.0497 158.215 96.7196 157.861 96.3785C156.371 94.9433 154.895 93.492 153.389 92.0731C152.738 91.4592 151.878 90.8725 150.972 91.2975C150.576 91.4835 150.921 92.0716 151.315 91.8864C151.749 91.6827 152.231 91.9922 152.566 92.2554C152.955 92.5605 153.298 92.9304 153.653 93.273C154.467 94.056 155.28 94.8389 156.093 95.6227C156.875 96.3755 157.702 97.1004 158.444 97.8923C158.846 98.3216 158.665 98.7752 158.413 99.237C158.156 99.7068 157.886 100.168 157.621 100.633C157.285 100.658 156.95 100.683 156.616 100.707C156.757 100.399 156.851 100.07 156.801 99.7237C156.746 99.334 156.517 99.0142 156.262 98.7253C155.641 98.0202 155.015 97.3269 154.427 96.5924C154.129 96.2204 153.837 95.844 153.546 95.4661C153.404 95.2808 153.262 95.0955 153.121 94.9103C153.014 94.7713 152.912 94.586 152.73 94.5368C152.388 94.4434 152.066 94.8095 152.226 95.1308C152.307 95.2948 152.459 95.3646 152.611 95.3565C152.632 95.3845 152.653 95.4117 152.675 95.4396C152.769 95.5631 152.864 95.6866 152.959 95.8102C153.118 96.0182 153.279 96.2263 153.441 96.4329C153.811 96.9078 154.187 97.3791 154.574 97.8415C154.943 98.2819 155.328 98.7076 155.714 99.1326C155.879 99.3141 156.063 99.5163 156.12 99.7626C156.189 100.063 156.04 100.357 155.9 100.614C155.873 100.665 155.859 100.714 155.857 100.762C154.961 100.828 154.064 100.895 153.168 100.961C153.303 100.048 153.157 99.1171 152.706 98.3032C152.254 97.4894 151.482 96.8711 151.141 95.9932C150.984 95.5889 150.326 95.7646 150.485 96.1748C150.805 96.9982 151.422 97.596 151.911 98.3128C152.438 99.087 152.656 100.019 152.485 100.946C152.48 100.968 152.479 100.99 152.479 101.012C151.891 101.055 151.303 101.099 150.716 101.143C150.453 101.162 150.19 101.182 149.927 101.201C150.284 99.6744 149.047 98.1805 148.041 97.1313C147.737 96.8144 147.256 97.2967 147.56 97.6136C148.395 98.4848 149.728 99.931 149.208 101.255C148.431 101.312 147.652 101.371 146.875 101.428C146.883 101.254 146.812 101.068 146.772 100.904C146.731 100.742 146.69 100.581 146.646 100.42C146.668 100.429 146.692 100.438 146.715 100.446C147.127 100.596 147.304 99.9376 146.896 99.7884C145.774 99.3774 144.725 98.7995 143.768 98.0834C143.417 97.8209 143.078 98.4128 143.425 98.6723C144.176 99.234 144.983 99.7053 145.835 100.088C145.938 100.393 146.022 100.701 146.098 101.015C146.116 101.087 146.135 101.16 146.153 101.232C146.155 101.238 146.156 101.244 146.157 101.25C146.146 101.303 146.15 101.362 146.176 101.429C146.183 101.446 146.189 101.462 146.196 101.477C145.711 101.513 145.225 101.549 144.74 101.585C144.724 101.543 144.696 101.503 144.656 101.465C144.428 101.251 144.2 101.037 143.972 100.824C144.275 100.609 144.569 100.379 144.861 100.152C145.207 99.8825 144.722 99.4031 144.38 99.6693C143.806 100.117 143.217 100.565 142.554 100.873C141.845 101.202 141.124 101.243 140.357 101.141C138.947 100.954 137.447 100.739 136.271 99.8758C135.951 99.6413 135.643 100.101 135.844 100.381C134.559 100.235 133.272 100.106 131.987 99.9604C130.074 99.7435 128.167 99.4465 126.238 99.4002C126.112 99.3972 126.023 99.4516 125.969 99.531C125.962 99.5207 125.954 99.5104 125.946 99.5002C125.988 99.5516 125.942 99.4605 125.938 99.4347C125.927 99.3575 125.936 99.2723 125.944 99.1951C125.96 99.0414 126.001 98.8877 126.045 98.7392C126.144 98.4047 126.307 98.1165 126.493 97.8217C126.967 97.0681 127.563 96.4079 128.229 95.8212C128.887 95.2426 129.606 94.7412 130.34 94.2662C130.929 93.8854 131.74 93.1656 132.495 93.3119C132.513 93.3156 132.53 93.3171 132.546 93.3178C132.558 93.3207 132.572 93.3222 132.586 93.3237C135.885 93.6641 139.206 93.7575 142.519 93.6031C142.955 93.5825 142.958 92.9009 142.519 92.9208C141.35 92.9752 140.18 92.998 139.01 92.9914C138.984 92.9458 138.947 92.9031 138.893 92.8686C137.802 92.1606 136.844 91.2989 135.861 90.4505C134.786 89.5212 133.674 88.6367 132.536 87.7854C130.243 86.0694 127.846 84.4997 125.418 82.9845C124.056 82.1353 122.685 81.3031 121.313 80.4715C120.938 80.2436 120.595 80.8333 120.97 81.0604C125.866 84.0292 130.797 87.0141 135.163 90.746C136.051 91.5048 136.913 92.2856 137.852 92.9737C136.787 92.9487 135.723 92.898 134.662 92.8223C134.668 92.7385 134.64 92.651 134.562 92.5738C133.928 91.9415 133.035 91.8327 132.181 91.8114C131.147 91.7856 130.121 91.7481 129.092 91.6202C126.999 91.3585 124.944 90.8247 122.946 90.1571C120.982 89.5013 119.067 88.7088 117.173 87.8721C117.387 87.5207 117.6 87.1693 117.814 86.8178C118.027 86.4657 118.248 86.1091 118.335 85.7011C118.481 85.0136 118.41 84.2578 118.412 83.5572C118.416 82.1677 118.419 80.7781 118.424 79.3886C119.026 77.7197 119.618 76.0463 120.2 74.37C120.345 73.9547 119.688 73.776 119.545 74.1884C118.966 75.8552 118.377 77.5182 117.779 79.1776C117.769 79.1982 117.761 79.2209 117.755 79.2452C117.57 79.7598 117.383 80.2745 117.196 80.7891C116.802 81.8692 116.405 82.9484 116 84.0255C115.663 84.9247 115.29 85.8341 114.572 86.4988C114.523 86.5443 114.493 86.5936 114.477 86.6436C113.361 86.1282 112.242 85.6172 111.104 85.1526C108.9 84.2534 106.503 83.605 104.128 84.1615C103.702 84.2615 103.882 84.9188 104.309 84.8188C106.366 84.3365 108.459 84.8578 110.389 85.5981C112.357 86.3525 114.251 87.3082 116.175 88.1691C119.924 89.8476 123.777 91.4276 127.846 92.1187C128.976 92.3106 130.118 92.4363 131.263 92.4745C132.008 92.4995 132.933 92.3981 133.635 92.7407C133.3 92.7113 132.964 92.6804 132.629 92.6458C131.672 92.487 130.848 93.1281 130.085 93.6192C129.213 94.1809 128.358 94.7794 127.59 95.48C126.819 96.1836 126.105 97.0188 125.626 97.954C125.342 98.5098 125.023 99.4362 125.466 99.9817C125.626 100.179 125.855 100.099 125.965 99.9303C126.017 100.016 126.108 100.079 126.239 100.082C126.732 100.093 127.224 100.122 127.715 100.161C126.43 101.019 124.659 100.596 123.259 100.185C122.298 99.9038 121.338 99.6531 120.349 99.4884C119.36 99.3237 118.363 99.2112 117.367 99.1017C115.29 98.8723 113.21 98.6848 111.125 98.5385C110.066 98.4643 109.006 98.4054 107.946 98.3474C107.01 98.2966 106.08 98.2077 105.198 97.8709C104.881 97.7504 104.574 97.6019 104.281 97.4291C104.253 97.4034 104.219 97.382 104.179 97.3681C103.015 96.6527 102.078 95.5528 101.583 94.2809C101.426 93.8766 100.767 94.0523 100.927 94.4625C101.364 95.5866 102.081 96.5806 102.998 97.3482C102.126 97.3482 101.254 97.3482 100.384 97.3482C98.876 97.3482 97.3691 97.3482 95.8615 97.3482L95.8623 97.3475C98.2407 92.9473 99.9207 88.1427 101.017 83.2675C101.103 82.8911 101.183 82.5132 101.26 82.1346C101.599 82.2103 101.962 82.2051 102.255 81.9941C102.648 81.7118 102.718 81.1986 102.747 80.7509C102.822 79.5709 102.879 78.3887 102.944 77.2079C103.077 74.8193 103.207 72.4298 103.276 70.0375C103.398 65.8064 103.382 61.5054 102.425 57.3596C101.906 55.115 101.089 52.9358 99.8965 50.9625C99.6698 50.5876 99.0814 50.9302 99.3089 51.3066C101.329 54.6481 102.182 58.5219 102.488 62.3803C102.821 66.5952 102.602 70.8484 102.381 75.0633C102.315 76.3095 102.244 77.555 102.175 78.8011C102.167 78.9519 102.159 79.1018 102.151 79.2526C100.723 77.816 98.8019 76.9536 96.8182 76.6264C94.5733 76.2559 92.1567 76.4308 89.9639 77.0344C89.0732 77.2793 88.2222 77.6336 87.4534 78.1336C87.8921 76.6139 88.3316 75.095 88.7703 73.5753C89.4533 71.2109 90.137 68.8457 90.82 66.4813C90.8802 66.4592 90.9374 66.4195 90.9836 66.3585C92.6644 64.1308 94.924 62.3825 97.4814 61.2789C97.8827 61.1062 97.5364 60.518 97.138 60.69C94.8858 61.662 92.883 63.1302 91.2602 64.9587C91.4363 64.3499 91.6124 63.7412 91.7877 63.1324C92.0716 62.1494 92.3548 61.1672 92.6394 60.1842C92.8933 59.3079 93.1618 58.4381 93.6445 57.6573C93.8756 57.2831 93.2872 56.9405 93.0569 57.3132C92.6218 58.0168 92.343 58.7976 92.1061 59.5865C91.853 60.429 91.616 61.2767 91.3717 62.1222C90.8633 63.8816 90.3549 65.6409 89.8465 67.4003C88.8231 70.9418 87.7997 74.4825 86.777 78.024C86.5085 78.9533 86.2121 79.8892 85.9861 80.8369C85.3273 77.0403 85.2664 73.1084 85.4432 69.2817C85.546 67.0672 85.722 64.8572 85.9003 62.6472C85.9157 62.4538 85.7316 62.3185 85.5599 62.306C78.6175 61.7921 71.6715 61.3084 64.7329 60.7474C58.398 60.235 52.0689 59.6328 45.7641 58.8285C45.6335 57.2522 45.1303 55.6951 44.7495 54.168C44.3401 52.5278 43.9271 50.8875 43.5111 49.2488C43.4033 48.8238 42.7467 49.0039 42.8553 49.4303C43.2617 51.0294 43.6645 52.63 44.0643 54.2305C44.2616 55.0209 44.4582 55.8119 44.6534 56.603C44.828 57.3088 45.0019 58.0154 45.0752 58.7395C44.8471 58.7101 44.6196 58.6807 44.3915 58.6506C41.3843 58.2521 38.3845 57.8029 35.3942 57.2934C35.9423 54.9253 36.4624 52.5491 37.1168 50.2067C37.4059 49.1723 37.6524 48.032 38.2341 47.1137C38.6406 46.4719 39.6134 45.3955 40.4739 45.6573C40.8943 45.7845 41.0733 45.1272 40.6551 45C39.8701 44.7618 39.1218 45.2242 38.5533 45.7278C37.9003 46.3065 37.4528 47.0042 37.1432 47.8166C36.7977 48.7216 36.5541 49.6722 36.3017 50.6059C36.0296 51.6146 35.7801 52.6292 35.5395 53.6453C35.2666 54.7996 35.0054 55.9568 34.7384 57.1125C34.7332 57.1353 34.7303 57.1574 34.7296 57.1787C34.1566 57.0794 33.5836 56.978 33.0114 56.8743C32.9439 56.8618 32.8823 56.8684 32.8287 56.8868C32.6717 56.9287 32.5426 57.0669 32.5852 57.2632C32.5874 57.311 32.6006 57.3566 32.6241 57.3971C32.8772 58.2403 33.1303 59.0836 33.3834 59.9269C32.9182 59.8277 32.4553 59.7225 31.9931 59.6108C31.9645 59.5997 31.9352 59.5931 31.9044 59.5909C31.7562 59.5667 31.6403 59.6358 31.5742 59.7387C31.5199 59.81 31.4928 59.9048 31.5163 60.0166C31.8692 61.6929 32.2477 63.3625 32.6424 65.0292C32.6233 65.055 32.6072 65.0836 32.594 65.1167C32.1597 66.2291 31.6322 67.3062 31.1847 68.4134C30.9426 69.0119 30.6983 69.6302 30.6117 70.2742C30.5589 70.6668 30.5809 71.1565 30.9279 71.3998C29.7394 74.3642 28.9948 77.4932 27.7095 80.4208C27.2979 81.3582 26.8276 82.2684 26.2811 83.1344C26.0463 83.5065 26.6347 83.8491 26.8687 83.4785C28.7901 80.4377 29.6771 76.9212 30.8443 73.5554C31.1605 72.6445 31.4994 71.7417 31.8875 70.8587C32.6211 70.941 33.3584 70.9741 34.0987 70.9513C34.1016 70.9513 34.1038 70.9506 34.1067 70.9506C34.6643 73.1327 35.2358 75.3111 35.8043 77.4895C36.2291 79.1187 36.6539 80.7487 37.0787 82.3779C36.9855 82.386 36.8923 82.3956 36.7999 82.4095C35.8175 82.5551 34.9233 83.0462 34.0429 83.4785C33.4985 83.7454 32.952 84.0079 32.4106 84.2792C31.999 84.485 31.597 84.7365 31.3644 85.1489C30.8898 85.9922 31.2382 87.0325 31.6945 87.8023C31.9183 88.1794 32.5067 87.8368 32.2822 87.4582C31.9543 86.9061 31.5911 86.0694 31.9733 85.4548C32.1685 85.1408 32.5228 84.9828 32.8419 84.8247C33.2821 84.6071 33.7245 84.3917 34.1654 84.1755C34.9533 83.7888 35.7413 83.3447 36.6003 83.1396C37.4983 82.9249 38.4447 83.1124 39.3478 83.2102C40.278 83.3116 41.2083 83.4131 42.1385 83.5146C42.7738 83.5837 43.6923 83.5543 44.1927 84.0277C44.6791 84.488 44.346 85.2342 43.8926 85.5797C43.2434 86.0731 42.3065 86.0643 41.534 86.1414C39.463 86.348 37.4044 86.6774 35.3715 87.1237C34.9438 87.2178 35.125 87.8751 35.5527 87.781C35.6936 87.7501 35.8344 87.7214 35.9753 87.6913C39.4659 87.3119 42.9954 87.2656 46.5036 87.284C46.924 87.2862 47.3443 87.2898 47.764 87.2957C48.2093 87.3016 48.6752 87.2825 49.1058 87.4163C49.4623 87.528 49.8768 87.8229 49.8695 88.2419C49.8614 88.6831 49.4147 88.9668 49.0442 89.0882C48.8189 89.1617 48.5849 89.208 48.348 89.244C48.3318 89.2448 48.3149 89.2455 48.2988 89.247C48.2673 89.2492 48.2386 89.2558 48.2115 89.2646C48.0281 89.2903 47.8447 89.3124 47.6642 89.3381C47.1301 89.4139 46.5946 89.4852 46.059 89.5521C45.0283 89.6807 43.9961 89.7947 42.9624 89.8932C40.6111 90.1175 38.2525 90.2615 35.8916 90.3292C35.4544 90.3417 35.4529 91.024 35.8916 91.0115C38.171 90.946 40.4482 90.8093 42.7195 90.5983C43.8552 90.4924 44.9887 90.3689 46.1199 90.227C46.6753 90.1571 47.2306 90.0829 47.7845 90.005C47.9789 89.9778 48.177 89.955 48.3751 89.927C48.6319 89.9226 49.0134 89.9917 48.9914 90.3115C48.9657 90.6821 48.4873 90.9284 48.2115 91.0872C47.3737 91.5687 46.5139 92.0135 45.6401 92.426C43.9051 93.245 42.0982 93.9185 40.2369 94.3875C39.171 94.6559 38.0889 94.8566 36.9958 94.9757C36.5651 95.0228 36.56 95.705 36.9958 95.658C39.2399 95.4131 41.4335 94.8573 43.5434 94.0552C44.613 93.6486 45.6621 93.1847 46.6863 92.6738C46.7024 92.6657 46.7178 92.6576 46.734 92.6495C46.7883 92.7171 46.833 92.8098 46.8367 92.8782C46.8301 92.8921 46.8205 92.9142 46.8081 92.9451C46.7736 92.9958 46.734 93.0421 46.69 93.084C46.6181 93.1612 46.5381 93.2325 46.4618 93.3046C46.0766 93.6678 45.6746 94.0133 45.2616 94.3449C44.4568 94.9911 43.6072 95.5793 42.7518 96.1557C41.9199 96.7159 41.0858 97.3651 40.124 97.6813C39.1365 98.0062 38.0874 98.0378 37.0574 98.0702C36.6209 98.0842 36.6187 98.7657 37.0574 98.7525C37.9854 98.723 38.9245 98.6892 39.8312 98.4723C40.2758 98.3657 40.6874 98.2025 41.0828 98.0033C41.1246 98.0231 41.1745 98.0349 41.2317 98.0349C42.633 98.0349 44.0342 98.0349 45.4354 98.0349C48.7991 98.0349 52.1628 98.0349 55.5258 98.0349C59.5718 98.0349 63.6177 98.0349 67.6637 98.0349C71.1536 98.0349 74.6435 98.0349 78.1326 98.0349C78.0563 98.0525 77.9837 98.0937 77.9309 98.154C73.645 98.5995 69.3591 99.0436 65.0733 99.4869C60.7764 99.9317 56.4795 100.375 52.1826 100.818C49.7683 101.066 47.3539 101.315 44.9395 101.562C44.8918 101.568 44.8493 101.58 44.8119 101.599C44.5918 101.492 44.2426 101.674 44.3137 101.994C45.241 106.188 46.2065 110.374 47.1514 114.565C47.4148 115.734 47.6767 116.905 47.9357 118.075C47.9657 118.212 48.1213 118.335 48.2636 118.326C52.5142 118.024 56.7304 117.376 60.9253 116.644C65.1349 115.909 69.3313 115.092 73.5592 114.465C75.964 114.108 78.3784 113.818 80.803 113.637C81.2373 113.604 81.2403 112.922 80.803 112.954C76.5531 113.271 72.3384 113.929 68.1428 114.664C63.9339 115.401 59.7376 116.217 55.5089 116.836C53.1921 117.175 50.8665 117.45 48.5314 117.623C47.6224 113.519 46.6782 109.423 45.7538 105.323C45.522 104.293 45.2909 103.262 45.0628 102.231C49.3186 101.793 53.5743 101.355 57.8301 100.916C62.127 100.473 66.4239 100.029 70.72 99.5832C73.13 99.3333 75.5407 99.0833 77.9507 98.8326C78.1179 99.4847 78.3512 100.143 78.6682 100.74C77.0725 100.696 75.4776 100.635 73.8812 100.6C71.4529 100.546 69.0202 100.557 66.5992 100.772C66.1664 100.81 66.1627 101.493 66.5992 101.454C70.9005 101.071 75.2164 101.346 79.5229 101.444C83.8205 101.542 88.1078 101.332 92.3893 100.961C94.8154 100.751 97.2378 100.498 99.6595 100.245C100.091 100.2 100.095 99.5178 99.6595 99.5627C95.3663 100.011 91.0702 100.46 86.7579 100.67C84.6135 100.774 82.4669 100.814 80.3203 100.778C80.0349 100.773 79.7495 100.767 79.4642 100.76C79.0012 100.007 78.7034 99.1237 78.5156 98.2679C78.4862 98.1341 78.4026 98.0599 78.3036 98.0342C79.9711 98.0364 81.6489 98.0871 83.3157 98.0342C83.3385 98.0334 83.3612 98.0342 83.3839 98.0342C83.3935 98.0342 83.403 98.0334 83.4126 98.0327C84.425 98.4069 85.4895 98.5098 86.5738 98.512C87.9009 98.515 89.231 98.4488 90.553 98.3378C91.4627 98.2613 92.3709 98.1591 93.2755 98.0342C94.4691 98.0342 95.6635 98.0342 96.8571 98.0342C98.81 98.0342 100.764 98.0342 102.717 98.0342C103.135 98.0342 103.553 98.0342 103.971 98.0342C104.006 98.054 104.039 98.0753 104.074 98.0944C105.844 99.084 107.874 99.0171 109.839 99.1392C112.046 99.2759 114.251 99.459 116.452 99.6884C118.617 99.9148 120.759 100.163 122.855 100.78C124.74 101.335 127.123 101.877 128.665 100.252C129.774 100.367 130.88 100.519 131.988 100.645C133.694 100.838 135.403 101.001 137.106 101.216C137.18 101.226 137.24 101.213 137.289 101.187C138.306 101.568 139.43 101.718 140.486 101.842C140.623 101.858 140.758 101.868 140.893 101.873C139.916 101.945 138.94 102.018 137.963 102.09C136.99 102.162 136.017 102.234 135.043 102.306C134.953 102.301 134.877 102.334 134.821 102.386C134.744 102.446 134.693 102.536 134.693 102.648C134.693 103.031 134.693 103.414 134.693 103.797C134.693 103.948 134.799 104.085 134.943 104.126C137.645 104.903 140.346 105.68 143.048 106.457C146.965 107.583 150.883 108.709 154.801 109.836C155.249 109.965 155.698 110.094 156.146 110.223C156.276 110.261 156.393 110.3 156.528 110.303C157.12 110.317 157.729 110.238 158.321 110.206C161.472 110.037 164.624 109.868 167.776 109.699C172.24 109.459 176.705 109.22 181.169 108.981C185.446 108.751 189.722 108.522 193.999 108.293C196.505 108.158 199.01 108.023 201.516 107.89C201.691 107.88 201.866 107.874 202.041 107.862C202.941 107.795 203.659 107.274 203.989 106.429C204.223 105.83 204.439 105.222 204.663 104.619C205.926 101.23 207.189 97.8415 208.452 94.4522C210.025 90.2307 211.598 86.0098 213.171 81.7883C214.157 79.1408 215.143 76.4933 216.13 73.8458C216.196 73.6687 216.276 73.4893 216.317 73.304C216.52 72.3769 215.773 71.5983 214.871 71.6057ZM158.745 58.1668C158.742 58.1279 158.733 58.0874 158.715 58.047C158.564 57.6904 158.463 57.3162 158.408 56.9346C158.926 57.0934 159.451 57.2287 159.982 57.3324C159.535 57.547 159.117 57.8257 158.745 58.1668ZM146.192 101.409C146.194 101.449 146.184 101.467 146.192 101.409V101.409ZM115.1 86.9333C115.799 86.2628 116.204 85.379 116.548 84.4858C116.958 83.4226 117.345 82.35 117.735 81.2795C117.733 81.9787 117.731 82.6779 117.73 83.3771C117.727 84.0218 117.774 84.6931 117.706 85.3342C117.66 85.7643 117.443 86.1135 117.224 86.4745C116.997 86.8472 116.771 87.2207 116.544 87.5935C116.062 87.3759 115.581 87.1553 115.1 86.9333ZM101.686 79.7569C101.728 79.7988 101.769 79.8415 101.809 79.8841C101.902 79.9819 102.01 80.0039 102.108 79.9797C102.095 80.2216 102.082 80.4627 102.067 80.7046C102.054 80.9215 102.057 81.2898 101.863 81.442C101.738 81.5405 101.551 81.5148 101.388 81.4714C101.497 80.9009 101.596 80.3296 101.686 79.7569ZM53.1767 60.371C60.0281 61.09 66.8971 61.6098 73.7661 62.1178C77.5743 62.3994 81.3833 62.6817 85.1916 62.9633C84.5966 70.369 84.0648 78.0056 86.3295 85.1974C86.8533 86.8612 87.526 88.4794 88.3609 90.0108C87.9449 89.9535 87.5224 89.9234 87.1196 89.8079C85.0339 86.4289 83.5644 82.7029 82.5161 78.8695C81.263 74.2899 80.5785 69.5758 80.0481 64.8646C79.9894 64.3418 79.9337 63.7831 79.3769 63.5618C79.1252 63.4618 78.8406 63.4588 78.5735 63.4375C78.2251 63.4096 77.8766 63.3809 77.5281 63.353C76.1548 63.242 74.7807 63.1317 73.4073 63.0236C70.6393 62.8052 67.8706 62.595 65.1011 62.4053C59.7684 62.0399 54.432 61.8208 49.0926 61.5863C44.0885 61.3664 39.0587 61.0576 34.1361 60.085C33.891 59.2689 33.6467 58.4535 33.4017 57.6375C39.9545 58.8101 46.5586 59.6769 53.1767 60.371ZM31.751 70.161C31.7019 70.1426 31.6498 70.1353 31.5999 70.1411C31.5082 70.1286 31.4165 70.1154 31.3248 70.1007C31.3417 70.0331 31.3585 69.9728 31.371 69.9242C31.5302 69.3258 31.7686 68.7479 32.0093 68.1781C32.2983 67.4944 32.6101 66.818 32.9021 66.135C33.2352 67.5164 33.5792 68.895 33.9292 70.2727C33.2007 70.2874 32.4729 70.2522 31.751 70.161ZM48.1029 86.6179C46.4486 86.5862 44.792 86.5892 43.1377 86.6193C43.6116 86.5142 44.0621 86.3385 44.4326 86.0084C44.9828 85.518 45.2975 84.6835 44.9777 83.9821C44.6483 83.2602 43.8347 83.0381 43.115 82.9426C42.0835 82.8058 41.0439 82.7139 40.0095 82.6007C39.2788 82.5213 38.5188 82.3838 37.769 82.3603C37.7668 82.347 37.7646 82.3338 37.7609 82.3206C36.2445 76.5036 34.6775 70.697 33.2917 64.8469C32.9402 63.3625 32.6035 61.8737 32.2844 60.382C37.0596 61.487 41.9683 61.9031 46.8528 62.159C52.0733 62.4325 57.2975 62.5832 62.5151 62.9141C65.2449 63.0868 67.9733 63.2839 70.7002 63.4927C72.0948 63.5993 73.4887 63.7088 74.8834 63.8206C75.5598 63.8742 76.2362 63.9286 76.9133 63.983C77.5765 64.0367 78.2566 64.0514 78.9154 64.1455C79.2375 64.1911 79.3042 64.3506 79.3446 64.655C79.3864 64.9667 79.415 65.2799 79.451 65.5924C79.5177 66.1666 79.5867 66.7408 79.6593 67.315C79.8068 68.4796 79.9667 69.6419 80.1464 70.8021C80.5066 73.129 80.9461 75.4449 81.5147 77.7307C82.6298 82.2103 84.2636 86.6046 86.7513 90.5093C86.8914 90.7291 87.0345 90.9475 87.1805 91.1636C82.8235 89.9579 78.2859 89.8197 73.7851 89.6815C71.2284 89.6035 68.6871 89.4256 66.1444 89.1477C65.9984 89.1315 65.8516 89.1154 65.7057 89.0984C65.6514 89.0801 65.6015 89.0749 65.5567 89.0815C63.2715 88.825 60.9891 88.5353 58.698 88.3331C55.9851 88.0942 53.2574 87.989 50.5393 88.1905C50.5349 88.0398 50.5019 87.8832 50.4344 87.7243C50.0426 86.8009 48.9943 86.6355 48.1029 86.6179ZM79.1766 97.3504C75.8129 97.3504 72.4492 97.3504 69.0862 97.3504C65.0402 97.3504 60.9943 97.3504 56.9483 97.3504C53.4342 97.3504 49.9194 97.3504 46.4053 97.3504C45.0092 97.3504 43.6065 97.3144 42.2082 97.3313C42.2346 97.3137 42.261 97.2967 42.2874 97.2791C43.8699 96.2263 45.4604 95.1617 46.8558 93.8626C47.1521 93.5862 47.5556 93.2619 47.5072 92.8112C47.4911 92.6613 47.4317 92.4878 47.3414 92.3348C47.6165 92.1907 47.8909 92.0437 48.1631 91.8922C48.568 91.6673 49.0185 91.4482 49.3281 91.0923C49.6377 90.7358 49.7837 90.2395 49.5386 89.8072C49.5093 89.7557 49.4763 89.7079 49.4396 89.6638C49.8145 89.5006 50.1542 89.2271 50.3544 88.8889C55.3042 88.4963 60.235 89.1609 65.1459 89.7197C65.2787 89.7351 65.4115 89.7491 65.5443 89.7638C66.2243 90.0248 66.8149 90.5321 67.3607 91.0012C67.8977 91.4629 68.4216 92.0885 69.0803 92.3686C69.4464 92.5245 69.8397 92.5716 70.2314 92.6238C70.6936 92.6848 71.1565 92.7341 71.6209 92.7693C72.5908 92.8421 73.5636 92.8539 74.5356 92.8112C74.9721 92.7921 74.9743 92.1099 74.5356 92.129C73.6047 92.1701 72.6722 92.1606 71.742 92.0959C71.2776 92.0635 70.8132 92.0172 70.3517 91.9577C69.9504 91.9055 69.5183 91.8643 69.1647 91.6511C68.8698 91.4732 68.6196 91.2056 68.3629 90.9769C68.0797 90.7255 67.7958 90.474 67.5023 90.2343C67.3776 90.1322 67.2507 90.0307 67.1223 89.9322C68.9586 90.1174 70.7985 90.2637 72.6443 90.3277C75.0316 90.4108 77.4225 90.4586 79.806 90.6336C80.4516 90.6814 81.095 90.7416 81.7369 90.8159C81.7458 91.7562 80.437 92.437 79.6578 92.5804C79.3424 92.6385 79.0929 92.7127 78.8076 92.8664C78.4774 93.0436 78.184 93.0987 77.8106 93.0678C77.509 93.0428 77.2119 92.9745 76.9221 92.8774C76.8987 92.8664 76.8759 92.8583 76.8532 92.8532C76.3792 92.687 75.9251 92.4473 75.5033 92.2003C75.1247 91.9783 74.7814 92.5679 75.16 92.7892C75.6199 93.0583 76.11 93.3097 76.6221 93.4891C76.625 93.4913 76.6279 93.4935 76.6309 93.4965C77.7247 94.2559 78.7767 95.0727 79.8522 95.8572C80.5543 96.3697 81.2682 96.9012 82.0238 97.3489C81.0745 97.3504 80.1252 97.3504 79.1766 97.3504ZM95.2277 97.1762C95.1536 97.1071 95.0501 97.0666 94.9261 97.0887C94.3693 97.1857 93.811 97.2725 93.2513 97.3504C93.2263 97.3504 93.2014 97.3504 93.1772 97.3504C93.1214 97.3504 93.0723 97.3614 93.0312 97.3813C91.0599 97.6467 89.074 97.796 87.0844 97.8246C85.8776 97.8423 84.6539 97.8136 83.5197 97.3511C82.4236 96.9041 81.4398 96.1675 80.4854 95.4793C79.7011 94.9147 78.933 94.3294 78.1554 93.7567C78.4752 93.7391 78.7745 93.6567 79.0709 93.5016C79.2448 93.4104 79.404 93.3119 79.5991 93.2744C79.7349 93.248 79.8706 93.2377 80.0056 93.2024C81.0796 92.9237 82.3216 92.0746 82.4023 90.8997C84.2702 91.1475 86.1167 91.5261 87.9214 92.0937C88.0762 92.1422 88.1988 92.0827 88.2699 91.9819C88.3712 91.8878 88.4115 91.7423 88.3059 91.593C88.0726 91.2658 87.8466 90.9343 87.6265 90.599C88.0704 90.6578 88.5208 90.6909 88.9456 90.8372C89.2324 90.9357 89.4738 90.5821 89.33 90.3365C87.8708 87.8479 86.9076 85.1732 86.295 82.4066C86.3485 82.3669 86.3889 82.3037 86.4036 82.2125C86.5657 81.1781 86.8643 80.1605 87.1592 79.1533C87.2076 79.1415 87.2553 79.118 87.3008 79.0813C88.848 77.8182 90.9345 77.4028 92.872 77.2131C94.9892 77.0058 97.2011 77.1455 99.1651 78.0284C99.8576 78.3402 100.505 78.7328 101.089 79.2114C100.367 84.0579 98.9941 88.8477 97.0485 93.3413C96.5093 94.5875 95.9202 95.8116 95.2746 97.0063C95.2394 97.0644 95.2269 97.1218 95.2277 97.1762ZM158.748 100.022C158.699 100.201 158.65 100.379 158.602 100.558C158.547 100.563 158.492 100.566 158.437 100.571C158.54 100.388 158.644 100.205 158.748 100.022ZM142.849 101.483C143.035 101.398 143.215 101.303 143.391 101.2C143.405 101.223 143.424 101.245 143.446 101.266C143.583 101.394 143.72 101.523 143.856 101.651C143.193 101.7 142.53 101.749 141.867 101.798C142.198 101.734 142.525 101.631 142.849 101.483ZM215.606 73.2989C215.543 73.4929 215.463 73.6826 215.392 73.8738C214.997 74.9354 214.6 75.9978 214.205 77.0594C212.796 80.8406 211.387 84.6218 209.978 88.4029C208.472 92.4429 206.967 96.4829 205.462 100.523C204.953 101.887 204.445 103.252 203.936 104.616C203.734 105.16 203.553 105.719 203.326 106.254C202.921 107.205 202.048 107.176 201.206 107.221C200.168 107.277 199.13 107.333 198.091 107.388C194.433 107.584 190.775 107.781 187.117 107.977C182.596 108.22 178.074 108.462 173.552 108.705C169.646 108.914 165.738 109.124 161.832 109.334C160.06 109.428 158.288 109.536 156.516 109.619C156.515 109.619 156.514 109.618 156.513 109.618C156.404 109.581 156.29 109.554 156.179 109.522C155.674 109.376 155.169 109.231 154.663 109.086C152.895 108.577 151.127 108.069 149.359 107.56C145.343 106.405 141.326 105.251 137.31 104.096C136.663 103.91 136.016 103.724 135.369 103.538C135.369 103.389 135.369 103.24 135.369 103.092C135.924 103.243 136.48 103.395 137.036 103.546C138.714 104.004 140.393 104.462 142.071 104.919C144.102 105.473 146.132 106.027 148.163 106.581C149.91 107.057 151.658 107.535 153.405 108.011C154.259 108.244 155.112 108.518 155.975 108.712C155.988 108.715 156 108.718 156.013 108.722C156.436 108.837 156.616 108.179 156.194 108.065C155.495 107.874 154.796 107.683 154.096 107.493C152.418 107.035 150.739 106.577 149.061 106.119C147.03 105.566 145 105.011 142.969 104.458C141.222 103.981 139.474 103.504 137.727 103.028C137.502 102.966 137.276 102.902 137.05 102.837C139.066 102.687 141.081 102.538 143.097 102.389C147.348 102.074 151.601 101.759 155.852 101.444C156.705 101.381 157.558 101.318 158.412 101.254C157.897 103.142 157.382 105.03 156.867 106.918C156.731 107.415 156.596 107.912 156.46 108.408C156.344 108.832 157.001 109.013 157.116 108.59C157.635 106.685 158.155 104.782 158.674 102.878C159.801 98.7473 160.928 94.6169 162.054 90.4865C163.136 86.5201 164.218 82.5536 165.3 78.5872C165.629 77.3815 165.958 76.1765 166.287 74.9707C166.438 74.42 166.51 73.5768 167.203 73.5018C167.242 73.5062 167.281 73.504 167.319 73.4929C169.028 73.379 170.761 73.4084 172.472 73.365C176.306 73.2672 180.14 73.1702 183.973 73.0731C188.521 72.9577 193.069 72.8423 197.617 72.7261C201.488 72.6276 205.36 72.5291 209.232 72.4313C211.106 72.3835 212.982 72.3085 214.857 72.2887C215.431 72.2821 215.79 72.7386 215.606 73.2989Z" fill="#333333"/>
<path d="M109.385 110.136C109.381 110.136 109.377 110.137 109.374 110.137C109.454 110.015 109.473 109.847 109.354 109.706C106.638 106.443 102.955 104.044 100.651 100.429C100.416 100.06 99.8268 100.401 100.063 100.773C102.397 104.435 106.101 106.866 108.856 110.166C103.617 110.461 98.3801 110.757 93.142 111.052C90.4825 111.202 87.8459 111.271 85.1843 111.122C82.508 110.972 79.8574 110.834 77.1767 110.98C74.3104 111.135 71.4338 111.416 68.5675 111.124C68.1743 107.909 67.492 104.736 66.5141 101.648C66.3821 101.231 65.7247 101.409 65.8582 101.829C66.8479 104.956 67.5456 108.173 67.9249 111.432C67.9484 111.632 68.0635 111.749 68.2653 111.773C70.9078 112.081 73.5658 111.88 76.2112 111.718C77.5384 111.636 78.8677 111.567 80.1978 111.577C80.4047 111.578 80.6123 111.582 80.8192 111.587C80.7979 111.883 80.8595 112.174 81.0312 112.427C81.1339 112.579 81.3305 112.647 81.497 112.549C81.6474 112.461 81.723 112.236 81.6188 112.082C81.5249 111.943 81.4655 111.782 81.4941 111.61C81.4941 111.609 81.4941 111.607 81.4948 111.606C82.3811 111.638 83.2666 111.69 84.1513 111.743C85.488 111.822 86.8261 111.902 88.1657 111.911C89.4819 111.92 90.7973 111.862 92.1105 111.791C94.8227 111.645 97.5335 111.486 100.245 111.333C103.292 111.161 106.339 110.989 109.386 110.817C109.82 110.794 109.823 110.111 109.385 110.136Z" fill="#333333"/>
<path d="M134.952 25.3641C133.226 25.9097 131.802 27.1683 130.914 28.7358C129.883 30.5591 129.602 32.7214 129.8 34.7844C129.842 35.2174 130.523 35.2218 130.481 34.7844C130.297 32.8699 130.518 30.8672 131.457 29.1615C132.255 27.7117 133.542 26.5236 135.133 26.0214C135.549 25.8906 135.372 25.2318 134.952 25.3641Z" fill="#333333"/>
<path d="M127.991 38.1383C128.23 38.017 128.472 37.9009 128.706 37.77C129.551 37.2987 130.377 36.4981 130.27 35.4438C130.227 35.0115 129.546 35.0071 129.589 35.4438C129.719 36.7289 128.21 37.2296 127.314 37.7237C126.827 37.9928 126.664 38.356 126.591 38.8971C126.521 39.4205 126.595 39.908 126.926 40.3285C127.198 40.6726 127.676 40.1874 127.408 39.8462C127.167 39.5411 127.182 38.8927 127.357 38.5552C127.466 38.3449 127.791 38.2398 127.991 38.1383Z" fill="#333333"/>
<path d="M130.38 46.8837C129.738 47.2844 129.022 47.5329 128.297 47.7373C127.876 47.8557 128.055 48.5137 128.478 48.3946C129.316 48.1586 130.161 47.8601 130.886 47.3668C131.498 46.9499 132.28 46.2786 132.28 45.4648C132.278 44.5458 131.366 44.4024 130.658 44.298C129.757 44.1649 128.923 43.7569 128.257 43.1356C127.937 42.8364 127.455 43.318 127.776 43.6179C128.32 44.126 128.953 44.5134 129.658 44.7546C130.014 44.8766 130.377 44.9428 130.75 44.992C131.001 45.0251 131.425 45.0406 131.561 45.2971C131.723 45.603 131.397 45.9978 131.204 46.2066C130.962 46.4713 130.684 46.6948 130.38 46.8837Z" fill="#333333"/>
<path d="M134.877 31.8464C134.873 32.4845 134.907 33.1227 134.972 33.7535C135.24 36.3392 136.018 38.7742 137.625 40.8416C138.455 41.9099 139.46 42.8274 140.592 43.5663C140.96 43.8067 141.301 43.2163 140.935 42.9774C139.04 41.7393 137.532 39.9395 136.638 37.856C136.131 36.673 135.85 35.3974 135.693 34.124C135.608 33.4337 135.559 32.7382 135.555 32.0419C135.69 32.1118 135.815 32.2 135.918 32.3132C136.251 32.6801 136.249 33.2109 136.212 33.6756C136.177 34.113 136.858 34.1108 136.893 33.6756C136.943 33.0499 136.875 32.3912 136.455 31.8942C136.22 31.617 135.908 31.4288 135.569 31.3119C135.581 31.0244 135.602 30.7369 135.631 30.4502C135.775 29.0555 136.162 27.6858 136.847 26.4595C137.061 26.0765 136.474 25.7317 136.26 26.1154C135.392 27.6689 134.988 29.4077 134.897 31.17C133.865 31.0766 132.719 31.5038 132.341 32.5375C132.189 32.9499 132.847 33.1278 132.996 32.7191C133.258 32.003 134.186 31.7714 134.877 31.8464Z" fill="#333333"/>
<path d="M136.267 28.8902C136.108 30.2209 136.562 31.5994 137.486 32.5706C138.409 33.5411 139.775 34.0469 141.104 33.9484C141.538 33.9161 141.541 33.2338 141.104 33.2661C139.942 33.3522 138.777 32.9382 137.967 32.0883C137.157 31.2384 136.808 30.0467 136.947 28.8902C136.999 28.4557 136.318 28.4593 136.267 28.8902Z" fill="#333333"/>
<path d="M149.884 44.0848C150.858 45.1743 151.57 46.4793 151.797 47.9336C151.865 48.3659 152.521 48.1821 152.453 47.752C152.055 45.2052 150.251 43.1496 148.208 41.7093C145.812 40.0198 142.994 39.1045 140.513 37.5657C139.254 36.7842 137.913 35.4806 138.215 33.8448C138.295 33.4162 137.639 33.2316 137.56 33.6632C136.984 36.7731 140.436 38.395 142.701 39.5015C145.256 40.7506 147.95 41.921 149.884 44.0848Z" fill="#333333"/>
<path d="M145.186 54.4173C144.219 55.1621 143.093 55.6687 141.895 55.8944C141.465 55.9752 141.647 56.6325 142.076 56.5516C144.379 56.1186 146.436 54.6563 147.67 52.6683C148.929 50.6398 149.189 48.1232 148.484 45.8514C148.08 44.5501 147.372 43.3547 146.409 42.3916C146.098 42.0813 145.617 42.5636 145.927 42.8738C146.463 43.4091 146.91 44.0215 147.262 44.6839C147.252 44.6994 147.244 44.7163 147.236 44.7347C146.986 45.3478 146.699 46.0117 146.171 46.4374C145.736 46.7881 145.015 46.9616 144.55 46.5697C144.217 46.2889 143.733 46.769 144.068 47.052C144.726 47.6056 145.656 47.5777 146.368 47.1307C146.973 46.7513 147.346 46.1426 147.64 45.5059C148.063 46.5852 148.252 47.7571 148.179 48.9239C148.042 51.0942 146.897 53.0991 145.186 54.4173Z" fill="#333333"/>
<path d="M128.059 34.7909C127.617 33.794 127.15 32.7434 127.137 31.6325C127.124 30.5481 127.588 29.5416 128.16 28.6453C129.223 26.9808 130.644 25.5126 132.232 24.3459C133.125 23.69 134.079 23.1247 135.08 22.6519C135.475 22.4645 135.131 21.877 134.737 22.063C132.831 22.9637 131.09 24.2106 129.625 25.728C128.888 26.4905 128.211 27.322 127.631 28.2108C127.026 29.1387 126.54 30.1805 126.466 31.3009C126.376 32.6522 126.937 33.9285 127.471 35.135C127.65 35.535 128.236 35.1887 128.059 34.7909Z" fill="#333333"/>
<path d="M136.472 22.1977C138.359 21.25 140.501 21.0684 142.58 21.0647C143.663 21.0632 144.772 21.0801 145.803 21.447C146.741 21.7801 147.606 22.4101 148.648 22.2888C149.078 22.2388 149.083 21.5566 148.648 21.6066C147.579 21.7315 146.649 20.9684 145.659 20.6853C144.594 20.381 143.461 20.3751 142.362 20.3839C140.228 20.4008 138.06 20.6383 136.128 21.6088C135.737 21.8058 136.081 22.394 136.472 22.1977Z" fill="#333333"/>
<path d="M149.626 22.3805C151.652 22.3739 153.393 23.5973 154.91 24.8178C156.431 26.0404 158.048 27.316 159.068 29.0114C159.637 29.9576 159.934 31.0082 160.134 32.0867C160.346 33.2263 160.504 34.3769 160.682 35.5216C161.049 37.8721 161.419 40.2225 161.783 42.5737C161.985 43.8765 162.158 45.1889 162.076 46.51C161.997 47.7812 161.692 49.0281 161.206 50.2037C161.039 50.6088 161.697 50.7853 161.862 50.3853C162.306 49.3104 162.59 48.1826 162.713 47.0254C162.841 45.8204 162.752 44.6176 162.59 43.4207C162.255 40.9445 161.828 38.4779 161.443 36.0091C161.256 34.81 161.078 33.6094 160.879 32.4124C160.692 31.2898 160.442 30.1745 159.924 29.1533C158.982 27.2925 157.332 25.9228 155.75 24.6266C153.99 23.1849 152.006 21.6909 149.626 21.6983C149.188 21.6997 149.188 22.382 149.626 22.3805Z" fill="#333333"/>
<path d="M145.652 45.1956C145.696 44.9927 145.851 44.8787 146.045 44.8875C146.228 44.8956 146.385 44.7251 146.385 44.5464C146.385 44.3552 146.229 44.2133 146.045 44.2053C145.561 44.1839 145.098 44.5376 144.996 45.014C144.958 45.1941 145.049 45.3823 145.234 45.4331C145.403 45.4808 145.614 45.3772 145.652 45.1956Z" fill="#333333"/>
<path d="M133.829 35.488C133.796 35.4843 133.765 35.4843 133.735 35.4858C133.657 35.4799 133.578 35.5034 133.511 35.5497C133.356 35.6247 133.261 35.7946 133.201 35.9828C133.189 36.0159 133.177 36.049 133.167 36.0828C132.951 36.5871 132.856 37.2422 133.232 37.6032C133.432 37.8392 133.787 37.9164 134.054 37.7414C134.113 37.7024 134.153 37.6546 134.178 37.6017C134.423 37.2767 134.49 36.6856 134.428 36.3379C134.369 36.01 134.213 35.5328 133.829 35.488Z" fill="#333333"/>
<path d="M157.69 58.4294C156.922 58.7565 156.089 58.9168 155.256 58.908C154.418 58.8992 153.643 58.6837 152.859 58.4058C152.445 58.2595 152.267 58.9183 152.678 59.0631C153.553 59.3726 154.429 59.5954 155.365 59.5895C156.288 59.5836 157.185 59.3792 158.033 59.0175C158.435 58.847 158.089 58.2595 157.69 58.4294Z" fill="#333333"/>
<path d="M67.0937 28.6984C67.5221 28.7586 67.707 28.1014 67.2749 28.0411C66.3879 27.9161 65.6902 27.3544 65.2251 26.6045C64.6683 25.7068 64.5076 24.6768 64.5098 23.6342C64.5128 22.4439 64.6815 21.2595 64.7292 20.0707C64.7651 19.184 64.881 17.743 65.9874 17.5306C67.2411 17.2894 67.886 18.7856 68.2 19.7215C68.3386 20.1354 68.9967 19.9575 68.8559 19.5399C68.5199 18.54 68.0298 17.4512 67.0269 17.0137C67.0504 16.9586 67.0607 16.8975 67.0533 16.8351C67.0401 16.7226 66.991 16.6093 66.8978 16.5476C66.8853 16.3888 66.8971 16.2167 66.889 16.0763C66.8736 15.8058 66.8596 15.5359 66.8486 15.2654C66.8252 14.7059 66.8142 14.1449 66.8281 13.5847C66.8552 12.4812 66.9895 11.3901 67.3167 10.3336C67.4466 9.91382 66.79 9.73369 66.6608 10.152C66.2302 11.5423 66.1224 13.0039 66.1451 14.453C66.1561 15.1683 66.1972 15.8822 66.2405 16.5961C66.2449 16.6733 66.2507 16.7564 66.2639 16.8358C65.2662 16.8086 64.49 17.6261 64.2259 18.5951C64.0498 19.2407 64.0623 19.9192 64.0271 20.5817C63.9875 21.3213 63.9024 22.058 63.8584 22.7976C63.7813 24.0791 63.843 25.3862 64.4203 26.556C64.9434 27.6169 65.8883 28.5293 67.0937 28.6984Z" fill="#333333"/>
<path d="M67.762 24.6518C67.776 24.1533 67.6843 23.6637 67.4796 23.2086C67.3358 22.8895 66.8648 22.4035 66.8978 22.0058C67.3006 21.9477 67.2925 21.3007 66.8655 21.3272C66.7922 21.3316 66.7181 21.336 66.6447 21.3412C66.5303 21.3485 66.4048 21.3993 66.3512 21.5103C66.0974 22.0308 66.275 22.5204 66.5669 22.9829C66.9 23.51 67.1003 24.0188 67.0819 24.6525C67.0687 25.0907 67.7495 25.0907 67.762 24.6518Z" fill="#333333"/>
<path d="M73.7294 18.3046C73.0273 18.82 72.2357 19.4001 71.337 19.4699C70.6371 19.5243 69.8984 19.2531 69.5836 18.5914C69.3951 18.1951 68.8082 18.5414 68.996 18.9354C69.3848 19.7523 70.2967 20.161 71.1683 20.1581C72.2628 20.1544 73.2224 19.5163 74.072 18.8928C74.4219 18.6369 74.083 18.0451 73.7294 18.3046Z" fill="#333333"/>
<path d="M72.436 14.4332C72.1117 14.1398 71.629 14.6207 71.9547 14.9155C73.5262 16.3388 75.8011 15.9506 77.5164 15.0316C79.4598 13.9906 81.1632 12.1768 83.4558 11.946C83.8872 11.9026 83.8916 11.2203 83.4558 11.2637C81.2718 11.4835 79.6263 12.9495 77.8326 14.0597C76.2824 15.0199 73.9986 15.8485 72.436 14.4332Z" fill="#333333"/>
<path d="M88.3895 11.707C87.2634 10.3601 85.7734 9.36312 84.1088 8.81539C83.6921 8.67791 83.5131 9.33665 83.9276 9.47267C85.4851 9.98584 86.8562 10.9306 87.9082 12.1893C88.19 12.526 88.669 12.0415 88.3895 11.707Z" fill="#333333"/>
<path d="M88.7101 9.22424C89.0953 9.97636 89.2889 10.7939 89.2911 11.6387C89.2919 12.0776 89.9727 12.0783 89.972 11.6387C89.9698 10.6719 89.7387 9.73889 89.2985 8.87943C89.0975 8.48977 88.5098 8.83458 88.7101 9.22424Z" fill="#333333"/>
<path d="M91.5999 13.0796C92.3673 12.962 93.1713 13.1884 93.7699 13.6825C94.1052 13.9597 94.5894 13.4796 94.2512 13.2002C93.445 12.5341 92.4516 12.2635 91.4194 12.4216C90.9873 12.4885 91.1707 13.1458 91.5999 13.0796Z" fill="#333333"/>
<path d="M94.7354 16.4196C95.458 18.3878 95.5101 20.542 94.9474 22.5292C94.8418 22.1844 94.6643 21.8624 94.4097 21.5933C93.7663 20.9132 92.7385 20.7162 91.8985 21.1184C91.5038 21.3073 91.8486 21.8955 92.2418 21.7073C92.8324 21.4242 93.5763 21.6492 93.9864 22.1403C94.4522 22.6983 94.4735 23.4865 94.2402 24.1452C94.2131 24.2217 94.2138 24.29 94.2329 24.3489C93.9886 24.826 93.7047 25.2848 93.3819 25.7185C93.12 26.07 93.7098 26.4104 93.9695 26.0626C96.0354 23.2909 96.5834 19.4855 95.3913 16.2388C95.2416 15.83 94.5836 16.0065 94.7354 16.4196Z" fill="#333333"/>
<path d="M83.8072 0.980238C85.3112 2.13157 87.2252 2.41316 88.9595 3.0572C89.9397 3.42113 90.8442 3.95268 91.7246 4.51144C92.5851 5.05696 93.4486 5.62087 94.1478 6.37151C94.9027 7.18245 95.4081 8.23673 95.2981 9.3638C95.2556 9.80052 95.9364 9.79758 95.9789 9.3638C96.1895 7.20671 94.5278 5.57087 92.894 4.46071C91.9733 3.83505 91.0188 3.22997 90.0079 2.76091C89.0953 2.33743 88.132 2.06467 87.1724 1.77353C86.1035 1.44856 85.0485 1.07876 84.1513 0.392072C83.8028 0.124457 83.4632 0.717034 83.8072 0.980238Z" fill="#333333"/>
<path d="M96.9077 10.4107C97.2738 9.58289 97.4476 8.70432 97.3934 7.79855C97.3677 7.36257 96.6869 7.35963 96.7126 7.79855C96.7588 8.57787 96.6362 9.35057 96.3193 10.0667C96.1447 10.4644 96.7309 10.8114 96.9077 10.4107Z" fill="#333333"/>
<path d="M97.3926 12.3333C97.3787 12.3885 97.3823 12.4517 97.4124 12.523C97.7198 13.2545 98.0045 14.017 98.0991 14.8095C98.1923 15.5903 98.0742 16.3645 97.8585 17.1151C97.4176 18.651 96.7133 20.1258 95.9195 21.5072C95.7009 21.8881 96.2885 22.2322 96.5071 21.8513C97.3457 20.3919 98.0984 18.8156 98.5459 17.1872C98.763 16.3953 98.8724 15.5719 98.7726 14.7536C98.6699 13.9133 98.3948 13.1185 98.0683 12.3414C98.0008 12.1811 97.8533 12.1135 97.7132 12.1172C98.2583 11.6959 98.6611 11.1423 98.9083 10.4872C99.0631 10.0762 98.4058 9.89832 98.2524 10.3056C98.0331 10.8879 97.6303 11.3761 97.1094 11.7128C96.7624 11.9371 97.0485 12.4774 97.3926 12.3333Z" fill="#333333"/>
<path d="M67.4649 8.84707C67.2279 7.70236 68.1237 6.71571 68.9938 6.12093C69.4831 5.78641 70.0069 5.50703 70.5131 5.19898C71.0281 4.88578 71.516 4.53141 71.9943 4.16528C72.9415 3.44036 73.8673 2.68457 74.9384 2.14713C75.9603 1.63469 77.0872 1.30385 78.2236 1.17666C79.5016 1.03403 80.7891 1.13402 82.0275 1.4803C82.45 1.59867 82.6305 0.940657 82.2087 0.823024C79.8163 0.153986 77.2332 0.362049 74.9692 1.38105C73.7793 1.91701 72.7668 2.71912 71.739 3.50947C71.2174 3.91016 70.6877 4.29835 70.1243 4.63801C69.5719 4.9718 68.9982 5.2747 68.4758 5.65554C67.4062 6.43486 66.5215 7.63692 66.8098 9.02794C66.8978 9.45803 67.5537 9.2757 67.4649 8.84707Z" fill="#333333"/>
<path d="M86.7535 20.9594C86.8386 19.4522 85.835 17.987 84.4081 17.5083C83.5938 17.2348 82.6577 17.3084 81.8177 17.4032C81.0598 17.4885 80.277 17.6855 79.7694 18.2994C79.492 18.6347 79.9711 19.1199 80.2506 18.7817C80.6622 18.284 81.2916 18.1377 81.9086 18.0752C82.6349 18.0024 83.4353 17.9259 84.144 18.1391C85.3376 18.4979 86.1424 19.7301 86.0727 20.9594C86.0485 21.3976 86.7286 21.3961 86.7535 20.9594Z" fill="#333333"/>
<path d="M83.3077 23.1828C83.2761 23.1681 83.2431 23.1549 83.2071 23.1446C82.6268 22.974 82.1705 23.6445 81.9746 24.0952C81.7546 24.6018 81.6636 25.2966 81.9145 25.8112C82.1331 26.2597 82.5689 26.267 82.8858 26.0229C82.8998 26.0193 82.913 26.0156 82.9269 26.0112C83.1353 25.9457 83.2783 25.8208 83.3795 25.662C83.4852 25.509 83.5431 25.3193 83.5842 25.1363C83.6407 24.887 83.6752 24.6334 83.6906 24.379C83.7522 24.1776 83.7948 23.9732 83.7691 23.7592C83.7302 23.4453 83.5409 23.2453 83.3077 23.1828Z" fill="#333333"/>
<path d="M91.0137 29.057C91.1912 29.0209 91.3211 28.9254 91.4172 28.7967C91.6938 28.5063 91.762 27.977 91.7723 27.5314C91.8134 27.391 91.8427 27.2476 91.8412 27.1021C91.8376 26.7565 91.6219 26.4786 91.3387 26.4249C90.8164 26.225 90.3644 26.8249 90.1759 27.2417C89.9631 27.7101 89.8685 28.3549 90.1011 28.8364C90.305 29.2621 90.7122 29.279 91.0137 29.057Z" fill="#333333"/>
<path d="M87.5106 32.1677C87.9119 31.7641 88.5971 31.0605 88.2274 30.451C88.0667 30.1856 87.7542 30.0503 87.518 29.865C87.2641 29.6658 86.9927 29.4107 86.9303 29.0784C86.8569 28.6836 87.0866 28.241 87.2502 27.894C87.413 27.5491 87.6067 27.233 87.884 26.9691C88.2024 26.6662 87.7204 26.1846 87.4028 26.4868C86.8408 27.0213 86.3904 27.8873 86.2649 28.6542C86.1285 29.4864 86.6603 30.0893 87.2935 30.5414C87.3962 30.615 87.6537 30.7289 87.6471 30.8664C87.6397 31.0164 87.416 31.248 87.3272 31.3568C87.0756 31.6648 86.7829 31.9449 86.4586 32.1743C86.2972 32.2883 86.1292 32.3927 85.9553 32.4861C85.7925 32.5736 85.5885 32.6287 85.4359 32.7294C85.1248 32.9345 85.1535 33.3271 85.5071 33.4602C85.623 33.5036 85.7521 33.4484 85.8379 33.3727C85.8453 33.3661 85.8526 33.3595 85.8599 33.3529C85.8952 33.322 85.9208 33.2882 85.9384 33.2544C85.9612 33.2419 85.9803 33.2308 85.9883 33.2272C86.0632 33.1933 86.1373 33.158 86.2106 33.1205C86.372 33.0382 86.5283 32.947 86.6794 32.847C86.9773 32.6493 87.259 32.4214 87.5106 32.1677Z" fill="#333333"/>
<path d="M78.4906 35.3526C78.5002 35.9415 78.5317 36.5304 78.5867 37.1171C78.6337 37.6177 78.6542 38.1647 78.8413 38.6367C79.1788 39.4881 80.1046 39.7991 80.9586 39.7388C81.9182 39.6704 82.7831 39.2109 83.5343 38.6331C84.4345 37.9405 85.2268 37.1001 85.9348 36.2135C85.9495 36.2135 85.9634 36.2142 85.9781 36.215C86.416 36.2238 86.416 35.5415 85.9781 35.5327C83.4214 35.4834 80.3034 34.4159 79.3644 31.8302C79.36 31.8103 79.3534 31.7927 79.3453 31.7758C79.291 31.6206 79.2441 31.4596 79.2067 31.2935C79.1091 30.8656 78.4532 31.0472 78.5508 31.4751C78.5889 31.642 78.6344 31.8037 78.6872 31.9603C78.5413 33.0844 78.473 34.2181 78.4906 35.3526ZM79.2477 33.1116C80.4751 34.9813 82.8645 35.9304 85.1036 36.1598C84.4837 36.8972 83.7977 37.5993 83.0281 38.1669C82.2285 38.7566 81.142 39.3036 80.1296 38.9712C79.5691 38.7874 79.4121 38.3257 79.3394 37.7832C79.2536 37.1398 79.2089 36.4877 79.1847 35.8393C79.1502 34.9298 79.1736 34.0189 79.2477 33.1116Z" fill="#333333"/>
</svg>
