<svg width="344" height="357" viewBox="0 0 344 357" fill="none" xmlns="http://www.w3.org/2000/svg">
<g clip-path="url(#clip0_69_530)">
<path d="M204.184 354.973C204.223 342.531 200.596 329.466 197.621 323.725C196.601 321.758 195.414 319.766 195.3 317.554C195.259 316.746 195.361 315.916 195.133 315.139C194.63 313.43 192.699 312.48 192.058 310.819L191.629 310.109C191.659 310.061 191.687 310.009 191.713 309.957C191.936 309.492 191.917 308.952 191.895 308.436C191.706 303.744 191.828 299.038 192.262 294.363C192.305 293.905 192.351 293.438 192.255 292.987C191.965 291.607 190.529 290.833 189.619 289.753C188.594 292.661 186.939 295.398 185.311 298.046L184.4 298.958C182.663 301.094 180.024 302.253 177.487 303.336C175.575 304.152 173.645 304.971 171.702 305.768C161.471 309.951 150.815 313.465 139.92 312.375C137.524 312.136 135.158 311.675 132.805 311.166C126.157 309.733 119.591 307.928 113.144 305.768C108.83 304.322 104.569 302.72 100.376 300.959L97.7978 299.181C97.1552 298.617 96.5126 298.049 95.8806 297.47L95.1071 297.949C95.0629 297.603 94.533 297.533 94.2772 297.772C94.0229 298.01 93.9772 298.389 93.9468 298.736C93.6239 302.505 93.3011 306.274 92.9783 310.042C92.9707 310.138 92.9631 310.234 92.957 310.329L92.1332 312.031C91.6489 313.812 90.2298 315.182 89.4638 316.863C88.9811 317.922 88.7679 319.079 88.5578 320.224C86.7625 330.054 83.0577 345.143 81.2624 354.973V357H204.181L204.184 354.973Z" fill="#7CB4EA"/>
<path d="M187.406 254.188L188.559 239.34C189.253 240.665 189.872 241.881 190.181 242.577C190.744 243.847 192.239 248.84 193.375 252.733C205.149 249.819 218.169 246.36 226.944 244.148L227.176 243.891C227.113 243.59 227.086 243.276 227.101 242.953C227.288 238.725 227.629 232.004 228.054 223.976C222.239 210.247 219.838 189.066 213.99 175.352C212.672 172.261 211.118 169.241 210.342 165.972C210.135 165.098 209.976 164.192 209.512 163.423C209.054 162.663 208.335 162.102 207.633 161.557C206.483 160.668 205.335 159.778 204.185 158.889C204.185 158.889 203.246 157.786 201.961 156.941L201.967 156.885C199.658 154.835 196.369 154.42 193.302 154.039C182.902 152.745 172.168 150.608 163.801 144.321C162.397 143.266 160.681 142.032 159.047 142.682L158.788 142.727C158.642 144.068 158.704 145.441 158.666 146.817C158.666 146.817 158.336 147.951 157.512 148.535C156.687 149.12 152.184 151.75 146.987 153.957C141.79 156.164 138.884 157.361 138.49 157.574C138.095 157.787 136.343 158.831 136.343 158.831C133.967 156.764 132.206 154.1 130.474 151.472C129.772 150.406 129.069 149.339 128.367 148.273C126.871 146.002 125.375 143.731 123.879 141.46C123.464 140.828 123.043 140.188 122.688 139.52C122.533 139.229 122.39 138.933 122.265 138.63C122.128 138.296 122.012 137.955 121.926 137.603C121.472 135.761 122.017 134.592 123.17 133.082L123.502 132.569C123.502 132.566 123.502 132.565 123.502 132.562L123.374 132.542C121.887 131.876 119.37 133.474 118.318 134.713C117.37 135.831 116.908 137.261 116.54 138.687L116.304 138.69C109.41 141.621 106.401 141.994 98.9657 142.927C96.8324 143.194 94.6868 143.378 92.5611 143.705C90.0074 144.098 87.4904 144.699 84.9763 145.298C83.6394 145.617 82.2704 145.951 81.136 146.723L79.2798 148.731C74.6248 155.008 69.9682 161.286 65.3132 167.564C62.0195 172.006 58.7259 176.446 55.4322 180.888C50.5503 187.47 45.6334 194.093 39.6338 199.685L37.6984 194.131C37.071 188.558 33.9981 183.611 31.746 178.471C29.3355 172.971 27.8234 167.082 27.2844 161.104C27.222 160.401 27.1656 159.678 26.8474 159.05C26.4789 158.321 25.783 157.777 25.5165 157.006C25.5165 157.006 24.513 143.762 23.9694 140.746C23.7958 139.781 23.1258 139.224 22.2989 138.912C20.5402 138.249 18.0596 138.692 18.0596 138.692L4.92604 139.739L4.48292 139.773C3.62105 139.799 2.89166 140.486 2.55666 141.278C2.22014 142.07 2.19882 142.953 2.18055 143.812C2.06177 149.748 1.943 155.683 1.8227 161.621L1.84554 162.869C0.535989 169.319 3.38655 175.835 3.79008 182.403C4.08549 187.2 3.06678 192.001 3.30128 196.802C3.6043 203.04 5.995 208.964 8.3522 214.75C10.2328 219.366 12.1271 224.006 14.7538 228.245C16.6359 231.282 18.885 234.089 21.4112 236.618C22.3385 237.547 23.3192 238.449 24.4826 239.062C27.5326 240.669 31.2313 240.03 34.6133 239.35L37.441 238.898C40.5413 236.914 44.1639 235.936 47.5642 234.522C51.6162 232.836 55.3697 230.52 59.0228 228.093C66.4248 223.178 73.2223 219.074 79.9026 213.222L80.0335 210.816L80.1888 211.711C80.096 212.215 80.0015 212.718 79.9026 213.222L80.4492 213.208L80.9274 215.956C81.6964 219.537 82.4653 223.12 83.2343 226.702C83.8419 229.535 84.451 232.375 84.7555 235.257C85.0357 237.912 85.054 240.587 85.1027 243.256C85.3129 254.889 86.0834 266.51 87.4112 278.069C87.9929 283.142 88.7542 288.4 91.5789 292.661C92.7712 294.459 94.2848 296.004 95.8806 297.468C96.5126 298.048 97.1552 298.615 97.7978 299.179L100.376 300.957C104.569 302.719 108.83 304.32 113.144 305.766C119.591 307.926 126.157 309.731 132.805 311.165C135.158 311.672 137.524 312.134 139.92 312.374C150.813 313.465 161.471 309.951 171.702 305.766C173.647 304.971 175.576 304.152 177.487 303.334C180.023 302.251 182.663 301.092 184.4 298.956L185.311 298.045C186.939 295.395 188.594 292.66 189.619 289.751C190.109 288.359 190.456 286.925 190.583 285.443C191.123 279.166 187.679 273.241 186.975 266.979C186.71 264.617 186.838 262.231 186.977 259.86C186.989 259.661 187 259.462 187.012 259.262L187.111 257.992L170.583 259.262L168.687 258.45C173.578 257.463 172.142 257.543 176.382 256.673C179.593 256.013 183.356 255.157 187.406 254.188Z" fill="white"/>
<path d="M271.978 270.04L271.748 269.465C267.298 273.286 260.734 274.573 255.189 272.589C253.217 271.882 251.197 270.554 250.807 268.502L250.487 264.188C250.528 261.087 251.867 258.153 253.39 255.448C253.953 254.447 254.547 253.464 255.167 252.498C253.659 252.43 251.944 252.392 249.988 252.398C246.061 252.41 243.134 251.337 240.95 249.773L231.08 251.424L194.654 257.182C194.737 257.472 194.782 257.633 194.782 257.633C195.025 258.49 195.818 260.979 196.058 261.836C196.983 265.121 197.962 268.513 200.149 271.137C201.804 273.126 204.041 274.533 206.256 275.874C214.281 280.732 222.699 285.204 231.849 287.3C233.943 287.78 236.079 288.134 238.226 288.095C242.924 288.009 247.554 285.946 250.751 282.514L250.845 281.379C256.941 279.309 262.952 276.995 268.861 274.444C269.799 274.039 270.764 273.607 271.451 272.853C272.142 272.099 272.479 270.928 271.978 270.04Z" fill="white"/>
<path d="M183.101 72.5491C182.591 69.7882 180.875 67.4232 179.205 65.1614L177.635 60.2359C175.855 59.0769 174.154 57.7951 172.552 56.4025C170.801 54.8794 169.15 53.2123 167.158 52.0184C163.275 49.6899 158.54 49.3986 154.013 49.1681C150.787 49.0042 147.562 48.8404 144.337 48.675L140.957 50.1693C136.382 49.7309 131.668 50.8974 127.831 53.4186C125.842 54.7247 124.103 56.3661 122.375 57.9983C120.557 59.7171 118.737 61.4343 116.919 63.153C115.736 64.271 114.539 65.4057 113.669 66.7801C112.877 68.0316 112.384 69.4454 111.967 70.8652C111.216 73.4229 110.695 76.0487 110.412 78.6989L111.097 81.211C111.338 82.3229 112.054 83.2619 112.672 84.2191C115.104 87.9766 116.22 92.4183 117.048 96.8115L117.074 96.9085C117.96 95.8527 119.334 95.202 120.72 95.2323C121.12 95.2414 121.517 95.3081 121.9 95.4234C122.219 95.7329 122.561 96.053 122.915 96.3761C125.516 98.735 128.894 101.171 130.754 99.9925C134.062 97.8961 135.653 94.1735 135.516 92.0937C135.38 90.0139 137.765 86.355 138.566 84.4315C139.367 82.5065 140.984 79.333 142.632 78.1603C143.963 77.2138 147.588 73.6807 149.222 70.4223C152.166 69.2269 155.586 69.1799 158.532 70.3844C158.532 70.3844 159.517 71.1504 160.25 71.0321C160.982 70.9138 165.092 71.1747 165.092 71.1747C167.501 70.8364 170.172 71.023 172.033 72.584C172.544 73.0133 172.974 73.5306 173.364 74.0706C175.031 76.3809 175.999 79.1828 176.115 82.0256C176.115 82.0256 176.101 85.0125 176.097 87.8128L177.425 86.6629C179.034 84.5968 180.656 82.511 181.796 80.1552C182.94 77.7993 183.578 75.1219 183.101 72.5491Z" fill="#E2CEBC" stroke="#333333" stroke-miterlimit="10"/>
<path d="M165.77 116.819C162.449 117.233 158.642 117.057 155.331 116.561C155.245 118.533 155.616 121.241 155.972 123.182C156.326 125.107 156.679 127.031 157.032 128.956C157.331 130.581 157.813 132.451 159.33 133.117C160.408 133.592 161.68 133.269 162.718 132.713C165.313 131.324 166.944 128.677 168.369 126.109C169.659 123.783 170.898 121.382 171.415 118.776L171.806 117.442C170.151 116.192 167.833 116.562 165.77 116.819Z" fill="#FDD3D7"/>
<path d="M338.881 139.676L235.954 140.843C234.061 140.864 232.51 142.348 232.412 144.23C231.776 156.436 229.46 197.382 228.054 223.977C227.629 232.005 227.288 238.727 227.101 242.954C227.087 243.278 227.115 243.592 227.176 243.892L226.944 244.15C218.167 246.362 205.148 249.819 193.375 252.734C191.339 253.238 189.34 253.726 187.406 254.189C183.356 255.158 179.593 256.014 176.382 256.674C172.142 257.545 173.578 257.464 168.687 258.452L170.583 259.263L187.111 257.994L191.802 257.633L194.656 257.182L231.081 251.424L240.952 249.773L257.592 246.991L259.409 246.688C261.251 244.455 263.254 242.354 265.399 240.409L265.844 238.009C266.184 236.547 266.247 235.05 266.264 233.545C266.276 232.453 266.264 231.356 266.313 230.268C266.43 227.68 266.983 224.944 268.793 223.084C269.202 222.665 269.707 222.284 270.292 222.257C270.738 222.237 271.157 222.433 271.489 222.738L271.601 222.343C271.743 220.044 271.885 217.744 272.026 215.443C272.125 213.827 272.239 212.16 272.97 210.714C273.701 209.269 275.219 208.09 276.835 208.271C277.135 208.304 277.452 208.396 277.641 208.633C277.825 208.865 277.845 209.181 277.858 209.477C277.95 211.304 278.148 213.126 278.405 214.944L278.722 214.825C277.985 211.772 278.641 208.412 280.471 205.856C280.834 205.35 281.303 204.839 281.921 204.775C282.76 204.687 283.441 205.455 283.788 206.221C284.205 207.14 284.374 208.151 284.537 209.147C284.737 210.373 284.928 211.6 285.117 212.829L285.545 212.247C286.131 211.274 286.952 210.444 287.919 209.847C288.175 209.689 288.463 209.542 288.761 209.575C289.265 209.631 289.565 210.15 289.766 210.613C291.769 215.221 292.142 220.343 292.49 225.352C292.579 226.632 292.668 227.912 292.757 229.193C292.883 231.016 293.01 232.839 293.136 234.663L293.567 235.207C295.094 236.151 297.412 237.111 299.164 237.502C299.669 237.615 300.186 237.68 300.67 237.86C301.465 238.158 302.079 238.751 302.486 239.485L303.664 239.288L331.756 234.59C332.637 234.443 333.35 233.79 333.571 232.926L334.018 231.169C334.637 230.705 335.054 229.994 335.13 229.185L343.15 144.297C343.385 141.797 341.398 139.647 338.881 139.676Z" fill="#939597"/>
<path d="M30.0771 111.497C28.1325 111.522 26.185 111.271 24.309 110.76L24.5602 109.351C25.049 108.16 24.0912 106.778 22.8867 106.315C21.6807 105.853 20.3361 106.047 19.0555 106.22C14.8619 106.787 10.6287 107.066 6.397 107.056C4.86208 107.051 3.16271 107.068 2.02675 108.098C0.641057 109.354 0.723285 111.52 0.994332 113.366C2.28104 122.183 5.36002 130.867 4.92299 139.739L18.0566 138.692C18.0566 138.692 20.5371 138.249 22.2959 138.912C23.5811 134.276 27.6681 130.883 30.1517 126.699C32.0658 123.474 33.0129 119.783 33.8565 116.132C34.1656 114.794 34.3895 113.183 33.3982 112.23C32.5591 111.423 31.2435 111.482 30.0771 111.497Z" fill="#FDEEE7"/>
<path d="M176.117 92.3865C176.098 91.7448 176.095 89.8274 176.098 87.8129C176.101 85.0125 176.117 82.0256 176.117 82.0256C176.001 79.1828 175.033 76.3795 173.365 74.0707C172.975 73.5306 172.544 73.0133 172.034 72.584C170.173 71.0231 167.503 70.8365 165.094 71.1748C165.094 71.1748 160.984 70.9139 160.251 71.0322C159.519 71.1505 158.534 70.3844 158.534 70.3844C155.587 69.18 152.167 69.227 149.224 70.4224C147.59 73.6808 143.964 77.2138 142.633 78.1604C140.986 79.333 139.368 82.5065 138.568 84.4316C137.767 86.3566 135.38 90.014 135.517 92.0938C135.653 94.1735 134.063 97.8961 130.756 99.9926C128.897 101.171 125.518 98.735 122.917 96.3761C122.562 96.0546 122.221 95.7329 121.901 95.4235C121.519 95.3082 121.122 95.2415 120.721 95.2324C119.335 95.202 117.963 95.8528 117.076 96.9086C116.897 97.1195 116.738 97.347 116.604 97.5882C115.979 98.7108 115.856 100.043 115.897 101.326C116.036 105.719 118.018 110.027 121.268 113.001C121.744 113.437 122.267 113.847 122.819 114.208L123.15 117.849C123.514 124.929 123.846 127.899 123.497 132.563C123.497 132.566 123.497 132.568 123.497 132.571L123.165 133.084C122.012 134.593 121.467 135.763 121.921 137.604C122.008 137.956 122.123 138.298 122.261 138.631C122.385 138.935 122.529 139.23 122.684 139.522C123.04 140.189 123.459 140.829 123.875 141.462C125.37 143.733 126.867 146.004 128.362 148.275C129.064 149.341 129.768 150.407 130.47 151.474C132.201 154.101 133.963 156.765 136.338 158.833C136.338 158.833 138.091 157.789 138.485 157.575C138.88 157.361 141.785 156.166 146.982 153.959C152.179 151.752 156.682 149.121 157.507 148.537C158.333 147.953 158.662 146.818 158.662 146.818C158.701 145.442 158.637 144.07 158.783 142.729C158.858 142.044 158.986 141.369 159.213 140.705L159.385 139.86C159.674 139.827 159.964 139.78 160.248 139.713C162.376 139.221 164.156 137.808 165.788 136.363C167.949 134.451 170.009 132.39 171.617 129.995C174.215 126.127 175.523 121.562 176.793 117.083C178.008 112.796 179.226 108.243 178.017 103.955C178.02 103.956 176.161 93.9187 176.117 92.3865ZM171.416 118.776C170.9 121.382 169.66 123.783 168.371 126.109C166.945 128.677 165.314 131.326 162.72 132.714C161.681 133.269 160.41 133.592 159.332 133.117C157.815 132.45 157.332 130.581 157.034 128.956C156.68 127.031 156.327 125.108 155.974 123.182C155.618 121.241 155.246 118.533 155.333 116.561C158.642 117.057 162.45 117.231 165.771 116.819C167.835 116.562 170.151 116.191 171.809 117.442L171.416 118.776Z" fill="#FDEEE7"/>
<path d="M302.484 239.482C302.078 238.75 301.465 238.155 300.669 237.858C300.185 237.677 299.667 237.612 299.163 237.5C297.41 237.108 295.093 236.148 293.565 235.204L293.134 234.66C293.008 232.836 292.882 231.013 292.755 229.19C292.667 227.909 292.577 226.629 292.489 225.349C292.142 220.34 291.767 215.218 289.765 210.61C289.564 210.147 289.264 209.627 288.76 209.572C288.461 209.539 288.173 209.686 287.918 209.844C286.951 210.441 286.13 211.271 285.544 212.244L285.116 212.826C284.927 211.599 284.735 210.372 284.536 209.144C284.374 208.148 284.205 207.139 283.786 206.218C283.439 205.452 282.759 204.686 281.92 204.773C281.3 204.836 280.831 205.347 280.47 205.853C278.638 208.409 277.983 211.769 278.72 214.822L278.404 214.941C278.145 213.123 277.948 211.302 277.857 209.474C277.842 209.179 277.822 208.862 277.639 208.63C277.452 208.394 277.135 208.301 276.834 208.268C275.219 208.087 273.7 209.266 272.969 210.711C272.238 212.157 272.125 213.824 272.025 215.44C271.883 217.74 271.742 220.039 271.6 222.341L271.487 222.735C271.155 222.432 270.737 222.234 270.29 222.254C269.706 222.28 269.199 222.662 268.792 223.081C266.981 224.941 266.427 227.677 266.311 230.265C266.263 231.354 266.275 232.45 266.263 233.542C266.246 235.047 266.182 236.544 265.842 238.006L265.398 240.406C263.252 242.351 261.25 244.452 259.407 246.685C257.88 248.536 256.462 250.477 255.167 252.496C254.547 253.463 253.953 254.447 253.39 255.447C251.867 258.152 250.528 261.085 250.487 264.186L250.807 268.5C251.197 270.553 253.216 271.88 255.189 272.587C260.734 274.573 267.298 273.286 271.748 269.464C272.11 269.151 272.462 268.825 272.795 268.481C274.082 267.147 275.137 265.607 276.418 264.271C279.317 261.245 283.215 259.405 287.019 257.631L291.4 254.758C292.713 253.66 293.457 252.008 293.768 250.324L294.223 250.371C295.894 249.3 297.733 248.502 299.37 247.381C301.009 246.26 302.484 244.723 302.941 242.797C303.201 241.694 303.028 240.464 302.484 239.482Z" fill="#FDEEE7"/>
<path d="M22.9674 157.071C18.3307 159.024 13.1564 159.703 8.171 159.013C7.11727 158.868 6.66045 160.476 7.72636 160.623C13.2097 161.381 18.7144 160.661 23.8141 158.513C24.8023 158.095 23.9496 156.659 22.9674 157.071Z" fill="#333333"/>
<path d="M34.3895 238.545C31.7049 239.082 28.8056 239.652 26.1165 238.834C23.4014 238.009 21.3533 235.477 19.5717 233.407C15.6827 228.888 12.9676 223.642 10.6652 218.182C8.35372 212.703 5.88537 207.122 4.70677 201.27C4.10377 198.28 4.02001 195.282 4.21036 192.245C4.40679 189.114 4.79204 185.985 4.64891 182.843C4.34893 176.252 1.36436 169.726 2.65107 163.091C2.72112 162.728 2.57494 162.437 2.345 162.255C2.52621 162.121 2.6526 161.911 2.65869 161.621C2.73482 157.848 2.80944 154.075 2.88558 150.301C2.92364 148.44 2.96019 146.579 2.99826 144.717C3.00739 144.233 2.9678 143.451 3.04851 142.698C3.13835 142.729 3.2419 142.745 3.3561 142.741C9.68917 142.492 16.2308 142.609 22.3934 140.94C22.7284 140.849 22.908 140.62 22.9659 140.362C23.3664 141.01 23.3527 142.173 23.406 142.75C23.54 144.23 23.6451 145.712 23.7212 147.197C23.8719 150.166 23.8978 153.141 23.8065 156.113C23.7897 156.662 24.2176 156.929 24.6455 156.917C24.644 157.012 24.6638 157.117 24.7079 157.229C25.1145 158.235 26.0434 158.954 26.3007 160.014C26.5992 161.243 26.5885 162.589 26.7606 163.843C27.1245 166.492 27.6742 169.113 28.4097 171.684C29.1269 174.187 30.0238 176.634 31.0745 179.017C32.1039 181.354 33.2855 183.621 34.3331 185.95C35.5072 188.555 36.5167 191.284 36.8578 194.134C36.9842 195.187 38.6608 195.2 38.5329 194.134C37.9253 189.057 35.5072 184.565 33.3571 180.003C31.0562 175.123 29.4101 169.982 28.5589 164.653C28.3229 163.174 28.2254 161.685 28.0214 160.204C27.9316 159.544 27.7595 158.912 27.3986 158.344C27.0636 157.819 26.5565 157.372 26.3205 156.788C26.1621 156.395 25.8089 156.228 25.4662 156.233C25.4723 156.195 25.4769 156.157 25.4784 156.116C25.5865 152.649 25.5302 149.179 25.3079 145.717C25.2089 144.173 25.148 142.59 24.8891 141.064C24.7201 140.066 24.3181 139.203 23.5263 138.658C23.4684 138.601 23.3968 138.549 23.3085 138.505C24.8328 134.095 28.7097 130.895 31.0105 126.891C32.4952 124.309 33.4073 121.445 34.1321 118.572C34.6758 116.421 35.8909 113.108 33.7423 111.435C32.6155 110.557 31.1384 110.669 29.7908 110.667C28.1493 110.666 26.5322 110.454 24.9424 110.064C25.1267 109.976 25.2835 109.818 25.3673 109.575C25.9048 108.017 24.9074 106.373 23.4973 105.678C21.6762 104.78 19.5017 105.347 17.5922 105.573C15.4421 105.83 13.2828 106.01 11.1205 106.115C9.00698 106.218 6.86144 106.086 4.75702 106.27C3.04089 106.417 1.37045 107.049 0.564924 108.677C-0.15533 110.13 -0.0578752 111.816 0.158353 113.375C0.756789 117.702 1.82271 121.949 2.69219 126.224C3.54949 130.437 4.2134 134.699 4.10833 138.998C2.53382 139.326 1.65368 140.731 1.43898 142.299C1.16336 144.324 1.28822 146.451 1.24711 148.491C1.15879 152.868 1.072 157.244 0.983677 161.622C0.977586 161.898 1.0857 162.103 1.24711 162.238C1.14661 162.335 1.07047 162.47 1.03697 162.649C-0.17208 168.884 2.16075 174.878 2.83228 181.018C3.18251 184.225 2.89471 187.429 2.64955 190.631C2.40439 193.844 2.32369 197.016 2.82162 200.211C3.77942 206.347 6.3498 212.149 8.72223 217.847C11.1175 223.603 13.8462 229.132 17.8541 233.96C19.8565 236.374 22.1619 239.164 25.1906 240.285C28.2772 241.428 31.7079 240.781 34.8326 240.157C35.8909 239.943 35.4432 238.334 34.3895 238.545ZM12.3372 108.818C14.4096 108.53 16.5034 108.345 18.5972 108.339C19.7864 108.336 22.066 108.277 22.8547 109.44C18.8758 109.205 14.8924 109.067 10.9074 109.032C11.3824 108.956 11.8591 108.883 12.3372 108.818ZM23.5613 107.861C22.937 107.359 22.1406 107.036 21.3092 106.858C21.8452 106.869 22.3751 106.957 22.838 107.212C23.1273 107.373 23.3816 107.597 23.5613 107.861ZM2.64803 117.928C2.28866 116.136 1.89732 114.317 1.72677 112.495C1.60039 111.144 1.58059 109.423 2.80792 108.538C4.09615 107.609 6.08941 107.899 7.57713 107.885C6.62694 108.057 5.68132 108.243 4.74331 108.448C3.77485 108.66 2.77594 109.07 2.23841 109.953C1.67195 110.883 1.72677 111.992 1.85621 113.029C1.98716 114.081 3.66522 114.094 3.53122 113.029C3.43681 112.281 3.2358 111.226 3.82663 110.625C4.35806 110.086 5.34784 110.021 6.04982 109.889C6.2021 109.86 6.35437 109.832 6.50512 109.804C5.98587 110.385 5.66305 111.192 5.40723 111.899C4.7357 113.754 4.70981 115.807 5.25343 117.696C5.55037 118.726 7.16751 118.287 6.86906 117.253C6.4031 115.632 6.43964 113.93 7.02285 112.342C7.16599 111.951 7.34263 111.55 7.56647 111.197C7.85274 110.745 8.06745 110.696 8.57148 110.687C9.5841 110.672 10.5982 110.692 11.6109 110.702C15.4405 110.746 19.2672 110.889 23.0893 111.119C23.5522 113.172 23.575 115.302 23.0877 117.359C22.9461 117.955 22.9035 118.361 22.2335 118.481C21.6503 118.587 21.0518 118.644 20.4625 118.703C19.258 118.823 18.0505 118.885 16.8415 118.902C16.8247 118.902 16.808 118.903 16.7912 118.905C16.7455 118.838 16.6998 118.774 16.6526 118.709C16.6785 118.66 16.7014 118.609 16.7196 118.553C17.0394 117.548 18.3779 117.46 19.2489 117.383C20.3148 117.289 20.324 115.62 19.2489 115.714C18.6946 115.763 18.1251 115.84 17.5891 115.983C17.5876 115.98 17.5861 115.977 17.583 115.974C17.1232 115.302 16.5933 114.684 15.9796 114.147C15.64 113.85 15.1299 113.814 14.7949 114.147C14.4904 114.451 14.4538 115.029 14.7949 115.328C15.2685 115.742 15.6948 116.2 16.0588 116.711C15.8365 116.888 15.64 117.098 15.4756 117.344C15.2213 117.098 14.9533 116.864 14.6716 116.646C13.831 115.993 12.6372 117.166 13.4869 117.826C15.7969 119.618 17.0714 122.368 16.8993 125.283C16.8354 126.356 18.5119 126.353 18.5743 125.283C18.6703 123.656 18.3596 122.026 17.7049 120.55C18.6992 120.519 19.6905 120.452 20.6803 120.349C20.0346 120.93 19.4758 121.606 19.0235 122.36C18.4693 123.284 19.9159 124.124 20.4701 123.202C21.1797 122.022 22.1741 121.122 23.406 120.506C23.8202 120.299 23.8993 119.915 23.7791 119.583C24.0806 119.347 24.3272 119.02 24.4963 118.547C24.5587 118.372 24.615 118.195 24.6683 118.016C26.2063 119.046 28.1097 119.39 29.9507 118.929C30.9953 118.668 30.5522 117.057 29.5061 117.319C27.9118 117.718 26.2505 117.297 25.0429 116.195C25.2272 114.734 25.1632 113.216 24.9241 111.77C26.0099 112.018 27.1138 112.186 28.2254 112.271C29.4665 112.365 30.8537 112.122 32.0643 112.442C33.2901 112.767 33.3799 113.959 33.2246 115.035C33.0373 116.335 32.6551 117.636 32.317 118.906C31.6074 121.576 30.7075 124.209 29.2502 126.574C28.0001 128.603 26.4286 130.408 24.9866 132.299C23.3679 134.423 21.9198 136.706 21.3274 139.34C21.3153 139.394 21.3092 139.447 21.3061 139.499C16.2095 140.77 10.8602 140.843 5.60823 140.998C5.66 140.899 5.69503 140.782 5.70416 140.65C6.26453 132.936 4.14945 125.418 2.64803 117.928ZM4.02763 140.731C4.02915 140.851 4.05351 140.955 4.09615 141.045C3.9317 141.051 3.76724 141.057 3.60278 141.063C3.72004 140.923 3.86165 140.81 4.02763 140.731Z" fill="#333333"/>
<path d="M38.3593 197.846C39.4754 204.777 39.0049 211.902 37.0421 218.639C36.7406 219.672 38.3562 220.114 38.6577 219.082C40.4485 212.935 41.0043 206.509 40.3419 200.164C46.1389 194.714 50.9371 188.342 55.6606 181.976C60.8516 174.981 66.038 167.982 71.2275 160.985C74.1527 157.041 77.0764 153.099 80.0015 149.154C80.6426 148.29 79.1899 147.457 78.5549 148.313C73.4203 155.236 68.2856 162.159 63.1509 169.083C58.1868 175.777 53.3491 182.593 48.1398 189.101C45.6227 192.245 42.9686 195.285 40.0815 198.098C40.048 197.866 40.0114 197.634 39.9749 197.403C39.8043 196.344 38.1902 196.793 38.3593 197.846Z" fill="#333333"/>
<path d="M81.5563 147.445C82.5933 146.771 83.7536 146.453 84.9459 146.165C86.2859 145.84 87.6274 145.523 88.9735 145.232C91.6535 144.651 94.3457 144.288 97.0684 143.986C101.321 143.513 105.663 143.073 109.797 141.929C111.691 141.404 113.534 140.725 115.353 139.983C115.122 140.96 114.909 141.94 114.706 142.921C113.33 149.564 112.565 156.339 112.434 163.121C112.36 167.011 112.498 170.903 112.836 174.779C112.887 175.354 113.528 175.889 114.097 175.5C117.36 173.259 119.762 170.131 122.524 167.352C125.097 164.763 128.313 162.349 132.12 162.263C133.197 162.238 133.2 160.57 132.12 160.594C123.998 160.779 120.065 168.66 114.388 173.212C113.965 167.429 113.995 161.618 114.495 155.84C114.764 152.716 115.172 149.605 115.717 146.518C116.243 143.549 116.771 140.479 117.721 137.612C118.152 136.312 118.822 135.186 119.932 134.356C120.493 133.938 121.242 133.451 121.999 133.29C121.527 133.994 121.138 134.749 120.997 135.596C120.8 136.771 121.071 137.947 121.528 139.032C122.034 140.23 122.769 141.304 123.483 142.387C124.307 143.639 125.132 144.89 125.956 146.142C127.558 148.572 129.139 151.017 130.767 153.431C132.113 155.427 133.553 157.376 135.313 159.028C134.879 159.594 134.557 160.24 134.404 160.982C134.19 162.03 135.804 162.479 136.02 161.425C136.433 159.412 138.478 158.42 140.214 157.692C142.629 156.68 145.065 155.726 147.457 154.66C149.918 153.563 152.357 152.411 154.754 151.183C156.837 150.115 158.821 148.878 160.19 146.94C160.609 146.348 160.088 145.776 159.514 145.732C159.519 144.955 159.52 144.179 159.577 143.408C160.944 143.141 162.229 144.192 163.275 144.969C164.465 145.854 165.692 146.679 166.976 147.422C169.52 148.898 172.235 150.081 175.014 151.043C180.635 152.989 186.529 154.003 192.413 154.763C195.469 155.157 198.933 155.377 201.373 157.478C202.184 158.177 203.375 157.002 202.558 156.298C200.318 154.37 197.459 153.757 194.601 153.375C191.521 152.961 188.443 152.574 185.387 151.999C179.289 150.85 173.214 149.11 167.821 145.982C166.345 145.127 164.989 144.135 163.603 143.147C162.484 142.349 161.186 141.63 159.819 141.692C159.877 141.436 159.944 141.183 160.024 140.929C160.067 140.799 160.076 140.678 160.062 140.568C161.518 140.283 162.883 139.669 164.153 138.763C166.131 137.352 167.95 135.631 169.599 133.854C173.042 130.147 175.068 125.714 176.548 120.93C178.226 115.505 180.365 109.425 178.83 103.736C178.55 102.7 176.934 103.14 177.215 104.179C178.518 109.012 176.819 114.038 175.473 118.676C174.178 123.134 172.642 127.6 169.659 131.248C168.185 133.05 166.49 134.673 164.725 136.19C163.014 137.663 161.092 138.973 158.759 139.077C156.454 139.18 154.083 138.58 151.925 137.82C149.757 137.055 147.702 135.989 145.773 134.746C141.287 131.856 137.561 127.972 134.056 123.996C133.343 123.187 132.161 124.372 132.871 125.176C139.245 132.401 147.22 139.953 157.386 140.72C157.705 140.744 158.022 140.753 158.334 140.749C157.765 142.726 157.879 144.784 157.83 146.821C157.827 146.934 157.844 147.034 157.876 147.123C156.501 148.485 154.672 149.368 152.956 150.225C150.428 151.488 147.868 152.683 145.278 153.808C142.945 154.823 140.488 155.633 138.217 156.782C137.62 157.084 137.036 157.437 136.506 157.851C134.846 156.292 133.489 154.473 132.216 152.587C130.756 150.423 129.337 148.229 127.901 146.049C126.477 143.888 124.939 141.765 123.645 139.523C123.613 139.469 123.582 139.414 123.552 139.359C124.05 135.861 124.479 132.348 124.487 128.81C124.496 125.156 124.181 121.502 123.992 117.853C123.937 116.785 122.262 116.778 122.317 117.853C122.503 121.442 122.809 125.038 122.812 128.634C122.813 129.608 122.781 130.581 122.725 131.552C120.806 131.414 118.652 132.962 117.572 134.317C116.718 135.389 116.227 136.674 115.862 137.982C112.092 139.578 108.262 140.766 104.21 141.394C99.1393 142.181 93.994 142.465 88.9674 143.53C87.4736 143.847 85.9859 144.197 84.5028 144.557C83.178 144.877 81.8654 145.257 80.7142 146.005C79.8112 146.588 80.6487 148.033 81.5563 147.445Z" fill="#333333"/>
<path d="M80.6502 213.635C80.7477 213.487 80.7797 213.33 80.7599 213.178C83.111 200.991 83.5221 188.553 83.4597 176.173C83.4414 172.623 83.3866 169.074 83.3318 165.524C83.315 164.452 81.64 164.448 81.6568 165.524C81.8501 177.878 82.0405 190.278 80.6792 202.579C80.3 205.998 79.7899 209.402 79.1366 212.781C74.3537 216.933 69.114 220.481 63.8179 223.945C58.3437 227.529 52.9501 231.461 46.8409 233.92C43.5274 235.253 40.0602 236.26 37.0162 238.176C36.1071 238.748 36.9462 240.192 37.8613 239.617C40.6312 237.874 43.7558 236.911 46.783 235.728C49.8437 234.531 52.7476 233.012 55.5494 231.304C58.3695 229.586 61.0983 227.717 63.8621 225.91C66.5299 224.165 69.1977 222.418 71.8031 220.582C74.7329 218.519 77.5773 216.338 80.2833 213.991C80.4401 213.93 80.5711 213.814 80.6502 213.635Z" fill="#333333"/>
<path d="M270.167 243.754C270.389 243.798 270.612 243.787 270.813 243.671C270.986 243.569 271.152 243.37 271.198 243.171C271.292 242.757 271.073 242.237 270.613 242.144C270.412 242.105 270.211 242.064 270.012 242.025C269.789 241.981 269.567 241.991 269.366 242.108C269.192 242.21 269.027 242.408 268.981 242.607C268.886 243.021 269.106 243.542 269.566 243.634C269.767 243.675 269.968 243.715 270.167 243.754Z" fill="#333333"/>
<path d="M286.349 254.247C285.506 254.725 284.59 254.984 283.616 254.964C282.722 254.948 281.863 254.706 280.963 254.785C279.206 254.939 277.581 255.823 275.804 255.783C274.726 255.759 274.726 257.428 275.804 257.452C277.764 257.495 279.524 256.434 281.46 256.428C282.41 256.425 283.319 256.695 284.275 256.609C285.315 256.515 286.287 256.199 287.193 255.686C288.132 255.159 287.289 253.716 286.349 254.247Z" fill="#333333"/>
<path d="M244.876 280.249C243.869 279.873 243.036 279.16 242.287 278.411C240.698 276.819 239.397 274.987 238.365 272.993C237.87 272.039 236.425 272.883 236.918 273.835C238.083 276.083 239.607 278.203 241.462 279.938C242.295 280.718 243.225 281.402 244.3 281.81C245.589 282.298 246.996 282.333 248.358 282.353C249.437 282.37 249.437 280.701 248.358 280.684C247.189 280.669 245.984 280.665 244.876 280.249Z" fill="#333333"/>
<path d="M199.765 169.38C197.755 172.619 196.783 176.323 196.06 180.028C195.251 184.175 194.56 188.348 193.881 192.518C192.503 200.998 191.297 209.504 190.156 218.019C189.503 222.885 188.873 227.753 188.244 232.623C188.107 233.684 189.783 233.675 189.919 232.623C192.093 215.807 194.285 198.984 197.333 182.3C198.096 178.129 198.943 173.88 201.211 170.224C201.779 169.306 200.331 168.467 199.765 169.38Z" fill="#333333"/>
<path d="M338.541 138.845C335.336 138.882 332.13 138.918 328.925 138.954C322.526 139.027 316.128 139.1 309.728 139.171C301.758 139.262 293.788 139.352 285.818 139.443C277.956 139.532 270.094 139.62 262.232 139.71C256.156 139.778 250.081 139.848 244.005 139.916C241.34 139.946 238.668 139.927 236.003 140.007C234.106 140.065 232.426 141.195 231.8 143.009C231.362 144.279 231.486 145.875 231.415 147.21C231.24 150.461 231.062 153.711 230.883 156.962C230.382 166.088 229.875 175.213 229.371 184.339C228.813 194.469 228.255 204.6 227.709 214.731C227.613 216.509 227.517 218.286 227.422 220.064C224.855 212.943 223.264 205.46 221.529 198.118C220.474 193.655 219.41 189.189 218.135 184.782C216.917 180.569 215.423 176.501 213.638 172.494C213.022 171.111 212.413 169.723 211.907 168.292C211.434 166.95 211.194 165.553 210.757 164.204C210.345 162.93 209.55 162.014 208.51 161.193C207.275 160.218 206.02 159.263 204.776 158.3C203.936 157.649 202.742 158.822 203.591 159.48C204.663 160.31 205.737 161.14 206.809 161.971C207.735 162.689 208.7 163.388 209.105 164.532C209.529 165.727 209.71 167.003 210.112 168.209C210.517 169.429 211.006 170.616 211.514 171.797C212.434 173.93 213.418 176.031 214.231 178.207C214.971 180.189 215.624 182.202 216.229 184.228C218.823 192.945 220.559 201.884 222.866 210.675C224.06 215.226 225.388 219.763 227.211 224.109C226.949 229.041 226.693 233.973 226.454 238.906C226.39 240.227 226.306 241.548 226.268 242.871C226.262 243.07 226.271 243.266 226.289 243.458C218.555 245.412 210.841 247.446 203.113 249.421C200.095 250.192 197.076 250.963 194.053 251.717C194.051 251.644 194.042 251.566 194.02 251.486C193.281 248.86 192.425 246.315 191.49 243.751C190.631 241.395 189.636 238.912 189.45 236.389C189.495 235.832 189.063 235.567 188.624 235.591C188.181 235.558 187.732 235.823 187.775 236.389C187.324 241.949 186.919 247.513 186.558 253.08C186.547 253.256 186.582 253.402 186.651 253.52C183.986 254.153 181.317 254.766 178.64 255.347C175.243 256.084 171.873 256.958 168.466 257.648C167.803 257.783 167.605 258.89 168.267 259.172C169.242 259.59 170.113 260.134 171.18 260.052C172.552 259.946 173.925 259.841 175.297 259.735C178.96 259.455 182.62 259.172 186.282 258.892C186.225 258.996 186.187 259.121 186.177 259.263C186.014 262.05 185.845 264.843 186.223 267.619C186.566 270.14 187.3 272.578 188.025 275.011C188.758 277.475 189.52 279.976 189.739 282.549C189.957 285.093 189.559 287.553 188.667 289.941C187.65 292.661 186.107 295.158 184.592 297.625C184.492 297.788 184.457 297.949 184.467 298.098C184.245 298.061 184.009 298.133 183.813 298.368C182.192 300.304 179.908 301.39 177.63 302.374C174.981 303.519 172.319 304.641 169.636 305.707C164.314 307.823 158.867 309.713 153.231 310.808C147.561 311.91 141.834 312.027 136.146 310.988C130.429 309.942 124.765 308.471 119.2 306.81C112.885 304.926 106.678 302.699 100.603 300.153C99.6098 299.738 99.1774 301.352 100.158 301.763C104.92 303.758 109.771 305.567 114.693 307.168C114.464 307.295 114.286 307.52 114.252 307.841C113.86 311.667 113.377 315.496 113.168 319.337C113.118 320.27 113.086 321.204 113.086 322.137C113.086 322.237 113.083 322.344 113.08 322.451C108.777 321.077 104.487 319.39 100.604 317.084C98.7784 316 97.0577 314.737 95.5944 313.195C94.9899 312.556 93.9163 311.59 93.8036 310.672C93.7321 310.088 93.8737 309.431 93.9239 308.85C93.9788 308.205 94.0336 307.561 94.0899 306.916C94.2133 305.478 94.3366 304.04 94.4599 302.602C94.5193 301.907 94.5787 301.214 94.6381 300.519C94.6716 300.121 94.7066 299.726 94.7401 299.328C94.7523 299.179 94.763 299.031 94.7782 298.882C94.7828 298.815 94.7904 298.749 94.7995 298.682C95.133 298.806 95.5335 298.721 95.7695 298.488C96.2461 298.919 96.7288 299.345 97.2115 299.768C98.0171 300.476 99.2063 299.301 98.3962 298.588C96.4288 296.858 94.4097 295.111 92.8413 292.998C91.3048 290.926 90.2998 288.552 89.6298 286.074C88.9674 283.623 88.6096 281.102 88.3142 278.584C87.9716 275.673 87.6716 272.755 87.4051 269.837C86.8691 263.993 86.4747 258.138 86.2219 252.276C86.094 249.32 86.0042 246.363 85.9494 243.405C85.8961 240.494 85.8793 237.575 85.5337 234.68C85.1636 231.573 84.4845 228.518 83.8297 225.461C83.1338 222.218 82.4379 218.974 81.742 215.731C81.5167 214.681 79.9011 215.126 80.1264 216.174C81.3477 221.867 82.7943 227.565 83.6729 233.322C84.1145 236.218 84.1997 239.142 84.25 242.067C84.3018 245.071 84.3779 248.071 84.4967 251.073C84.7327 257.037 85.118 262.992 85.6479 268.937C85.9113 271.885 86.2097 274.828 86.5447 277.767C86.8402 280.361 87.1584 282.965 87.7599 285.51C88.4086 288.253 89.4075 290.96 91.0094 293.3C91.9124 294.618 92.9722 295.803 94.1051 296.921C93.9057 297.007 93.7168 297.142 93.5615 297.336C93.1717 297.82 93.1428 298.435 93.091 299.031C93.021 299.824 92.9555 300.618 92.887 301.411C92.7514 302.998 92.6159 304.584 92.4789 306.171C92.4149 306.914 92.3509 307.659 92.2885 308.403C92.2215 309.181 92.0708 310.001 92.1302 310.784C92.1423 310.934 92.1667 311.082 92.2032 311.227C91.8424 311.194 91.4647 311.364 91.3322 311.808C90.8891 313.296 89.8247 314.463 89.0771 315.796C88.3081 317.166 88.0035 318.665 87.7218 320.192C87.2361 322.83 86.694 325.456 86.1367 328.081C84.8834 333.977 83.5419 339.854 82.2796 345.747C81.6385 348.742 81.0142 351.739 80.4629 354.75C80.2711 355.8 81.8852 356.251 82.0786 355.193C84.1404 343.941 87.0244 332.855 89.1547 321.615C89.4745 319.929 89.6694 318.16 90.5237 316.638C91.3003 315.255 92.3251 314.05 92.8535 312.545C93.2022 313.043 93.624 313.501 93.994 313.92C94.868 314.907 95.8532 315.787 96.8978 316.591C99.0068 318.214 101.35 319.489 103.762 320.604C106.878 322.045 110.092 323.27 113.371 324.291C113.416 324.36 113.468 324.425 113.529 324.484C114.086 325.033 115.248 325.057 115.972 325.211C116.916 325.412 117.86 325.613 118.804 325.814C119.267 325.913 119.68 325.673 119.817 325.261C119.856 325.312 119.905 325.361 119.964 325.408C121.289 326.455 122.798 327.105 124.394 327.635C126.209 328.237 128.056 328.753 129.914 329.205C133.66 330.115 137.476 330.726 141.316 331.065C142.39 331.159 142.384 329.49 141.316 329.396C137.719 329.079 134.153 328.502 130.642 327.664C128.945 327.258 127.263 326.794 125.598 326.269C124.042 325.779 122.443 325.25 121.147 324.226C120.713 323.883 120.184 324.035 119.893 324.352C120.101 319.886 120.053 315.414 119.737 310.953C119.663 309.888 117.986 309.879 118.062 310.953C118.368 315.291 118.425 319.642 118.234 323.986C117.77 323.888 117.306 323.788 116.841 323.689C116.416 323.598 115.991 323.509 115.567 323.418C115.379 323.378 115.189 323.325 115 323.296C114.863 323.275 114.79 323.272 114.753 323.273C114.775 323.261 114.795 323.231 114.776 323.164C114.671 322.788 114.761 322.225 114.764 321.837C114.767 321.444 114.775 321.051 114.787 320.657C114.814 319.772 114.865 318.888 114.93 318.005C115.18 314.609 115.582 311.221 115.929 307.834C115.94 307.729 115.932 307.633 115.912 307.55C121.994 309.483 128.178 311.098 134.427 312.345C137.914 313.041 141.386 313.38 144.872 313.337C144.317 313.688 143.835 314.14 143.506 314.722C142.757 316.044 142.999 317.753 143.008 319.208C143.031 322.692 143.054 326.175 143.076 329.66C143.084 330.734 144.759 330.735 144.751 329.66C144.732 326.673 144.712 323.688 144.692 320.701C144.683 319.3 144.52 317.799 144.698 316.409C144.863 315.135 145.915 314.519 147.066 314.193C147.561 314.053 147.718 313.613 147.634 313.224C149 313.126 150.369 312.972 151.744 312.753C157.59 311.823 163.247 309.968 168.75 307.834C169.573 307.514 170.396 307.186 171.215 306.855C171.213 306.93 171.223 307.007 171.242 307.089C172.719 312.922 173.332 318.921 173.077 324.93C173.053 325.519 173.63 325.819 174.137 325.734C175.846 325.45 177.525 325.05 179.176 324.531C179.555 324.413 179.758 324.108 179.791 323.727C179.898 322.519 179.96 321.31 179.98 320.101C182.16 318.627 184.301 317.098 186.398 315.507C187.412 314.737 188.417 313.956 189.41 313.163C190.076 312.632 190.839 312.11 191.487 311.511C192.041 312.52 192.868 313.268 193.622 314.159C194.062 314.68 194.37 315.237 194.435 315.924C194.519 316.804 194.435 317.677 194.583 318.556C195.046 321.336 196.821 323.712 197.896 326.276C200.136 331.621 201.501 337.389 202.401 343.097C203.019 347.022 203.355 350.991 203.351 354.964C203.349 356.038 205.024 356.04 205.026 354.964C205.032 348.137 204.06 341.286 202.378 334.673C201.688 331.966 200.876 329.279 199.853 326.676C199.456 325.666 199.031 324.663 198.548 323.689C197.845 322.268 196.998 320.904 196.512 319.385C196.215 318.459 196.139 317.564 196.133 316.596C196.127 315.739 196.033 314.918 195.635 314.144C194.942 312.797 193.459 311.98 192.871 310.586C192.791 310.393 192.663 310.256 192.512 310.167C192.835 309.348 192.734 308.422 192.705 307.526C192.661 306.127 192.644 304.728 192.655 303.33C192.676 300.633 192.8 297.936 193.025 295.247C193.132 293.978 193.318 292.737 192.573 291.613C192.034 290.798 191.248 290.205 190.564 289.519C191.131 287.785 191.478 285.988 191.483 284.111C191.493 278.875 189.177 274.036 188.148 268.983C187.492 265.761 187.664 262.513 187.854 259.251C187.866 259.054 187.817 258.893 187.732 258.769C189.34 258.646 190.968 258.594 192.562 258.341C193.06 258.262 193.56 258.183 194.058 258.105C194.489 259.587 194.974 261.053 195.396 262.54C196.045 264.825 196.742 267.126 197.878 269.225C200.244 273.605 204.74 275.982 208.898 278.402C213.296 280.959 217.817 283.32 222.545 285.213C224.907 286.158 227.319 286.982 229.776 287.635C232.338 288.316 234.986 288.885 237.647 288.92C242.787 288.987 247.832 286.816 251.349 283.094C251.666 282.758 251.629 282.349 251.425 282.053C255.923 280.515 260.376 278.851 264.777 277.051C265.836 276.618 266.893 276.178 267.947 275.73C268.966 275.298 270.051 274.911 270.983 274.307C272.553 273.291 273.573 271.477 272.731 269.667C274.655 267.827 276.112 265.56 278.123 263.79C280.838 261.399 284.194 259.858 287.447 258.341C288.423 257.886 287.573 256.446 286.602 256.9C283.923 258.15 281.222 259.414 278.809 261.135C277.631 261.976 276.523 262.909 275.547 263.974C274.45 265.169 273.508 266.495 272.399 267.678C268.903 271.41 263.528 273.238 258.46 272.525C255.931 272.17 252.251 271.135 251.62 268.268C251.39 267.22 249.775 267.663 250.004 268.711C250.606 271.448 253.335 272.927 255.826 273.658C258.486 274.439 261.323 274.517 264.043 274.01C266.688 273.517 269.231 272.416 271.385 270.809C271.726 272.325 269.381 273.308 268.312 273.77C266.365 274.611 264.403 275.422 262.433 276.208C258.538 277.763 254.602 279.212 250.632 280.563C250.012 280.774 249.934 281.46 250.201 281.88C250.19 281.891 250.178 281.901 250.167 281.913C247.201 285.052 243.059 287.029 238.721 287.233C236.16 287.355 233.624 286.877 231.15 286.262C228.857 285.694 226.602 284.976 224.39 284.145C219.848 282.437 215.505 280.236 211.29 277.846C209.216 276.671 207.149 275.469 205.142 274.186C203.196 272.942 201.338 271.519 200.045 269.579C198.633 267.458 197.854 265.016 197.155 262.589C196.698 261 196.191 259.426 195.728 257.839C197.173 257.61 198.62 257.382 200.065 257.153C208.204 255.867 216.343 254.581 224.483 253.293C228.286 252.692 232.086 252.084 235.883 251.45C237.789 251.131 239.694 250.812 241.6 250.494C241.523 250.811 241.61 251.166 241.966 251.389C243.014 252.046 244.143 252.499 245.331 252.757C244.631 253.139 243.935 253.531 243.251 253.942C240.477 255.614 237.832 257.69 236.368 260.645C235.893 261.606 237.337 262.452 237.815 261.487C239.158 258.777 241.55 256.917 244.096 255.383C244.733 254.999 245.381 254.634 246.033 254.276C246.708 253.906 247.43 253.393 248.197 253.264C249.101 253.111 250.099 253.24 251.014 253.256C251.89 253.271 252.767 253.288 253.642 253.303C251.564 256.621 249.753 260.28 249.656 264.175C249.628 265.249 251.303 265.249 251.331 264.175C251.446 259.54 254.305 255.192 256.843 251.475C258.905 248.455 261.253 245.643 263.834 243.055C263.997 242.983 264.103 242.867 264.163 242.727C264.763 242.135 265.375 241.554 265.998 240.986C266.796 240.259 265.608 239.082 264.813 239.805C264.195 240.368 263.589 240.945 262.993 241.533C257.735 242.286 252.476 243.038 247.218 243.79C243.563 244.314 239.909 244.836 236.254 245.359C234.623 245.593 232.881 245.922 231.284 246.067C229.977 246.186 228.703 245.509 228.176 244.286C227.833 243.493 227.958 242.615 227.996 241.776C228.06 240.374 228.129 238.974 228.197 237.572C228.377 233.907 228.567 230.242 228.759 226.577C228.799 225.82 228.84 225.065 228.88 224.308C228.939 224.179 228.953 224.026 228.904 223.853C229.355 215.318 229.818 206.784 230.287 198.25C230.824 188.448 231.366 178.647 231.908 168.848C232.312 161.551 232.718 154.253 233.11 146.956C233.18 145.658 232.98 143.848 233.79 142.766C234.369 141.994 235.243 141.679 236.173 141.664C237.148 141.647 238.123 141.641 239.097 141.63C243.856 141.576 248.614 141.523 253.373 141.468C260.548 141.386 267.722 141.306 274.897 141.224C282.9 141.133 290.904 141.042 298.906 140.952C306.151 140.87 313.394 140.788 320.64 140.706C325.528 140.652 330.416 140.596 335.305 140.54C336.385 140.527 337.466 140.515 338.546 140.503C340.787 140.477 342.506 142.052 342.308 144.374C342.042 147.492 341.719 150.605 341.425 153.719C340.798 160.36 340.17 167.003 339.543 173.644C338.797 181.543 338.051 189.441 337.305 197.339C336.654 204.223 336.004 211.109 335.354 217.993C335.014 221.59 334.675 225.186 334.335 228.783C334.283 229.329 334.187 229.816 333.782 230.255C333.72 230.323 333.653 230.382 333.584 230.437C333.531 230.465 333.481 230.502 333.435 230.544C332.911 230.881 332.255 230.93 331.637 231.025C329.071 231.421 326.504 231.819 323.938 232.214C316.626 233.345 309.312 234.475 302 235.605C300.625 235.817 299.25 236.03 297.875 236.242C297.697 236.189 297.52 236.131 297.343 236.068C296.18 235.643 295.055 235.115 293.995 234.473C293.986 234.467 293.975 234.463 293.966 234.458C293.964 234.426 293.961 234.394 293.96 234.361C293.698 230.578 293.462 226.791 293.165 223.011C292.892 219.533 292.499 216.019 291.44 212.679C291.033 211.399 290.48 208.817 288.769 208.727C287.927 208.683 287.153 209.304 286.544 209.81C286.215 210.083 285.915 210.385 285.638 210.708C285.559 210.208 285.481 209.707 285.4 209.207C285.149 207.658 284.925 205.79 283.716 204.648C282.58 203.574 281.076 203.814 280.103 204.971C279.317 205.906 278.723 206.981 278.312 208.128C278.209 207.985 278.078 207.858 277.907 207.747C277.292 207.348 276.448 207.348 275.752 207.482C274.341 207.755 273.135 208.777 272.416 209.988C271.42 211.664 271.305 213.682 271.187 215.578C271.067 217.53 270.947 219.483 270.826 221.435C268.443 220.871 266.582 224.519 266.051 226.392C264.996 230.113 265.865 234.026 265.041 237.773C264.812 238.819 266.426 239.267 266.657 238.216C267.312 235.233 266.94 232.201 267.231 229.188C267.356 227.896 267.63 226.568 268.201 225.393C268.545 224.686 269.636 222.667 270.676 223.157C271.282 223.442 271.458 224.22 271.559 224.816C271.7 225.646 271.758 226.497 271.853 227.333C272.034 228.932 272.214 230.532 272.395 232.131C272.581 233.78 272.768 235.43 272.954 237.079C273.126 238.598 273.423 240.171 273.342 241.703C273.249 243.445 272.392 245.066 271.673 246.623C270.913 248.267 270.115 249.892 269.287 251.503C268.795 252.457 270.24 253.302 270.733 252.345C271.563 250.735 272.36 249.109 273.12 247.465C273.857 245.87 274.693 244.241 274.941 242.484C275.186 240.746 274.843 238.959 274.647 237.23C274.438 235.38 274.23 233.531 274.02 231.682C273.805 229.783 273.59 227.883 273.375 225.984C273.241 224.793 273.141 223.468 272.416 222.507C272.43 222.451 272.44 222.394 272.444 222.33C272.552 220.579 272.66 218.83 272.768 217.08C272.868 215.452 272.861 213.756 273.304 212.174C273.659 210.909 274.457 209.625 275.777 209.196C276.03 209.114 276.352 209.029 276.62 209.076C277.12 209.163 277.022 209.44 277.048 209.885C277.099 210.727 277.169 211.565 277.257 212.404C277.942 218.908 279.645 225.247 280.481 231.727C280.945 235.324 281.109 238.959 280.689 242.568C280.566 243.633 282.241 243.624 282.364 242.568C283.221 235.198 281.598 227.888 280.234 220.682C279.899 218.914 279.582 217.142 279.319 215.362C279.503 215.18 279.606 214.915 279.532 214.592C278.904 211.846 279.425 208.923 280.986 206.572C281.28 206.129 281.754 205.357 282.366 205.702C282.944 206.03 283.189 206.877 283.352 207.465C283.788 209.034 283.951 210.698 284.201 212.303C285.212 218.814 286.075 225.346 286.791 231.894C287.202 235.65 287.563 239.412 287.878 243.178C287.966 244.239 289.643 244.25 289.553 243.178C288.916 235.571 288.085 227.984 287.06 220.42C286.722 217.925 286.361 215.431 285.981 212.941C286.09 212.878 286.191 212.785 286.271 212.655C286.623 212.092 287.037 211.588 287.538 211.15C287.785 210.933 288.055 210.711 288.345 210.555C288.734 210.346 288.779 210.473 288.965 210.848C289.641 212.207 290.051 213.756 290.398 215.226C291.109 218.23 291.368 221.312 291.587 224.384C292.067 231.118 292.522 237.855 292.99 244.59C293.217 247.865 293.546 251.768 290.811 254.16C289.999 254.87 291.187 256.046 291.995 255.341C293.29 254.209 294.022 252.759 294.414 251.189C294.49 251.167 294.569 251.134 294.648 251.084C296.789 249.732 299.181 248.766 301.104 247.085C302.72 245.673 304.046 243.625 303.888 241.403C303.856 240.955 303.771 240.514 303.638 240.089C303.717 240.097 303.801 240.097 303.89 240.081C307.725 239.44 311.563 238.798 315.398 238.156C320.538 237.296 325.675 236.438 330.815 235.579C331.203 235.514 331.596 235.465 331.981 235.383C333.947 234.971 334.355 233.261 334.772 231.606C335.036 231.379 335.27 231.107 335.468 230.779C335.832 230.173 335.94 229.504 336.006 228.818C336.126 227.551 336.245 226.285 336.365 225.018C336.896 219.393 337.428 213.768 337.959 208.145C338.695 200.354 339.432 192.562 340.167 184.771C340.887 177.15 341.608 169.527 342.328 161.906C342.805 156.855 343.283 151.803 343.759 146.752C343.837 145.935 343.93 145.118 343.991 144.3C344.224 141.119 341.606 138.81 338.541 138.845ZM191.329 292.82C191.615 293.476 191.431 294.274 191.371 294.959C191.303 295.756 191.242 296.552 191.19 297.35C190.992 300.442 190.928 303.541 191.001 306.637C191.02 307.403 191.111 308.19 191.07 308.955C191.029 309.733 190.577 310.067 190.012 310.534C188.902 311.453 187.776 312.353 186.637 313.237C184.466 314.923 182.24 316.534 179.972 318.088C179.881 314.008 179.302 309.944 178.25 305.991C177.974 304.953 176.357 305.393 176.634 306.434C178.081 311.872 178.587 317.495 178.16 323.1C177.046 323.431 175.919 323.707 174.78 323.932C174.934 318.114 174.282 312.295 172.852 306.65C172.811 306.49 172.739 306.365 172.646 306.273C174.363 305.564 176.073 304.839 177.78 304.11C180.411 302.985 183.117 301.787 184.993 299.547C185.18 299.324 185.227 299.073 185.185 298.844C185.491 298.905 185.824 298.808 186.034 298.465C187.461 296.141 188.902 293.74 189.942 291.206C190.494 291.689 191.05 292.183 191.329 292.82ZM188.23 253.077C188.474 249.321 188.739 245.567 189.023 241.814C189.272 242.54 189.534 243.259 189.792 243.972C190.75 246.61 191.641 249.226 192.402 251.927C192.421 251.993 192.445 252.052 192.472 252.105C191.058 252.455 189.642 252.803 188.224 253.143C188.225 253.121 188.229 253.1 188.23 253.077ZM255.241 250.863C255.019 251.192 254.795 251.525 254.573 251.862C254.44 251.738 254.257 251.656 254.024 251.653C252.917 251.633 251.812 251.613 250.705 251.594C249.768 251.577 248.78 251.471 247.854 251.639C247.758 251.657 247.662 251.68 247.568 251.704C247.437 251.501 247.218 251.351 246.913 251.328C245.611 251.234 244.386 250.853 243.256 250.227C247.95 249.441 252.645 248.657 257.339 247.871C257.361 247.868 257.384 247.863 257.405 247.86C256.654 248.84 255.932 249.84 255.241 250.863ZM231.278 247.747C233.067 247.596 234.861 247.24 236.636 246.987C244.02 245.931 251.404 244.874 258.788 243.818C259.56 243.707 260.332 243.596 261.104 243.487C260.141 244.525 259.214 245.596 258.325 246.698C258.168 246.368 257.825 246.11 257.368 246.186C250.987 247.252 244.606 248.32 238.225 249.387C234.325 250.039 230.425 250.687 226.519 251.304C218.598 252.555 210.677 253.808 202.755 255.06C199.649 255.551 196.541 256.043 193.435 256.533C192.868 256.622 192.3 256.704 191.735 256.801C191.667 256.806 191.6 256.814 191.531 256.818C191.068 256.85 190.607 256.889 190.144 256.924C186.308 257.219 182.473 257.514 178.637 257.809C176.948 257.938 175.259 258.068 173.572 258.199C174.955 257.868 176.338 257.537 177.729 257.244C181.501 256.448 185.255 255.568 189.002 254.664C197.567 252.596 206.098 250.383 214.63 248.176C218.66 247.132 222.691 246.087 226.728 245.066C227.524 246.748 229.26 247.917 231.278 247.747ZM299.547 246.222C298.085 247.38 296.367 248.168 294.746 249.088C294.828 248.079 294.816 247.059 294.761 246.072C294.677 244.579 294.578 243.088 294.473 241.597C294.627 241.743 294.841 241.83 295.073 241.861C295.723 241.944 296.357 241.796 296.941 241.515C297.349 241.319 297.458 240.74 297.241 240.374C296.998 239.959 296.504 239.878 296.095 240.075C295.993 240.124 295.77 240.192 295.652 240.209C295.507 240.23 295.256 240.216 295.071 240.194C294.8 240.159 294.552 240.321 294.397 240.546C294.299 239.186 294.199 237.829 294.101 236.47C295.559 237.249 297.136 237.871 298.727 238.257C299.646 238.48 300.588 238.53 301.28 239.244C301.837 239.821 302.143 240.621 302.208 241.412C302.373 243.375 301.004 245.068 299.547 246.222ZM331.523 233.784C331.172 233.856 330.815 233.903 330.461 233.962C328.421 234.303 326.379 234.645 324.338 234.986C318.753 235.92 313.166 236.855 307.581 237.788C306.201 238.018 304.821 238.249 303.442 238.48C303.233 238.514 303.084 238.605 302.985 238.727C302.612 238.173 302.128 237.704 301.541 237.363C305.574 236.74 309.607 236.116 313.64 235.494C319.909 234.525 326.176 233.557 332.445 232.588C332.573 232.568 332.698 232.544 332.823 232.518C332.608 233.126 332.258 233.634 331.523 233.784Z" fill="#333333"/>
<path d="M152.737 321.761C152.75 321.611 152.75 321.465 152.743 321.321C152.907 321.412 153.113 321.442 153.35 321.368C154.098 321.134 154.856 320.965 155.631 320.855C156.079 320.792 156.326 320.223 156.216 319.828C156.084 319.347 155.636 319.182 155.185 319.246C154.41 319.355 153.652 319.526 152.904 319.759C152.68 319.828 152.525 319.96 152.432 320.121C152 319.234 151.17 318.543 150.216 318.182C149.208 317.8 148.771 319.413 149.772 319.792C150.456 320.051 151.066 320.701 151.075 321.461C151.084 322.148 150.567 322.837 149.856 322.89C149.128 322.944 148.243 322.428 147.843 321.837C147.48 321.301 147.448 320.356 148.187 320.107C149.202 319.766 148.767 318.154 147.742 318.498C146.295 318.985 145.555 320.582 146.075 322.016C146.614 323.501 148.278 324.586 149.856 324.558C151.374 324.531 152.6 323.225 152.737 321.761Z" fill="#333333"/>
<path d="M142.618 332.759C143.015 335.694 143.145 338.687 143.04 341.645C143.002 342.719 144.677 342.718 144.715 341.645C144.824 338.531 144.651 335.403 144.234 332.314C144.09 331.256 142.476 331.708 142.618 332.759Z" fill="#333333"/>
<path d="M171.498 323.495C170.007 324.642 168.221 325.315 166.432 325.84C164.507 326.406 162.545 326.862 160.586 327.302C156.416 328.237 152.199 328.973 147.957 329.502C146.901 329.634 146.888 331.304 147.957 331.171C152.446 330.611 156.906 329.846 161.319 328.847C165.223 327.962 169.447 327.167 172.684 324.675C173.534 324.02 172.34 322.846 171.498 323.495Z" fill="#333333"/>
<path d="M120.858 113.756C123.019 115.655 125.903 117.01 128.816 116.233C129.856 115.956 129.414 114.346 128.371 114.624C124.236 115.726 120.465 111.59 118.691 108.366C117.686 106.541 117.019 104.496 116.811 102.423C116.608 100.425 116.636 98.0128 118.478 96.7537C120.406 95.4355 122.932 96.1712 124.007 98.1903C124.513 99.1399 125.959 98.2965 125.454 97.3484C124.301 95.1852 121.789 93.9822 119.378 94.5511C118.714 94.7073 118.125 94.9743 117.61 95.3248C117.126 92.9477 116.537 90.5873 115.658 88.3224C115.159 87.0345 114.58 85.7754 113.879 84.5816C113.191 83.409 112.241 82.3304 111.907 80.9894C111.649 79.9473 110.033 80.3887 110.292 81.4324C110.612 82.7203 111.397 83.7564 112.092 84.8607C112.867 86.094 113.514 87.4077 114.041 88.7639C115.041 91.3442 115.667 94.049 116.189 96.7613C115.577 97.6669 115.21 98.7592 115.098 99.9075C114.603 104.97 117.08 110.434 120.858 113.756Z" fill="#333333"/>
<path d="M131.33 100.593C132.885 100.05 133.826 98.6592 134.648 97.3227C135.213 96.4049 133.765 95.5661 133.201 96.4808C132.655 97.3697 132.062 98.4058 131.088 98.8897C130.153 99.3555 128.979 99.2068 128.181 98.5393C127.36 97.8537 126.169 99.0278 126.996 99.7195C128.196 100.721 129.822 101.12 131.33 100.593Z" fill="#333333"/>
<path d="M137.256 88.9991C139.46 85.7634 139.795 80.583 143.812 78.8809C144.8 78.4623 143.947 77.0242 142.967 77.4398C139.303 78.9917 138.383 83.0875 136.844 86.3308C135.976 88.1572 134.695 89.6332 133.31 91.088C132.708 91.719 132.059 92.5094 131.185 92.7566C130.132 93.0555 129.005 92.5124 128.068 92.0786C127.097 91.628 126.246 93.0661 127.223 93.5197C129.183 94.4283 131.213 95.0291 133.086 93.597C133.874 92.9933 134.543 92.2287 135.214 91.5006C135.947 90.7103 136.65 89.8881 137.256 88.9991Z" fill="#333333"/>
<path d="M158.311 71.1884C159.313 71.5858 159.747 69.9717 158.756 69.5789C155.249 68.1893 151.202 68.4229 147.849 70.1356C144.645 71.7724 142.6 75.2417 139.137 76.3961C138.12 76.7359 138.555 78.3469 139.582 78.0056C142.955 76.8815 144.934 73.8658 147.856 72.05C150.981 70.1068 154.91 69.8398 158.311 71.1884Z" fill="#333333"/>
<path d="M158.974 69.5909C159.368 70.5769 160.988 70.1461 160.589 69.1479C159.805 67.1865 158.598 65.4678 156.952 64.1298C156.123 63.4563 154.931 64.6304 155.767 65.31C157.178 66.4553 158.298 67.8979 158.974 69.5909Z" fill="#333333"/>
<path d="M166.236 65.1796C165.2 67.2062 163.991 69.5196 161.526 69.9565C160.466 70.1431 160.915 71.7526 161.97 71.566C164.87 71.0533 166.452 68.4274 167.681 66.023C168.17 65.0673 166.726 64.2224 166.236 65.1796Z" fill="#333333"/>
<path d="M172.316 74.0645C174.145 76.2793 175.139 79.1828 175.281 82.0256C175.334 83.095 177.009 83.1011 176.956 82.0256C176.791 78.7201 175.634 75.4465 173.501 72.8858C171.431 70.401 168.145 69.9353 165.094 70.3404C164.041 70.4799 164.026 72.1501 165.094 72.009C167.729 71.6586 170.519 71.8877 172.316 74.0645Z" fill="#333333"/>
<path d="M111.251 78.6988C111.576 75.7437 112.175 72.7856 113.127 69.9641C113.575 68.6383 114.17 67.3701 115.055 66.2748C115.984 65.1265 117.095 64.1359 118.166 63.1241C120.365 61.0474 122.533 58.9327 124.776 56.9045C126.89 54.9931 129.181 53.3048 131.861 52.2702C134.764 51.1507 137.859 50.7274 140.957 51.0035C142.03 51.0991 142.024 49.4304 140.957 49.3348C134.96 48.8009 129.273 50.8837 124.726 54.7292C122.264 56.812 119.978 59.1132 117.636 61.3265C115.373 63.4639 113.118 65.4784 111.918 68.4168C110.596 71.657 109.954 75.2355 109.575 78.6988C109.459 79.7652 111.135 79.7576 111.251 78.6988Z" fill="#333333"/>
<path d="M144.339 49.5108C147.211 49.6565 150.084 49.8036 152.956 49.9492C155.467 50.0767 157.996 50.1647 160.48 50.5894C162.94 51.0111 165.333 51.7651 167.414 53.1713C169.551 54.6139 171.328 56.5299 173.333 58.1394C175.643 59.9946 178.115 61.6299 180.728 63.027C181.678 63.5352 182.524 62.0941 181.573 61.5859C179.17 60.301 176.866 58.8235 174.731 57.1306C172.668 55.4938 170.836 53.5778 168.696 52.0351C164.548 49.0467 159.35 48.6113 154.398 48.3534C151.045 48.179 147.692 48.0121 144.339 47.8407C143.261 47.7861 143.264 49.4562 144.339 49.5108Z" fill="#333333"/>
<path d="M178.483 65.5831C180.734 68.6338 182.908 71.8361 182.319 75.812C181.734 79.7501 179.217 83.0161 176.835 86.0728C176.182 86.9117 177.359 88.101 178.02 87.253C180.645 83.8838 183.362 80.3387 183.973 75.9895C184.263 73.9143 183.988 71.8801 183.165 69.9535C182.357 68.0603 181.146 66.3917 179.931 64.7427C179.298 63.8841 177.843 64.7154 178.483 65.5831Z" fill="#333333"/>
<path d="M178.229 88.7881C176.188 86.7478 172.928 86.7508 170.909 88.8199C170.157 89.5906 171.34 90.7723 172.094 90.0001C173.482 88.5772 175.636 88.559 177.046 89.9683C177.805 90.7298 178.99 89.5496 178.229 88.7881Z" fill="#333333"/>
<path d="M147.989 89.0051C148.662 88.0873 150.259 87.5548 151.304 87.2348C152.484 86.8752 153.702 86.7023 154.935 86.7129C157.421 86.7342 159.816 87.5169 161.821 88.9778C162.692 89.6119 163.53 88.1647 162.666 87.5366C160.315 85.824 157.382 84.9699 154.476 85.0473C153.066 85.0852 151.643 85.3295 150.314 85.8043C148.95 86.2912 147.418 86.9663 146.542 88.1601C145.906 89.0324 147.358 89.8652 147.989 89.0051Z" fill="#333333"/>
<path d="M168.946 108.492C168.594 109.216 168.427 109.976 168.409 110.778C168.386 111.852 170.061 111.852 170.084 110.778C170.1 110.005 170.326 109.284 170.801 108.667C171.206 108.14 171.719 107.706 172.01 107.098C172.57 105.924 172.138 104.572 170.851 104.166C170.32 103.999 169.645 104.091 169.191 103.729C168.674 103.316 168.45 102.518 168.319 101.905C168.004 100.422 168.342 98.8367 168.949 97.4699C169.382 96.496 167.938 95.6465 167.503 96.6279C166.889 98.0084 166.478 99.4844 166.536 101.006C166.587 102.395 166.988 104.037 168.092 104.979C168.602 105.414 169.175 105.558 169.823 105.657C170.02 105.687 170.457 105.692 170.571 105.883C170.722 106.135 170.391 106.576 170.262 106.745C169.806 107.332 169.277 107.813 168.946 108.492Z" fill="#333333"/>
<path d="M154.183 100.25C154.24 100.895 154.377 101.669 154.812 102.175C154.843 102.21 154.875 102.244 154.908 102.276C155.226 102.678 155.616 102.904 156.017 102.863C156.863 102.775 157.425 101.526 157.273 100.076C157.121 98.6258 156.31 97.5214 155.464 97.6094C155.034 97.6534 154.68 97.9977 154.453 98.5135C154.116 98.9838 154.136 99.7089 154.183 100.25Z" fill="#333333"/>
<path d="M173.677 102.879C173.726 102.882 173.776 102.882 173.825 102.878C174.586 102.799 175.09 101.667 174.952 100.352C174.813 99.0367 174.084 98.034 173.324 98.1144C172.965 98.1523 172.665 98.4254 172.461 98.841C172.377 98.9305 172.308 99.0458 172.269 99.1899C171.947 100.332 172.084 101.488 172.62 102.542C172.814 102.922 173.301 103.023 173.677 102.879Z" fill="#333333"/>
<path d="M125.463 109.423C125.649 108.151 125.355 106.904 124.473 105.933C123.808 105.2 121.68 104.634 122.542 103.389C123.156 102.503 121.705 101.667 121.096 102.547C120.308 103.685 120.598 105.171 121.682 105.997C122.171 106.37 122.786 106.581 123.212 107.033C123.695 107.542 123.949 108.28 123.847 108.979C123.695 110.03 125.308 110.484 125.463 109.423Z" fill="#333333"/>
<path d="M156.818 162.127C153.853 166.316 151.494 170.912 149.778 175.741C147.392 173.776 146.388 170.56 145.167 167.818C143.844 164.844 141.957 161.873 138.709 160.788C137.684 160.447 137.246 162.058 138.265 162.397C141.429 163.453 142.97 166.848 144.161 169.686C145.446 172.751 146.822 175.974 149.782 177.789C150.264 178.084 150.847 177.787 151.013 177.289C152.437 173.01 154.386 168.922 156.818 165.119C158.036 163.214 159.371 161.381 160.822 159.644C162.26 157.924 163.952 156.386 165.228 154.538C166.589 152.569 167.203 150.095 166.146 147.857C165.687 146.886 164.242 147.733 164.699 148.699C165.94 151.328 163.712 153.96 162.041 155.768C160.171 157.787 158.406 159.881 156.818 162.127Z" fill="#333333"/>
<path d="M135.402 166.399C135.584 165.35 133.97 164.898 133.786 165.956C130.561 184.526 128.552 203.304 127.791 222.134C127.034 240.89 127.506 259.694 129.212 278.388C130.174 288.934 131.529 299.445 133.267 309.892C133.442 310.95 135.058 310.501 134.882 309.449C131.816 291.003 129.972 272.361 129.352 253.673C128.734 235.012 129.334 216.309 131.15 197.725C132.178 187.235 133.597 176.784 135.402 166.399Z" fill="#333333"/>
<path d="M148.012 192.462C146.956 192.3 146.503 193.908 147.567 194.072C158.334 195.731 169.159 194.104 179.82 192.444C180.881 192.279 180.431 190.671 179.375 190.834C169.037 192.442 158.456 194.072 148.012 192.462Z" fill="#333333"/>
<path d="M146.576 231.318C146.664 232.443 146.614 233.719 147.299 234.679C147.951 235.591 149.058 236.239 150 236.812C151.071 237.463 152.199 238.015 153.352 238.507C157.848 240.423 162.803 242.14 167.723 241.072C173.29 239.863 177.711 236.045 181.87 232.396C182.68 231.685 181.492 230.509 180.685 231.216C177.201 234.273 173.58 237.461 169.101 238.959C166.865 239.707 164.501 239.998 162.165 239.584C159.849 239.174 157.567 238.364 155.374 237.531C153.277 236.735 151.194 235.756 149.399 234.4C148.899 234.022 148.52 233.651 148.4 233.018C148.286 232.419 148.287 231.779 148.24 231.172C148.144 229.959 148.05 228.745 147.961 227.531C147.6 222.626 147.316 217.711 147.335 212.79C147.357 207.193 147.785 201.599 148.939 196.115C149.16 195.067 147.546 194.619 147.323 195.672C145.137 206.059 145.497 216.717 146.265 227.239C146.364 228.599 146.469 229.959 146.576 231.318Z" fill="#333333"/>
<path d="M185.226 219.866C185.76 211 185.829 202.112 185.428 193.239C185.379 192.169 183.704 192.163 183.753 193.239C184.154 202.112 184.085 211.001 183.551 219.866C183.485 220.939 185.16 220.936 185.226 219.866Z" fill="#333333"/>
<path d="M156.304 129.589C156.539 130.741 156.891 131.931 157.655 132.853C159.58 135.179 162.72 133.983 164.687 132.39C166.776 130.697 168.198 128.252 169.432 125.905C170.787 123.325 172.025 120.529 172.617 117.665C172.666 117.429 172.62 117.222 172.52 117.057C172.461 116.933 172.366 116.817 172.232 116.723C169.968 115.123 167.116 115.901 164.573 116.109C161.575 116.353 158.531 116.195 155.557 115.758C155.444 115.742 155.337 115.746 155.24 115.766C154.864 115.813 154.514 116.078 154.497 116.562C154.399 119.346 154.932 122.124 155.433 124.85C155.721 126.427 155.983 128.016 156.304 129.589ZM163.754 117.832C165.965 117.711 168.757 116.814 170.857 117.852C170.362 119.9 169.537 121.879 168.631 123.773C167.656 125.808 166.549 127.899 165.091 129.634C163.9 131.051 160.877 133.833 159.035 131.897C158.348 131.175 158.112 130.091 157.92 129.146C157.638 127.764 157.407 126.37 157.153 124.983C157.014 124.231 156.872 123.475 156.74 122.718C156.982 122.962 157.354 123.093 157.748 122.922C160.842 121.577 162.735 124.705 163.894 127.005C164.378 127.965 165.823 127.12 165.34 126.163C164.556 124.608 163.694 123.026 162.26 121.973C160.673 120.81 158.677 120.711 156.904 121.482C156.755 121.547 156.648 121.635 156.577 121.737C156.353 120.337 156.186 118.927 156.166 117.512C158.678 117.831 161.22 117.972 163.754 117.832Z" fill="#333333"/>
<path d="M78.5656 56.7892C76.7262 56.0611 74.675 55.8108 72.7168 56.1339C71.5473 54.9597 70.1814 53.9904 69.0242 53.3624C64.1864 50.735 58.5599 50.6682 53.1938 50.8639C52.1187 50.9034 52.1142 52.572 53.1938 52.5326C57.2077 52.3854 61.3252 52.3308 65.1975 53.5474C67.2167 54.1815 69.2328 55.2055 70.8423 56.6421C69.3531 57.2215 67.9735 58.2212 67.3385 59.6851C65.4914 63.9402 72.7457 67.6659 74.8958 63.429C75.8963 61.4569 75.2826 59.4257 74.0218 57.6615C75.377 57.6008 76.752 57.8632 78.0068 58.3532C81.6431 59.77 84.0536 63.1589 85.5276 66.6207C85.9478 67.6067 87.3899 66.7572 86.9742 65.7787C85.3311 61.9196 82.5689 58.3759 78.5656 56.7892ZM71.7879 63.6504C70.2789 63.6292 68.2506 62.229 68.7957 60.5376C69.2389 59.1602 70.7372 58.3684 72.1153 57.977C72.5112 58.47 72.8614 58.9994 73.1569 59.5652C73.8741 60.9427 74.0142 63.6808 71.7879 63.6504Z" fill="#E33C34"/>
<path d="M95.7451 81.7465C95.7451 83.1406 95.7451 84.5347 95.7451 85.9288C95.7451 87.0028 97.4202 87.0043 97.4202 85.9288C97.4202 84.5347 97.4202 83.1406 97.4202 81.7465C97.4202 80.6725 95.7451 80.671 95.7451 81.7465Z" fill="#333333"/>
<path d="M95.7451 92.9007C95.7451 94.2175 95.7451 95.5342 95.7451 96.8509C95.7451 97.9249 97.4202 97.9264 97.4202 96.8509C97.4202 95.5342 97.4202 94.2175 97.4202 92.9007C97.4202 91.8282 95.7451 91.8252 95.7451 92.9007Z" fill="#333333"/>
<path d="M93.3179 89.2721C92.0616 89.3161 90.816 89.4602 89.5811 89.6983C88.5243 89.9016 88.972 91.5096 90.0257 91.3078C91.116 91.0985 92.2078 90.9802 93.3164 90.9407C94.3929 90.9043 94.3975 89.2357 93.3179 89.2721Z" fill="#333333"/>
<path d="M103.581 89.2904C102.026 89.2676 100.472 89.2433 98.917 89.2206C97.8389 89.2039 97.8389 90.8726 98.917 90.8892C100.472 90.912 102.026 90.9363 103.581 90.959C104.659 90.9742 104.659 89.3055 103.581 89.2904Z" fill="#333333"/>
<path d="M132.644 27.122C131.848 27.8107 131.053 28.4994 130.256 29.1896C129.442 29.895 130.631 31.0722 131.441 30.3698C132.238 29.6811 133.032 28.9924 133.829 28.3022C134.643 27.5968 133.456 26.4196 132.644 27.122Z" fill="#333333"/>
<path d="M126.279 32.6346C125.528 33.2854 124.776 33.9362 124.025 34.587C123.211 35.2923 124.4 36.4695 125.21 35.7672C125.961 35.1164 126.713 34.4656 127.464 33.8148C128.278 33.1079 127.089 31.9323 126.279 32.6346Z" fill="#333333"/>
<path d="M124.298 28.789C125 29.3351 125.655 29.9328 126.261 30.5835C126.996 31.3724 128.178 30.1906 127.445 29.4033C126.839 28.7526 126.185 28.1549 125.483 27.6088C125.126 27.3312 124.645 27.2629 124.298 27.6088C124.009 27.8985 123.939 28.5114 124.298 28.789Z" fill="#333333"/>
<path d="M130.241 32.5481C129.545 31.7259 128.365 32.9121 129.057 33.7283C129.812 34.6203 130.567 35.5122 131.321 36.4042C132.017 37.2264 133.197 36.0401 132.506 35.224C131.752 34.3335 130.997 33.4401 130.241 32.5481Z" fill="#333333"/>
<path d="M233.807 78.5593C234.864 77.6446 235.919 76.7299 236.976 75.8151C237.791 75.1097 236.601 73.9326 235.791 74.6349C234.734 75.5497 233.679 76.4644 232.622 77.3791C231.808 78.0845 232.997 79.2602 233.807 78.5593Z" fill="#333333"/>
<path d="M225.533 85.7238C226.53 84.8591 227.527 83.996 228.526 83.1313C229.341 82.4259 228.152 81.2487 227.342 81.9511C226.344 82.8143 225.347 83.6789 224.348 84.5421C223.533 85.249 224.722 86.4262 225.533 85.7238Z" fill="#333333"/>
<path d="M224.71 76.4613C225.642 77.1864 226.512 77.9798 227.316 78.843C228.051 79.6318 229.233 78.4501 228.5 77.6628C227.696 76.7996 226.827 76.0047 225.895 75.2811C225.539 75.0035 225.057 74.9353 224.71 75.2811C224.421 75.5694 224.351 76.1822 224.71 76.4613Z" fill="#333333"/>
<path d="M234.036 86.5718C234.731 87.394 235.912 86.2077 235.22 85.3916C234.218 84.2068 233.216 83.0236 232.213 81.8388C231.517 81.0167 230.337 82.2029 231.028 83.0191C232.032 84.2038 233.034 85.387 234.036 86.5718Z" fill="#333333"/>
<path d="M85.2702 104.157C75.5019 105.24 65.9756 108.032 57.191 112.427C54.7104 113.668 52.2999 115.038 49.958 116.523C49.0519 117.098 49.891 118.542 50.8031 117.964C58.869 112.849 67.806 109.176 77.1495 107.153C79.831 106.572 82.5415 106.129 85.2702 105.825C86.33 105.707 86.3422 104.037 85.2702 104.157Z" fill="#333333"/>
<path d="M85.6144 99.1323C79.0133 98.4026 72.3513 98.4056 65.7518 99.1444C64.692 99.2627 64.6798 100.933 65.7518 100.813C72.3528 100.074 79.0133 100.071 85.6144 100.801C86.6848 100.919 86.6757 99.2491 85.6144 99.1323Z" fill="#333333"/>
<path d="M113.423 48.5156C113.313 46.6346 112.174 44.9917 110.382 44.3106C108.571 43.6219 106.429 44.1968 105.189 45.6728C103.936 47.164 103.73 49.3393 104.722 51.0262C105.713 52.713 107.683 53.5823 109.604 53.2531C111.792 52.8784 113.311 50.9579 113.427 48.8068C113.432 48.7659 113.435 48.7219 113.433 48.6764C113.435 48.6187 113.43 48.5672 113.423 48.5156ZM108.758 51.6633C107.118 51.6633 105.762 50.3056 105.759 48.6749C105.756 47.0441 107.123 45.6865 108.758 45.6865C110.429 45.6865 111.714 47.0441 111.758 48.6749C111.714 50.3056 110.429 51.6633 108.758 51.6633Z" fill="#D77A20"/>
<path d="M202.472 70.3493C201.219 71.8405 201.013 74.0158 202.005 75.7027C202.996 77.3895 204.965 78.2588 206.887 77.9296C209.075 77.5549 210.595 75.6344 210.71 73.4833C210.715 73.4424 210.718 73.3984 210.716 73.3529C210.718 73.2968 210.713 73.2437 210.706 73.1936C210.596 71.3126 209.457 69.6697 207.665 68.9886C205.854 68.2999 203.712 68.8748 202.472 70.3493ZM206.04 70.3645C207.71 70.3645 208.996 71.7221 209.04 73.3529C208.996 74.9836 207.71 76.3413 206.04 76.3413C204.4 76.3413 203.043 74.9836 203.04 73.3529C203.039 71.7206 204.406 70.3645 206.04 70.3645Z" fill="#7CB042"/>
<path d="M100.527 50.3558C100.549 50.2739 100.56 50.1813 100.554 50.0797C100.56 49.9781 100.549 49.887 100.527 49.8051C100.332 48.4414 99.2581 47.334 97.7978 47.334C96.2964 47.334 95.0492 48.59 95.0416 50.0797C95.034 51.5405 96.2431 52.7571 97.6927 52.8193C99.1941 52.8846 100.326 51.7559 100.527 50.3558ZM96.7166 50.0797C96.7166 48.6856 98.8043 48.6993 98.8789 50.0797C98.8043 51.4617 96.7166 51.4723 96.7166 50.0797Z" fill="#333333"/>
<path d="M190.123 27.9214C190.013 26.0403 188.874 24.3974 187.082 23.7163C185.271 23.0276 183.129 23.6026 181.889 25.0786C180.636 26.5697 180.431 28.7451 181.422 30.4319C182.413 32.1188 184.382 32.988 186.304 32.6588C188.492 32.2842 190.012 30.3637 190.127 28.2126C190.132 28.1717 190.135 28.1277 190.133 28.0822C190.133 28.0245 190.129 27.9714 190.123 27.9214ZM185.457 31.0691C183.817 31.0691 182.46 29.7114 182.457 28.0806C182.454 26.4499 183.822 25.0922 185.457 25.0922C187.128 25.0922 188.413 26.4499 188.457 28.0806C188.413 29.7114 187.128 31.0691 185.457 31.0691Z" fill="#333333"/>
<path d="M169.309 36.339C169.315 36.2373 169.304 36.1463 169.281 36.0644C169.086 34.7006 168.013 33.5933 166.552 33.5933C165.051 33.5933 163.804 34.8493 163.796 36.339C163.789 37.7998 164.998 39.0164 166.447 39.0786C167.947 39.1438 169.079 38.0137 169.28 36.6151C169.304 36.5331 169.315 36.4406 169.309 36.339ZM165.471 36.339C165.471 34.9449 167.559 34.9585 167.634 36.339C167.559 37.7194 165.471 37.7315 165.471 36.339Z" fill="#333333"/>
<path d="M208.77 58.6567C208.575 57.2929 207.502 56.1855 206.042 56.1855C204.54 56.1855 203.293 57.4416 203.285 58.9313C203.278 60.3921 204.487 61.6087 205.936 61.6709C207.436 61.7361 208.568 60.606 208.769 59.2073C208.792 59.1254 208.802 59.0329 208.796 58.9313C208.802 58.8296 208.792 58.7386 208.77 58.6567ZM204.96 58.9313C204.96 57.5372 207.048 57.5508 207.123 58.9313C207.047 60.3117 204.96 60.3223 204.96 58.9313Z" fill="#333333"/>
<path d="M195.656 47.7163C195.769 48.7737 197.446 48.7843 197.331 47.7163C196.936 44.0347 199.314 40.937 202.337 39.106C203.681 38.2914 205.349 37.4677 207.069 37.0217C206.789 38.5539 206.823 40.1391 207.444 41.5878C208.129 43.1852 209.681 44.4806 211.409 44.7977C215.438 45.5349 217.573 40.7489 215.367 37.7074C213.868 35.6428 211.656 34.9966 209.355 35.0937C210.76 31.3392 213.223 27.9927 216.235 25.3608C217.046 24.6509 215.859 23.4752 215.05 24.1806C211.752 27.0643 209.108 30.7915 207.64 34.9238C207.595 35.0542 207.549 35.1862 207.506 35.3182C206.133 35.5852 204.785 36.0509 203.598 36.5772C199.206 38.5205 195.102 42.545 195.656 47.7163ZM212.576 37.4222C213.87 38.1488 214.79 39.458 214.586 40.9871C214.404 42.3417 213.331 43.3793 211.916 43.1988C210.509 43.0183 209.273 41.8988 208.845 40.576C208.435 39.3123 208.531 37.985 208.846 36.7107C210.151 36.6 211.434 36.7805 212.576 37.4222Z" fill="#333333"/>
<path d="M230.663 99.8818C231.721 99.7619 231.733 98.0917 230.663 98.2131C219.807 99.4403 209.279 103.104 200.04 108.926C197.453 110.557 194.977 112.359 192.617 114.301C191.786 114.985 192.976 116.159 193.802 115.481C201.932 108.795 211.58 103.993 221.811 101.472C224.722 100.752 227.681 100.219 230.663 99.8818Z" fill="#333333"/>
<path d="M247.731 129.713C235.657 122.438 221.788 118.231 207.7 117.5C203.732 117.294 199.753 117.371 195.794 117.724C194.729 117.82 194.718 119.489 195.794 119.393C209.635 118.16 223.756 120.385 236.531 125.846C240.102 127.372 243.56 129.15 246.884 131.154C247.81 131.711 248.654 130.268 247.731 129.713Z" fill="#333333"/>
<path d="M153.213 8.979C152.373 14.2292 151.534 19.4794 150.693 24.7312C150.526 25.7809 152.138 26.2345 152.309 25.1741C153.149 19.9239 153.988 14.6737 154.829 9.42196C154.996 8.37222 153.382 7.91864 153.213 8.979Z" fill="#333333"/>
<path d="M165.042 8.8818C161.565 13.8059 158.598 19.0667 156.184 24.587C155.758 25.5624 157.2 26.4119 157.631 25.4289C160.044 19.9102 163.012 14.6493 166.488 9.72372C167.11 8.84387 165.659 8.00954 165.042 8.8818Z" fill="#333333"/>
<path d="M198.906 13.9C199.405 14.1989 200.24 13.8242 200.167 13.1795C200.01 11.8172 199.855 10.455 199.698 9.09275C200.729 8.19926 201.758 7.30577 202.789 6.41076C203.25 6.01028 203.019 5.13802 202.419 5.01666C201.079 4.74513 199.74 4.47511 198.4 4.20357C197.86 2.93842 197.319 1.67479 196.78 0.409635C196.527 -0.181982 195.615 -0.0864129 195.334 0.409635C194.668 1.58073 194.004 2.75183 193.339 3.92293C192.025 4.03822 190.709 4.15503 189.395 4.27032C188.673 4.33403 188.289 5.1365 188.803 5.69475C189.704 6.67319 190.604 7.65315 191.505 8.6316C191.207 9.92557 190.909 11.2211 190.609 12.515C190.435 13.2674 191.18 13.7559 191.839 13.4571C193.036 12.9125 194.234 12.3694 195.431 11.8248C196.59 12.5165 197.747 13.2083 198.906 13.9ZM193.29 5.59615C193.595 5.56884 194.006 5.58553 194.275 5.43231C194.545 5.2791 194.683 4.94385 194.83 4.68597C195.076 4.25211 195.321 3.81978 195.568 3.38592C195.698 3.15838 195.825 2.93235 195.955 2.70481C196.049 2.92628 196.145 3.14928 196.24 3.37075C196.448 3.85922 196.657 4.34768 196.866 4.83615C196.981 5.10768 197.059 5.40197 197.303 5.58856C197.539 5.7706 197.857 5.79183 198.142 5.84948C198.64 5.9496 199.137 6.05124 199.635 6.15136C199.881 6.20142 200.126 6.25148 200.372 6.30002C200.202 6.44716 200.031 6.59583 199.862 6.74297C199.46 7.09188 199.058 7.44078 198.656 7.78816C198.439 7.97778 198.172 8.15375 198.058 8.42681C197.938 8.712 198.015 9.01084 198.05 9.30816C198.108 9.81028 198.166 10.3139 198.224 10.816C198.254 11.0769 198.283 11.3363 198.314 11.5973C197.514 11.1194 196.715 10.6431 195.917 10.1653C195.624 9.9908 195.34 10.0151 195.117 10.147C195.102 10.1531 195.087 10.1577 195.072 10.1653C194.254 10.5369 193.435 10.9086 192.617 11.2802C192.666 11.0663 192.716 10.8524 192.765 10.6401C192.879 10.147 192.993 9.65403 193.106 9.16102C193.176 8.85611 193.315 8.4799 193.232 8.16892C193.156 7.88222 192.865 7.63495 192.669 7.42257C192.331 7.05547 191.993 6.68836 191.656 6.32126C191.492 6.14225 191.326 5.96173 191.161 5.78273C191.367 5.76453 191.572 5.74633 191.78 5.72812C192.279 5.68413 192.785 5.64014 193.29 5.59615Z" fill="#3B81C3"/>
<path d="M86.024 26.3302C86.5356 25.3426 87.0473 24.3551 87.5604 23.3675C87.9122 22.6879 87.3351 22.0129 86.6148 22.1418C85.5276 22.336 84.4419 22.5301 83.3546 22.7228C82.5582 21.9203 81.7603 21.1179 80.9639 20.3154C80.565 19.9134 79.6528 20.0408 79.5645 20.684C79.4046 21.8354 79.2463 22.9852 79.0864 24.1366C78.0585 24.6509 77.0307 25.1666 76.0028 25.6809C75.4623 25.9509 75.4501 26.855 76.0028 27.122C77.0414 27.6226 78.0799 28.1247 79.1184 28.6253C79.2935 29.7706 79.4701 30.9159 79.6452 32.0613C79.7427 32.6938 80.6441 32.8455 81.0446 32.4299C81.8334 31.6122 82.6207 30.7946 83.4094 29.9769C84.4952 30.1544 85.5793 30.3319 86.6651 30.5094C87.3762 30.6262 87.9776 29.9663 87.6107 29.2837C87.0823 28.2992 86.5524 27.3147 86.024 26.3302ZM78.7072 26.5789C78.5763 26.5152 78.4438 26.4515 78.3128 26.3878C78.4392 26.3241 78.5671 26.2604 78.6935 26.1967C79.2234 25.9312 80.1279 25.6794 80.5056 25.1924C80.8786 24.7115 80.8177 23.7392 80.8969 23.1673C80.9198 23.008 80.9411 22.8472 80.9639 22.6879C81.0538 22.7789 81.1436 22.8684 81.2334 22.9595C81.6476 23.3766 82.2369 24.258 82.8445 24.4233C83.4353 24.5856 84.3779 24.2292 84.9535 24.126C85.0753 24.1048 85.1971 24.082 85.3189 24.0608C85.2687 24.1579 85.2184 24.2565 85.1667 24.3535C84.8926 24.883 84.2424 25.7082 84.2424 26.3362C84.2424 26.9445 84.8819 27.7333 85.1545 28.2415C85.22 28.3644 85.287 28.4873 85.3525 28.6102C84.6779 28.4994 84.0048 28.3902 83.3303 28.2795C83.3196 28.2779 83.3074 28.2764 83.2968 28.2764C83.044 28.1991 82.7577 28.2446 82.5156 28.4949C82.0177 29.0121 81.5182 29.5294 81.0203 30.0452C80.9959 29.8905 80.9731 29.7357 80.9487 29.5795C80.8604 29.0061 80.9061 28.0398 80.533 27.5574C80.1538 27.0735 79.2402 26.8353 78.7072 26.5789Z" fill="#333333"/>
</g>
<defs>
<clipPath id="clip0_69_530">
<rect width="344" height="357" fill="white"/>
</clipPath>
</defs>
</svg>
