<svg width="165" height="115" viewBox="0 0 165 115" fill="none" xmlns="http://www.w3.org/2000/svg">
<path fill-rule="evenodd" clip-rule="evenodd" d="M67.0299 0.496049C59.1412 0.620905 58.3456 3.38281 58.337 6.91364C58.3252 11.759 58.0395 84.5763 58.4037 88.2504C58.7546 91.7911 61.1144 92.8498 66.9698 93.2078C70.4965 93.4236 99.3461 93.238 105.108 92.9186C110.212 92.6354 110.416 89.0499 110.498 86.8949C110.656 82.6969 110.135 12.3851 109.908 8.17256C109.793 6.01562 109.781 0.424905 101.407 0.249164C99.259 0.204876 69.7477 0.453174 67.0299 0.496049Z" fill="white"/>
<path d="M75.8176 93.5376C71.4113 93.5376 68.0048 93.5089 66.9642 93.4453C63.7783 93.2502 61.8657 92.8625 60.5684 92.1482C59.1906 91.3896 58.4959 90.241 58.3156 88.4247C58.1653 86.9076 58.0298 72.0822 58.2376 10.0703C58.2432 8.38409 58.2473 7.23306 58.2483 6.75154C58.2529 4.84336 58.4949 3.34133 59.6597 2.21433C60.9769 0.939854 63.3183 0.318873 67.0274 0.26045C69.7921 0.216632 99.3375 -0.0335504 101.548 0.0130939C109.744 0.185065 110.01 5.52418 110.123 7.8041C110.127 7.87713 110.13 7.94686 110.134 8.01376C110.251 10.1971 110.44 29.4404 110.575 47.5431C110.705 65.047 110.808 84.8797 110.725 87.0616C110.648 89.0899 110.506 92.8648 105.265 93.1551C101.064 93.3873 85.8526 93.5376 75.8176 93.5376ZM100.305 0.291075C94.4447 0.291075 69.5522 0.503094 67.0304 0.543142C63.4156 0.600152 61.039 1.22726 59.7646 2.46027C58.6278 3.55994 58.392 5.03607 58.3874 6.91409C58.3864 7.39372 58.3823 8.54004 58.3767 10.2197C58.1694 71.9753 58.3044 86.737 58.4541 88.2466C58.7857 91.5927 60.8557 92.7871 66.9729 93.1612C70.3681 93.369 99.0859 93.2055 105.105 92.8719C107.335 92.7485 108.818 92.0007 109.641 90.5868C110.354 89.3637 110.41 87.8772 110.447 86.8939C110.529 84.7223 110.426 64.972 110.296 47.5403C110.162 29.512 109.975 10.3488 109.858 8.17584C109.854 8.1094 109.851 8.03967 109.847 7.96664C109.736 5.72254 109.474 0.466344 101.406 0.2972C101.222 0.292959 100.844 0.291075 100.305 0.291075Z" fill="#333333"/>
<path fill-rule="evenodd" clip-rule="evenodd" d="M58.5585 11.6143C58.5468 11.6129 58.5341 11.6125 58.5219 11.6139C58.4302 11.6219 58.3624 11.6977 58.3711 11.7825C58.3716 11.7887 58.393 11.9178 58.5458 11.9239C58.6349 11.9272 59.1209 11.9295 59.9317 11.931C68.0023 11.946 108.418 11.8739 109.967 11.7976C110.06 11.7929 110.13 11.7203 110.126 11.6351C110.121 11.5498 110.042 11.4843 109.95 11.489C108.401 11.5649 68.0002 11.637 59.9328 11.6219C59.1295 11.6205 58.6482 11.6181 58.5596 11.6148H58.5585V11.6143Z" fill="black"/>
<path fill-rule="evenodd" clip-rule="evenodd" d="M66.6092 111.573C62.0134 111.573 58.9365 111.539 57.9453 111.479C54.6952 111.28 52.7291 110.876 51.3707 110.128C49.8595 109.296 49.099 108.052 48.905 106.094C48.5428 102.439 48.604 28.6271 48.6203 21.9094C48.6248 19.907 48.8871 18.323 50.1529 17.0984C51.5551 15.742 53.9892 15.0819 57.8139 15.0216C60.4456 14.9801 85.4477 14.7695 91.1366 14.7695C91.6729 14.7695 92.0345 14.7714 92.2123 14.7752C95.8806 14.852 98.4599 15.9573 99.8784 18.0596C101.043 19.7854 101.141 21.7591 101.2 22.9384C101.203 23.0105 101.207 23.0797 101.21 23.1457C101.327 25.3149 101.571 45.4082 101.75 63.1589C101.942 82.2642 102.098 102.522 102.016 104.712C101.976 105.744 101.918 107.303 101.144 108.632C100.233 110.196 98.5526 111.056 96.147 111.189C92.252 111.405 77.0711 111.572 66.6102 111.572H66.6092V111.573Z" fill="#333333"/>
<path fill-rule="evenodd" clip-rule="evenodd" d="M66.6092 111.29C62.0195 111.29 58.9497 111.257 57.9651 111.197C54.7665 111.001 52.8412 110.609 51.5271 109.886C50.1085 109.105 49.3939 107.928 49.2096 106.069C48.8484 102.423 48.9101 28.6272 48.9264 21.9109C48.9309 19.9763 49.179 18.4512 50.3739 17.295C51.716 15.9965 54.0819 15.3642 57.819 15.3053C60.4512 15.2638 85.4513 15.0532 91.1366 15.0532C91.6719 15.0532 92.0315 15.0551 92.2052 15.0589C95.7639 15.1333 98.2582 16.1939 99.6191 18.2104C100.741 19.8736 100.837 21.8011 100.895 22.9526C100.898 23.0251 100.902 23.0949 100.905 23.1608C101.021 25.3267 101.266 45.4149 101.445 63.1628C101.637 82.2648 101.793 102.518 101.711 104.703C101.672 105.708 101.615 107.228 100.875 108.5C100.018 109.97 98.4217 110.781 96.1286 110.908C92.2393 111.123 77.0675 111.291 66.6102 111.291C66.6097 111.29 66.6097 111.29 66.6092 111.29Z" fill="white"/>
<path fill-rule="evenodd" clip-rule="evenodd" d="M57.8225 15.4929C49.9338 15.6177 49.1382 18.3796 49.1296 21.9109C49.1179 26.7563 49.0481 102.377 49.4123 106.051C49.7632 109.592 52.123 110.651 57.9784 111.009C61.5046 111.225 90.3547 111.039 96.1164 110.72C101.221 110.437 101.425 106.851 101.506 104.696C101.587 102.569 101.437 82.7496 101.24 63.1642C101.049 44.0952 100.813 25.2481 100.701 23.1698C100.586 21.0129 100.574 15.4222 92.2006 15.2464C90.0522 15.2012 60.5409 15.45 57.8225 15.4929Z" fill="white"/>
<path fill-rule="evenodd" clip-rule="evenodd" d="M61.172 60.2605C57.7334 60.4296 55.8244 61.2334 54.7553 62.4288C53.6841 63.626 53.4498 65.2269 53.3908 67.0206C53.2324 71.8419 53.5059 85.7956 53.7045 89.4419C53.7835 90.8921 54.1665 91.9239 54.9178 92.6556C56.0312 93.7402 57.9759 94.1699 61.0299 94.2938C64.038 94.4159 87.7291 94.4743 92.6646 94.0055C97.1488 93.5796 97.4646 89.9305 97.6037 87.7292C97.868 83.5478 97.7779 72.0257 97.7142 67.8404C97.6908 66.312 97.7463 63.0818 95.2933 61.2933C94.2385 60.5243 92.7196 60.0169 90.5264 60.031C88.6922 60.0428 63.4956 60.1465 61.172 60.2605ZM61.1893 60.5696C63.5119 60.4556 88.6953 60.3519 90.5289 60.3406C92.6244 60.3274 94.0785 60.8019 95.0865 61.5369C96.257 62.3901 96.8213 63.5906 97.0989 64.7577C97.3816 65.9459 97.3684 67.1026 97.3801 67.8447C97.4443 72.0252 97.5344 83.5346 97.2701 87.7113C97.1381 89.8 96.8855 93.2936 92.631 93.6978C87.7031 94.1662 64.0482 94.1068 61.0446 93.9848C58.1093 93.8656 56.2303 93.4849 55.1602 92.4427C54.4558 91.7567 54.1125 90.7852 54.0386 89.4263C53.8405 85.7843 53.567 71.8462 53.7249 67.03C53.7814 65.3117 53.9867 63.773 55.0125 62.6257C56.0404 61.477 57.8852 60.7317 61.1893 60.5696Z" fill="#333333"/>
<path fill-rule="evenodd" clip-rule="evenodd" d="M67.3569 72.0837C67.5642 71.638 70.9936 63.9077 71.2463 63.8328C71.5463 63.7438 74.042 71.1833 74.1622 71.3336C74.368 71.5904 82.9484 68.828 83.1088 68.9359C83.1934 68.9924 77.5524 74.1874 77.2927 74.7052C77.2636 74.7631 81.4214 76.1186 81.4081 76.357C81.399 76.5144 75.5828 78.4014 75.5115 78.5192C75.4488 78.6228 72.6785 88.445 72.6556 88.4403C72.4055 88.3941 70.9065 79.5802 70.7731 79.5312C70.5698 79.4558 63.4605 88.0223 63.0983 87.9879C62.9817 87.9771 65.3099 76.8909 65.2645 76.6426C65.2381 76.4974 58.1618 76.0404 58.0365 75.8854C57.9871 75.8242 66.3805 72.5077 67.3569 72.0837Z" fill="#F5DBAA"/>
<path fill-rule="evenodd" clip-rule="evenodd" d="M60.3097 29.863C56.8349 30.0251 54.9076 30.8256 53.8298 32.0195C52.75 33.2153 52.5162 34.8172 52.4607 36.6114C52.3115 41.4355 52.3924 49.0046 52.6013 52.6537C52.6843 54.1049 53.0739 55.1376 53.8349 55.8717C54.9626 56.9586 56.9286 57.3916 60.0153 57.5217C63.0565 57.6498 87.2213 57.6597 92.2097 57.1999C96.7419 56.7824 97.0516 53.1324 97.1875 50.9302C97.4453 46.7464 97.3398 41.7055 97.2655 37.5174C97.238 35.988 97.2874 32.7569 94.8033 30.9632C93.7357 30.1924 92.2001 29.6821 89.9839 29.6915C88.1294 29.6991 62.6587 29.7537 60.3097 29.863ZM60.327 30.1726C62.6745 30.0633 88.1325 30.0091 89.986 30.0011C92.1053 29.9921 93.5768 30.4699 94.5981 31.2072C96.9874 32.9326 96.9054 36.0516 96.9314 37.5226C97.0057 41.7041 97.1111 46.736 96.8539 50.9128C96.7256 53.0019 96.477 56.496 92.1772 56.8922C87.1963 57.3511 63.0677 57.3407 60.031 57.2126C57.0621 57.0877 55.1612 56.7028 54.0768 55.6573C53.3638 54.9699 53.0138 53.9974 52.9359 52.6372C52.7271 48.9942 52.6466 41.4369 52.7958 36.6203C52.8488 34.9016 53.0531 33.3632 54.0875 32.2179C55.1225 31.0701 56.9862 30.3281 60.327 30.1726Z" fill="#333333"/>
<path fill-rule="evenodd" clip-rule="evenodd" d="M54.8765 19.1231C53.5303 19.1773 53.3821 19.7078 53.3648 20.3825C53.3408 21.3083 53.298 22.7444 53.3439 23.445C53.3877 24.1202 53.7855 24.3133 54.7833 24.3595C55.3838 24.3873 57.3325 24.4377 58.3171 24.3548C59.1891 24.2813 59.24 23.5953 59.2635 23.1835C59.3093 22.3807 59.2823 21.4134 59.2629 20.6091C59.2528 20.1973 59.2757 19.1292 57.848 19.1278C57.4813 19.1274 55.34 19.1043 54.8765 19.1231Z" fill="#FEBE7F"/>
<path fill-rule="evenodd" clip-rule="evenodd" d="M55.6145 21.7563C55.857 21.5024 56.6444 20.7999 56.8151 20.6604C56.8843 20.6039 56.891 20.5059 56.8298 20.4423C56.7687 20.3782 56.6628 20.3721 56.594 20.4286C56.4285 20.5638 55.696 21.2173 55.4067 21.5085C55.338 21.5773 55.2921 21.6305 55.2753 21.6564C55.2529 21.6913 55.2478 21.7196 55.2463 21.7365C55.2437 21.7657 55.2493 21.8044 55.2743 21.8487C55.2947 21.8849 55.3375 21.9358 55.4011 21.9952C55.6797 22.2543 56.4213 22.7575 56.7407 22.9695C56.8156 23.0195 56.9205 23.0035 56.974 22.9342C57.028 22.8649 57.0106 22.7683 56.9358 22.7184C56.6144 22.5054 55.8443 21.9895 55.6145 21.7563Z" fill="black"/>
<path fill-rule="evenodd" clip-rule="evenodd" d="M63.8577 4.53815C62.5115 4.59234 62.3633 5.12285 62.346 5.79755C62.3221 6.72336 62.2793 8.15991 62.3251 8.86052C62.3689 9.53568 62.7667 9.72886 63.7645 9.77503C64.365 9.80283 66.3138 9.85324 67.2983 9.77032C68.1703 9.69682 68.2213 9.01082 68.2447 8.59856C68.2905 7.79571 68.2635 6.82843 68.2442 6.02417C68.234 5.61238 68.2569 4.54428 66.8292 4.54286C66.463 4.54239 64.3217 4.51931 63.8577 4.53815Z" fill="#FF7A75"/>
<path fill-rule="evenodd" clip-rule="evenodd" d="M64.6528 7.23877C64.8953 6.98481 65.6827 6.28232 65.8533 6.14286C65.9226 6.08632 65.9292 5.98832 65.8681 5.92425C65.807 5.86017 65.7015 5.85452 65.6323 5.91058C65.4667 6.0458 64.7343 6.6993 64.445 6.99047C64.3762 7.05926 64.3304 7.11203 64.3136 7.13841C64.2912 7.17281 64.2861 7.20155 64.2846 7.21851C64.282 7.24772 64.2871 7.28682 64.3126 7.33111C64.3329 7.36739 64.3757 7.41828 64.4394 7.47764C64.718 7.73678 65.4596 8.23997 65.7795 8.45199C65.8543 8.50193 65.9588 8.48591 66.0128 8.41665C66.0667 8.34739 66.0494 8.25033 65.9746 8.20086C65.6526 7.9879 64.8825 7.47199 64.6528 7.23877Z" fill="black"/>
<path fill-rule="evenodd" clip-rule="evenodd" d="M100.985 4.22463C99.639 4.27881 99.4908 4.80933 99.4735 5.48403C99.4501 6.40984 99.4068 7.84639 99.4526 8.547C99.4964 9.22216 99.8942 9.41533 100.892 9.46151C101.493 9.48931 103.442 9.53972 104.426 9.4568C105.298 9.3833 105.349 8.6973 105.372 8.28504C105.418 7.48219 105.391 6.51491 105.372 5.71065C105.361 5.29886 105.384 4.23076 103.957 4.22934C103.59 4.22934 101.449 4.20626 100.985 4.22463Z" fill="#FEBE7F"/>
<path fill-rule="evenodd" clip-rule="evenodd" d="M101.443 6.20105C101.899 6.20294 102.748 6.17891 103.205 6.1709C103.297 6.16901 103.37 6.09881 103.369 6.01306C103.367 5.92778 103.291 5.85994 103.198 5.86135C102.743 5.86936 101.899 5.89339 101.444 5.8915C101.352 5.89103 101.277 5.95982 101.276 6.04557C101.276 6.13085 101.35 6.20058 101.443 6.20105Z" fill="black"/>
<path fill-rule="evenodd" clip-rule="evenodd" d="M101.446 7.03552C101.904 7.03741 102.752 7.01338 103.208 7.00537C103.301 7.00349 103.374 6.93328 103.372 6.84753C103.37 6.76226 103.294 6.69441 103.202 6.69582C102.747 6.70383 101.903 6.72786 101.448 6.72598C101.355 6.72551 101.28 6.79476 101.28 6.88004C101.279 6.96579 101.354 7.03552 101.446 7.03552Z" fill="black"/>
<path fill-rule="evenodd" clip-rule="evenodd" d="M101.45 7.87049C101.907 7.87237 102.755 7.84834 103.212 7.84033C103.304 7.83845 103.378 7.76777 103.376 7.6825C103.375 7.59722 103.298 7.52937 103.205 7.53078C102.751 7.53926 101.907 7.56282 101.451 7.56094C101.359 7.56047 101.284 7.62973 101.283 7.715C101.283 7.80028 101.358 7.87001 101.45 7.87049Z" fill="black"/>
<path fill-rule="evenodd" clip-rule="evenodd" d="M92.0315 18.7556C90.6853 18.8098 90.5371 19.3404 90.5198 20.015C90.4958 20.9409 90.453 22.3769 90.4989 23.0775C90.5427 23.7527 90.9405 23.9459 91.9383 23.9921C92.5388 24.0199 94.488 24.0703 95.4721 23.9873C96.3441 23.9138 96.395 23.2278 96.4185 22.8156C96.4643 22.0127 96.4373 21.0455 96.4174 20.2412C96.4072 19.8294 96.4302 18.7613 95.003 18.7599C94.6368 18.7604 92.4955 18.7373 92.0315 18.7556Z" fill="#FEBE7F"/>
<path fill-rule="evenodd" clip-rule="evenodd" d="M92.5999 20.7297C93.0573 20.7301 93.9054 20.7038 94.3622 20.6939C94.4544 20.692 94.5278 20.6208 94.5257 20.5356C94.5237 20.4503 94.4468 20.3824 94.3546 20.3843C93.8998 20.3937 93.0558 20.4206 92.6004 20.4201C92.5082 20.4201 92.4334 20.4894 92.4329 20.5747C92.4329 20.6599 92.5077 20.7292 92.5999 20.7297Z" fill="black"/>
<path fill-rule="evenodd" clip-rule="evenodd" d="M92.607 21.5642C93.0639 21.5647 93.912 21.5383 94.3688 21.5284C94.461 21.5265 94.5344 21.4553 94.5323 21.3701C94.5303 21.2848 94.4534 21.2169 94.3612 21.2193C93.9064 21.2287 93.0624 21.2551 92.607 21.2551C92.5148 21.2551 92.4395 21.3244 92.4395 21.4096C92.4395 21.4945 92.5143 21.5642 92.607 21.5642Z" fill="black"/>
<path fill-rule="evenodd" clip-rule="evenodd" d="M92.6137 22.3986C93.071 22.3991 93.9191 22.3727 94.376 22.3628C94.4682 22.3609 94.5415 22.2898 94.5395 22.2045C94.5374 22.1192 94.4605 22.0514 94.3683 22.0533C93.9135 22.0632 93.0695 22.0895 92.6142 22.0891C92.522 22.0891 92.4471 22.1583 92.4466 22.2436C92.4466 22.3294 92.5215 22.3986 92.6137 22.3986Z" fill="black"/>
<path fill-rule="evenodd" clip-rule="evenodd" d="M66.9123 20.3128C67.881 20.2755 78.6358 20.1365 82.4182 20.2411C82.5104 20.244 82.5878 20.1766 82.5903 20.0913C82.5929 20.006 82.5205 19.9349 82.4284 19.9321C78.6399 19.8275 67.8683 19.9665 66.8985 20.0037C66.8063 20.0074 66.7345 20.0795 66.7381 20.1648C66.7427 20.2496 66.8206 20.3161 66.9123 20.3128Z" fill="black"/>
<path fill-rule="evenodd" clip-rule="evenodd" d="M76.0942 5.8545C77.0629 5.81728 87.8177 5.67829 91.6001 5.78289C91.6923 5.78524 91.7697 5.71834 91.7722 5.63306C91.7748 5.54778 91.7024 5.47617 91.6103 5.47381C87.8218 5.36921 77.0502 5.5082 76.0804 5.54543C75.9882 5.5492 75.9164 5.62128 75.9205 5.70656C75.924 5.79184 76.002 5.85827 76.0942 5.8545Z" fill="black"/>
<path fill-rule="evenodd" clip-rule="evenodd" d="M70.8123 22.8432C71.2621 22.8258 75.4091 22.7546 78.401 22.7283C78.4932 22.7273 78.5675 22.6576 78.5665 22.5718C78.5655 22.4866 78.4901 22.4178 78.3979 22.4187C75.4015 22.4451 71.2488 22.5167 70.798 22.5341C70.7058 22.5379 70.634 22.61 70.6381 22.6948C70.6422 22.7806 70.7201 22.8465 70.8123 22.8432Z" fill="black"/>
<path fill-rule="evenodd" clip-rule="evenodd" d="M79.9937 8.38499C80.4434 8.36755 84.5905 8.29641 87.5824 8.27002C87.6746 8.26908 87.7489 8.19935 87.7479 8.11407C87.7469 8.02879 87.6715 7.96 87.5793 7.96095C84.5829 7.98733 80.4302 8.05895 79.9794 8.07638C79.8872 8.08015 79.8154 8.15224 79.8195 8.23751C79.8236 8.32232 79.9015 8.38875 79.9937 8.38499Z" fill="black"/>
<path fill-rule="evenodd" clip-rule="evenodd" d="M78.0572 32.8017C76.711 32.8558 76.5628 33.3864 76.5455 34.0615C76.5215 34.9873 76.4787 36.4234 76.5246 37.124C76.5684 37.7992 76.9662 37.9924 77.9635 38.0385C78.564 38.0663 90.1113 38.1276 91.0953 38.0442C91.9673 37.9707 92.0183 37.2847 92.0417 36.8729C92.0875 36.07 92.0605 35.1023 92.0412 34.2985C92.031 33.8867 92.0539 32.8186 90.6262 32.8172C90.2605 32.8167 78.5212 32.7833 78.0572 32.8017Z" fill="#EAEAEA"/>
<path fill-rule="evenodd" clip-rule="evenodd" d="M78.6918 35.8487C78.7774 35.6598 78.9271 35.4327 79.1171 35.2777C79.2266 35.1881 79.3489 35.1217 79.4823 35.1156C79.6051 35.1099 79.711 35.1514 79.8109 35.2131C79.9336 35.289 80.0472 35.3931 80.1648 35.4977C80.4455 35.7474 80.747 35.9896 81.1637 35.9896C81.5722 35.9896 81.8457 35.7743 82.1075 35.5344C82.3138 35.346 82.5093 35.1377 82.815 35.0949C83.116 35.0525 83.2998 35.1914 83.4781 35.3366C83.718 35.5321 83.9523 35.7385 84.3073 35.7653C84.6684 35.7926 84.9496 35.6174 85.2221 35.4134C85.4365 35.2532 85.6438 35.0713 85.9194 35.0393C86.2403 35.002 86.4674 35.1326 86.6834 35.2744C86.9539 35.4515 87.2111 35.6442 87.5447 35.688C87.8299 35.7253 88.0622 35.6263 88.2889 35.4793C88.5537 35.3074 88.8074 35.0558 89.1965 35.0167C89.3101 35.0053 89.4272 35.0058 89.5444 35.051C89.7349 35.1245 89.9162 35.3088 90.0975 35.6904C90.1347 35.7686 90.2335 35.8039 90.3181 35.7696C90.4026 35.7352 90.4408 35.6438 90.4036 35.5655C90.1714 35.0774 89.9167 34.8593 89.6727 34.7651C89.5001 34.6986 89.3279 34.6916 89.1598 34.7085C88.7763 34.7472 88.4967 34.946 88.2344 35.1311C88.0316 35.2739 87.8452 35.4143 87.5911 35.3813C87.3114 35.3446 87.1031 35.1702 86.8764 35.0218C86.5953 34.8376 86.2943 34.684 85.8771 34.7321C85.5399 34.7712 85.2746 34.9757 85.0117 35.1721C84.807 35.3253 84.6053 35.477 84.3343 35.4562C84.0572 35.435 83.8861 35.256 83.6987 35.1033C83.4496 34.9007 83.1842 34.7288 82.764 34.7877C82.3851 34.8409 82.1278 35.0793 81.8716 35.313C81.6715 35.4958 81.4744 35.6786 81.1626 35.6786C80.8377 35.6786 80.6146 35.468 80.3961 35.273C80.1109 35.019 79.8297 34.7867 79.464 34.8042C79.2587 34.8141 79.0642 34.9055 78.8951 35.0435C78.6669 35.2296 78.485 35.5005 78.3827 35.7272C78.347 35.8058 78.3872 35.8968 78.4723 35.9297C78.5584 35.9641 78.6562 35.9274 78.6918 35.8487Z" fill="black"/>
<path fill-rule="evenodd" clip-rule="evenodd" d="M68.3817 97.4496C69.8216 97.4307 81.0506 97.4326 82.4905 97.451C85.2929 97.4873 88.0958 97.524 90.8956 97.6258C93.6481 97.7257 97.2436 98.0894 98.0157 101.068C98.1507 101.587 98.1904 102.127 98.2123 102.661C98.2393 103.318 98.1013 104.131 97.8655 104.757C96.7133 107.816 92.6788 108.395 89.6355 108.436C88.4253 108.453 62.3832 108.432 61.2361 108.435C56.6979 108.448 52.8228 107.68 52.722 103.076C52.6171 98.2986 57.224 97.7242 59.976 97.6244C62.7769 97.5226 65.5793 97.4858 68.3817 97.4496Z" fill="#EFEFEF"/>
<path fill-rule="evenodd" clip-rule="evenodd" d="M58.4016 104.388C58.4016 104.381 58.4021 104.369 58.4021 104.358C58.4021 104.102 58.3751 102.943 58.3772 102.461C58.3777 102.308 58.3899 102.209 58.396 102.195C58.4088 102.165 58.4694 102.092 58.5748 102.004C58.884 101.746 59.6159 101.233 59.814 101.119C59.8558 101.095 59.8864 101.083 59.9006 101.079C59.9455 101.068 59.9791 101.074 59.9999 101.08C60.1665 101.127 60.8424 101.523 61.2529 101.788C61.4495 101.916 61.5871 102.023 61.6079 102.052C61.6176 102.066 61.6324 102.093 61.6431 102.135C61.6538 102.177 61.666 102.251 61.6782 102.346C61.7419 102.854 61.8137 104.033 61.7964 104.33C61.7928 104.391 61.7811 104.431 61.7735 104.448C61.7521 104.493 61.72 104.514 61.695 104.526C61.6696 104.539 61.6135 104.554 61.5346 104.56C61.3426 104.573 60.9438 104.558 60.7548 104.543C60.6804 104.537 60.6295 104.527 60.6152 104.522C60.5923 104.514 60.5765 104.504 60.5663 104.497C60.55 104.484 60.5292 104.465 60.5139 104.433C60.5047 104.414 60.4925 104.374 60.4859 104.317C60.4701 104.19 60.4451 103.867 60.4339 103.726C60.4125 103.724 60.3891 103.723 60.3682 103.722C60.2164 103.719 60.0086 103.723 59.8767 103.735C59.8787 103.888 59.8808 104.175 59.8721 104.296C59.868 104.354 59.8573 104.395 59.8482 104.415C59.8329 104.449 59.8115 104.469 59.7937 104.482C59.7651 104.503 59.6852 104.532 59.568 104.543C59.3016 104.568 58.751 104.558 58.6038 104.561C58.5626 104.57 58.5203 104.563 58.478 104.537C58.4617 104.528 58.4261 104.506 58.4083 104.45C58.4006 104.43 58.3986 104.408 58.4016 104.388ZM59.9617 101.399C60.1797 101.494 60.7176 101.82 61.0604 102.042C61.1689 102.112 61.2764 102.19 61.3186 102.22C61.3247 102.253 61.337 102.32 61.3446 102.382C61.4027 102.847 61.4694 103.89 61.4633 104.253C61.4444 104.254 61.4246 104.255 61.4062 104.255C61.2249 104.259 60.9677 104.248 60.8169 104.237C60.8073 104.087 60.7848 103.766 60.764 103.641C60.7533 103.576 60.7344 103.532 60.7202 103.511C60.6988 103.481 60.6733 103.463 60.6504 103.452C60.6157 103.435 60.5108 103.416 60.3758 103.413C60.1247 103.407 59.7463 103.43 59.6607 103.455C59.6434 103.461 59.5487 103.496 59.54 103.614C59.5339 103.698 59.5334 104.074 59.5334 104.236C59.3388 104.256 58.9629 104.253 58.7358 104.252C58.7312 103.872 58.7098 102.895 58.7113 102.462C58.7113 102.404 58.7134 102.345 58.7144 102.311C58.75 102.278 58.8371 102.201 58.9257 102.132C59.2451 101.883 59.7662 101.518 59.9617 101.399Z" fill="black"/>
<path fill-rule="evenodd" clip-rule="evenodd" d="M67.8311 104.408C67.8311 104.425 67.8337 104.441 67.8387 104.457C67.8449 104.476 67.8637 104.548 67.9671 104.567C67.9702 104.568 68.0084 104.571 68.0756 104.572C68.4596 104.576 70.1598 104.58 70.8617 104.555C71.0145 104.55 71.1235 104.542 71.1693 104.534C71.2182 104.525 71.2468 104.508 71.26 104.498C71.2834 104.481 71.314 104.451 71.3272 104.396C71.3364 104.359 71.3374 104.272 71.313 104.154C71.2136 103.674 70.7211 102.569 69.3994 102.671C68.5712 102.736 68.152 103.281 67.9625 103.753C67.8489 104.035 67.8224 104.292 67.8311 104.408ZM70.99 104.239C70.9478 104.242 70.8979 104.244 70.8484 104.246C70.1945 104.27 68.6669 104.267 68.1647 104.263C68.1775 104.163 68.2126 104.018 68.2758 103.86C68.4286 103.48 68.7591 103.031 69.4269 102.979C70.5444 102.893 70.9279 103.87 70.99 104.239Z" fill="black"/>
<path fill-rule="evenodd" clip-rule="evenodd" d="M69.5252 100.702C69.1503 100.671 68.4337 100.905 68.4418 101.617C68.4495 102.296 69.0362 102.55 69.4432 102.533C69.7569 102.52 70.0055 102.435 70.1782 102.295C70.36 102.147 70.4649 101.939 70.47 101.672C70.4787 101.23 70.1848 100.756 69.5252 100.702ZM69.4956 101.01C69.9423 101.047 70.1415 101.368 70.1359 101.667C70.1328 101.835 70.0732 101.969 69.9581 102.062C69.8344 102.162 69.653 102.214 69.4284 102.224C69.1605 102.235 68.7815 102.061 68.7765 101.614C68.7708 101.142 69.2476 100.989 69.4956 101.01Z" fill="black"/>
<path fill-rule="evenodd" clip-rule="evenodd" d="M78.35 100.729C77.9751 100.698 77.258 100.931 77.2666 101.644C77.2748 102.323 77.8611 102.577 78.268 102.56C78.5818 102.546 78.8303 102.462 79.003 102.322C79.1848 102.174 79.2898 101.966 79.2949 101.699C79.3035 101.257 79.0096 100.783 78.35 100.729ZM78.3205 101.037C78.7672 101.074 78.9663 101.395 78.9607 101.694C78.9572 101.862 78.8981 101.996 78.783 102.089C78.6592 102.189 78.4779 102.241 78.2532 102.251C77.9853 102.262 77.6064 102.088 77.6013 101.64C77.5957 101.169 78.0719 101.017 78.3205 101.037Z" fill="black"/>
<path fill-rule="evenodd" clip-rule="evenodd" d="M78.4168 102.701C78.0419 102.67 77.3252 102.903 77.3334 103.616C77.3415 104.295 77.9278 104.549 78.3347 104.532C78.6485 104.518 78.8971 104.434 79.0697 104.294C79.2516 104.146 79.3565 103.937 79.3616 103.671C79.3697 103.229 79.0764 102.755 78.4168 102.701ZM78.3867 103.009C78.8334 103.046 79.0325 103.366 79.0269 103.666C79.0239 103.834 78.9643 103.968 78.8492 104.061C78.7254 104.161 78.5441 104.213 78.3195 104.223C78.0516 104.233 77.6726 104.06 77.6675 103.612C77.6619 103.141 78.1386 102.988 78.3867 103.009Z" fill="black"/>
<path fill-rule="evenodd" clip-rule="evenodd" d="M80.7032 100.684C80.3283 100.653 79.6112 100.886 79.6198 101.599C79.6275 102.278 80.2142 102.531 80.6212 102.515C80.9349 102.501 81.1835 102.417 81.3562 102.277C81.538 102.129 81.6429 101.92 81.648 101.654C81.6567 101.212 81.3628 100.738 80.7032 100.684ZM80.6731 100.992C81.1198 101.028 81.319 101.349 81.3134 101.649C81.3098 101.817 81.2507 101.951 81.1356 102.044C81.0119 102.144 80.8305 102.196 80.6059 102.205C80.338 102.217 79.959 102.042 79.954 101.595C79.9489 101.124 80.4251 100.971 80.6731 100.992Z" fill="black"/>
<path fill-rule="evenodd" clip-rule="evenodd" d="M80.7699 102.655C80.395 102.624 79.6779 102.858 79.6865 103.57C79.6947 104.249 80.2809 104.503 80.6879 104.486C81.0017 104.473 81.2502 104.388 81.4229 104.248C81.6047 104.101 81.7097 103.892 81.7147 103.626C81.7229 103.183 81.429 102.709 80.7699 102.655ZM80.7399 102.963C81.1866 103 81.3857 103.321 81.3801 103.62C81.3765 103.788 81.3175 103.923 81.2023 104.016C81.0786 104.116 80.8972 104.168 80.6726 104.177C80.4047 104.188 80.0258 104.014 80.0207 103.567C80.0151 103.095 80.4918 102.943 80.7399 102.963Z" fill="black"/>
<path fill-rule="evenodd" clip-rule="evenodd" d="M91.3887 102.886C91.3041 102.51 91.1371 102.025 90.8544 101.65C90.5498 101.245 90.1153 100.966 89.5199 101.035C88.9637 101.099 88.5842 101.476 88.3418 101.934C88.0082 102.564 87.9384 103.341 87.9598 103.544C87.9603 103.552 87.9613 103.56 87.9628 103.568C87.9679 103.593 87.9837 103.661 88.08 103.687C88.0841 103.688 88.1269 103.694 88.2022 103.695C88.3158 103.697 88.5445 103.699 88.8282 103.699C88.8379 104.009 89.0253 104.19 89.1501 104.267C89.7883 104.662 90.535 104.302 90.5676 103.686C90.7296 103.682 90.8748 103.677 90.9919 103.671C91.1503 103.662 91.2634 103.65 91.3107 103.637C91.3658 103.623 91.3953 103.597 91.4106 103.581C91.4264 103.565 91.4549 103.523 91.46 103.452C91.4666 103.364 91.4483 103.152 91.3887 102.886ZM89.3355 104.01C89.2668 103.968 89.1725 103.867 89.1629 103.7C89.5051 103.699 89.8866 103.698 90.2309 103.692C90.1902 104.059 89.7257 104.251 89.3355 104.01ZM90.9731 103.362C90.318 103.397 88.7854 103.393 88.2888 103.387C88.2985 103.118 88.3892 102.547 88.6418 102.07C88.8338 101.707 89.1201 101.393 89.5612 101.342C90.0185 101.29 90.3461 101.516 90.5798 101.827C90.836 102.167 90.9843 102.608 91.0612 102.949C91.0963 103.105 91.1131 103.259 91.1208 103.351C91.078 103.355 91.025 103.359 90.9731 103.362Z" fill="black"/>
<path fill-rule="evenodd" clip-rule="evenodd" d="M44.6866 65.6721C54.0855 65.2589 61.2132 67.4926 66.3214 71.2227C73.9789 76.8144 77.0925 85.7625 76.5261 94.151C76.5205 94.2362 76.5903 94.3097 76.6825 94.3149C76.7746 94.3201 76.8541 94.2556 76.8597 94.1703C77.4332 85.6848 74.2748 76.6363 66.5287 70.9796C61.3676 67.2108 54.1675 64.9451 44.6708 65.3625C44.5786 65.3668 44.5073 65.4393 44.5119 65.5241C44.516 65.6103 44.5944 65.6763 44.6866 65.6721Z" fill="#333333"/>
<path fill-rule="evenodd" clip-rule="evenodd" d="M76.715 93.3948C77.1663 93.3948 77.533 93.7307 77.533 94.1449C77.533 94.559 77.1668 94.8949 76.715 94.8949C76.2638 94.8949 75.897 94.559 75.897 94.1449C75.897 93.7312 76.2633 93.3948 76.715 93.3948Z" fill="black"/>
<path fill-rule="evenodd" clip-rule="evenodd" d="M67.5265 71.3035C67.9778 71.3035 68.3445 71.6394 68.3445 72.0535C68.3445 72.4677 67.9783 72.8036 67.5265 72.8036C67.0747 72.8036 66.7085 72.4677 66.7085 72.0535C66.709 71.6394 67.0752 71.3035 67.5265 71.3035Z" fill="#333333"/>
<path fill-rule="evenodd" clip-rule="evenodd" d="M44.3999 64.7778C44.8511 64.7778 45.2179 65.1138 45.2179 65.5279C45.2179 65.9421 44.8511 66.278 44.3999 66.278C43.9486 66.278 43.5818 65.9421 43.5818 65.5279C43.5818 65.1142 43.9486 64.7778 44.3999 64.7778Z" fill="#333333"/>
<path fill-rule="evenodd" clip-rule="evenodd" d="M80.0961 54.2773C79.6367 54.2665 79.2648 54.2575 79.0137 54.2523C78.2446 54.2363 77.6869 54.1053 77.3125 53.7534C76.9336 53.3977 76.7477 52.8257 76.6957 51.9578C76.6906 51.8725 76.6117 51.8071 76.5195 51.8118C76.4273 51.8165 76.3565 51.8895 76.3616 51.9748C76.4197 52.943 76.6514 53.5739 77.0742 53.9706C77.5015 54.3715 78.1295 54.5426 79.0061 54.5614C79.2572 54.5666 79.6285 54.576 80.0874 54.5864C80.1796 54.5887 80.2565 54.5209 80.2591 54.4356C80.2616 54.3503 80.1883 54.2797 80.0961 54.2773Z" fill="#333333"/>
<path fill-rule="evenodd" clip-rule="evenodd" d="M92.1308 51.8223C92.0386 51.8175 91.9597 51.883 91.9546 51.9683C91.9031 52.8362 91.7167 53.4082 91.3378 53.7639C90.9629 54.1154 90.4052 54.2464 89.6366 54.2628C89.44 54.2671 89.169 54.2737 88.8405 54.2812C88.7483 54.2836 88.6754 54.3542 88.6775 54.44C88.68 54.5253 88.7564 54.5926 88.8491 54.5908C89.1776 54.5832 89.4481 54.5766 89.6447 54.5724C90.5213 54.5535 91.1493 54.3825 91.5766 53.9816C91.9994 53.5848 92.2317 52.954 92.2892 51.9857C92.2933 51.9 92.2225 51.827 92.1308 51.8223Z" fill="#333333"/>
<path fill-rule="evenodd" clip-rule="evenodd" d="M76.5694 44.0059C76.6616 44.0078 76.7385 43.9404 76.7405 43.8551C76.7507 43.4754 76.7467 43.6016 76.7568 43.2728C76.7726 42.7323 76.792 42.2692 76.8786 41.8829C76.9585 41.5248 77.0956 41.2355 77.3548 41.0202C77.7139 40.7215 78.2945 40.5655 79.2302 40.5311C79.3856 40.5255 79.5144 40.5255 79.8704 40.5198C79.9626 40.5184 80.0365 40.4477 80.0345 40.3624C80.0329 40.2772 79.9565 40.2088 79.8643 40.2107C79.5042 40.2164 79.3738 40.2164 79.217 40.2225C78.1733 40.2607 77.5321 40.4576 77.1312 40.7907C76.8205 41.0494 76.6468 41.3914 76.5511 41.8211C76.4614 42.2226 76.439 42.7041 76.4227 43.2657C76.413 43.595 76.4166 43.4688 76.4064 43.849C76.4044 43.9324 76.4772 44.0035 76.5694 44.0059Z" fill="#333333"/>
<path fill-rule="evenodd" clip-rule="evenodd" d="M91.2955 41.0294C91.5547 41.2452 91.6918 41.534 91.7717 41.8921C91.8578 42.2784 91.8777 42.7421 91.8935 43.282C91.9031 43.6109 91.8996 43.4846 91.9097 43.8643C91.9123 43.9496 91.9887 44.0175 92.0809 44.0151C92.1731 44.0128 92.2464 43.9421 92.2439 43.8563C92.2337 43.4761 92.2373 43.6024 92.2276 43.273C92.2113 42.7119 92.1889 42.2304 92.0992 41.829C92.0035 41.3993 91.8298 41.0572 91.5191 40.7985C91.1182 40.4654 90.4775 40.2685 89.4333 40.2303C89.2724 40.2247 88.9892 40.2181 88.6163 40.2124C88.5242 40.211 88.4477 40.2789 88.4462 40.3641C88.4447 40.4494 88.518 40.5201 88.6102 40.5215C88.98 40.5276 89.2607 40.5338 89.4196 40.5394C90.3557 40.5747 90.9364 40.7312 91.2955 41.0294Z" fill="#333333"/>
<path fill-rule="evenodd" clip-rule="evenodd" d="M76.5103 47.4604C76.6025 47.4613 76.6784 47.393 76.6799 47.3078C76.6911 46.5336 76.682 45.8151 76.6993 45.0778C76.7013 44.9925 76.628 44.9214 76.5358 44.9195C76.4436 44.9176 76.3667 44.9854 76.3647 45.0707C76.3473 45.8085 76.356 46.5285 76.3453 47.303C76.3438 47.3888 76.4181 47.459 76.5103 47.4604Z" fill="#333333"/>
<path fill-rule="evenodd" clip-rule="evenodd" d="M92.1145 44.9297C92.0223 44.9316 91.949 45.0023 91.951 45.088C91.9683 45.8249 91.9597 46.5439 91.9704 47.318C91.9714 47.4033 92.0473 47.4716 92.14 47.4707C92.2322 47.4692 92.306 47.399 92.305 47.3138C92.2938 46.5387 92.303 45.8193 92.2852 45.0814C92.2831 44.9957 92.2067 44.9278 92.1145 44.9297Z" fill="#333333"/>
<path fill-rule="evenodd" clip-rule="evenodd" d="M83.7914 40.3573C83.7903 40.272 83.7144 40.2037 83.6217 40.2046C82.7839 40.215 81.7509 40.2121 80.9533 40.2282C80.8611 40.23 80.7878 40.3007 80.7898 40.3865C80.7918 40.4717 80.8682 40.5396 80.9604 40.5377C81.757 40.5217 82.7895 40.524 83.6263 40.5137C83.7185 40.5127 83.7924 40.4425 83.7914 40.3573Z" fill="#333333"/>
<path fill-rule="evenodd" clip-rule="evenodd" d="M83.9187 54.2935C83.0808 54.3038 82.0479 54.301 81.2502 54.3175C81.1581 54.3194 81.0847 54.3901 81.0867 54.4753C81.0888 54.5606 81.1652 54.6285 81.2579 54.6266C82.055 54.6106 83.0869 54.6129 83.9238 54.6025C84.016 54.6016 84.0898 54.5314 84.0888 54.4456C84.0868 54.3608 84.0109 54.2925 83.9187 54.2935Z" fill="#333333"/>
<path fill-rule="evenodd" clip-rule="evenodd" d="M76.4915 50.9854C76.5837 50.984 76.6575 50.9133 76.656 50.828C76.6443 50.2131 76.6606 49.0235 76.6652 48.2734C76.6657 48.1881 76.5913 48.1184 76.4991 48.1179C76.4069 48.1175 76.3315 48.1862 76.331 48.2715C76.3259 49.0235 76.3101 50.2164 76.3219 50.8332C76.3234 50.9185 76.3993 50.9868 76.4915 50.9854Z" fill="#333333"/>
<path fill-rule="evenodd" clip-rule="evenodd" d="M92.3198 48.282C92.3193 48.1967 92.2439 48.1275 92.1517 48.1284C92.0595 48.1289 91.9846 48.1986 91.9856 48.2839C91.9902 49.0335 92.0065 50.2232 91.9948 50.8385C91.9933 50.9238 92.0666 50.9945 92.1588 50.9959C92.251 50.9973 92.3274 50.9294 92.3289 50.8442C92.3401 50.2269 92.3244 49.034 92.3198 48.282Z" fill="#333333"/>
<path fill-rule="evenodd" clip-rule="evenodd" d="M87.4321 40.4919C87.5243 40.4933 87.6007 40.425 87.6022 40.3397C87.6038 40.2545 87.5304 40.1838 87.4382 40.1824C86.7715 40.1715 85.4819 40.1861 84.6689 40.1909C84.5768 40.1913 84.5024 40.2611 84.5029 40.3463C84.5034 40.4316 84.5788 40.5004 84.671 40.4999C85.4813 40.4962 86.7674 40.4811 87.4321 40.4919Z" fill="#333333"/>
<path fill-rule="evenodd" clip-rule="evenodd" d="M87.7739 54.2803C87.1072 54.2694 85.8175 54.284 85.0046 54.2888C84.9124 54.2892 84.8381 54.359 84.8386 54.4442C84.8391 54.5295 84.9145 54.5988 85.0066 54.5978C85.817 54.5931 87.1036 54.5785 87.7683 54.5894C87.8605 54.5908 87.9369 54.5229 87.9384 54.4376C87.9399 54.3519 87.8661 54.2817 87.7739 54.2803Z" fill="#333333"/>
<path fill-rule="evenodd" clip-rule="evenodd" d="M85.2083 46.8671V45.3142H83.9605V46.8671H82.2659V48.0215H83.9605V49.4524H85.2083V48.0215H86.7394V46.8671H85.2083Z" fill="#333333"/>
<path fill-rule="evenodd" clip-rule="evenodd" d="M49.1958 26.6041C49.1836 26.6027 49.1714 26.6022 49.1586 26.6036C49.0669 26.6116 48.9992 26.6875 49.0079 26.7723C49.0084 26.7784 49.0298 26.9075 49.1826 26.9132C49.2722 26.9165 49.7591 26.9193 50.5726 26.9207C58.6685 26.9372 99.2107 26.8703 100.76 26.7944C100.852 26.7897 100.923 26.7172 100.918 26.6319C100.913 26.5466 100.835 26.4811 100.743 26.4858C99.1933 26.5617 58.6665 26.6281 50.5736 26.6116C49.7678 26.6102 49.2854 26.6079 49.1963 26.6046H49.1958V26.6041Z" fill="black"/>
<path fill-rule="evenodd" clip-rule="evenodd" d="M46.5564 34.9982C41.7788 36.0729 41.6484 38.0956 42.094 40.555C42.7058 43.9294 43.7759 49.6958 44.6963 51.6935C45.7537 53.9885 46.9308 54.5563 50.5349 54.0719C52.7052 53.7803 59.346 52.6792 62.8064 51.735C65.8722 50.8987 65.538 48.3771 65.3124 46.867C64.8723 43.9247 64.0482 40.4315 63.3728 37.5273C63.027 36.0404 62.3058 32.1496 57.195 33.0759C55.883 33.3138 48.2026 34.6279 46.5564 34.9982Z" fill="#7CB4EA"/>
<path fill-rule="evenodd" clip-rule="evenodd" d="M52.1785 44.057C53.2868 44.0598 54.0376 44.629 54.8016 45.1373C55.6288 45.6876 56.4687 46.1715 57.7079 45.9477C58.4057 45.8215 58.8809 45.405 59.2141 44.8146C59.5298 44.2558 59.7163 43.5378 59.8543 42.7797C60.0377 41.7719 60.5689 39.7417 61.4699 38.2703C62.0445 37.3322 62.7601 36.6142 63.6535 36.5981C63.7457 36.5963 63.819 36.5261 63.8175 36.4403C63.8154 36.355 63.739 36.2872 63.6469 36.2886C62.6501 36.3065 61.8193 37.0712 61.1786 38.1176C60.2572 39.6225 59.7112 41.6974 59.5242 42.7283C59.3928 43.4516 59.2186 44.1375 58.9171 44.6709C58.6339 45.1731 58.2371 45.5364 57.6432 45.6438C56.5125 45.8478 55.7515 45.388 54.9962 44.8857C54.1782 44.3416 53.3653 43.7503 52.179 43.7474C52.0868 43.747 52.0114 43.8162 52.0114 43.9015C52.0114 43.9873 52.0858 44.057 52.1785 44.057Z" fill="black"/>
<path fill-rule="evenodd" clip-rule="evenodd" d="M0.925954 66.4477C0.829179 66.9792 4.00034 72.1689 8.30938 76.0046C12.3846 79.632 18.2324 81.8591 18.5991 81.3819C19.0208 80.833 19.4981 79.4577 20.2682 78.2364C21.049 76.9982 22.1217 75.8675 22.412 75.8934C28.3927 76.4286 33.8101 75.3666 35.9473 73.237C38.5439 70.6494 37.2431 66.8948 37.4376 66.875C39.3701 66.6795 40.759 65.013 40.6144 62.0113C40.4865 59.3677 38.7721 58.5667 38.7966 58.3509C38.8281 58.0729 40.2436 56.7268 40.6735 54.3532C40.8971 53.1197 41.0035 51.5291 39.7011 49.5771C39.6146 49.4475 53.0133 49.7189 52.4805 44.5499C52.1123 40.9795 45.1144 40.4744 42.2738 40.2614C32.524 39.5311 20.6242 40.9776 12.6357 45.1807C7.95487 47.6435 6.49204 51.0556 6.19051 55.835C6.12175 56.9266 6.31225 59.3304 6.13347 59.8416C5.83907 60.6827 2.32664 64.8929 0.925954 66.4477Z" fill="#FDE6E0"/>
<path fill-rule="evenodd" clip-rule="evenodd" d="M31.5201 38.0097C31.5374 38.1784 31.5588 38.3461 31.5807 38.5143C31.6444 39.0034 31.7121 39.492 31.8002 39.9782C32.0574 41.3987 32.4614 42.7858 33.1026 44.0994C33.1408 44.1771 33.2396 44.212 33.3237 44.1766C33.4077 44.1413 33.4454 44.0499 33.4072 43.9722C32.7777 42.6826 32.3824 41.3215 32.1298 39.9273C32.0427 39.4458 31.9754 38.9624 31.9123 38.478C31.8909 38.3127 31.87 38.1468 31.8527 37.981C31.844 37.8957 31.762 37.8335 31.6703 37.8415C31.5787 37.8491 31.5109 37.9249 31.5201 38.0097Z" fill="#333333"/>
<path fill-rule="evenodd" clip-rule="evenodd" d="M33.2697 40.523C33.7805 42.8071 34.4279 44.4468 35.1746 45.6685C35.2199 45.7429 35.3223 45.7688 35.4023 45.7269C35.4828 45.6849 35.5108 45.5902 35.4655 45.5163C34.732 44.3162 34.0989 42.7044 33.5972 40.4603C33.5783 40.3769 33.4897 40.3227 33.3996 40.3402C33.3094 40.3576 33.2513 40.4396 33.2697 40.523Z" fill="#333333"/>
<path fill-rule="evenodd" clip-rule="evenodd" d="M10.9569 43.681C10.0656 46.1758 9.4656 48.3539 10.3508 50.3276C10.7461 51.2091 11.3257 51.8758 11.8707 52.51C12.3928 53.1178 12.8833 53.694 13.1222 54.4177C13.4695 55.4688 13.0957 56.12 12.7346 56.8196C12.3424 57.5796 11.9578 58.3914 12.3515 59.7398C12.6607 60.7985 13.2138 61.3352 13.796 61.8304C14.3425 62.2949 14.9191 62.7199 15.3144 63.5633C15.4789 63.9152 15.4789 64.2822 15.4193 64.6719C15.3551 65.0884 15.2222 65.5289 15.1249 66.001C14.9736 66.7384 14.9084 67.5497 15.2889 68.4618C15.6643 69.3618 16.4782 70.3648 18.0989 71.49C18.1728 71.5413 18.2777 71.5272 18.3332 71.4589C18.3888 71.3905 18.3735 71.2935 18.2996 71.2421C16.493 69.9879 15.7229 68.9024 15.4575 67.9351C15.1931 66.9716 15.43 66.131 15.6123 65.3739C15.7814 64.6724 15.9006 64.0368 15.621 63.4398C15.2028 62.5479 14.6003 62.0937 14.0222 61.6018C13.4802 61.1411 12.9617 60.644 12.6739 59.6583C12.3093 58.4088 12.6724 57.6569 13.0361 56.9525C13.4308 56.1883 13.821 55.4745 13.442 54.3268C13.1909 53.5658 12.6816 52.9566 12.1325 52.3173C11.6059 51.7038 11.042 51.0612 10.6595 50.2084C9.80278 48.2979 10.4114 46.1918 11.2743 43.7776C11.3033 43.6966 11.2554 43.6089 11.1678 43.5821C11.0807 43.5557 10.986 43.6 10.9569 43.681Z" fill="black"/>
<path fill-rule="evenodd" clip-rule="evenodd" d="M20.9375 53.3402C22.1844 52.8728 30.0007 49.8947 39.4806 49.7236C39.5728 49.7217 39.6461 49.6511 39.6446 49.5658C39.6426 49.4805 39.5667 49.4127 39.474 49.4141C29.9335 49.5861 22.0672 52.5826 20.8117 53.0533C20.7261 53.0853 20.6849 53.1758 20.7195 53.2549C20.7546 53.3341 20.8519 53.3722 20.9375 53.3402Z" fill="black"/>
<path fill-rule="evenodd" clip-rule="evenodd" d="M22.6647 61.4191C30.1673 58.5767 35.3142 58.4608 38.3025 58.5644C38.3947 58.5677 38.4726 58.5008 38.4757 58.4155C38.4792 58.3303 38.4069 58.2582 38.3147 58.2553C35.2999 58.1508 30.1067 58.2652 22.5378 61.1332C22.4523 61.1657 22.4115 61.2561 22.4467 61.3348C22.4813 61.4135 22.5791 61.4517 22.6647 61.4191Z" fill="black"/>
<path fill-rule="evenodd" clip-rule="evenodd" d="M23.9451 69.3848C29.3885 67.5158 33.5585 67.0978 37.0301 67.1223C37.1223 67.1228 37.1982 67.054 37.1987 66.9687C37.1992 66.8835 37.1249 66.8137 37.0327 66.8128C33.5294 66.7878 29.3218 67.2086 23.829 69.0946C23.7424 69.1243 23.6981 69.2133 23.7302 69.2934C23.7628 69.3735 23.8591 69.4145 23.9451 69.3848Z" fill="black"/>
<path fill-rule="evenodd" clip-rule="evenodd" d="M49.9058 41.7621C48.7486 41.9152 47.1009 42.1593 45.9839 42.7619C45.1949 43.1874 44.6652 43.789 44.6978 44.6427C44.737 45.6623 45.363 46.3281 46.2849 46.7399C47.6056 47.3302 49.5503 47.3863 51.1471 47.2383C51.2388 47.2299 51.306 47.154 51.2968 47.0692C51.2877 46.9844 51.2057 46.9222 51.114 46.9307C49.5763 47.073 47.7024 47.0296 46.4306 46.4614C45.6238 46.101 45.0661 45.5243 45.0319 44.6319C45.0039 43.9002 45.4756 43.3942 46.152 43.0295C47.2338 42.4462 48.8316 42.2172 49.9527 42.0688C50.0444 42.0566 50.1075 41.9784 50.0943 41.894C50.0821 41.8088 49.997 41.7499 49.9058 41.7621Z" fill="black"/>
<path fill-rule="evenodd" clip-rule="evenodd" d="M56.0475 37.7446C55.3104 37.6824 53.9031 38.1328 53.9235 39.5204C53.9429 40.8401 55.0894 41.3409 55.888 41.3103C56.514 41.2862 57.0106 41.1242 57.3544 40.8485C57.7079 40.5649 57.9071 40.1607 57.9157 39.6466C57.93 38.7825 57.3483 37.8544 56.0475 37.7446ZM56.0169 38.0527C57.1048 38.1446 57.5933 38.9192 57.5811 39.6419C57.5755 39.975 57.4762 40.253 57.2887 40.4679C57.0009 40.7981 56.5135 40.9767 55.8738 41.0012C55.2142 41.0266 54.2739 40.6064 54.2576 39.5161C54.2408 38.3693 55.4077 38.0014 56.0169 38.0527Z" fill="black"/>
<path fill-rule="evenodd" clip-rule="evenodd" d="M78.3791 83.322C77.8942 83.0888 77.5901 81.5976 78.4086 81.0807C80.0339 80.055 82.2944 78.9243 82.6015 78.912C85.2292 78.8069 105.412 78.1827 124.247 77.8364C141.747 77.5146 158.083 77.466 158.083 77.4722C158.174 79.4491 158.414 83.0657 158.294 83.6952C158.29 83.715 143.822 83.7277 138.77 83.8742C126.603 84.2276 114.612 84.3213 102.449 84.2931C97.8344 84.2827 84.6053 85.07 82.9952 85.0087C82.7024 84.9979 80.0069 84.1055 78.3791 83.322Z" fill="#FFC05E"/>
<path fill-rule="evenodd" clip-rule="evenodd" d="M158.072 77.4709C158.119 78.5531 158.261 83.6863 158.275 83.6981C158.315 83.7311 164.49 83.732 164.69 83.5134C164.855 83.3334 164.968 81.9605 164.907 80.4222C164.856 79.143 164.669 77.6056 164.446 77.4666C164.254 77.3465 159.311 77.4077 158.072 77.4709Z" fill="#FD7F42"/>
<path fill-rule="evenodd" clip-rule="evenodd" d="M82.712 81.2738C88.0876 81.1297 102.048 80.7485 107.426 80.6788C120.089 80.5148 155.75 79.8901 158.035 79.8255C158.127 79.8232 158.2 79.7515 158.197 79.6663C158.194 79.581 158.117 79.5136 158.025 79.5164C155.739 79.581 120.083 80.2062 107.421 80.3697C102.043 80.4394 88.079 80.8201 82.7024 80.9648C82.6102 80.9671 82.5373 81.0387 82.5399 81.124C82.5424 81.2093 82.6193 81.2762 82.712 81.2738Z" fill="black"/>
<path fill-rule="evenodd" clip-rule="evenodd" d="M82.8246 83.1921C88.2002 83.0479 102.161 82.6667 107.539 82.597C120.202 82.4335 155.863 81.8083 158.148 81.7437C158.24 81.7409 158.313 81.6698 158.31 81.5845C158.307 81.4992 158.23 81.4318 158.138 81.4347C155.853 81.4992 120.196 82.124 107.534 82.2879C102.156 82.3576 88.1921 82.7388 82.8154 82.883C82.7233 82.8853 82.6504 82.957 82.6535 83.0422C82.6555 83.127 82.7324 83.1944 82.8246 83.1921Z" fill="black"/>
<path fill-rule="evenodd" clip-rule="evenodd" d="M112.986 78.0663C113.284 78.2232 122.019 77.867 122.301 78.015C129.635 81.8638 131.247 82.7675 131.372 86.3553C131.562 91.8528 127.453 91.6238 127.013 91.6101C125.351 91.5583 123.982 91.6323 121.791 90.1542C121.7 90.0925 123.847 89.0937 125.81 87.7608C128.716 85.7885 130.447 84.0613 130.137 84.0627C124.961 84.0839 114.599 84.295 114.491 84.2248C110.621 81.7036 107.637 81.2786 107.364 81.2617C105.276 81.1307 104.089 81.3766 103.316 82.1526C102.497 82.9743 102.429 84.1894 102.423 84.189C102.066 84.1645 96.7755 84.3124 96.4001 84.4245C95.7909 84.6069 92.3035 87.9587 93.2249 89.8263C94.597 92.608 98.437 91.5305 98.4069 91.5682C97.4646 92.7395 98.141 94.397 98.767 94.9741C100.007 96.1176 102.371 95.8288 104.099 94.9482C104.185 94.9044 104.769 97.6343 107.966 97.5575C109.566 97.5189 113.592 95.6295 113.614 95.6517C114.949 97.0364 121.864 103.911 124.652 105.707C127.773 107.715 131.385 109.427 135.186 109.808C136.875 109.978 138.568 109.822 140.525 109.223C140.688 109.173 144.439 114.22 145.233 114.945C145.402 115.1 151.071 112.274 155.682 109.343C159.357 107.007 162.476 104.227 163.538 102.712C163.63 102.581 159.765 99.314 159.238 98.5271C158.39 97.2592 156.524 92.1779 155.26 89.3801C152.434 83.1279 148.085 76.6326 143.389 72.5896C139.566 69.2981 123.972 65.723 118.268 66.4241C111.752 67.2251 106.792 70.5637 101.797 74.3023C100.244 75.4651 97.0409 78.2006 99.0334 80.244C101.763 83.0422 109.265 79.8185 112.986 78.0663Z" fill="#FCE9E6"/>
<path fill-rule="evenodd" clip-rule="evenodd" d="M98.9728 79.9454C101.808 78.8028 102.745 75.8774 102.745 74.0771C102.745 73.9919 102.671 73.9226 102.578 73.9226C102.486 73.9226 102.411 73.9919 102.411 74.0771C102.411 75.7879 101.534 78.5757 98.8398 79.6617C98.7553 79.6957 98.7166 79.7871 98.7532 79.8653C98.7899 79.944 98.8882 79.9798 98.9728 79.9454Z" fill="black"/>
<path fill-rule="evenodd" clip-rule="evenodd" d="M105.03 81.7808C105.63 82.4904 106.471 83.4322 106.909 84.2421C107.988 86.2389 107.207 88.2785 105.229 89.3965C105.15 89.4413 105.125 89.5365 105.174 89.609C105.222 89.6821 105.325 89.7052 105.403 89.6604C107.535 88.4552 108.371 86.2554 107.208 84.1036C106.761 83.2767 105.905 82.3142 105.294 81.59C105.237 81.5231 105.132 81.5108 105.059 81.5636C104.987 81.6164 104.974 81.7134 105.03 81.7808Z" fill="black"/>
<path fill-rule="evenodd" clip-rule="evenodd" d="M102.424 84.5263C103.153 85.9172 104.37 87.1012 104.855 87.6063C107.493 90.3507 110.529 92.7489 113.252 95.4161C113.315 95.4783 113.422 95.4811 113.489 95.4222C113.556 95.3638 113.559 95.2658 113.495 95.2036C110.774 92.5388 107.74 90.143 105.105 87.4008C104.631 86.9071 103.438 85.7513 102.726 84.3916C102.685 84.3148 102.586 84.2827 102.502 84.32C102.418 84.3572 102.384 84.4495 102.424 84.5263Z" fill="black"/>
<path fill-rule="evenodd" clip-rule="evenodd" d="M104.413 94.7107C104.803 94.5524 105.937 94.1463 106.319 93.9715C107.442 93.4584 108.742 92.7969 109.718 92.0619C109.79 92.0082 109.8 91.9106 109.742 91.8442C109.684 91.7778 109.578 91.7679 109.506 91.8221C108.549 92.5434 107.273 93.1903 106.171 93.694C105.791 93.8673 104.666 94.2702 104.279 94.4271C104.194 94.4615 104.155 94.5524 104.193 94.6306C104.229 94.7098 104.328 94.7451 104.413 94.7107Z" fill="black"/>
<path fill-rule="evenodd" clip-rule="evenodd" d="M98.8673 91.1659C98.793 91.1861 98.741 91.2525 98.7482 91.327C98.7517 91.3647 98.7675 91.3967 98.7965 91.4236C98.8169 91.4424 98.8515 91.4683 98.9127 91.4693C98.9183 91.4693 98.9509 91.4688 98.9998 91.4504C99.122 91.4033 99.7348 91.1423 99.7964 91.1135C100.295 90.8832 100.771 90.6118 101.249 90.3465C102.615 89.5884 103.976 88.8011 105.233 87.8913C105.305 87.8386 105.318 87.7415 105.261 87.6741C105.204 87.6067 105.099 87.595 105.026 87.6477C103.781 88.5495 102.431 89.3293 101.076 90.0813C100.606 90.3423 100.138 90.6099 99.6466 90.8365C99.5865 90.8643 98.9906 91.1187 98.8714 91.1644L98.8673 91.1659ZM99.0349 91.2073L99.0395 91.212L99.038 91.2101L99.0349 91.2073ZM99.0303 91.2031L99.0339 91.2059L99.0329 91.205L99.0303 91.2031Z" fill="black"/>
<path fill-rule="evenodd" clip-rule="evenodd" d="M119.896 86.9324C119.732 89.0823 119.289 90.679 118.587 91.6623C118.536 91.7334 118.557 91.8296 118.634 91.8767C118.711 91.9238 118.815 91.904 118.866 91.8328C119.59 90.818 120.06 89.1732 120.23 86.9541C120.236 86.8688 120.167 86.7948 120.074 86.7887C119.982 86.783 119.902 86.8471 119.896 86.9324Z" fill="black"/>
<path fill-rule="evenodd" clip-rule="evenodd" d="M114.777 84.6544C115.679 85.4158 116.549 85.9478 117.492 86.8698C118.783 88.1306 120.306 89.6049 121.369 90.1147C121.451 90.1538 121.552 90.1245 121.595 90.0487C121.637 89.9728 121.605 89.8795 121.523 89.84C120.482 89.3405 118.999 87.8913 117.736 86.6569C116.786 85.7287 115.911 85.192 115.003 84.4259C114.935 84.3685 114.829 84.3727 114.767 84.4358C114.704 84.499 114.709 84.597 114.777 84.6544Z" fill="black"/>
<path fill-rule="evenodd" clip-rule="evenodd" d="M117.892 86.8444C118.473 86.3412 119.778 85.1841 120.147 84.5815C120.192 84.507 120.164 84.4128 120.085 84.3704C120.004 84.3285 119.902 84.3544 119.856 84.4288C119.498 85.013 118.227 86.1306 117.663 86.6187C117.596 86.6772 117.592 86.7752 117.655 86.8374C117.719 86.8995 117.825 86.9028 117.892 86.8444Z" fill="black"/>
<path fill-rule="evenodd" clip-rule="evenodd" d="M117.521 75.875C117.886 76.0154 119.175 76.8678 121.958 77.9109C122.043 77.9429 122.141 77.9048 122.176 77.8256C122.211 77.7465 122.169 77.656 122.084 77.6244C119.536 76.6694 118.242 75.875 117.764 75.6413C117.654 75.5876 117.576 75.5612 117.529 75.5556C117.455 75.5466 117.404 75.5674 117.369 75.5928C116.776 76.0286 116.244 76.2981 113.11 77.7036C113.027 77.7408 112.992 77.8331 113.033 77.9104C113.073 77.9872 113.173 78.0193 113.256 77.982C116.34 76.5987 116.939 76.2953 117.521 75.875Z" fill="black"/>
<path fill-rule="evenodd" clip-rule="evenodd" d="M116.092 72.1645C116.615 73.0583 117.144 74.6885 117.27 75.7378C117.281 75.8226 117.364 75.8838 117.455 75.8744C117.547 75.865 117.613 75.7882 117.603 75.7034C117.473 74.6211 116.926 72.9391 116.386 72.0171C116.342 71.9421 116.24 71.9139 116.159 71.9549C116.078 71.9959 116.048 72.0896 116.092 72.1645Z" fill="black"/>
<path fill-rule="evenodd" clip-rule="evenodd" d="M143.877 107.43C142.793 108.092 142.087 108.494 140.931 108.952C140.846 108.985 140.807 109.076 140.843 109.155C140.879 109.233 140.978 109.27 141.062 109.237C142.239 108.771 142.958 108.362 144.061 107.688C144.138 107.641 144.159 107.545 144.108 107.473C144.058 107.402 143.954 107.383 143.877 107.43Z" fill="black"/>
<path fill-rule="evenodd" clip-rule="evenodd" d="M82.5236 77.4773C82.3667 78.5595 82.4798 79.384 82.5022 80.2165C82.5598 82.34 82.7706 84.4485 83.2041 86.5343C83.2214 86.6181 83.3095 86.6732 83.3997 86.6567C83.4903 86.6407 83.5499 86.5592 83.5321 86.4758C83.1022 84.407 82.8929 82.3155 82.8363 80.209C82.8144 79.3911 82.7009 78.5812 82.8547 77.5182C82.8669 77.4334 82.8027 77.3557 82.711 77.3444C82.6199 77.3331 82.5358 77.3929 82.5236 77.4773Z" fill="black"/>
<path fill-rule="evenodd" clip-rule="evenodd" d="M157.885 77.7177C157.909 79.068 158.095 82.1423 158.095 83.4936C158.095 83.5789 158.17 83.6481 158.262 83.6481C158.354 83.6481 158.429 83.5789 158.429 83.4936C158.429 82.1414 158.243 79.0647 158.219 77.713C158.218 77.6277 158.142 77.5594 158.049 77.5608C157.958 77.5622 157.884 77.6324 157.885 77.7177Z" fill="black"/>
<path fill-rule="evenodd" clip-rule="evenodd" d="M78.5568 80.9922C78.5584 80.9856 77.5081 81.5609 76.8668 81.9722C76.7548 82.0443 76.5378 82.1532 76.5536 82.3958C76.5689 82.6304 76.8312 82.728 76.9086 82.7619C77.4536 83.0003 78.2762 83.3334 78.6276 83.4498C78.647 83.4559 78.5894 81.5303 78.5568 80.9922Z" fill="black"/>
</svg>
